<mxfile host="app.diagrams.net" agent="Mozilla/5.0 (Windows NT 10.0; Win64; x64) AppleWebKit/537.36 (KHTML, like Gecko) Chrome/128.0.0.0 Safari/537.36 Edg/128.0.0.0" version="24.7.10">
  <diagram name="Page-1" id="ddn0x5wgFaViNGrKftgm">
    <mxGraphModel dx="1336" dy="721" grid="1" gridSize="10" guides="1" tooltips="1" connect="1" arrows="1" fold="1" page="1" pageScale="1" pageWidth="850" pageHeight="1100" math="0" shadow="0">
      <root>
        <mxCell id="0" />
        <mxCell id="1" parent="0" />
        <mxCell id="_W-WZNdu4DOHJXc050we-1" value="" style="shape=image;verticalLabelPosition=bottom;labelBackgroundColor=default;verticalAlign=top;aspect=fixed;imageAspect=0;image=data:image/png,iVBORw0KGgoAAAANSUhEUgAABYUAAAKXCAYAAADdDCXHAAAAAXNSR0IArs4c6QAAAARnQU1BAACxjwv8YQUAAAAJcEhZcwAADsMAAA7DAcdvqGQAAP+lSURBVHhe7N0HYBRl3gbwZ3ezyaZueq90CL1XpQsIimLDXvDE7nGnnqd36H16nnp2Pbt4inoWioIiUkQRBOm9k7rZdNI2PbPfzOxsdjfZJJuwgYQ8P2+Oqe+8U3fnn3f/o0pKSjJDFB0Tg/vuf0DqxRuvv4Ysg0HuJzrfdDod/rb4KXh6euJf/3wGBQX5yhSge48euPc+y3n75huv4dTJk3K/JCQkFH/56+Oorq7G/z21GJWVlcoU95Dqc/Mtt6FfcrI8fPjQIXz83yXy+s61kSNHyf/+/vt2+V93kPZ7a/dZ3379cOcfFipDrfPeu2/jyOHDylDHJO0TiTvOJZVaDb+Lr4Q2Ml4Z45qa7HSU/bwcZkFQxhBRa3h7e6OiokIZahtev0TUGu6576gQc7E/fCM9lTGuMWVXw/BzqXjfkR/5iNxGOq8l/EwlciRdG9bnxraSrgvt6EuhDotRxrhGyDOgZtt3vC7IZZqgoKAnpZ7S0lKkpaZhz+7dSEtLlScSdQS1tbVQqVTo3acPunXrhl27dqKurk6eFhwcXB8Q3fH7dpwpLJT7pYDtH+5aiMDAQPy49gecOH5cHu9OUh327t0j3/TT09Lwv88/let6rknbf+3869F/wAAUnTkDg5v+oOPh4dHq7SnIz0d8fALCwsJw8sQJVFRWICAgQJnqyGDIRG5ODoJDQuRgsHScOjppn0jccZy9+46AV48BypDrNH568eSrRa34gd8cQRiLyV8+g6TcZUhNUyljLYSLHsItz49GyZdbUSReW+4mCPEY+srruOSOKzH4asdu0FVjoN65FtlFbV9v4PXP49q/3SyXpTIEYdSLt8BHLDMr8FrMfcfS35ryreW5s44NCYlj0S0wDUVtLFNIvKZ+29q6nU2xL9ud29xW/gF6+PkHoKK8XBnjKDgsXL4Wq6uqlDGto9Vqz/oabvfrN+5a/PWlWxG4Zy2Ol7R8TIS4cRiuT4PRhXnbg319jxaNx4IP/omh4r1nT6ZjfYTRi/Dyk2OQv3ILjO1y70nAnH++gbtvmIcZl1/p0F1y2RhoXdyfTYma9wL+78+3yGV5GIJx1f8p26y/rlXHy8panjvr2NDZnhsOx7aN29mU1p7n7akz3HdC+vogsEfrgwyefhqYxa/NFXk1yhjnLrTrp33P3aavq450Xkva89yWzmtJh/9MFcadt88le7znd61rw/rc2FYePQZDk9hXGXKdyld89havC6EwWxnjmoAr/opL/ng1orT7kXq0VBnrGnPccMTqDSgVj6s5bg4mPX8VdPt+QX47Hef2XF97lW02x6DvU09j7PxZ6D1nZqMuIO97GNSX1a8vT2/rl9ZtXy93sN82tTJOdvLkCbkj6mh+2rhBDuzGxsXhvvsflFsBN0WaJs0jzSstIy3bXgRBwIrly+RO6j/XRioBYSloLnVSvzTufDGbzfjss6V46d/P4z9vvo5XXnoRy5d9jZoa24OI1C+Nk6ZJ80jzSstIy3YVKq0ndOIXYGdqczNRdXQXKvduRvXJ/RDKG38oS8tKZXR0RSsfx3+vucmh+/YbYMBzi5DUxutFCnYPuTwS6W/cgI+vfQR7f/sS34j/7kl1+DhziRS8HvLyx7hsxE58c9UNDnUc+PynmHSRe65pKeh6xXNzEagMdzTq1Lbvw/bg6eWFuKTuCBG/jDckjYtL7CbPc750tOtXesh6fPFcRCnDBOR+/zj+eMeNDt0La4DJi/+MYW2+94zDrJmROPje9Vi04GF8t+sLPCv+uzqjLfeeBMx+5hM8PHQnnr/teoc6TnnyM9wx2k33ng5+bqgz2r4P3a2j33fUWhWC+joPCJ85XI6CvWVyJ/U7Iy0rleGKC/H6cee51tJ11ZHOawk/U88/3vMteG20gocWHj2HKAOOqrPTUX7od5Tt/AkVx/agzlSiTLGRlxXLcJUUsIweFAHj3v3wv2QmYlrxXC4HFx+fDn9luL01XJ8qYxU2Lfwnjma4IyDcfmVblfzwHL6964FG3Y7tqibX1x772H5dHeOKJGqBFHD9aMkH9YFhKS3EdfNvQFK3bsockPulcdI0a0BYWsYdwdoRI0fhnvvub1MnLdse7APCVh0hMGwqK0NmZqbcL7Wm/nXzLygsLJCHJVK/NM7a2luaV1qmK9FGJUHl2eBLhvjhW3VoO6pP7IVKo4EmMBTmShMqD24TJzmew9KyUhmdUeHSlcjAUCROVEa0VrdYBCAbRenK8Fno/penMQCr8e2D/0OR2vZxWPTZI/hmpRFxV1yHQDfcP6h1CvJykZmagljxy7j9F3WpXxqXmXpanud86crXb2dm+GolDmEIBo9VRrRWQizCxXtPjht+jDPigacxWbz3vPDY5zDa3XuMyx7G898bkTxnPqJ47zmnOvp9xzfKExpP549tvrGekG4zUif1OyMtK5XRVrx+Oi9+pp5/PGc7po58bWgiEsSLo8E9W7wuyvdvRcXRXfJ14REUBqGiDKZ9WxpdF9KychmuGj0TPSMPIGt1DkrFp6Po0cp46hLqcwoTdQZq8YN00uQpmDxlan0eq4akvFYbN6yXWwi7q/XuJTNmyl1brP1hjdy5k4+PL8ZPmOAQELYntbr9dfNmlJeblDGt15acwk2559770aNnT7lfSishtRDujNyVU9h3xBR49RikDFnU5qSj+tQBeA+fLH7BtTu3hTrxxNcoAzZVJ/fBtKPpVvBSi9opXy0E3rwRP/3i+CAppY+49V5g89UvIUW8piwtWWcj0O58klriWpeTWtQOe/VpDIyxTDebdzVYNhrp30Rj4NwoedovVy1H0GtPI37HE/jmM8forX29NqRf12hZqdxTSHRc38638PHzWxvVUxr/0Zex4rjhSH/0z9gFqTxLv9Tqtdl6N7N/nGlUllIniaVe4nrf3In4e231k/ahZRtt46TW0yu2jhbHub7dkvp1tHY7nRwf6zQr+7Ll8hrsZ4lc76WQ19PwuErpNy67PMuyDd0ct1ciLdvwPHBFSFiE+KU8Sf5SLn1RkVpsuOML+tnm9jwn16/c2mc4Djz1J3yL+Zb+93diwILZCFf2rdTi7j2DNM02Tmrh9+yyNPGcSMBlzz6NKZHWc2I3Pr3939glnRNy2TE4sCYKU2ZJ58RuLH3KgEuaWMcH25T7gLycbZqkfn329U2bgDs/FK+t92+oX9ZK+pnuKwvQoC6OZTqss7XbcdsyRP/raQzY/YRcL3tSS0VrvSz7zXFZqdwdSHJc3563sOiNLY3qKY1/6JtY2zZbj5HYL7WAarbedvVouH+caVSWUidJ/X538dx45vfR4jjXt1vicGxbs51Ojo91mpV92XJ5DfazRK73V5DX0/C4Sj/Ffnim0bINCY7bK7Gen63RUe87ESP8mk0dUXTUUnZgH+ffjSVFJyuRs6PpP8Jbj+eFcv2c3bkrztuKe669jnheS9rj3LY+i3X4z9Rmzpv2/1zahiFL7uY9X2Rfdle4Ns4mp7B20ARoEi3vLbKqNqai4vhe+I+eDrWXjzJW1MR1UZd6CDX7NitDzYu5+1UMjViPnxfvRvRTj6BnzidY9dZOeZqlleoAZD/zTH0LVus44/v7EbVgGgKU4yC1gv1p51DL/Gtz0WvGQHm8xPjh/XJrWIkllcIj6BVlHd6P3Xe9B4NYTv36lhxA5G1T68uWlv896zJxmm2cw/qU+jUqe+/H9dsisZRvK0NiK6ftZTdXb2m7rctG7nsem1Y4/wup/b4+Amlbne9jafmW92GEeAzCxWMQ6TDNyn5dLd+ZiDoQKci7Yf06/OPJv+OTjz/Cb1u3yC94kzqpXxonTZPmcWc6h8LCwvr0Kq3tpGXdTQr2Sjl4rQHnhp007WwCwu4mBYH/9vhjctdZA8LupPZu/OOPuoIceITFOH75lTj5kJc4K6MtbAHBG+vTJyx5ZBUC7l0qp0+wBhwHGN+2S68QjQmv2reiHYoBsSvlaR9f+wpO2z5vGun+l4WIw26kblJGNFjWGhi1rm/JVY/jQNRC3PzIWDnNwYpHV6PIbMT+R26oD5g602K9W9HiuGFZ9nWyicSAK4Cfr7bsR7ml8b2L0P30/xzqbAuOur7dzWnL8bEPCDckB8ufm42SN23ng7Qt+suvRHekImVHNvQjRteXLa0/aUQkir9ZLm7D+CaXbUu6kIK8HPFLuaUFh7sCM+5wfq7fSEyeA3x0+w3yT07llkUL/owRaZ/jmadWI1c8vzY8eb38MGR9aJssnhO2n6hG4YZn7VsiDcHkqJXytEULXoLl66zzdUg/F5cfqMWHr1zxodZapjQ9bOa8tv+cvP7h0Fbmg0+uQviCT+Wf0rZpO5q594x4YCGSsQd7628bjstaH5Kt63vwtsexUbwGX7pvnPyTV/v9bH14dqbFereixWTDsuzrZOP6uWHh+nY3py3Hxz440FBz59gIpGDX7myEDR1dX7a0/mFDI5G3Zpm4DRPcdn521PuOh/fZP7KdTRmd8fppimvnbmuvK+c6ynkt4Wdqy9rlcykxjvd8J3htNE+l81P6bGrzs+EZEecYEJY0cV04K8MZs3k4ogcBpft2o0RlQNa+HGDQYJdSSKhyVuGnZ9ajxJyN40/fbxfsjEDPQTnY9If75dQIm37IRuRtd8plWoOZUuDZmjrh57XhGPrUZQioX6e4/ExgtzLdunxs+rdNrM+iYdnf/OFjZA+6CSNGWcqVtnXk41NhWmJL2yCVLaXMaH3Zz+FExE2Yc/dwZQ6J83q3Jh1HQ872sWv7cAB6Rv4oT1u18H2HgHBDZ/8Ng+g8qKqqkl+K+NWXX+D9996RO6lfGidNczfpJXb/eeP1NnXSsgSYTCa5o2acxQfG2clC0WmlV2TJMXuzpQXtxCsxIHo3Nv/rV2WqkgIiejaG2KWAyNhmm24VOPcZ3PLlJw7dhGFiWQ1aqjos22B9anU6dq3YDQwb2brAokv1dtzuJrlYp4wVtjQUhVt3ohjRCLRluGnELdt9FsfHqW6Z2HO1Y+tp+22R+6OHI8m6Xd1GIz46G+lbU1tcti3Er45KXyfQztfvoVW2n50aft+JPEQhytkvA8fOw+SIPfj0NVvrEPmn3xGzMcvubwyHdjZuPdLkOhIy8b34AGrfyqnZOrjMCKNdTMWSb/Amy3rOYjvCZz2Dlz9Y6tDdMFgsq0GrJYdlG6xPrU7Dt6v2AINHte4h06V6O253k1ysk8vnhsIt230Wx8epFs4xuT9iOIZZtythNAZEZOPA7yluPz871X2nHVww109TXD13W3ldOdWBzmsJP1Nd0R6fS7znN8Jro23a47oYPRiROIATyy3pH4t3HnBLConsNd+iRAlEWsoMh3+8OKCkqtj9nx3yNEnx8h+RHTkVve3W2eTyzYkfisjIHJxYbSlbpdqJHQsfrG+hjHgjjt1lyd9r5XLZDeqtUhlwZM2BRgH0luodMONRXPbOaw7dxCtilKkucnUf7rZNb47tSiIionNCqGj8ogxNSIT89mSh0vElMWZTsdLnyFkZbSEFgPfvGoqLvv5UDto2bJkaHBstfugNq58udbd9fTfixQ+7gNhEZS7nLW6dvWiucUtVJ8tmZeGM0itLz2p1YNG1ereizBbr1No8x+7Z7rM5Ps6oU9PlwLaUYqS+vOfnQK9Mx+ltYrUiET/WUnbw2OHQZ+1EymkXlm0lKaebtcWGs5xv58v5uX5dbxkXExMlnhNDceOSz+oDOq8uuRv9xXMiPMaad9FZeU2vQ52RJj+Aym9pt5b55ByEKdPbQnrQ/nHvkPp6Nmyl1PbtsPyE1Np6yNo1brXkZFlxRJbSKzMYWv2Q6Vq9W1Fmi3Vy/dywcM92n83xcabFcyxtGw7kRGLASEvZMSOHIyxnJ3aluff87Kj3ndqKVgRWm+BqGRfU9eOEu8/d5nSU81rCz9SWtd/nEu/5DfHaaJ65snGqH4/QSFTnZKCuwrGRVV2pw9NDPWdlOBM7dACwb6+tJWn6bmRnA5FDnb8A0jU5KHU4yWz00eHiuTQQw959vT4oevm7NyNKXL9vdKwyV9PLNys6Av7IRWkTzz2qDIMcsDWPWmBb9xPTXH+BW7aUc9lOljRsH/Rtud5S+gdr615r17BVckvcvQ8ZFCYiOsdqcix/ibXnER4HtT4ElTs3oPr4HlSfPoSKPT/Lb1xGbY0yl42zMhxloqiJDwIpkGgfgEx5/mY5YLvkqreQMWyhHMy7+YuH6luomg2r8M1VNzQK8LYlT+y51Gy9T2eiBJEIbOKvwlIahUlfPI8hiWf/IN7e3Hl8LNv9MW69N1pOdyGVI6UTsT6GWVswW1JIKKkjdmyzBINbWLY1pC/j0pdy60/47H/ad76/qJ+b6/fsmLNXObzh3Nq1JdeeRPqZ5x3vf4JXFkTJP0uVypJ+UpunTHeUiZwcpbcB6aHS/mF01xs3Wcq67S0cGrxQfrB76f1F9a2V3L0d50qz9U7LFB9XIhHRRKMQy75+AbPjOsG9x43Hp6VzzNqazfJzYuVnxLu3WQIDrTo/m9aR7zvlOY3vI1Y1pXWoLbd0Un9TmiujIzkX18+5urd0hPNaws/U8/i5xHu+U7w2mifkG5U+G8/IBPmli6btP6LiyE5UnjyA0h0bYNq1CeaaamUuG2dlNGRNHaEafLNdcPFRS55aF1NItIXZuK4+tcTZBEdbS9reEW+/istuC5dTMUjr/ObpdY6B3k7CnfuQQWEicspdL5mjxmqMKTBXN0hzolJBlzwanj0HwVxbK7eGkD74dcMni9+OtcpMFtKyUhnNkYJ3ReJ3AVtrUZug2EjAmFmf6sBKrd6Kn6692RIcxlAkTgQKM8WvyfbpAs6FhuuLj4Ze/LruUqoHRUv1lrZ1zzfZiLvCPveuTfCNcxFnv0431KlFbViH24/PxJGIy1qNb6+2vHROJtfDzqbfkSGtc6KUOmI39i9NtYx3ZVkXNPyCbtVRvqifi+v3bBgM4oVv/5NLdxg7Csk5q/HC7ZaXw8hiYpy2ypEe5IxiFWwth2yioyz3Humhzp5avQUfLLjJ8hCOIRg8tp22oyUN1ydvY+t+qt5SvaVt/X5NdpNvm4+5ei6S7dfphjq1qA3rcPvxceUc27odh6R1jpV+RrwHP36lXEetOD+b0tHvOyZjNeqqnQeNyjKqoBI3W+qkfmekZaUy2pUbzlW3Xz9OnNN7y3k+ryX8TD2/n0u85zeB10az6nLEg9Ew0CteF36DxkPXe4h8XUgthLXB4fAbPR0qracyk0JcVi6jBforp8upI3Y1CC5aAqVnn0LCmeIscV9HimW3lK6hLRq13G1ASpWRvR4/32V7aZ6ldbGLGta7hZbJ7cXd+9Dx7kdERO1O+mtu5REnOX7ED3uPiHh49RsBrwFj4ZmUDFXDlwmIpGWd/UW4oVPbdst5faUXxllJL5YbOMyWY1b6qb99q2CZ/UvYNi3HgaxIDHjQFjy1LNNOrWit67tmvDwov0jtiqHArt+bfUFaIy7Uu3DpG+LXoNm4zOGlbEDg9c/j8rlRyHhTyX18tnVqoVWyrK3raI/jYxdkll9EeK9YDztSQD11VyQG3jcH+ob1a2FZV1RXVSGjwRd0K8sX9dPyPOfLubp+XdawFdLWZdiYE4nJC20PoNJPLF8625ZIdg+D8st4FgyxDDixY+ceOS+p9GIeK2mZ6YNt+QYtdbK1vpLZv0SqvbajKdb1XT5BHpRfqjNH3Ma925t9WU4jLtTb8NUb2Cjeex52eEGP5c3qj8yKwqH3ldytZ1unFlqoydq6jvY4Pi2cY1JwZe/eSEy5cw7CGtavFeenMx39viPUmHHmiPM/1gf180HIYD+5k/qdkZaVymg3HfH6acrZnruuXFf2zuN5LeFnqsX5/FziPb8JvDaaVluD2hN7lAE74nXhGZUInwGj4TvkIui6D4Ba56tMtJGXddKq3p70srLoQRGOqSOs7FNIpBthQgQih1vSEsgvObtjqi2Qqkz3j1aGW7JtDU5kR6DnHbaXoknpHOa8/Vf0iXPhc6q59cn1FsuebUl9IdW1z5OvOr4Mzi6Yao6bg0m3DbAMSJor21pvu7L7zmyQeqO9NKzX2e7DBly4uxARkbtVHt2JmuzW/1lRWkZa1hXqX16Rf74fcO/S+hyvtz43HOmP2l4GJs3z0ZtwyElrmcfS2lNOF/DgE3Lw9HJlHik9wAFlurvVry/Kksbitq+fwQDj2/j4+fpXnrvElXpL8+z5483YbLTNI3WXXQ45/UH9PjrLOlmCqED8fZ82ytls1dZ1uLKdDUkB5yEvf4zLr28cpZbOh81SwPd5pSz5XHgbGQ2C2tIfHCT2L7BzddmWlJYUo9DJF3Qr6cu7NM/5dC6uX1dZHpqA/nd+ZnnTv/STy8eekB9AH1Fy/0k/sdz4lF2LmlZSb3sJn0oPZk8q5clvZ38bh5p4+JTml37KKb2xXZrftoztxTDSPA+9D4f8hJZ5LPVsj+1oTv36xGtQWterS56R37K+6I0tyhyucaXe0jyrH78Jn4r3Hus8UvfwTMg/ha3fR2dZp4bnhjNtXYcr29mQFHyY/cwneGye8iRvx9VzTArsSOxfZtTa89OZznDfKTxaAVN26/+gJC0jLduezvZctXLlvJLmceX6aUpbzl17Da+rjnxeS/iZaiHtz/P1ueTqOVtfPu/59brytVF3ah+EvNanApCWkZZtkfxSNjh9GZn0ErWsfTnAoOnoG78Dvz+zHrjkkfr0Ev5rPkF2/bw7xXmBqNtfdwy+NkF+Qdvi53ECUzHRmhP3tnCceMau9W4zmltffdkRN9XXtWfOJ1j1luU+odr+Pnbvi0CvJ5T1Pj4A2eI5mq0EXM+m7PbUsF5t2YfWALmzl9qpkpKS2vHPxkREFw6dTif/667UGipPL/iNmwNtpGsRM+nLb9mWVY1/Zkd0FuQWvXZ/CLjQeXt7o6Li7AMkvH6Jzo7cussu4HIhc9d9R+OpRtQ4P/hGNvipcBOkgLBxS1mTqSfI/braeS3hZyq5oqtdG9bnxrOi9YTniEugDnMt2i0FhKt3rBUvEDf+Io0uSHIraTko/gxUffv2ZVCYiKgV3JlvWaVWQ9dnOHR9R8hfiJ2RvvBKP4+TWkOY7X/SRuQGlqBwNPZfraTLuMC5Kzgj4fVL1HaWAEEMfry9hZ/7XwDce99RIbiPN4L66uQgsTNSEFhKGSG1EDYLfNQ7l7raeS3hZyq5oqtdG24JCouk60LTfRA8eg6Rg8RO1VTLKSOkFsK8LsgVlqBwBE7c9R5bChMRucrdLYXtSS8I0EZ3gzY8FmofP3mcUF6GmtxM1GSddm8OUiJF0iMf46LhKph3vtXqFB2dlTuDM1a8folaZ9h9n+DGIeK9Z89brU4x0Bm1x31HrVXBL9oT3uFaePhYAiy15QIqcmtQllXdvjmEyamueF5L+JlKLemK14a7gsL1PLTQRCZCHRIFlbclj7C5wgShwIi67NQWcwgTWcXc/SqGDRavx70fy+kvGBQmInJRewaFiejcaI/gDBFRc3jfoQtRewWFiTq7dgkKE7WTC7vdPhERERERERERERE5YFCYiIiIiIiIiIiIqAthUJiIiIiIiIiIiIioC2FQmIiIiIiIiIiIiKgLYVCYiIiIiIiIiIiIqAthUJiIiIiIiIiIiIioC2FQmIiIiIiIiIiIiKgLYVCYiIiIiIiIiIiIqAthUJiIiIiIiIiIiIioC2FQmIiIiIiIiIiIiKgLYVCYiIiIiIiIiIiIqAtRP3ztWMzUC8qgIyF+EJ67dhCGCM6nExEREREREREREVHnon7hi61YU8wGw0RERERERERERERdAaPBRESt5O3trfQREREREREREXU+qv/85QbzwR9+lVsLC0IEbps/EMkqFczmMmw6bMLEfsD/Pt+DPWppui8unT0WkwJU8sJmc079NImg745HZ3RDmLi8Vd6hLXjhgEkZIiLqvHQ6nfyvSrzHVVRUyP1E1LlIf9Th9UtE5xLvO3QhsjaS4LlN5Ei6NqzPjUQdXX1Q+LszUXJAOPzwVjmIaw0Q90OuHPjdBX85IDyxeD8e3ZIjLxw5YCz+GJeDl1efQBYsy+O3tfhvuiVILE/vZ3IIHBMRdVYMChN1fgzOENG5xvsOXYgYFCZyzt9Xh1uGlWJoVCn8PeuUsUQdky0orB+CF8bYWgVL7IO6uxIbT7cGjqVA8JJif0SfKUW2XfDX0nI4AtaWyEREnZl9UJiIiIiIiIjIXqhPLZ6dngWtWlDGEHVc9UHhPfHj61v9WgO7lqCuH9Z/vgfGQeOxKNlPHt+QfYoIIX4Q/j02Qu6XyGkoGBQmoguANShcWVkp/0vOfbZ4FEYnhyhDFj/tK8bb3+UiJsRTGQMcTi1BjeDh0MJECrhLXVZWljLGPbTJr2DJlFq89foibDF3zs8jwTcGH789EJpPfsRNP7LVQVcQ+ocNmHfFKaybvQCn6/g9ioiIiKgzCPWtw7CYKvh7MTBMHVurgsINp9uzpZsw1QeB2VKYiC4kDAq7xllQ2Jn5T25DboUeKSkpypj2kzj2SzzT+zc88cGLSHHyGdZRRXQPxeAgFTx8vDFySk/cGJ2PB/64B9+V8TP1QicIWvT95yFMDHkdn971Kso60XlLREREREQdX/0TRlaxCfD3Q5QyLNP7IVTptUyPwJAgZURDiZHoV3oaL39uFwC2W56IqDMI8hYQH1iLSP86eGrMyljqzAQBiAoSP92KM2BQxnUWY68YjrceGYGX7+iB8cjBE88cYEC4y+iFwFgPlJ/Yx4AwERERERG5ne0pIzUbhxGO6yZYwsJyy98x4XK/LPUkNpX6YuK4noiUnrBFUqqI564di5l6pUm8XdBYbiVsvzwRUQcXq69FjNgF6AT5Jz/dQmrgrWVguLOT4mm/fTcBNyz/GtWdLLi24t8/oNs136PXLRsxZfFBfJ7Kn6B1FWr1IWy/tRs+eekXZQwREREREZH71D8dq9U5WPL5fhyOHYjnr5uOF+Z3R+7hXGWqNN2E71ZvxSZ0w6LrZ1jmGeNbnypCnb4P/8v0xaSZyjQ5bYRYHnwRrlcKISLqoKR8T4HejgE3D/EOGR1QqwwREREREREREV0YVElJSWwGR0RdXkJQDfy9nN8OTxdqUV6tYk5hF3XEnMJEREREREREZNO5fkdLRNROvDya/vtYc9OIiIiIiIiIiDobBoWJiESeGqXHCa2aQWEiIiIiIiIiunAwKExERERERERERETUhTAoTERERERERERERNSFMChMRERERERERERE1IUwKExERERERERERETUhTAoTERERERERERERNSFMChMRERERERERERE1IUwKExERERERERERETUhTAoTERERERERERERNSFMChMRERERERERERE1IUwKExERERERERERETUhTAoTERERERERERERNSFMChMRERERERERERE1IUwKExE5GYqT39ExCUgMTERod6CMtZCgBZ+IZGIjU9AQkI8YiND4eepUqYSEREREREREbU/BoWJiNxEEACNbyhiooKgLjeh0qxMUAjiDLrgSIT6CCjJMyLLmIPiOh1CIkOgg2PwmIiIiIiIiIiovTAoTETkNir4eHugLDcTxjwTahs1ANZA56lBbWkRSiqqUVNdheLCElSrvaDTKrMQEREREREREbUzBoWJiNymDqX5WSiqEJpo91uHiooqaHz94S3ffdXw8feFtqYCFTXyDERERERERERE7Y5BYSIiN1GrpVtq07dVaXrVmVzkV+kQHp+IpKQERPrXoTC3EFW8HRMRERERERHROcIoBBHROSLlFPYOjkSIrhpncrJgyDIiv0KLYCmnsIo5hYmIiIiIiIjo3GBQmIjoXFH7IiBQg/KCPDmncHVVJUpy81AGfwT4apSZiIiIiIiIiIjaF4PCRETniqBGo3fPScy8GRMRERERERHRucM4BBGRm0jpIVQaLbRaLby8NFCbzVBrvORhjRwNLoepHPANDoO/zhNaTy/ow8R+TSXKyuvkMoiIiIiIiIiI2huDwkREbqOBb1gMYmNjxS4Mvmq1OCz1xyI6yAtqtRmleUYUVqmhD49CdFQE9J7VOGPMQZnA2zERERERERERnRuMQhARuYkU9C3LTkVKSkqjLqOwyjKPuQal+TnITE9DWlo6Mo15KKk2y9OIiIiIiIiIiM4FBoWJiIiIiIiIiIiIuhDNNbdd86SuTIfBk8dhUN++6Ct2cWoDTlb2wPRZtnH6ssPIKApA8vRZGKwz4HRetVIE4N9vGmaNC0OpQY/RswajYXnSsoYSp69XIiLqEML9ms7pa6pWy52Hh4c8XFtbK/9Lzs2bGIvYcB9lqGnLNmXCVKtDUVGRMoaIiIiIiIiIzgU14ItefYFty5djxYoVWH+sDH69p+LK0Y7jooaPQTyKkWEwwTcmDv6CIBcgCP6Ii/GF6fhhZMhjGpcnLRurzE9ERERERERERERE54+cPsJ45CBK1ZZMEsUZBpSZzY3GmRCAAL3S7xuDOLFfpo9DjK8JhoxiZUTj8qzLEhEREREREREREdH5pQZMKLXFcxXOximKM2Aw+SJGiQrr42LgazLAFhNuZlkiIiIiIiIiIiIiOq8szXlbQa0uxcEjRiWFhJI6wpBR3zKYiIiIiIiIiIiIiDqutkVy0w0wSikk4qXUEUYcOcimwURERERERERERESdQZuCwmp1JgxGX/Qe0Ru+RgMy2UqYiIiIiIiIiIiIqFNoczQ33WCU/zUa0uV/iYiI2puXWod+PiNxRehCXBp6O+K9+0Kj8lCmEhEREREREZErVElJSWaln4ioy+ofWa30NZZbppE7nU4nD1dWVsr/knOfLR6F0ckhylDT5j+5DbkVeqSkpChjmqZTeSPaKxH9vIdDq/FGQV0eBLUaPl6hKKzNQVrZXpypzEKt4Pw4CnHX4vHFsxGuUiljbMzm3fj09n9jV4NfvQjCONz54VzkPPUnfIv54vIx+NHJfPYsy4zCXmfltaEOrrKU7UL9XJyvoaa2q/ltMmKjuO9WZ7Rtm5rTlv2c+/3jeHZZmjJ0YWrr+XfwvevxnsG1c5yIiIiIiC4MDAoTEYkYFHYfdwaFteJ/EdpYJHn2QQ/vgYj27oGUmuM4YNqGIqEQQV5R8NaFok4NFFYZkG86jdIKI8xmQSnBoi3BUPugsH1gs7myWg7KtU/QrT3LljS3XVburENLZbV2P1vmX4jwNU906sCwu/cLERERERF1XXwqICKiDqu7Zx/09ExGglcvBHiEoFpVh4K6fKg8vCCozEgtPwiD6SigUiE0oDciggfBzydaWZrIQq3egvfe34OwmfMwTHD8gwEREREREVFXxKAwERF1WGN9p8FXo8eBqh34sexrHK3ci8zqk/DxDESPwNGICxiEaqECh3K+R0FlJvT67ggLGaQs3XrC6EV4+YOlcvfKA6OUsZZWlo+9vwhD68biTvkn+ENxw4cvYnacewOMUfNewEvvv1BfrmW9n+CxeQkQhATMfkacNs9Wx5fuGyfP15D9dtjPZ90OKTBq7Z8trtM6n7Qed5Nar94hboNcD2XdVvb1tG633Nq1Pfbx1u04hChEKZto3bf267aynyZ1d4y2Px62bXDYn/Lx+QR3zLMrV9zvDuuxO15N7RdrmQ2PS7vtF4X9tjR3HhIRERER0YWBQWEiIuqwNBpvpNWcRFZtuviJpUGVqhqpZQewJ38NTpfugZdXEOJCRyImdIQ0M8qq86H28lWWbmgIblzyWX2gzdrVB0yloNuCIXJ+1T/ecSNeMEYhWZ5io1L9iveeWo1cOQdwW/LlNl8H47KH8eneSEy+fII8POLy2YBDygNx2kxg6W3X48Hb3sKhwQsbBeoabseD7+0GBs9tIog4BAPwRv187m5JKwVKL3t2IfD+DZZ9uiYKNzw7H1FyEFWqZxQ2PGmp50PvGzF54XzEYPNZ7uOmZCInJxIRMco+WjwbuUq95HUv/rMS3HWc9uCTqxC+wDLNFclDgY9uv6H++Lwibr48LJaTpxyH5vaLRePjMsIt+6Xx+WcfqLZq+TwkIiIiIqLOjkFhIiLqsASNCnXqOtSaa1EHs2UYtaiqMyGn7ChOF2xGbukxeGj9EBw6AH7BvcR5mvpo2yMHU6VAm3236I0tlsljRyE5ZzW+32oZNHy1EocsvW7UQh1EO157AhujFuKO+xbhhqjV+Ogrx5zLh9635ISVUiJ8vyYbYVGxyhQLafwHC27CB9uU/SC3kG1KNg78rpRvMCDP0uc+CaMxIGIP9trv04jhGFYfx7YEaSXqbS9h0eNfwHgu8t0mxCJcPBbWejm0Im5wHqgzvsCzC15yOQ/voVWfK9sgBaHthtO24YASlG55v7TXcWl8/tmfe/ZaOg+JiIiIiKhzOwdPXkRERG0jvUDOrJI+qlQQVECt2KnkYaC6rgJF5QYUV+agVqOG1jdM7EIgtPGTLSYmSuk7v9TqNHy7ag/6DxlqF2B0zmAwAlGxaJhF2T5lwatL7m7U4tnGCGO7N/60tU61r4uc5/f2t4EFn9a3WrWmaWgfsYiIyEaOQeyNiUGY2JNlmSCytSI+d+eB8/1icS6OS/Nacx4SEREREVHnw2/4RETUYdWppZbBZghiZ1YpQWKzJXCo9fCGv18sfPwiIajNMFXno7yqQA4et4UcYO0A6tMqvNdy2gI5gGnMtAtuWgLCjy8ejgNPKekPpDQGyrTzw7F16qIFD9enPrC2apbr+d5uJLciTUOrSS2ArcFWqfVtRIxdMN0WMD5350HT+6UjaM15SEREREREnQ+DwkRE1GHVqs1Qqz2g1mhglgLCGpXY7wGthy+CA/sgOmo8goJ6o6amFAUF+1FYdBy1qjYGr6QUAhGzMWusZTDm6rnNtLC1vbDMnay5ZsPXvIHV277AR41yzQLJc2w5eWfNjMShnZuVKQqpFaxdS9MRDyxsZjvamZwyYQgGK/vU/mVmln7HF7w5ct8+tgQ4hyBvzTJLGoi0TOTCVi+HgHGD88Chng2Wixk5XNzXbdDMfmlZ+5x79lw5D4mIiIiIqHNjUJiIiDosk6ocYb49EOqdKLcGhocO4UED0D1+FiLChqKqqgjZxu3Iy96JWpUZ2oAI1NSWK0s35Pwlb1InpS2Q0xk8tRrhSjqDW7HTeQtbJTfslCc/a0O6g+brMOKBpzEZtvytllyzs/HwA5YXfkkOGWPwiFiGlHIgfM0TttzBVluXYWOObT3TjW+Lw7bcveeSnILgMVuKiFfkFsxKTuSML/DM+0Z5P8rTFkRhozLt7PaxxHE/S/tKeqmb9UVpDY+1/bobTnv1yTnIfd/yYjdpmpTHuf+dlrKbPEda0Nx+adZZ7xfXuHIeEhERERFR56ZKSkoSn7KJiLq2/pHVSl9juWUaudPpdPJwZWWl/C8599niURidHKIMNW3+k9uQW6FHSkrTL7BK8BuIIN8EBAV0g69fHLx0QUgp2IozpjSUVRhRXlkIr4Bo+IX3BTx9UFmaiZLsA6gszlBKOLfkFqkfjsLe210I8LWSpfXm04hYdUPjQHA7a8/taouOVp+OgvuFiIiIiIhcxScGIiLqsDJNR5BZehA5ZSdgqimUXyin841ArfSfWg3/iAHwC+kFs9kMU/4xFBv3obJEepMYERERERERETWFLYWJiERsKew+7mwpbOXp4QO9fyIiQ0dA4+WL0qo81HmooPUJRbkpG2eyd6OyNAtCXdPHsbM7ny2FiYiIiIiI6MLCp0oiIurwqmvLkXfmMI6c/gJZ+Tuh9QuFh6c/ctI2Iuv4tygvSr2gA8ISKQ/t6sdvYkCYiIiIiIiIzhqfLImIqNOoratEbvbvOLrnLZzc9wFK8o/CLNQqU4mIiIiIiIjIFQwKExEREREREREREXUhDAoTERERERERERERdSEMChMRERERERERERF1IQwKExEREREREREREXUhDAoTERERERERERERdSEMChMRERERERERERF1IQwKExEREREREREREXUhDAoTERERERERERERdSEMChMRERERERERERF1IQwKExFRhyYIOiQkP4K/3Pw9Prj/V3x019f427SrkKQVlDmkedQISbgLi65fiXfv3YS3bn0fCwf1h7dgm6erE4Q4jBx5L6bG+CpjiIiIiIiIqKtiUJiIiNrdKUMF3liZic83Ztd3ReVAdXU1vL296zsfHx/4+tqCllJMN2rIS3hi6iXwy1mBL9f/E//duR1I/CP+OmMO/JWgrzr0Viy67CbEla3F/9a/gG9SajFo4su4q2+wPJ0ksRg69CaMj2BQmIiIiIiIqKtjUJiIyM1Unv6IiEtAYmIiQr0dW6oK0MI3OAIx8eL0hHjERobA31OlTL1wrdlRgK9/LcLrK7Pqu+JKT9TV1UGv19d3QUFBCA62C+R6TMC8MUNQuPM+LF7zDtYe+R4/7XoB/7fiMxR1uwUzwiyzJfS5BImVa/D+qjex8dh3+P6nP+PLVB2G95kILVsLExERERERETnQ3H777U/qyw7DUKKC4N8P02d1g07dD+PHD0KfPnqUHc5AkTkAydNnYfygvujbty/66Mtw1FCiFEFE1PmF+9UpfY2ZqtVy5+HhIQ/X1tbK/zYkxR49/EIRHREgLlSOWk9PCKYzKK+1BH0FQQXf8GiEedegKD8fZ0pMqNMGIDhIh9rSUtSYL4zg8LyJsYgN91GGLE5lleO3Q0XIzs5GWVlZk520b7VardwvMUdfg1sH1eKHbz/ASUH5O6ZK/LesCjED5yOy4GP8lm9Gz+R7MMb8Ez49sB/VKhVUqmoUnMmA8cxJGM7ko04cJwhaxPZZhPsv/StuGX8HpvcdgbCKIziYVwizNN33Rvzfvfejm3o2/jDnbgyoPYLKfq/iqRk3I1nYi62GXHm+kbN+xvODNUjzuxV/mvMYrh06E7206TiQniGvW9LSuiTWcjID7sCfZz+Ka4bOQC+PNBzIyHQoJ7L3A7h/1uO45aKFmNVnGAJNB3Aov8jlcoQeT+OTm/+Ja8bORIJWhZDE6zFvzJ1yd2V3Nbbs2wGTUhYRERERERF1Depl648hYPiVGBVrbUkVhV7+R7BixQqsXLkd6dCj/yVT0Ktkpzxu2bIdMEYNt5ufiIgsVPDx9kBZbiaMeSYosWAbtQ8CfFQw5eehtKIaNdVVKM4V+80+8PfRKDORA+8Q6CvF/VkhBUhjMfHSL/HB/Zvx9rUzoa/SwM/bX55NrZb2nwCzPGRRmrseP6ccR5XaEkzWxj2Eh2fMhE/Wl/h4/cv4MSsA42e+hBvivOTpFt2Q4LkOXx7ORZ9RT2Fizaf4OrUKA8bcjOH2hyjgEkwLO4jvfnoey0+Uoffop3FLT0tdJK6tSySWMyXsAL7d9AK+SRfQb8wzYjkBykSxnJj78OjMOfDP/hpL1/0ba4x6TJr1Mq6L0ipzKJorx/gF3vz+73jtu49wqMqMrMPPi/1/k7vXN6/DGctcRERERERE1IWo1aWHsW7lSmzPtGWSMBrSlT6RPg4xviYcP2wZp1ZnYnuD+YmISFKH0vwsFFUIcPpnMyk4qTJDMNtPNaNOGlSzpaZTHh5Q11aiWupPuAnX9fDEvs1/x4cn/JEUJI4zu/5ZNCB5OsJyluLlHz/CL8dWY+WPj2B1bjTG9RupzCEpxpFDX2LD9vVI0+Xi8M6VWLPzF+RpwxGmU2aRqPbgm+/fwU/HvsOqDX/H9zkBGNBtsDLR1XWJ1PuxavVb+OmoOM8Pz2BTSQCSk/orE8Vy+s9EhFjOS2uX4Odjq7By7cNYlReHiweOVuZQNFOO2nQA24//iK1H96JAPNfK8jZjmzgsd+kpqFaC5kRERERERNR1OHkSNKG0WOmV6P3hixKU2I8jIqJG1HJwrZkAW20lKmvU8AsKhk6eTQ3vwGDotbWornSekoJs/INi4V+0Hit2rcO23R9iWys+lwTBG+F+/qgsTkOBEgRVq3OQVVQBP/9oeNXnHa61BOmFGtRBUPprxbFqOWtFvaI0ZCoZR9RqA/LLBPj5hEIlluP6ukRFKUizZi4RTiG7CPDTSdFupc7+ASgvyoDJyx86rS98vMqQfaasVeUQERERERERNaS+4oorMHfuKMTaP1wSEZHbqdU1KM4tQLkmAJHxiUhMiEVEkDdUlSUoqlRm6iKSkpIadS3RqLVAbbWl1bD4/zWtiqNrodEAZodW2rC02tZ4iFNbSWV2SFUhl6qS/ydqzbrsU14I4jziP/X5fS3l+PZ9Bh/et7G+e7CvfyvLISIiIiIiInKklnMEIwox8cqYhopLYUIAAvTKMBERtV1NGXIzUpGWnoH0XBMEVS2KC4sgXOA/4S8pdwyQpqSkNOok1pf5OSOYa8VPLQ0sc2igEXdZrVAjDwmC1ExWrQRlLfwjpmFSt95Ki9oa1ImzqBya+4pLSMN1teLUVjKrHNYll2q2BordtS5LOaZTb+CZr+9z6P750wbxs5mIiIiIiIiobdTQByCgYcoIe8UZMJh80aufJWosCP7oN20u5o6KlYeJiKh1pDQTdbWAf7Af1GUFKL7AWwkbCqrx9ZaSZgO+Em9vb4SEhMj7x5mSwnSUBo7GuLhohMddioGBZ2AssHx45ZXkAYEJiFNeBicIvhg++u+4Y0BfSA2K1eoK5IgfdDp9AkKUX8YIQgSi9d4oKzXUv4zOZeK6YuvXFYNQPzXKyvNhFstx17qkcnJLS+ClNuFU2nYcytiBA2m7kV3lIX5418rrah0pIQag0bS6XTQRERERERFdYNRXTomBYcNaHC51/nCpVpfi4NoNOB4wHFKqiXnzpqJXyU6s3J6pzEFERBJBEKDSaKHVauHlpYHabIZa4yUPaxr8kl+rD0OgRyXOFJraENzrXGJCPHH1hGB5P/j7+ytjHalUKoSGhqKiokLej/Vqq1HnIe5DqT/tv/j8tB6zr16JV6+eD7/Tb+LbDHkupB39Eam6Wbhj9t2Y3HsWZk58AVcnVmLHkU2oU/bvwcM/IjfiBjw07RZc1Hs2Lpv2HGZHZOHXgzvk6a0iDMFll96FSb0vxewp/8CsiBLsP71Pmei+dR04uAb58Xfikck3YkKPSzB93L/wxLXP4bKYtgR2U2EoqENC79swtfd0jO4ldjGxch5kIiIiIiIi6lrUK1euqw8Iq0sPY53dsJUUGD68biVWrFghdwwIExE5o4FvWAxiY2PFLgy+arU4LPXHIjrIS5kHEFTeCBaHa4sLUdxF3i/3h1nh+PNVUQgLDXUaGJZaCJvNZuTl5SE7O1sZKyrNQ5EuHjHe0meRET+tuhr3fnQbnvhoNv606tv6F7kJ+Uvw8qqlMPrPwvypj+CK7p7Yv+mPePdooTxdUpPxGp5f8wPKY67DzdP+iBkxpfh1zSJ8ZqhS5miF4jVYnzcAsyc9inm9/HB82xP4+ESpMtF966oxvIHnfvgR1fHX45YZf8XVfUNwetuf8NoeozKH69TqXPz48xvYp5qAG2f8Aw9c+n+4f/RY2M5MIiIiIiIi6ipUSUlJtnfTEBF1Uf0jLa8vcya3TCN3Op1OHq6s7GJvhWulzxaPwujkEGXI0ZodRXjxayPy8vNRWmoJokppIyIiIpCTkyO3FLYnYBj+cOcb6H1sIf6yaU99q9/zaeSsn/Ggz9v4w5efwnSBt/ImIiIiIiKiCxOfZomI6JyZOSIQf5JaDIdZWgxb00aUlZU1CghL1NiFr375GX5DXsGzcx7AzH7TMKzbRPQPdp6G4pxRyf8jIiIiIiIi6pQYFCYionNKDgzPi5KDwdHR0XLaiMJCW5qHhs4c+SsWr/oCBv+pmDvpSfzp8udw54BuylQiIiIiIiIiai2mjyAiEjF9hPs0lz7C3uVP7EVZjRfy7VJJEBEREREREVH7Y0thIiI6L3w8LMF1BoSJiIiIiIiIzi0GhYmIiIiIiIiIiIi6EAaFiYiIiIiIiIiIiLoQBoWJiIiIiIiIiIiIuhAGhYmIiIiIiIiIiIi6EAaFiYiIiIiIiIiIiLoQBoWJiIiIiIiIiIiIuhAGhYmIiIiIiIiIiIi6EAaFiYiIiIiIiIiIiLoQBoWJiIiIiIiIiIiIuhAGhYmIiIiIiIiIiIi6EAaFiYiIiIiIiIiIiLoQBoWJiIiIiIiIiIiIuhAGhYmI6JyrqBJQVOUt9wcGBsr/XqgEAdCotZYeIiIiIiIiog5AlZSUZFb6iYi6rP6R1UpfY7llGrnT6XTycGVlpfwvOffZ4lEYnRyiDDW291Q5/rE0AwUlVTCZyhEQEICCggKUlpYqczgSBB2SBjyA+cMmoqc+AJrqbJw6/T8s3fQlUmosf9sUBC0SBizCbSOmopu/JyqK92HLtufx2dF0CGo1+k5chb8NCZfnldSdfAo3rfpeGXIicDbumXkXhoWGwdtDBXP1Orz0+l+xSyzLnjbur3hp3gQc+uYqvJ1iUsY6Chv4Jp6bnIxTG+fjmf1GZSwRERERERHR+cOWwkREdE5IrYNfWm7En95NRWZOMQyGLBQWFsoB4ZCQEPj7+ytz2kiNa6OGvIQnpl4Cv5wV+HL9P/HfnduBxD/irzPmwF9pfatN+CMeEefRGZbiwx9fxLqCSEyb8QqujfKQp6cfeAYvfvOo2D2OddnN/y1UCjCPHf8IxnkfxYofH5OXe+m7T3FCmW4loBeuuPhS+KS9j89POQ9oS4S6KtTUVqGqji2FiYiIiIiIqGNQDx45Bv0GDoG//sL++S4R0bkgCBp4B4cjJi4eCfFxiIkMgZ9GmShyNt3XbvqFSmodfOu/T+H7bQXIzs5Bfn6+uC8sQVKphXCTgWGPCZg3ZggKd96HxWvewdoj3+OnXS/g/1Z8hqJut2BGmGW25N6TEVzwBV5duwS/HPsWX3/3f9hYFouxfQfL000F27Dr9CbsOPkLMlps6B2CcH9PlGWswOpjP8nL7Uo9gpIGrYTDBj6ImUEpWP3LMhQ3mGav4NAi3PXGJfj3oRxlDBEREREREdH5pR4ycixGXTQZV15/K/oPGa6MJiKi1pJinLrgSIT7AqV52cjKzkep4IPQ6GB4QZCDoPXT86XpeSip8xanh8jTL1SGgmr8+b00GHJLkJqeiYqKCmWKjTUwHBoaCh8fH2WsKGoU+un2Y8POQ6izBl5V4r+5v+KQKQZxYVp5lIdG/LeqDOXykEg4gM+WzsJftxxQRrRMgBaeWl/4ePnAQyWOUHlBJw5bOi1UShBbInhOxg1jhqH00Gv4Ns/x2AmCLy6Ztw2f/XG7Q/fqxYOUOYiIiIiIiIjOr/qmTWqNBiPGXYyBw0YqY4iIqHW08PbWoOJMHkoqq1FTXYGi/GJUaXygk2OX4nRfLaqK8lFSIU2vRHFeESrU3vD1kgu4IMWEeOLq8XoIZlV962BnpMCw1IJYyjFczzsE+spMGCukYGssJl76JT64fzPevnYm9FUa+HlbWhYfT9+NyuhrsGDYKIRpxM808dOtproQpTU18nSXhP4B/7p3Az6873NcGaGCf/K/xP6NcvfBHxZjqDKblF6i39h7MVK1Gf/bus0WrK5Xgd1b/qKkq5C6F7G9lOn7iYiIiIiIqONo+CSLYWMm4Lb7/tRsN2PuNcrc7U/w74dpc6ehn/+F24qOiC4ManUNio3pyC2zCwBqVOKNtg5m+RamkRu5OgRGhRoIZg3UUsvUC1iAT6OPG6dqa2uVPoWHB9S1lZBfA5hwE67r4Yl9m/+OD0/4IylIHGe2lFty5N9473Al+l/0Ol65Zw3+NfcRzIgJlXa2PN0lZ77Bf5bdj2e+/js2FZphOvWG2H+f3P1z5Qc4psymDr4BNw4Ix8nfX8PWSrW4iln480Pb8Od+ljwgarWAvOxNlrQTcsqK3chpRWyaiIiIiIiIqL259pR+HqlLD2PdynU4XNrhq0pE5EAQVPAPDICmohRlDYKC2oAoxMcEQqcMU8v8g2LhX7QeK3atw7bdH2JbsTJBpEYOtq69Dg99+ij+u3MLivSX4MYr38GtCXapKFqgrsvEyYwdOJC2H7ni8aorP4lD4rDcGVJQppYCwIGYdPFNSCxZjk/2pClLEhEREREREXUujLQSEbUDKSDsHRyJUF0lCvJKIDRIMVBVko3MrCK0+M6zC1RSUlKjriUatRaorba0Ghb/v6ZBo2K12ozS/J/x429P458f346vcsIxeeTl8G9Na+EWDUb/WF+kHl2FHM9A+HkFIMDbix+mRERERERE1Km49Tm2PtVDrPTvXFxxxRVyN62fvzLNNm5UrO0hveE06zK2aZb0EU2Vb18WEdH5JsUgpRfKRYj3rcLsPJiExrdaNcwQunCa2ZSUlEZdSwRzrbjjNPCQhzTQiLu1Vkq/IYSgT595GBnqJ0+RqM1p+C3lNDRBCYhWxrlTt7Gf4t171indXzBYdYHn/yAiIiIiIqILSjs0bvJFr77AtuXLsWLFCqw/Vga/3lNx5WjHcVHDxyBWkN7GH4sxU3qhZKdlmnW6b69+8vTGGpdvLYuI6HyTA8JBkYgMEHAm24hSh7QRltzCavtWw2ot1CrxXsj3kLWopDAdpYGjMS4uGuFxl2Jg4BkYC6QcElr0GfIw7hw1Bp7KZ4EgeCI+JAIw5SNfHmNVh9o6M1QqjeVgtdpefPPtH/Gv5Q/ZdZ/ghJkHkIiIiIiIiDqPdggKA8YjB1GqBD2KMwwoEx+WG44zIQABenFAX4zDy5dje6atKg7TnWiyLCKi80h6gZxXYAQiAzUoyytEuaCFRqOROynwC9SgwlQjzhOKAG9PaD110IcFwkeoQHmVpQxqoLYadR5e0Er9af/F56f1mH31Srx69Xz4nX4T32ZIQfZsbDm0E+oef8Jfp9yMi3vPxqWTX8PtvT1x8OAaFNgF4dXqOpzOTQGi52B+/2kY1m2i2I1DvM61ALFaXYT0jN+wP83W7U05jVJlOhEREREREVFnYHtSdhsTSu1e/mPhbJyFurRUDvAKsaPq00HMm9obvsr0xpoui4jo/PKAj683NGpP6CNjER8fX9+F+qrlFsKVhdnILQUCQiMRExUOvaYSBTkFqGyfv9F1GP4+WkSG+ODGGT3qu7hIPcLCwuDt7V3feXp6OrakLs1DkS4eMd5SQNaIn1ZdjXs/ug1PfDQbf1r1bX3AN2fv43j+5y0Q4ufjpml/wmWJHjjwy5/wxj6DPN1e6o6n8XmmHy6a9H/40+XPYdFlT2FGhDKxXUh/FLCkuiAiIiIiIiLqCM57FEJKHzFq7lxcOTwAx9Yvk1NCLFt/DCZlOhFRZ6FWCyg2pjrNl5tbZp2nDhVFucjMSEdqWjoys/NRWn3hpx7w9faAVqtBWY1XfeftGwA/Pz/o9fr6zsfHR1lCkbMZ+00DMHXUEGgEQdx/NSgtOoKUoiLUObQALsaxvf+Hf/z3Uix4YxLu/mgB3tqzp/5XJfbUdYfx3errcfebY3H9y6NwwytT8W6afVlGrPxsNBau/00Z0zy1+nv8+5XR+PfhOmVMA7reiPUD8orSlRFERERERERE59d5DwojPgZRpuPYsHwtDpcq1dH7N9NSmIiIOptJg/T44q898dJdCfVdkJflz3/Z2dn1ndFoRFZWljxeosYufPXLz/Ab8gqenfMAZvazpHzoH2x5GWlHFRh+kVzPkX3m4/bL78bAmp+w8XiJMpWIiIiIiIjo/Dr/QWGJbwzilJzAgn8/XDI8yjJARERd3pkjf8XiVV/A4D8Vcyc9Kad8uHNAN2Vqx5Q86l9yPe+ffDP6m3/Fh8uexu9VHeMjl4iIiIiIiOi8P6GqM7djp9EXvafOk/MJXzklBoYNO2GEL/z58jgioi5PSsuRe/ptvPq/ubjrzXFyyocHf96nTO2YtqyypKa46T8z8eevn8HGfCZFIiIiIiIioo5DNWb8hFYns6yuqkZhfq4yRETU+fWPrFb6Gsst08idTqeThysrK+V/ybnPFo/C6OQQZahp85/chtwKvZxzmYiIiIiIiIjOHXW2IROt7RgQJiIiIiIiIiIiIuqcmOCQiIiIiIiIiIiIqAthUJiIiIiIiIiIiIioC2FQmIiIiIiIiIiIiKgLYVCYiIiIiIiIiIiIqAthUJiIiIiIiIiIiIioC2FQmIhIJJiVHieam0ZERERERERE1NkwKExEJKquVSl9jVU1M42IiIiIiIiIqLNhUJiISFRW7fx2KLUSLq9hUJiIiIiIiIiILhwMChMRifJMatQJyoCdwnKNOJ5BYSIiIiIiIiK6cDAoTEQkkgK/qWe0qK61DEtphAtMauSUaiwjOiDfKC0Spgei3y3hGLgwEr2vC0XMRQHQBXkocxARERERERERNcagMBGRoqJGheP5njiZr8XRXE8YSz3k4HBH5B2mRbfLQqDvpoOHt+VW7hXogZB+Puh5TSiixwVAxTs8EREREbUTQaWCTqsMEBFRp8OQARFRA5W1KqepJDoKXbAHKvJqkPVriTLGkfj9HKEDfNBtTjA0nrzNtzu1FiqhA58w1CEJ4jmj1YoXawc5d1ifDoj3FuoItGqeh9RYeDie+vvFOPDJDPx6R4gykoiIOhtVUlJSR20IR0TUoeh0OvnfyspK+d/zwTfSE90uC0LGxmIUnaxESH8fxIwPUKY2VppRhdTvi2A2n7tb/WeLR2F0cssPCPOf3IbcCj1SUlKUMe1v5Myf8KDve1j45VKUqhsHzPtOWoW/DQ5XhoDak//ALd+sgtnJvBKvxCfw78tmonLnAjy89Ygy9txqbZ07kmG3XIyvLvWFYc0WTFhSrIxtHUHQYc7V8Qg6fBJLjzQOXFz64HS8HnwUQ/+WiqJzsE9aqo9V3IwRWHNbEPYt+QU3/NB+95SOVJ+JC6fgw8leypCdghRcc9ch7LQ7Pk3VZ9Ttk/D5DG9lCKj7fTd6/jtbGXLk6rZ3RO19b+nM9w1BSMTYsZfCJ/V9bMyuUsa6nyCoxfNwNK67qQe6x/pAVZiL7R9swMerz0AQ91Ofh2/BX6/0V+YGan5ZhwUPH2nTPhz+j7twf9hvuPeuvShr4zFwtT79H7sdj1zmowzZmHP245nLNuG43fxe4ybjX//qjcpPv8Zjb+cpY11fl0QQ9Bi9sC98fvsdmw50/OtQOu7xl47DdTd0Q7cY8V6Tl41f31mPz9aVAG08NhJB8MTMt+/EVflrcOffTytjz5+zqY8gaHD9X6fg/2Jy8e/PMrEn9Qx+N9YpU4mIqDNp+ycbERGdcyEDxAdTtQpxk/XQd9eh4GA5sraWKlMb84/zQujAxg9/XZEghCNS743y4jSnAWGJ8eALePGbR8XudewqNyO/KLXZB/wAfRR0dYXIPFOgjDn3WlvnjkJ6IB3ZywdniqsQ0ysEMW1uieaLiZd2x9yeHSWXtmv1EWrqUFVdh4qa9v6DTQerT2Y6Hn5+B+62797OwHFlslVT9Tm6fr+y3C4sPd1SXTvaueG69r63dNb7hkw3AtNHX4M+PhXKiPYRdMk0/OXvfeC1fx8+f/4XbEwPwMWPXYJLEyzTs1dvwit/WS12m7H7jBmFhjNt2oeC4IuoaA+YDEVtDghLXKmPIGgRFeMN07Ztyry27tWn9qLhn2gDYvyhqymHIaNcGWPRqm0PiMfUWwejT4jy0oYOLmjmJXj0r92h3rEHS5/7BT8ZAzH9icmYGKrM0GZBCI8GcsXj3DGcTX180CNag9Stp/DOb/kMCBMRdWKd5NsfEVHnILWe8A4OR0xcPBLi4xATGQK/Bu+qU3n6IyIuAYmJiQj1bl0gzDfSkrhNCgzHT9EjIMkL+ftNMP7WdGA4fLgf00jIEhEZCOQUpynDjRXl/YJdpzdhR0oezJ7iw9KZVGWKc3n77sWdb87Bq0dylTHnXmvr3GFogzEssRabd+ShIi4Io500IL2QGTbsxrCbNmDBhvZr6dga56w+ZWX4+fccrN2ZZ+v2laGkQUCpqfoUpxfIy6z5PRfHm77tdXrtfW/ptPcNSUgCwpCF7EJluB0IQiCm394D1at+xHPP7cHmNYfxxd924pg6DH2GW25WRUfSsPvnVOzcbILZT9yHGWfk8a0XhIgY8Zgb2rq8hWv1sayr4MhJeV6Hbk8Jahpch3lffoO7J/8Xb3xnUsZYtGrbuweKx6sI2efuR0FtJgjBmH5rN1R/uxYvvrwXW38Qj/uz+5DmFY0+g5SZ2kobiPAQM/IyO0hQ+KzqU4sK8dbso7zTgoiIOi+mjyAiclFL6SOkho664BhE+dfgTF4RKqQAcWAogr1MMGbki8NqaP1DERXqg7qycvFByg+1uaeRX+H6l+oBd0ZCZRdkNgtmpK8rRnFKJcIG+yJqtO3nnPYMv5Sg4LBjS5/24u70EYL2Svzt3kUo+/nvKOx2Ly6KDEJ10Tas/GEx1hXUWObRzcc/Fi5A9spJeDvVsj+FwDvxwq1X4MhXM/CRQQ3B8yosvudBlPz6HMq7LcDIcD1qin7Hqh/+jjX5joEnQb8AL9w2D0e/vgRLMh2PjyD0wy0LPsRMvUoeNpt346P/3IV11Q3m8+qHS8bfg+lJfRDmVYczuVvw7U/P4acG62qJq+U0V2eJNnQu7ph6B0aGeCPv5Iv4oe5BLAheirv/93F9QM43aj5unXANBoaFw1ddjZKi3Vi78Ul8Y7BF31yZxxXCgGTsfsIPbz2ajVnP9cDxZ9bhsf22el/x5xl40esQ+v5fGqrE+gmCCjf/bQYWV+2R0wUIowfh+B+j4Skl0W4o9Rgm//kEUsXlLOkjTuC+Q6F4ZEYQQmoqsG39Ifzli3wUKNstld19XC88NS8agyK0qM4rxMovD+JfW8tRp8zTUjmu1ifyslHYeqPt+sj+YSvGfuj4UC7VJ2lkT/ztmmgMi/KEUFSKrRuO4MnlhbY6wxNTr+mHhy4KRfdAFcoLS7BpzRH847siuSW8e+sD9Lq4L568IlI87hqYcouwdtkh/PNXE6qV+riyn+X0EdGnMPIJ8b6njGvIlfpIGp4P9lzddleOuzB2EE49qMUL/yrCxNsSMThAQOaRdCx+6zh+K3G+DW3lyr2l18Ur8begrfjeaxKm+h/EJ9/9hAHT/4RBmt349Os/4SexTq7cM61aum9ANxizLrobUxJ6IFS8/+Rl/Yiv17+MbSWWloGu1EfWQjn1dd70NxT2uB8XRQSiuvh3rBbrLN2fBSEAl17zI26Ka3xMpfRI+9ZNxPOHLJ/N7rhHCaGD8NS3I5Dxx3fx4XblXBACMfrOnvDYsgtbj9r+oCvED8ez/xuIY/e/j493OdmHwZGYed8YTBwRhmBdNXL3HcHnz/6GgwVKuX798fiP41Hy9iZUjB+JET29UZOZhu+e/hFrj9nWo+3RD7c+NgIjkjyRt+ln/Fg7Abcn7sJ9C3Y7/PqlufoImt54eNNUmJ//D15a5fwRUBDCcOOKazAj2noeZuLj6cuxoazxtjW1LmtqghuGOD9eB/71Nv79rdK6NDASM+4fg0ni/gnxF1Bw8DiWPbcZv2da6ielgbn0vTtwmfFnLCnriWsuiYB/VREOLF2Pdz7LbRTIPhuW4z4SmYvewQfbLOUKYYPx1Dcj6se5Wh9tUi9c/+cRGN7HH+qcNCx7rwBTnumDA3d+hP8dUursrm1voRyJS/VxkdQA4o6npuPh4t3o90qOMpaIiDqj1n0CEBFRM7Tw9tag4kweSiqrUVNdgaL8YlRpfJQ3M6vg4+2BstxMGPNMqHUSr2hJbYXjT/TkFsPT9AhI1CFvrwnZ250/9PpEdeJXQwfFIRxliO8+A7UnPsRHvyxDlu9k3HTx5fC3phwIkeZp0HIsKBahMCDH+uvr4Hhxngr0SBqH/P0v4s0f/4vTuosxf9KV0DdMXRAc57isgyxs3vgX+afXHx01AhWZyGrwdwJB1R1XXP4mbkoUsGfHy3h305dI852OOy5dgIRWpEloVTnN1FnQjsMdc/+CoeYt+GrjK9isnoZZcYEoL86oDwgL2mm48/J70c20AktW3Y9/rnoJO2tH4JopNyNWWZcr87iqT99ABOcVY9fpMziY74khfZvOje3U0RT8+dXdeOiV49hWYUbKzwfE/l2W7tNsODymhsRifnwh3v7oAN7aL2DMVUOxeIztmtD17Y0PH4hD0KlUPP3uIXx4QotrHxyJR/s0+JpkX86BBuW4WJ/C7ceU9Af7sSrHeVDGq1dPfLAoCUnGDDz37n68+ls1hl07Aq9faksFE3fpYPxnji9ObziCv7yxHy//Uo0RNw7H34cpfzVyY310yf3w4b0xCDiegn+I++e/4v6Ze/9IPJbc4GcQze0fF7lSnxa5uO0uH3f44opp3vh1xUH8bXkuqvv2xCs3hMOzled8y5q/t0iBmCh9GOr0gTAdWIYTHhNw3YRkHN+xEpm6CZjYM8oyoyv3TKvm7huqHrjiitdwdVQxtm17Ee/+/A0KgufhnhnXI0wsx9X6tFSOTK5zKWJ7zIL55If4ePMa5PtNFO/PVyFQnqcae7dZ9s2nJwpgLt2Aj+T0F4/ipW8X4YtTlj96uu0e1SMEESiC8ZQyLFKri/D7BzscAsKyRKklbDFynTS2FjShuOLFubgyuQLbPtiEJe+cQkXycNzzUE/b+ZOkF7e9Ft3HJSB/xc946587kOLfHdc81B8ByjyCdzxufXEShpjTsOzFX7BF0wszh+pQbrD8EchBM/VBoh5hmnLkG5r7uX8Jtrz0nZwe4uN1xUBxCYzO32vbzLrqsO9DSxmf/2yCOecEPramqXhsFb78RfmDriYEl780F/MGVOL3JZvwwWsHURDfH3ctHmQ7NxCIiGigqlc3DC87juUv/oqfM3wx4p6xGB+kzOIu8nE/43DckRAoXiPiNtb/yKjl+gheUbjhhakYE5CLda9uxGerqjDy9j4ItttX7tp2V8pxpT6toVbXoaRCvId6efAlhEREnRyDwkREbqJW16DYmI7cMrtAhkYl3mjrYJa/M9ehND8LRRXiw7Q8sfXKDNVKn019YDjBC7l7TMjZUaZMsfHQdd7bvTYkVnxwKcOuXx7D5/u/w5YDb+KTg2nQBCdBfFaSeQfFQl+XhWy7B9fQoGjoKjORpTSQ1gbHIEh8ANq66XGsOLoZe49/hC8OpUCjj0OkZZZ6wdKyVQZkOf5iViYFBlJTN8k/vc6r8wOKMmFQpllpEm/C7KgsfLPiQXy27ztsPfQBXt/2G8xBfdC9FTGy1pTTXJ31fedjnNd2fLryn1hzZDW+XbsJ+QFAnv1PxuMmYLDuAH5Y9xG2pe/G4dRVWLpmEV7dvFHcawpX5nGBFEwa3dsfVSlFOIAS7E0R0KN3cH0AxBXqohKs3pqDlb+egRTfOJORg2/FYbnbZ0KFfaBEewbvvnQC//vFiDfe3I8vc7UYMzhQmQiMnxyLhJRTWPjmKXy12YA339yNd1N9cdWUBkkk7ct54wC+sivH1fpU5xQp6Q/ykdpEStThF8egm/ik/sDL4ro2Z+OjpbvxzDYzRo+OQIiyj3LX78H4hVux6NssbNybh29XH8XyNC+MG6qXp7uzPuMnRiP29Cnc/Z/T+HqzEf/5z268n+qDyyc2+EVAM/unnkYNXx8P+In3JGun09iOuyv1aYmr2+7ycRf9umwf/vNTNpZ9exB/31iOsORQ9FOmuUvL95YERAZqkH/yE6w8uBKHzwBZxz/EmoPrcVLcV7V1ll8PuHLPtGruvqHteTvmhB7HV8v/jK8OfC+X859d+6GJGoie8hwu1qfFcqx1rsKhLX/F0r2rsXn/C/jfsTzx/hyNCHG6Wl0JY+Ym7Di5CYVmf5jzd+KnkxvlfbXr9FakVSrXu5vuUQEJAfCtKEa2lL1Dq4HOV6t0aqgb3KeCYwPgVV4Mo+09bPU8xg/G9J4F+OZP32PFyuPY+vVmfPljKXx7R0AJ4UObECh+NlVg28tr8e2aNOxftxtfrSmAR1Rg/WeTftZgjPFPx+eLNmLtd8ew+plTyBcLyMtsnLahufqoE6UApwlFZ7zstknsvFTSjdkyj7oKaVssKSXya7wAwxlkyVMaa2pdUtAwe2cqdv50GoWCF8ypmfhZ7LekqkhHepHleGknDcelPfKw7IHvsGzFcfy2Yhve/twIj37R6C7PIfIJRngwYPplq3jvOYCtPxzE0ndPoNjDH8FhyjxuYj3uRru/KvqI4wKqipFltI5ouT7aiwdhXEQ2ViwSj+m3x7H50/VYe8ILPmdKYFT+du+ubXelHFfq0xLp9PD0ku7ZGoTHRWB8nBmHThZ1nlzkRETkFO/iRETtRPppsn9gADQVpSirkR6SpFvu2d12C484j5KoNSrETw+Ef7wXcnaVIXuH47f82grHh9jOJDowFuqy7diZbfvZs0Yl7seacvEx2iI2KAYoSUeW3WZGB8UCxbagSoxYjqp0O3bk2F52o/XQiuWY6suxigkUyxOXbepBWCK9UT1a74fKkgwUNXgo6pUwWHzY2ort+bbWWHVHH8ZNr9yPjXWunwOtKae5OveO7gd17jbssm6ouP/UqlrkFGUoI0RCLWrQC5Om3IdLk6dhUGQsNEW/4/eUI7aWaK7M4wpNMIZ3V+HYqSJIm7HrVAnU3QIxukHDU7fJLsVh62EXypCaC+j9LFF16U3zcWFaFBvLUawEKwN8apCaVYPAMB/42geAHMopRYpdOe4irS4uVAcYy3BIWbVabcZ3r65Ht8Vp9akYqrz1WPjwxTiwdAYOfDwD+z+ehId6qMT6uDc5s3X/mLJNMCjrloJGp4y1bds/PfvgJ7m+tu6bq1vZStwNWnXcUY6UTKVXlJZbhgovLYKVYXdr8t6iTkJkQB2yCk6KA3EIDSiCoSBPvJ4SEOFXhpwzlp9KuHLPtGruvtE/YSi88rdjT6U/dFpf6Lxi0C8iSrzXZkGOj7lYnxbLEcl1Nm3DdoNdWhzp76uVpQ2CubGI1GtRJN7vnaYNcNM9KiZOD2SJ2yP2j/z7Ary7/i65e+fbKWiYWjY61jKvs33YY1g0fFLTsDNdGWFVWwfrpRITGwBVbgZ2Hbadc1pP8WZYVV1/vHoNjITmWBr2WDOpqFXi/+qQk9441N1cfcLE7fJUheOqzyzbY+3efq4fGt7JBMELkTFeqDIUNfqMs2puXRaBYhkaFIvzODteyaNi4XUqDXtLlSB1gD/6Sr8aMRajPilMNz3CVSXY/7N4Q7GWIe4eobIcpqZaMLeR/XG3ilXG1X+/cKE+PQdFwDMlHbuV4LL0/U++pRjOwHorcde2u1KOK/VpmR6Pv3KJeM++BNv+1Q+xO3fhtq9cT8lCREQdk/NP+LPg1S0Z3v3HOHS63kOh8Xf373uIiDouKSDsHRyJUF0lCvJKIFi/zJ8lU3Y1ik45z2ksBYYTLwmCX5wncneZ5OCwlSmrcQvjziIqKAooTIX1mVoK5kQHR0FQWtFJwzFBEfXDEikPX7Q+CDUl6chXxkVL5ZxJq38Ako5RVGAkzHaBY4ll2WDUlWRAfAxrRjeEi8+K+Q1e0CS93T06MAJ14nj7clurNeU0V2dBCBfL8UGpWE79m+1D4hEhPi7mFNoC5Ej7EB/tOwxNzDxcO/X/8Oj8ZXjnjucw1s8uOObKPK7oFozB3tU4JJ7LGrFKhlPFKPAOxohuynS3M8MWVpf2CWBLN6uBh/iQrZ8wzCFQ+doET/nh2zFQ0lw57iMfJikg1sR9Q2ppfc0fhuD2aBM+fOt33PKPbbjpHzvwSWob0y00y7J/pPzl9uSAQlv2jyEdD8n1tXWPbnTSTLXdte64y9urKPhhF5LvPICNbrqvN+b83gL/OIR75MBYUCVWMAERPhnIklpo6sXrWWOoT5/T0j3Tqvn7RjDiggKhilyAF+/biA+l7p7luK9HHX7dshQp0ra7UB+XyhHJdRbvz7Y6axEZGIK64nTHVDCIR2TDXznYc8M9Sv5siPFFbeYZcb+ocfyT1fjX/SvwxRZxO8VxjvtQg6hYH9QaitCgsaw4TY2oOD+xnKL64JxUdkS0L+qySurHRUqB1QxbudK5FhXrD3NWsRxsFQRfRMdoUSLOU38Pl4KFKEVemuN2NVcfiRTENWcdwXvi9kjbZO2efeWkk6BtEMLFw5In1sOZltZlEYhIsYzcDPvcThbS+ReboIOqz2g8bw1Qr70F91wkYOs7u+W83xKPhEAEm8V9aJ/KY+cveGjyCvyQ27DObVd/3A3F9deDNC46VjyG4jZaz8OW6iNfb+IyNeLxsu4XS4Ddsz7dh7u23ZVyXKmPa0qx5JXt4j17O+563wDz+EF4drLlXRtERNR5ue+TVOGZ1A/eA8Y4dD5DJ0J/6S3Q9R2uzEVEdOGSHuh0wZGI8BdQmJ0Hk/iF3J2kl8ZVFdsF8+xIL6FLmhEE/1gvOY1E7m4TqsvqUHTSeSC5oxOECETpdSgtyURl/YNLPKIDPVBYlKq8DCoGYf4ecssx68uhgO6IDASypRZs8kNRJCIDPBuVE6WXykmzW06ShAhx2dwzafKyTfKIR4Sv4NjaViaO16uQL9bP/meVKrUnNK2KILamnObqnCjvi7xiW1M1XVgSQsy2IJJEbc7Elp/ux6PvT8Et/7kMf1mxFOk+kzCtZ7gyh2vzuCI6ORCxKi/M/9ssnPif2D2RiBCVD4Yk2x4w66QgpLgp9lsjbZo83q3qpEZ7KN512CFQKXdLsuHmhmgukQOQ0iG2j0SqVfCSIpXyuGBc1N8DR9cdxou/FGDzwUJs3l8EQ7tc5pb9I6WpsSefZuJ4x9eWuaDKhD3787FFrLO125vbHsHslnS8416vqXuLlDtdvAbl6zYkAZFVlvQ4aml8jdhf7Oo906q5+0YCwgKArINP4Zmv77N0X96ORe9fg7eOK6ElF+rjSjnWOpcVp8FUX49uiNSrkVuY4vjzdJ8EROgqxH3j/E927rlHBSMsWoUCaQPEVRcdN+Dg73mo9fFEVboUKLYXLOd8zc8scrIPAxERpUJhlv20IETFqVGQXiAfC0Hwk1vSlhiL7I6XHpHRGhRknFGOVxAiYiDWx/bCRa8eIQgRSpDd6D2tTddHevlbZLQXak8bsPX3DBzeaajvjqXatdC20ollhZqRK9bDuea2XREciDC/WuRlOvvDTyBCIwDj6h9tAep7vsQjc5finXW2Nu1R8Xpo8ophbPevMcEIl467Qdze+u0JRqR4vPLTC+v/uN9yfcRyoqT9Ip0/1nKCxONsn+7DXdvuSjmu1KdlarWA1GPSPbsA6346ji9OaDFpZBhzChMRdXJNfIK3A5UaPoMvgnfyKGUEEdGFRw4IB0kBSAFnso0obXXEpGV1VQJSvjvTTGBYhenXT8Kcq2djUPB4dCsZgWlTZ2DqtOnKHJ1JEqL04j/2QdCA8RgQVIETmYeVEV7Qeoj/mG3zqMMnYkBAPo5kWJvXJCFSLMcsN79U+I5BcnAFjmccUkZYxSDET3yAKmn4e98GguMQpspFTmHDh2mtlEoaGrVUKQtBcxHu+cMvWDysYUbP5rSmnObqrIevJ+ChtrR9FIQQTOg5CGqTAUblFBLQD1Mu/hMmhVke7sw1uUhN3Y2sGgGVNZbtc2UeV0gtr8b2DgRST2PB37bgGrnbjg9Pm5HcK7j+5UuZ+eJTcIQ/+lm/qWgC0CNSfPjNa/gDePGo1onbJzU5bgPpQTcjrwY+mlrsU4KVm/cXIrVCBY3Z3IZW/mdbHyBD2vYoP/RXipD22ZwHp+LIE/Hi4708BlXivUXrYbcOXSAGOD29zn7/pOdWwzfSF1HKsZFamXWL9MCZ3HK7IN65ZkZ1rVn8eqlpJijR9La7/7i7URP3Fn1QLHxMGeI1Jx77kDgEF2fIv3wIE+fXlmQoLU1duWdaNXffUMut+E2Fu3AoY4fcHTAWQh85HPE6y/52rT4tl2Otc86Z08qwSJOIqAAgt8hunCRIrDNykOckluWue5RUZ+kzRaPVKMOi0B4Y1FfAsR0Z0smjjJT4IyhcCtjKEfAGNPCw3b5l6oQk9I+rEsuxhpaD5MCqeKrahCegb2ItTu61tk31go94nKz1kVqHTpgUDXV+MbIbbVZz9QlCuLiu/DRLQLpFiQHieViGnDTxInKquXUpEvTi8SpBXsO/ncrEa03cP2VptuD0wYMV8O8fi/hA2zUdFSOeHMbmUlS4iwe8vKRLx+67RLckDIytxNHfbe3VW66PB3Te4nc1u/uSdnBP9A+1T/fhrm13pRxX6tM60meSj/i9ora2ljmFiYg6OU1QUNCTSr9bSOkjNL7St1HntBHxjVoSN+w8ImJRndLwi6v4AeTfD9NnDYbOcBJ51XZfdomIzgEP5elO+hLsjCB+4fYKjERUkAfK8vJRVqsWnx0tnQp1cgtHtYen+LApPShq4ePvDVVlBarNGqjMgsMzYUvqqsxy61+vAA104voaUosPNVP6X45ePXujW1IP9OjRE/v370VGeguBTjeYNzEWseE+ylDTlm3KhKlWh6IiW+unhsy6sbh0zABoEY04jQq6kIswd/Kt6F/9HT76+RcUmFUwm0uhi74Sk3v0gFe5CbrQqbhuyo2Iy30P7/x+ECZx75u9x+HS0UPgowlDUK0JmoDRmD35TgytXVNfjpXZHIYhw2ail2cNzlQHICIoEdE+tcgtLkKdd18Mje+PGHFcTMJkTI7RwGAohDrANo+AMuii5mJKr0EIFmrEc2Ikpk+8BxO0W/DJ+hXIqnXt80veLhfLaa7OAjzRvd8VGBE3CFHe0Rgw7F4M9y6ELiAOvh4mZBuOo0jojRmz/ogpoVoUmAT465MxcvRCXBJyCt9vXI5UcV1moVeL87jCbA7EzbfGw/f3Q3jqpxJkFVSJXQUKwqNx01Bg66pcZIrnb06xFjNnJ2JaLFDl6YOpV/bFLd0q8dmSk9hmd8qYzXXoNjIJc7p5oKhchcQ4P/T2r8OJnGqYxXJ6je6OWd75eOenIlSKw2bxWA+6uAcm1mXj9a2WFCuGUk/MvTYJ0/Rm8RjrMHx8LzyzsCd6G9Ow7KQlIOJKOZLm6lMnLhPfJwxjknzRMyYAI4ZHoJt4PqZVadEj2hd+5WXIqVQh1+SJS2cnYWa8CtUaLwy9qDf+ONkb+1cdwaen68R1VEHXPR43jAtGZF0t/GJCcNPNcRim9YZfoRH/2W5rleeO+mSZvHDZFYmYGmpGrc4bF13aF38YKmDlR0fxs5KfxZX9kzi8Gy4PPIOP1p1BiThPQ1LMwpX6SKTFhZgIXD/KF75ltfAN9RHn8YFXWRnyqizztHRuuHLczXGReHC0Bj8tN+Cg4No53haCrk+L95akvgtxkWozPjl8EFG9F2A8NuB/p1LRq/+9GF37I5YeO26517Vwz7Rq/r5RCp+YqzC9Rx9oq83wDxmBqRf9FbcO8MeB3RthFPdF9z53tVwfF8qx3OeHInfva9hxRjl2gZNxxdA4pO78L/aV2dXZZwRmDhgCXVUuyj3jEB0UDW1FGordeo+qgs+ggZg4MRJBNbXw7paIOX8ejYHlh7HkxVMoqLPfh74YfG0f9PStQWGVFyISAsXvAHXIzaoU92E1fAYPwKSLQuFTKcCvdzdc+efh6Ja5E++/bUCpeCzMgYmYeXsMfD19EVhdBU1sPGYtGoWh1Ufx8cspKJD2j1mNbrP6Y/iwKEQG+SN5/lgM1ZfDO0oPH+8q5OzOR7FyXJutj1cCLrknEWXfbcZvx51/4xCCQzFkZDiiEwMRPbIHLh4kXv/7TFDH2MqRrh1Jc+uqnyc0FpdcFiNel6Wo8AtAVGIAtEVnUCxeo9J+9hX3z7SLwqGtqoNf91hMvm8ybrrMC4e+OAVjjUq8J/hi+I1DkZCxHys2t9x+X4i8F/NWfIH+2h9xeI81eZRrzOYKePcfhEkXh8FHqk/v7pi3aBiS0nbgvXeN4ie7a/Uxm2sRedEgjB0eJJ6bZgT274Urr++OqPBKHP7vPhwqcN+2u1KOK/VpLbNZh8niZ1RPYzre393wD7VERNSZaGJiYp6MiopCcXHTfymMj49HTU2N3LWkpaCwKwRTidOgsKo6D6ePnmZAmIjOi5aCwmazBgEhofDVekAnPvzo9fr6TltTjLIqNfwj4xAVokdAgC88xYcmT98AsT8AvqoKlFQ01RrHOXOtGcWnKlGaXiVHSNQe4kNEjRnVpXUwHMxF+qEsDBAfcKRWL1t+/RVrf1ijLNm+3BoUjpyJa5L98POGHxAx8n7M6tUXnoU/4r9rXsW+SstDrUolwJB5DB7hEzFhwGUYHRuB8rQl+M/6L5CpvIzNHGEp55dNmxA/+iHM6TcIvsXrHMqxMpsNyKqIw+C+l2Nq/xkY12caRuqOY8XRY/Dp9ySem3UrxorjxsZGQa0KQreeYr/dPCq1gMzMw+LD8BiM6XspxiR2h+eZdVi65t/4vcz10L9KVedyOc3VWaUuROoZX/RJGoV+UTFA9kf4z9qfoEmagwmJZuzd/hNy1JlIKwpC756zMHXQPEzsNQKxOIw16/+JHwosv1tVqTJanMcV5uhoPDxXjz3LDmN9ju3zPAd+uHl6IPK3pGN7mQp1hWfwq0GD4WPjcK34wNtLVYIv3t+Hlw9aAnpW0n46mF6N/iPicePUWMweG40ZoSa8v6kI1eJ8rgQra/IKsNnoiQkT43HdxGiMCq/Dzu8O4NFvSlChrMvVoHBz9amCBvPuuwgvXBGD2eMi0NtPBe/oMLFfGo5BSNpxrE5TifUpxGaDGoNHxeEqsT6jxfpsX7UPf1llqY9KZcbRw2egTgzHnIvjMKOvF/I2HsdGfSxGVTkGhd1Sn9x8/Gr0wtiLxGNxcST6e5vw3ZK9eHZXFepasX9aCgpLwS9X6mOVe1LchqRo3DgzEVdfLG1bGLQHT9WfVy2dG64c93MVFPbpu7jZe8vyI6cxcMh96FH6BZafMiB50IOIKfgQ6zIEDBu6ABEF/8XajHyX7plWzd83apGRcQLaqMmY0H82xiT0gGfxBnz6/b+xo1zKsazFoMH3tlgflaqm2XLkeoTPxNX9/XHwt69xRAn6m6Pn4sbeZvy2eRVO2QdhSw2oCBqF8f2vxKR+0zGmd2+UHPxKXs5d9yjp+jLsy4W6RzxGzuyLkcMCIRw5gCX/2IbDxY7ngNlcBGNJIAbMGIAps3tj7LTeGKbPwzc/itsufvwY9ufBs183jLm0L4YN9EfF7t14/+ndSK1QPpv69sZVl3pi86unkHDbBMy6JAZ+WSfwyZNbsF9pDa0Svx+kGbToNSoB/frrYT64E+/83ymox/XDuFHA/iWnkGM9X5upj7lnT8y9wh8nPt6Ng3nOz2XvmVPxz8UjMHpqL4weHACNygdJF4v94rC1HLFC8rzNrat+npxilIvPkeNmD8DEGb0xakooSr4/gKNF0vESkLE3D9rk7hg/px9GjwyFp+EEPl/8C3Yq9TObI3DxPX3g8dvv2LS35dbe5oHzMWZSHLK+/gdSnbZObpp03DP25MGjf3dcdFkfDBOvo4rdu/DuM3uQXqkcLxfqo1LVIv1EFaJH9cDY6d2QFHAGP/5ai9HDa7Dl1WNIE89nd227K+W4Up/WMpu9ccnceESeTsEn4mcyERF1Xqo777zT7O/vj7179yIlpVFiKiQlJWHw4MEoLS3Fhg0bxA8Bxy+UDflPuRra8DhlqG1qcjNQuuErZYiIqGPQ6Sz5TisrXX+4PN8umTETSd264d233xIf4m0/HWxPny0ehdHJIcpQ0+Y/uQ25FXqnnz1W2uRXsGRKLd56fRG2mPkTRSKi5vCeSV2Z3/yVuOH2amy56iocLOb5316k/NR3Pz0ZD6pP447XUrD/TA1M7ZAujYiI2p/6wIEDqKurkwO/UgDYnjUgLE2X5mspINzepPQR0+ZOQz9/S2DDMjwXV1xxRX03rZ+/+EHlj37T5sr99vz7TcPcuaMQKwhNLktEdCGRWge//Z83z1lA2N1i9NFQlRqQ1bpG1EREXRLvmdSVBcclADmHkOP6+9OoDdTqavz382M4GJaET9+Yhp/vaLkhABERdUzqnJwcbN++vVFg2D4gLE2X5utIBCEWY6b0QsnO5VixYoXcrT9WBt9e/RCPYmQYTPCNiYO/EgiRAsVxMb4wHT+MdHGOppaVAsZERNQxRAVFAcXWFxYREVFTpK+wvGdSVyUIEQiK06PuxF60LpswtUXlkRRcdd9GTH5kC+7+puk0YERE1LHJv6tpGBgeMWJEhw4Iy/TFOLx8ObZn2n4aVJxhgAkBCNAr/b4xEL8bWOjjEONrgiGjuMVliYioY/jtuwm4YfnXqObbrYmImiXdJnnPpK5Krc7Bvvu74f2nvoGZ5/85oa6pQWpqMXYY+dMEIqLOqv4T0z4wHBsb27EDwiJ1aSlKxQ98IXZUffqHeVN7w1eZLreSMPkiRokK6+Ni4GsyQIoJt7gsERERERERERER0QXK4c+o1sBwTU1Nhw4IS6T0EaPmzsWVwwNwbP0yOQXEsvXHYH3ftlpdioNHjEoKCSV1hCHDEgxuYVkiIiIiIiIiIiKiC1Wj39ZIgeC1a9d26ICwLD4GUabj2LB8LQ6XKpuh93ds7ZtugFFKIREvpY4w4sjBYst4V5YlIiIiIiIiIiIiugA1CgpLpJbCnYJdzmDBvx8uGR5lGVCo1ZkwGH3Re0Rv+BoNyLTPL9XCskREREREREREREQXIqdB4c5AnbkdO6WA79R5ck7gK6fEwLBhJ4zwhb/dy+LSDUb5X6MhXf5X4uqyRERERERERERERBcaVVJSklnpdwtNUBjUWp0y1DZCTSXqzuQpQzZyi145gGuX9oGI6BzR6Sz3tsrKSvlfcu6zxaMwOjlEGWra/Ce3IbdCj5SUFGVM5+Kl1qG7biB6+wxFtfjfAdNvMFSeQJ25VpmDiIiIiIiIqGNye1C4PVmCwv44svw3x1QQRETnAIPCrrnQg8I6lTeivRLRz3s4tBpvFNTlQRA/k3y8QlFYm4O0sr04U5mFWqFaWcKREHctHl88G+EqlTLGxmzejU9v/zd2NfiME4RxuPPDuch56k/4FvPF5WPwo5P57FmWGYW9zsprQx1cZSnbhfq5OF9DTW1X89tkxEZx363OaNs2Nact+zn3+8fx7LI0ZejC1Nbz7+B71+M9g2vnOBERERERtV2nCQrHjpqLEdEqmLN2YOX2TGUsEdG5w6Cway7UoLBW/C9CG4skzz7o4T0Q0d49kFJzHAdM21AkFCLIKwreulDUqYHCKgPyTadRWmGE2SwoJVi0JRhqHxS2D2w2V1bLQbn2Cbq1Z9mS5rbLyp11aKms1u5ny/wLEb7miU4dGHb3fiEiIiIionOr03wTz9y+EitWrGBAmIiIzovunn3Q0zMZCV69EOARgmpVHQrq8qHy8IKgMiO1/CAMpqOASoXQgN6ICB4EP59oZWkiC7V6C957fw/CZs7DMMHxDwZERERERETnCptnEBERuWCs7zT4avQ4ULUDP5Z9jaOVe5FZfRI+noHoETgacQGDUC1U4FDO9yiozIRe3x1hIYOUpVtPGL0IL3+wVO5eeWCUMtbSyvKx9xdhaN1Y3Cn/BH8obvjwRcyOc2+AMWreC3jp/Rfqy7Ws9xM8Ni8BgpCA2c+I0+bZ6vjSfePk+Rqy3w77+azbIQVGrf2zxXVa55PW425S69U7xG2Q66Gs28q+ntbtllu7tsc+3rodhxCFKGUTrfvWft1W9tOk7o7R9sfDtg0O+1M+Pp/gjnl25Yr73WE9dserqf1iLbPhcWm3/aKw35bmzkMiIiIiImo7BoWJiIhcoNF4I63mJLJq08VPTw2qVNVILTuAPflrcLp0D7y8ghAXOhIxoSOkmVFWnQ+1l6+ydENDcOOSz+oDbdauPmAqBd0WDJHzq/7xjhvxgjEKyfIUG5XqV7z31GrkyjmA25Ivt/k6GJc9jE/3RmLy5RPk4RGXzwYcUh6I02YCS2+7Hg/e9hYODV7YKFDXcDsefG83MHhuE0HEIRiAN+rnc3dLWilQetmzC4H3b7Ds0zVRuOHZ+YiSg6hSPaOw4UlLPR9634jJC+cjBpvPch83JRM5OZGIiFH20eLZyFXqJa978Z+V4K7jtAefXIXwBZZprkgeCnx0+w31x+cVcfPlYbGcPOU4NLdfLBoflxFu2S+Nzz/7QLVVy+chERERERG1BYPCRERELhA0KtSp61BrrkUdzJZh1KKqzoScsqM4XbAZuaXH4KH1Q3DoAPgF9xLnaepjdo8cTJUCbfbdoje2WCaPHYXknNX4fqtl0PDVShyy9LpRC3UQ7XjtCWyMWog77luEG6JW46OvHPM/H3rfkhNWSonw/ZpshEXFKlMspPEfLLgJH2xT9oPcQrYp2Tjwu1K+wYA8S5/7JIzGgIg92Gu/TyOGY1h9HNsSpJWot72ERY9/AeO5yHebEItw8VhY6+XQirjBeaDO+ALPLnjJ5Ty8h1Z9rmyDFIS2G07bhgNKULrl/dJex6Xx+Wd/7tlr6TwkIiIiIqLWOwdPO0RERJ2f9AI5s0r62FRBUAG1YqeSh4HqugoUlRtQXJmDWo0aWt8wsQuB0MZP2ZiYKKXv/FKr0/Dtqj3oP2SoXYDROYPBCETFomEWZfuUBa8uubtRi2cbI4zt3vjT1jrVvi5ynt/b3wYWfFrfatWapqF9xCIiIhs5BrE3JgZhYk+WZYLI1or43J0HzveLxbk4Ls1rzXlIRERERESu4bdqIiIiF9SppZbBZghiZ1YpQWKzJXCo9fCGv18sfPwiIajNMFXno7yqQA4et4UcYO0A6tMqvNdy2gI5gGnMtAtuWgLCjy8ejgNPKekPpDQGyrTzw7F16qIFD9enPrC2apbr+d5uJLciTUOrSS2ArcFWqfVtRIxdMN0WMD5350HT+6UjaM15SERERERErmFQmIiIyAW1ajPUag+oNRqYpYCwRiX2e0Dr4YvgwD6IjhqPoKDeqKkpRUHBfhQWHUetqo3BKymFQMRszBprGYy5em4zLWxtLyxzJ2uu2fA1b2D1ti/wUaNcs0DyHFtO3lkzI3Fo52ZlikJqBWvX0nTEAwub2Y52JqdMGILByj61f5mZpd/xBW+O3LePLQHOIchbs8ySBiItE7mw1cshYNzgPHCoZ4PlYkYOF/d1GzSzX1rWPueePVfOQyIiIiIiaj0GhYmIiFxgUpUjzLcHQr0T5dbA8NAhPGgAusfPQkTYUFRVFSHbuB152TtRqzJDGxCBmtpyZemGnL/kTeqktAVyOoOnViNcSWdwK3Y6b2Gr5Iad8uRnbUh30HwdRjzwNCbDlr/Vkmt2Nh5+wPLCL8khYwweEcuQUg6Er3nCljvYausybMyxrWe68W1x2Ja791ySUxA8ZksR8YrcglnJiZzxBZ553yjvR3nagihsVKad3T6WOO5naV9JL3Wzviit4bG2X3fDaa8+OQe571te7CZNk/I497/TUnaT50gLmtsvzTrr/eIaV85DIiIiIiJqPVVSUpL4ZEtERC3R6XTyv5WVlfK/5Nxni0dhdHKIMtS0+U9uQ26FHikpneOlUQl+AxHkm4CggG7w9YuDly4IKQVbccaUhrIKI8orC+EVEA2/8L6Apw8qSzNRkn0AlcUZSgnnltwi9cNR2Hu7CwG+VrK03nwaEatuaBwIbmftuV1t0dHq01FwvxARERERdWz8lk5EROSCTNMRZJYeRE7ZCZhqCuUXyul8I1Ar/adWwz9iAPxCesFsNsOUfwzFxn2oLJHeJEZERERERETUsbClMBGRi9hS2DUXakthK08PH+j9ExEZOgIaL1+UVuWhzkMFrU8oyk3ZOJO9G5WlWRDqqpUlLjzns6UwERERERERnT0+yREREbVCdW058s4cxpHTXyArfye0fqHw8PRHTtpGZB3/FuVFqRd0QFgi5aFd/fhNDAgTERERERF1UnyaIyIiaoPaukrkZv+Oo3vewsl9H6Ak/yjMQq0ylYiIiIiIiKjjYlCYiIiIiIiIiIiIqAthUJiIiIiIiIiIiIioC2FQmIiIiIiIiIiIiKgLYVCYiIiIiIiIiIiIqAthUJiIiIiIiIiIiIioC+l0QeEefZIxeOQYh27A0BHQBwUrcxARERERERERERFRUzplUHjIyLEO3fCxF2HudTej/5DhylxERERERERERERE5MwFkz5CrdFgxLiLMXDYSGUMERERERERERERETWkSkpKMiv9ncKMudcgKjZOGWobY2YGflj5pTLUcQiCP/pfMgUxhg1Yd7hUGWsj+PfDJVNiYNiwFodLm4/nNzWvdR29SnZi5fZMZayNf79pmOJ/xOm0zkjwj0U80pHZwv4icoVOp5P/rayslP8l5z5bPAqjk0OUoabNf3Ibciv0SElJUcYQERERERER0bnQrpEyHx8fxMfHK0POSdOl+ahl6tLDWLdyXYsB4eao1aXIMJiAqBjECoIy1kIKGMfF+MJoSFfGdG6WwHhfBCjDRETUMumjQaPWWnqIiIiIiIjogtRuQWGVSoWxY8di2LBhSEpKUsY6ksZL06X5pPnp3CjOMMCEAATolRFW+jjE+BpxgcSEiYjahSDokJD8CP5y8/f44P5f8dFdX+Nv065CktYWRBUELSJ6PIS/3LQK7927Aa/f9Bpu7BEHTScItEYMfhPvPbAOjw+OUcY0TRACMPPqbVgya6oyhoiIiIiIiDoDTVBQ0JNKv9uZTCZER0fLXVVVFYqKipQploDw4MGDUVdXh927d6OsrEyZ0jzpRXP+dtHMysoKbPt5I3Zt+xWFebmIiIqBh4eHMtW5spISnDx6SBmykVrKJk+fhfGD+qJv377ooy/DUUOJMrX56VKr1OmzBkNXpsPgyeMwSJwuzROnNuBkZQ9xmm2cvuwwDCWNg+BmsxfCe3RDQGkKTudVK2Nt6tdhOIkcr2Sn67OWbfYKQ49uAShNOYW8ahWE2FG4cspIuc7HTp9CtX4guumyHNYT0GMwelefxu9ZltQVjba3jx5lhzNQohLLk+vSDTp1P4wfP6h+WlGAVC9bfRpub3NlOiMIsRh9xWSMlOeNg1re3m6odqiH4/qs+/ySKb3gp/JCaLd+8jhpW5taf5E5QB4/WGeZT163ss/s6x87ai4mx1qOe1Prlpa3n89KSs0xq1u1wzjqXKz3ltraWvlfcm7exFjEhrf8C5BlmzJhqtU5fDZ0dFJMN2rIa3hy8ijUpH2NNXu+x27xmo/vextmR+Zi09FjqBbvTerwe7D4yivglf4/LN+9EQbtCMwYMxNeKStwqLxjZ23yDp2KSQnByD29HFvzTMpY56TPrV79b0JyzUZ8c+K0MpaIiIiIiIg6unYPCksP+w0Dw/YB4e3btyMnJ0dZomUNg8K/rFuD08ePorKiAgV5uSgtFsvv2VuZ6pyzoLAULKzPtbv+dxw+XIbAkcMRqwQEG083QJM8HuPCLIE/SxA2ClH6Amxe/TP2HTsGgzoOfXr3Qd9wx3EDB4Q7DYS2FBS2D/TmItzp+qxlF+uk6ZZ5pQDyJeMTkb9zOTYcsQR8i1R6DOqmg+FkjhzAkLav55DeqD69zen2Hj16VCy/H8YP8ZaXqZLLT0RU9X5lukEOCFvyGK/G5n3H5GUOG9RIHj8eYeJ+zCgKaLZMqR72pIDwmCuHI+D4Bny3eZ+4z6vRfcoABKMMWUcyUWSOw5hLB6BK3K71v1vWJ+2D3r0CYNq7G7uzNIhP0iFlwypsN9Q0u01Zp8Tj4R2P3jGq+rrE9R0BvcoEr+r8+oByXHI3eR9lFDW9bmn/p6sD0be3pV8OXjfYv9Q5uRIUFgQNfELCEBEaguDAAPh5a2EW70/VShywpekXggs5KGzWTMCtc2+G19678LcNa3Ci4CRSjVvxS7o3Lrr4cnif+hKHK1ToM/JxzNatxr++ehv7C0/gyImD8Ot7G8Z57sSa1GyltI6pIm8tVv++tMWAsIRBYSIiIiIios6p3d++JQV8pcCvFACWAsEjRoxoc0DYmayMNKXPIiujjbkP5NQJJhw/bFlerc7E9pUrsT1T2UXx/dDL14idv1mnl+LgEWOj3LzGIwdRqrYsI6VpKDObG41zmrqhjVosW99fbjGL4xts2yJJN8DoG4M467wNU0c02F5J8cEj4jK90M8uTXTj/MMlKClWekWWPMjKfnSxzHrxMYiCEUcOWgqUjsnh43ZBCn0xDi9f7rBdze7fFtYvL+vrD2lRKYgbEGCCwVAC35g4+EvH2H4ftbRuaf+KtY+xbhdTc3QJ0mmiC45EuC9QmpeNrOx8lAo+CI0OhheEFqdTJxA1Cv10+7Fh5yHUKfdeqMR/c3/FIZN4Tw3TisdZhfCAMKAoHbZL/gSyi4CggBj5RBE85+Kx+7fh70PE+ez4D3wDn9z/GiZ5Ws4HOQ1FLyUNxX0/462bX8cNPWKhtvvcEXo9i08eeh2XJi7E47dtwEf3rMELly0U69m6eYKHvofP/ri9vnt94lBlio0g6JE86t944Q8bsWThl/jLyAHQNviDhit1JiIiIiIiovPLFtFqR/aB4djYWLcFhCWBQcFKn4U+KEjpayW9P3wbBDQbMZXCYXJxaYMApAmljZZ3Ns5dWirbF71H9IafSoWSBhsmBVgNRl/EKFFhfVwMfI0GZCpBDn1AAFSqaIyYNw9XXHGF3M2bNwLRYlkB9RvsuH4pAHzEGFW/zNxRscoUC9fKtJHmb7jPLYFXC3VpqRwQl9I81Jc3tbe41c61uP7iDBhMSiBXCuLCgIyDUvDcEiiW95FSn5bWbQ1gRylR4Yb7ly5UWnh7a1BxJg8lldWoqa5AUX4xqjQ+0GldmU4dnncI9JWZMFZIwc9YTLz0S3xw/2a8fe1M6Ks08PP2F2dSQyNd62azdDOQF1OrzRDEQZVaY/ngrfwJe7Lq0CPxIngrwVIpV/HwpEFA1q/YWSmPgjbmPjw6cw78s7/G0nX/xhqjHpNmvYzrohqeMHGYMDAKB7a/gA+3/YqamFtx34QJDXIYNz9P8cn/4MVvHhW757ClyHnTdZ+ef8YDYwah/MT7+PCnpTgZcS0mNHibp+t1JiIiIiIiovPlnEWorIHhmpoatwWEJWMnTYe/PlDul/6Vhskma8cy7MgyI6pvf0trVzvpBqPSCtYfcTG+jVr9msuOYf2yZVixYoVDt+6wJQWFM5nbV8rzLFu2A8ao4XKwdO7cUfWtqdtSZlOkgMyouXNx5fAAHFtvKXPZ+mP1QWNnmlu/1Pq7pERq/B0P+Y8E4kCx+F+pHCjWy/vIZMiwBINdWLccwJZbkjvfv3ThUatrUGxMR26ZXUBNoxJvtHUwi5dAS9OpE/DwgLq2EnKCn4SbcF0PT+zb/Hd8eMIfSdLfJM2ufayq1cXYdvog1LHjMNwaK/WYgEGxHjhxamP9L0AG9J+JiJyleGntEvx8bBVWrn0Yq/LicPHA0fJ0ewe2Lca3h3/AL7ufwYeHjNDHjUaiMs2quXnqSvZg1+lN2HFyB7IbZzCS9ek2Cn65/8MbG5Zi87Fv8fX3/8WxBpvcmjoTERERERHR+XHOgsISKRC8du1atwWEJcGhYbjqpjswf8E98r/ScJs0avXrhH26BYkrrYvPK0tL3vTfdsopEkb3b7Bx1hQS8Y1TGxRL0dGG29sK1vQbcnBYSaPQ2jIt81ta6daT97lCSi9hOo4Ny9ficKlyKttPb8CV9UuBcgQEoH9MlBzElQLFGQapxW8/+PuaYMhQDrYr67a2PO7P1BFdlZRGwD8wAJqKUpTVKCPttDSdOjb/oFj4F63Hil3rsG33h9jWys+CwpNbkKoegsFJXvKwJmEckj2OYc/JXHlYELwR7h+A8qIMmLz8odP6wserDNlnyuDnHw0vhz/0ZSK7wDacIy5TLc4vtVu2cWWepgmCGkE+ARBKs5Fn/dVD3Ulk2aWEbl2diYiIiIiI6Hw5p0FhidRSuD3odN5KXxvJATxf9FKS20o5ZftNm2tLgZB+GMcbTO/fN0pKqtvhUwJYUxn49hqNfv62B/L6FBJ9naQ2sG7vaFsLYylVwty50xzKsGeZbmsVLNMHIEAJTre6TCUvb18lmC2/eG64uM/t2QV5Bf9+uMR+enEJSuALf2sQ2JX1y4HyXugVZUuNIQWTVdHRiDIZYI0Jy5pbt8gaUI7u3ZupI7ogKeDrHRyJUF0lCvJKIDQ4/i1Np45Po9YCtdWWVsPi/9c0/f5B54o3YleeN/p3Gy2dEOK/I+GT+yu2lyjToYVGI95q+j6DD+/bWN892NdfXLmHONWeJT2FVen+B3DbO//AXofzypV5mqOS/yeVY2OG2eHdma2pMxEREREREZ0vjEIo5BfHrd2A4wGWlAfz5k1Fr5KdWLk906XpbWENPE/r59hOy6/31Po8tdau4TytVXxwW6OAqERqGevn59cotUH99qIXpio5eKVUCcc32LWMbUCduR3Ld8IhZ++VU2JgUJZpqcyG+0MKWv8mFljSa4pl3iv7ovS4UZ4mkda30+iL3lOVsuR17YRRCQRbgt5A9Ih5cnDflW2yLgP7AHC6AVlmc33qCElL67aSUkjILxtkM+EuRbrEpBfKRfgLKMzOg0lwvGZamk6dg2CuFW8GGnjIQxpoxMNYK0h/+BRQJycQVlkOtjRGUEEtD9bVv1JQut/sSEmBX8J49MUgDE0MRmbKRuTWB2lrUFcn3o5OvYFnvr7PofvnTxuaTZXTPsRtkuPB9lFgFVT2MeIOV2ciIiIiIiJyRpWUlOTwONfRBYeGw9PLUxlqm+qqahTmW36eS52L1LL3yr6l2LD2YH2AtiOTWxBP8ceR5b+xpfAFQKfTyf9WVipvAXNCDvgGRSJSb8YZoxGlNY7HvaXpF4LPFo/C6OQQZahp85/chtwKPVJSUpQxHZ/Q5wV8Pj4X/3j3ORxJ+CvendsXG5c/io2Yh4eunI1Tyy/BEoMafSZ9i7/Fr8VjS15HunjtC0IPXH/bUoxLuxv3b9qjlCaWF3ofXr5xMnau+QFDZk7DrqXz8EW+7ZwYPO1HLPJ9G39Y/jUq5XI0CIsciWjhGA7kF8rzCL2exaez/PDha/fipyb+wODKPFaCEIerb/oKEw33iHXdrYy1GDx9HR4O/R8eWvqenEJCUA3DH+54E+OynsBt36+3zONCnYmIiIiIiOj80gQFBT2p9HcKFeUmlJWWnFUnlUEdnxQAvmJyP6gNJ5FXrYKcsmP0QISUpGB/VutfTHc+BPQYjNiCPdibz4SxFwIPD0ub0Npa53kCBEGAV2AkooI8UJaXj7JaqYW8pVOhTm492tx0s0MLzM5r3sRYxIb7KENNW7YpE6ZaHYqK7JLSdnDmwIm4oocZ23b8jJzi0ygLn4frJizArORk1J56Ge/tOIYKlQqF5cEYM2IehuhVqNHGYfCwezEr1oRNP72Jgybb32LNZSZEJd+IwdHBiK7Zhk83b8UZqYWxIq8iFOPHXoNh4u4UPKLRu88fsGD6rYg7swybcyyfZeaQqZjX0xN7tn+PVMdcDvVamkfKFxwedTH6hiciJrgH+nQfh2ghA8aaQEQHJcK7+jTO1KhQhF6YMnQG+noLqPNKwvBRV2OEfzR0pRvxzYnTclmu1JmIiIiIiIjOr04XFKauQ1VigEHdHSNHDkbfvn3Rr183hOSfXcqOc0VqITx91jj01qVi828ZqLYL8lDn1VJQ2GzWICAkFL5aD+j8AqDX6+s7bU0xyqqan26yJKft9C7ooLB2ICYP6YHsvd/itGBCyrFl2HBsM7btfRdf7dsLk9rSCreudC8OFAahb785mNRvAhI8M7Bl41P4Iq0QZrv7gUqVh2r9ZZjdLRaFR9/AZ2mOL2KtK9mFfUUhGJh8OSYnT0XfwEoc2/0M3tl5tP6+4o6gsNnsg4tmfIK7R03D2D7jEa9TwSt4hNgvDU9DQO57+C1fheqCPUhT9cGI5NkYn9QLOP0JduumoHeNLSjsSp2JiIiIiIjo/Op06SOIiM4XV9JH0AWePgLD8Ic730DvYwvxl017UKcEgYmIiIiIiIg6Ez7NEhERuUiNXfjql5/hN+QVPDvnAczsNw3Duk1E/+CzexkoERERERER0bnEoDAREVErnDnyVyxe9QUM/lMxd9KT+NPlz+HOAd2UqUREREREREQdH9NHEBG5iOkjXHMhp48gIiIiIiIiuhCwpTARERERERERERFRF8KgMBEREREREREREVEXwqAwERERERERERERURfCoDARERERERERERFRF8KgMBEREREREREREVEXwqAwERERERERERERURfCoDARERERERERERFRF8KgMBEREREREREREVEXwqAwERERERERERERURfCoDARERERERERERFRF8KgMBEREREREREREVEXwqAwERERERERERERURfCoDAR0QXqupgoDNEHKENERERERETtT1CrodUqA0TUYTEoTER0AbooJBiXRYbj/m4JiPPWKWOb5+fnh3HjJ+C6+Tfgnvvuxx/uWojL516BxKQkZQ7qFNRaqARBGSB3E8R9q9WqpB5lTMcnVVWl0cp172wErRdGT0rEnHie00RELdKq+R2gORfY/pG/k6jb/p1EiI/AwkmBiNK6cZ/EJOGmN27EO5vuxksPxykjiaijUiUlJZmV/i6vR59k+AU4tqqrq61FesopFJ8pVMYQUVel01mCq5WVlfK/55tvlCd8wi1/gi/PrYHJWC339/bzxeO9usNDJX5JFOVVVeOJoydQKt7PmjJ5ylTMmDkLJpMJhw4eQE5ODjQaDbp1745+/ZJx7NhRfPrJJygvNylLNO2zxaMwOjlEGbI4ZajAmh0FCAnwUMYAH/+QirIabxQW2u6vKrHOUifVoysYOfMnPOj7HhZ+uRSl6sZ/p+07aRX+NjhcGQJqT/4Dt3yzCmYn80q8Ep/Avy+bicqdC/Dw1iPKWPcQhDjctW4OxvqYsOG+JVi6Tw1hyEV4/VXxs7PiOF6Ztg4HmqjX+SJEdcePryRi1/+tw+MHbXUTBvfH3sf0+OjBzXgtu3V1jpsxAmtuC8K+Jb/ghh+avxcIghZ3/t9ULCrcjeRXc5SxbhZ6FSZctwjxUZHwFC8vc9V32PDEvciwOxa+Yz7FFZcPQt43M7H2twxlLBB+2VZcOi5SGRLre/BP+O8nK5QhR4KQiKRp10J36k0cSy1TxravgN5JeO2B3pjgZ8K7//oZzx2xO4bivu0+bxyuvTYRiZE6CLlG/PrORny2rhjoYOehq0b9cyGuO/MN/viCEerJ0/H200nY+ehbePtnYPDf78T9vj9j4aPHUefC9g3/x124P+w33HvXXpQ1MX/8Pdfj6ZuClSEb88ntePiG7ch14350pT7UtBnTL8GLPkcx9v/ZOwvAKI79j3/vLpdc3N2FhASX4O5WvPZa+koLLdD21e3V5f/62vfq7u6CtDxKcSgOQZIQd3f3ZO8/s7eXk9gGghR+HzrNzezs+M7O/Pa3v/0lA1VXYPsJgpLNvWNw3YowhPrZQFFejMMf78AXv1WI2oi9QRAcMWZNJGwOHsHu2EtfODjw0Vvw0EIbyWdAW3Qa/7dwN5KN6m81fhr+/e8INH79Ex59r0QKBfo/+Hf8c6m95ANa9m7DqgcTOl1LXKj2EQQFvKZG4/qVEejnbwt1TTlOfLsbn3xbiGapXH09b3TVPheSvr6W/QaOwoZJzojduwcr43q/PxEiw7HrkVD41hbjtTdO4r2kNunI2SEIlpj22kr8PSAbP74Xj7TkQiRl6/YnBEFcmpz7THQZwYXCw0aNM3Ejx03C4utuwsBhI6VYBEEQFxdLBxX6LXNF6CIXeI+1Fx3/zcNsndSY4+GG5No61Le1iQLhkuZmMawrZs+ZiwVXLcSO7dvw3DNP46cff8A+trjcvWsnPvnoQ7zy8n/g4+OLW1atEgW2ZwMXCP/0ZyXe3JDf7qoaLdHGyujo6NjunJ2d4eLSUUhxOSIIHvBytEZ9VVanAmFOQdx/8PLGh5l7E8frtSitzOxSIMxxcPSGpq0cuRVlUkhf04j8LAtEjtGNp6CxfmhOKUWT6LsEyavAySpLDO1vKwXo6B/uCKfKShzJlwJ6gdDShqbmNjS0XPxn6lwwGjTnWYTaxOHkj+uw/fO12PHNByiWjrfT2ojWlia0mj0Yqjz8qHjO9s//gfhcKbBLguA74XaEBthJ/vOMdyA+eiQC4TkJWL7OVCDM8Vw6Fw/eFwThQAy+ePFP/FnqitlPTMd0wzOUvxRcyUtjpUJzXYvo7z/SG9qGBrSIe3xPtg7VIO1EjiyBsCDYwtvHAnV5lV0KUrh2mbevA4S4E3j9kd/wmpF7/aWEjmPoHNCXp76gigTCxFnhPHsmHnmyP6xOn8K3L+3FzmwHTH50NuYHShF6g0MAZtw8FP1du35QfqnA53hvX2vUHTpkco2K1+kzJ5EhxdPj4GsPTUs98nLqpRAdhb/tls7bh5gKLcrZvbHLtcQFah/7CVPx8POD4ZISj+//uweb4y0QffccLB+iO34+5o2u2uevDF9HNwlsTdJ2dmsSZUIypq7bj1dyHPDAIyOx0vtcHwQ4wNvfAkU7juJ/27NJIEwQfwFoZSYDpUqF6PGTMXjEKCmEIAiicwRBBWsXD/j6ByAwwB++Xq6wU+mPKWDnFYTg4GATF+TvAkuZr32pNEqELHSBtXtHI108zH+BE97Kz8HzyWnIrG/A3vIK8feP+YVSLFOcnJwwc9Zs7Nm9C1t/3wK12gLjxk/Addf/TTQjwYXFAltwfvft1wgJCUVkVJR0Zu/gGsLNzc0oLCzs1nGt4ZYWnVDk8icIXk5AUVWW5O9IZcleHE/fjaMZJdBaAsUVmdKRzik5dQdWv30VXk/oS5GOMZbIT8yF2zB/2At2GDpSg/i4alhJRy89KnAsVUC/cFdYS9cYvw5HhNqjKaUMMWJI78jbEYMRK3Zg1Y5LQRTuCQdnDRrTvkX8yd+Rc2YrchJj0WS2ga47eiu+e2IEdhwtkEJ0NBftEc/JituGqktoj8y1ApetCMfwykysezkDJ+pM6yMIrphyvT/q1v+O/752Ege2xOGrF04hx9IToZFSpL8caliyC6mxoZnVzwUDhzehMFtAMx9mAQGI9C5D4uEGXdQecYanL5sP8iokf2c4sjgqlCem4fieTMQYu9jaPta21penUvIThHwEwQmzbglD869/4MUXT2DfljP4/oljSFK6o//Is7j7hDrBHZUoNJeoXpLorp2yhFTTa5S7E9VoMbtOS37YiLXTPsdbm03ftqpMyBLPObavDlo7tpbI6WZuuADtIwjWmLIyElZ7d+GF546xPk3AhicP40SjPcJHOEqx+n7e6Kp9/soUJBzH+Pe2Y13C2a9JlHXVeO/l4/iyygX33ugLu7M0RaGjBU2NgJWt4c1AgiAubVTOzs5PS7+veLimsL2D/kbUER//wA6axObOy8cfqYnx0hkXFvuomZg/YQj69/eHolKDYTOGQpOXipLms9PsO1cEez/4W1WimuUv2Edh1ryLWx6COFcsLHQLHHNtOz2ippeLD7zsBFSVlKKiphGClSNcnS3QUF2HVq0WrQ21qK6uQlUVc7UtsLDRAPWVqKpv4bYTpJS6xivaDg4Buk1QS3UbCv+sRk1GI6zd1FBZKaGyVIrJ1OY2i3aFS5tbkFDT9ave3IZwv3798NknH7P6qXH/gw+Kguq42FhotQJmzJwlmo5IOHMGY8aOBQtiv7uf45ZN8YOfh+mrjnEZtTiSWIPa2u5fO1er1aKZjp7iXUwE9VI8/o8PMbwpE+Hj/4u7pq3BnPAItOTvRXqDJHjUXI9n7nwd/Qs/w7FKXb8KTqvx0prn4ZfzJU7WKKC1Gov5Y6NRkZWGwRNewtqpt2NueBSE/H1IrTd9fU/rOBVLhgcjK+ZjnKw2HSeCEIWbbv0Vj0xZjWVjV2PpmBGoifkV6W1m8azYPDzlKaydfh9uGHsDJgeFoLn4EDLN8uoKrdYRI2+KhOaPk6icHYSWP4DomwQc/MMCY0e14cCX6Shmg48LXX3mTsK656ZixR3RmDHbD241hYhPaYBWGuPRz67BC9dokesbjXtfmIrl1/ZDmG0F4o9VoVmKIycdc/hDmahxIXh2hhV2xlSjTalAlZs7Vo1V4vjGImSy87RaF/z9Zj+0HjyDb5P1gmKg36RIvHHPIDx9YxhumuAC/9oKHMhqRpuUl9fC0Tj93BDcfXU/0V1rX4KPT5i+qsm1usZfPRQf3z0QjyzxQ7SqBsVevhjVWIB3DteJdVq8cijmW9ciNruxva69RYAlu9atobJwZXPCjXCr24qE1EIoVZbMsb7iD1ZY2taTfsKKdf/GsJl3i66fzSGcScqTUjGg1VrAfcSd8Gv7A6dOJ0qhOoSBb+Lv972NEbMWgU0zsAu/tT29oQOUSD14QKwHf2XUYcijmPy3f2PM/PsQNWwsNLUxKCysaJ/bhMFv4+Z7r0dLbghG3PIuxs5aiZAgR1Sk7Eddi6EttBZeeHCNN0o2HMfbSR21n7QWgZh/TxDKftiNw+m687TVRTiyPg4nUlvQppXScvLCnAdnYvUDk3DdbcMwfqQdqmOzkVetOywIGsz74HbcP7IBJSPH495npmDZtWEIEgpx4nQtBFZur1XX4u1/eSH1izRxfIvnKTzx9/U3Y1V4Mf7YXaEbj+eYVxusELV0ONySj2JvcRiuXi4gp8AO9YdOI3fkaFwXWoJf3s1EmYy8tPYBmLPaH+VHyzHojnm47b4xmD3DHcKZdKSV6dpTq/XClDsiIOw+gD/jO58DBL/heHbzYoxrSMS+OJ22l/2MOXj5ywkIzEjEsUzdvVBwcMeMe2bgtgcn4rrVwzBpvAuaE7OQVS7lJZYnAFX78xG6bj7W3d+xPBx1WBRu/c88rLlnFMYEsjYZvxjPrtBix8Z83RizHoBH9i7DsNoyhN2xoMt0VL7BuPbZubjtoQlYuMAbbXUuWPX5FDj/eRJnyuSNDTnw6zk4rD/+M3sQHp8Qgb/3c4F7fQUOlTWLY4L3+eql0/HpYAV2xZeiDDzMFnddMx3vRbZha3w5KsV4CgQGh+OFWYPxBEtnZaQnBrC541h+PRp4fzPCQsMwW83mSId+eHveINw92AdDLWpxKLeuPQ6/BqeMGoT/Th+ER8aFYUV/d/TTVuNwYUP7XMNfXd84SIs0+7Bu0lFjzMiheGfWIDwU7Y8x6gb4R0/GW36V+DBd9/Sop7r3JVr3CFyz1hOp7+9ETL5OCKptbEaLshF5MXnIKdX1fXfjp1FrhTnvrsFTj4/G0gVesFHYIHL5aCxZNQqLb41GWEkMDujnmm7GhiB4YeVv12JY6nHE5Gow6+3b8NT1Chz8ORc1nsPwzJZR0P6YgCy21+lxPNsOwKN7lmFQ5hEcy5DaPnAk/rVlNnxjYnC6kN2vLPwwa10IGrb+iYPJYpQOCII7bvhlJR68V18fH9R8fwYZney3tP4hWHSNK7K+O4pTBYbjfOz0Rftw5MyrWutwLLkvEAWfb8NBqe7atkZUFZYj5UQhiiq0fTdvyGgfuXNLT1zIa9lz6BgcXTYEd4wKF90yTQk+Z+sKY+Rc73oUQhMSVK5YO8MGaZvykai/j/YSvncImDkCw7TZ+HVXdw8mCYK4VOhLNYALjo2NDQICAiRf5/DjPN7ljiD4ISrcFvlHf8aGDduQUHgG29jfMzUXp4u5EHj29EjoLTQray5ueQjiwqCGtbUKDRUlqOYbluYGVJZWoUllA42aK14poRXaxFe9WgQLOLo6Q11fjPyS+m5NAhjjGGL4aJzaQQWNu1p0/Lce4zg94e7ugZKSEtTU1IhCX1dXN3zy0Uei+YjkpCQxjl5zt7S0FC4uzuLvKxpnf3igFgGhc9Ca8gk+2/sz8m2nYcXkRbDXa1e48jj5YPsbA85+cEMeivSWHVwCWJwGhAWPR+npl/H2H58jXTMZ109dCkdzLQ0Xf9NzTcjHvp2PiGYmPkssABpykW9mVk5QhGLJorexIkjAiaOv4oPdPyDLdhZunb8Kgb3UCLFozkFssjeGrQ2E/6lsJKtMtUHUIybi/iciYBt7Cl+/tA/b4jQY/+RVuG64mdaIVwSmhRZg86u78dsxLaJWzsWNMwxaX7LTYXBhcOTYULz38lRsWO0DC3ZN6V9YzEmsRIGdC0YGSQG+Thjk0IAT8YZG0gyIwid3+MIhOQPPfhCPz1PUWHzXKDw6wHBdlR9OwtqXjjJ3Gr8Wdb5JdBgTiTevdkHNkWQ88VkaTocEYqmZ5ZbcchUWrp2AfS8Px31j7c5OI8f7Xix+9jRuem4LhvkC1iPfYb+5/zRWPP4y9J91aYp7STIP8QTb2EqBvSXrU+z55h7s/PpdFLAmqzz2JPvN/fdg15bN0CsYWwQ/jJnXXw1Nzpc4/PPTiM92QsT1n2B4kPlbDYEIG+WHvB1PYf+O3RCC78DkuTNNP/zjb49gdSPikrvQfGqrQXmFElGLRyHKSzd3KiGgrrwRTW06v8A2t4teWYxlgxpx5NPd+PiNOJQFDMTtTw2Be3teTvD0Ye0UHoKRtcn45eU/sSfHFtHrxmGCNNUVZlSgxcERvkZWbWxmDsM493LWBhmiOYe+ycsSFpbseH0zbMb6w/NkAfIsW9HUYIFBI73ReDoXKSyWrLyCHdnc0orQ8YEoXb8H7/7rKDLsQ3HNPQPhoI/j4gQPu2aUlwjQ2LL7iOSsjLsr+xT+t7cVEUsGIoCdJ7hF4Lb7Q1C/fhs+2SEJB5UuWPzyUvxtLHDqm334+PWTyHYOx8r/GyWeIyKWpwm+E/sDe47iy3cSUerBynPvIDhJcQTrANzMrt9h2iz8/PJe7FeFY+5wDerzKg3mdUJ4Os3wmxzZdTpqT1z78hxM92H988ZOfLW+DiNujoSrthol0osW8vqrZzTeEXhvlj+cizPx4vY4fFmkxvLZo3C/fkwqG/HxnhSkuoTi0UG6vYjv4Cjc7FqDT3ZnIFOql5VXON6dE4ygqhz8d8cpvJ3ShGFjRuGVIWb7F3s/XONWgY/2xuGjHGD0qBH4Z6ihw3yHDsPrw+2RGX8GT/xxCm8mNmP4+Gj8M8hszjROJ7djOg6hUXhltBtaspPx7O5UHHMKwmIn6aBET3XvU8Jc4Qk2j6dJfoZSWYkjHx/FgUS546cNpz7ZLJpQ+HZPHbRFKfhCb4bh0V/xw17dOkfO2BAELdr4T4cQDPFvRo2FCryFHSYEwD8uEzFceCxrPLNrENVgTWggiGvpVqFYr6Ub5Ah3VT1K87p7eFuN/a/o6vYFt6leVY2Crh5u6NPv8NJR37WPnHmVayN7qarZ/Gqol1LZgOQ/EnE6XUqnr+YNOe0jY26Rw4W8livSE/GPzUeYO43NVd0Irnu43o0pTKpEvtoO/c7h23BKZQv4Z0EsrdkNrRdtRxDExeM83LkvDNyu5bhx4zBixAhRq60zeDg/zuOdrR3MvwyODnBAHWrYvY4giIsDXwhVFWSjuNZocaZSsIm2TdSw1SNADWcvL9izhWppeYNsgTDHwqbnuHLi6OF2fKurdatjV1dXNDQ0oKBAZ2jVxla3iOVmHziWlpZsI0QLPLWrH1xQi+N7H8W3pzdjf+zb+DIuCyqXYLB9kIi1sx8c2/JRaLTxcHP2gaYxF/mSFE3t4gtntjk7sPsxrE/ch5PJn+H7+AyoHP1h+PSXDhd+blMe8jt545FvjjMzd4tmJkra7IDKXJjrgqqCVmCBdz42rr8b35zajAPxH+PNQwehde6PLvYGXaJUNSHmSBVGTA9AxqEMtkk0vb8OmB8O98TjeOP549j3eyJ+ff5/2JLsiHEL/KQYEhaF2PzPw9i9JREbn96JPQVWiBptqLmcdEyFwezc43FYctce3LaZawlL10FyOU422WJopE7gbBvpjNCGchxNF70iE6b4wC89DWvfScdP+wrwzjsx+CjTBoumGD6Y2FxUia3HSrDlSCkyu3iLf9QIDzhnpOGeDzPwy748vPJqGo4a5Mqsr7Q4vuk4pt1xAC/GqrBgzVkKh0u/w94PV2DLB/cgqRhoTHiJ/eb+Ffj90zeh/6SdUH5EMg+xH1Vn+WapsiYGWac3IePkUVSzIjYVbRf9oktObv/Ik3f0EjjkfYCdP7yNtJM/4vQPaxCXH4zwUZPF48bk7bwXscc3In3vwzhwNAc2oRPYNWWEtQVs2Aa9uqsXBoQcbHwjCXWR0Xj459V49aM5uHqWqRke9dSRmB9Wgp//sRk/r0/GwfWH8N63BbCI8kGoFAc2LvBgGdftPcD6PBYHfo/DVx+koMrCHi7uuihCSjlrTyd4SicJgh2mXx0M5ZFT2JaqC+ubvNSw1AhorNdi0EhPpB/Lh8qyDa1NfhgwRInUmFzxXiEnL3WgE5tbGnDo1a3YtCULp7fF4MctZbDwdjLMLcFcIGWJCf+6HR9sN7h/3WW4BpXKNhz+IhaFflGYMc4Js56chMjiY3jn1Zz2D0Gpxg/D3KhK/HbfJnz3QxIOsfH9zmdZEPw9EGItRpHK04LY93/HN98n4cBPe/HD9lpYeHFBjA7HeUMx1j4b3963E1s3J+G3/0tDqTdQkmvQNFMHObFx0or4D7pORz15KKb4lmD9PVuwYWMy9n29HZtjLWBZWoUC6bqV1V8yGDvAH/4labhrexp+Sc3De9uP45MSWyweaHgS1FaajmdO1mPEqEjMc/DAw6PcUHw6Du+XGMbq8P6+CKrOxP1bkvFTaiG+OhiDl9K0iA71hIvxvKCqwMe/szjJeXh32yn8XK3GaNa2ekrjYzD90z/x8Il87Mkpwf9OJWBjqRXGBJl+RNsknT9O4RezdEYEe8CpLB0P7kjHhtRcvLk1CfvNZE5y6t5XOAQ6wLahCoXcKpJaZfQQQwml1D49jR8+lguPZeLYrnSUC1bQZuZiD/utM8WQjexK3XiWNTbYgk7bBmgmBSMguRD57B6oYv8Gj/ZB1sF0URgpazzz66KtGgVGAlo3f0dY1bK6Sg+UlWzMu7H9XWWFlVG9mbNi912p7kplE7L260xKlLaw+1xeBboyl+/i5wCrenYtmH1jrU/bR8a8yq9l5zZWz66tZ/XZvCGnfeTMLXK4kNdyc3UltmeW4I/0EmR1Z7a3h+vdhJpm1LCxbCvN3XLhVVNp+Ni0hGNIKAaFCsg8w1Yi+nUYQRCXNH/ZK1Wr1SI2NlbUuBs6dGgHwTD383B+nMfj8XtLY2MD/tyxFeu/+Qz7d/6BpkYz1ateIgj2iJq5GEuWLBHd4tGmG+TujnPN25mLZyKKLcxnLjbEGe0nSFq54bBT2CFixjLxvPb49robENckHi2dt7g9ndHwY7O4eVyOcZju92hERc2Uzjc+z1AW7mZG2YvhxuXRh5mW5+zqShB/JfhrZPZODlA11KBWp2QhoYJCaEQj7OAV4As3ayOpUQ+01vd8HciJo4cLfDVWOs3iuro60XyDBXMcX1/ddcnNZtjb28Pb2weFBaY2Sc8WPkebu78KPk5+UNYexrFCQ6eqFOx22lIPvazQz9kXqM5GvlFX+Diz9qwyCGx9WTqKmsM4WmQwR6K2YG3fUteejh5fJ5YeO7e776LxL4b7ONqhsToHlWYL8fDAobCpOIDDpQatnLbEB7HitbuwU9KslIuCbYCLdsZi795T2L2vUW8ZQIQLaT08rdDENmRlUhmUylrk5bTCzpNtdo03RXllyNY3oVCGIlY5W0fdTkROOvz6WnTfVPyy0gOth2Jx1bp9WPddIc6Y2Z9FWwViMoCB/dgmiJ0X3c8RyvRKHJKaQvyqvbsadYV1yGvPqwlpBa1wcreBrXGZu4FH83BUo62sETn69m+rQ1on5p2Fmmp898VxTL9rP144qcS81eOx7z5v0/bpBmVLFkrT9iM/5QTfw0Fbk4hC5hddRnK7wO5CwV+Jt3d2QlNJFho1bM6ztINaU4WqkipYOftDZVKvbNQUGfzVZVloVdvB9P2G7tds/K2Lsq3b8fDyH/D2m6eRAm/MeXop1i4wfFBwAFtXWKVl4WSNJExxsEdkJNtQF1Sh3cI61w5TVOP0HtZJ+jZj07HQWI86/QOd7HIUNFnDK0hXQuWgwZgygK0Pv05o//hR3+SlgpVlC5rqvDFwaCXOHBKgtmpFc4g/Ih1KkXRYtwaVk5evnwMUxTk4fsbQzmpLlllTc/vcoglwhENDNr6/az3+beTe/Np0wAoJJ7D1mCWiH1qMpVGl+PHxI8gymjP6RfvCJjsLR1INebX973+4Zdwm7G7SxRPLU5aDoycMc52Wv5pc0wh9M4cP9oIqKQsn9OZDlQr2XxuKsg3aDt4sHWVZNo7EdJ1O2BAvWGVmI0aaaPlYEcdTfkX73Curv3qAzxt+dmrUVNahxsoCdmolHKxakFXZAkc7w7zBsz95+DR+aPLCA4sHYnpLNp49VNFuC5ZH87NnY6uqFgliCD9Hi9//2IYBG7JQrh8rnMpqJLZP4bXIYpV25K8hSTRZOmLV3Ck4umYujt42F0dum4a7PBUsjuENDBGzdDKN0uHlcbdhv2sbkKHPW6hDhpHSidy69xW+/o6s/yrF/hv15Kr2Bxjvb5oO6ZtkssaPDid4+apQxdIzt8fL6XlsaMXZid+jho73QsrBXHbpKqGyCMDgYRU4uVs3EuWUh9dLWVyBAqP1oY9UV/293p35LRUeWP6N6cOb916MgqHndQiCFasbu2/mVXZYA+jx8TNNvyPn2j4MGfMqv5ZV7P5Q0M3Dyr6aN/R01z5y5paeuCjXshy6ud47x2hRJxtP/O2729jYvA1vfDYRbvu24L8flUrHCIK41On8jvEXoaioCIcPH+4gGOZ/9QJhfpzHOxsO7NqGlIQ4VJaXIflMLPP/IR3pPVwIOnD2dIRXH8P69evx889HUeA9sl3Q2fH4diQ7jDQTHNsiPBI49MsvYpztSbXwHjkWAVVx2LojGbXaWiRt/xkbDpt+QpwLhMcuHQmH5B3ieb/8kgD7keEstd7gjXD7BPH8DRsOsy1dAMZOD0f1MV1Z9OWxDY/qUJ5tZ2qkNHScS125MJog/gpwgZW1ixfcNI0oK6lu16bjKNGISjYvFeTlIreiFbbuzrKFQVXphodT3KZwY0mL6PhvPcZxeqKoqBCeXl6iIPj06VPiBvqmm24WbQlPmjxFNCuxcNFirFl3B1pbW3Do4AHpzN5RbSaozsjI6OA4ervNlzLezt5AeSabB3XwDbKPizcESUOX+32dPdv9HG5jz8fRmfVTNvTLZB+eTkUW9DM2HzPeTl7QGgmOObpzXdBWnYNO5ItGhMCD7fdKzT5Gx+1D+jh5oo2FG6d7tvA3b5RZCfj0sQM4Wmq+jLBgm2OWp9mDWPHBrIXCdBPLwgyxtKycPG3JKzMdW40KrU2tqGpoQY3hEjCBa/AfSqqDQz8XDIANhodaITWpHNXt16QKFmzDqhVM8xIvSRbe3dapA7z85mWW/nZGG9twphbUIr28DdYai7Pail0aqKFgbaUZ/ka7GQvupg1nA5J1JDtkhK6v9TQfvAlfPf9gu0C+NwhlJTjy3UG8teonbDyjxtA5odCwxPk14xeogaL/GLykF6Rs/TvWTRJw4P2Y9tf2LQKd4KKtRKHxa+nH9uKeaevxe7FUHqEUbKqGZ6ALS1eJUddFwTXhNH4/qhtwfZeXCmpLNp97BqB/Qy5iCy2htmqD41BfuBbkIY5dvHLz8uKCnxyDEJS3t7efPbT5Ve3CIB9/BygKinD8SA7OHMtrd5lGAnsdTUhPqYattwNq1u/D1hwpmMHbw9vfDq3ZXWsmcnTlKTed63xt0JpfKWq184cKPr5qVLMy6wXtute5a1CSZSiPt695Okp4maTD/H62aM0tbxdQcUGQt58V6vIqxbTltmHPsHmDRXWIGIkjotBG516OsGQdqxDNCehRaqvwU2odvOytkZOSjUOsnMbwZ4oiMvI2THPsOmL/178JyYWUy6YOx00utfh8xxGs2nAQt244gm9LOp+BukpHpJOJyDQV+XU/V3RjhfdpBbv/KZH85W/iw4vv9zeBLaCke6688aPDCV7s1lvMxpE58scGm2MUARg+pAQn97VBULFrd1gQosqzEJMlrzwCuyi5IBJG1yS/V3v7WqOFjVW9Ii8X4mrzE/Ch2cObF15L7URo6wwPriXL0uwMPka8/dj1YpR+R869feTMqz5+TgArR3drkr6aNwx03T49zS1yuRjXshy6vd47cDb5lGPrkxvY2NyI115KhHb2DNx6Ve8kDQRBXDx6nrEuccwFw9HR0X0iEObk55i+05KfoxcBnAWO/vC1rUPyGV0aSmUuDm/YgMO5UhcERCHctgDHDuqP1yAuoYDfpUwEoQUJce02kqpy8sC2uejm23g6AnzhjQIkxOlugjzvM8m9/+pqQZ5R/R2rcOaXXwzlZ8gvz3msK0FcAvBhrHHxgqe9gPLCEtSZbQD18OHdUteIVqWZHcduKD5Rh+Za3fKO2xH2ne4kOr1NYX6Mx5HLyZMnRLMQ0dGjkJuTgzdeexUVFeWiZvB777yNV/77H/Ejc0mJieLv8vKOG4WeyCtrxk/7q3sU+FpbW4smLHSaXZcmguAJb0cNaqpz0dhezgD4OFmgvDJTMlngC3d7C1RWZxtMGCAUXmwPVFiWKnY8/1iNl4Nlh3S8HXk6WUbncYLhyc4trmD3JJNwMywC4GkroKjSSGojwsIdFShl5TM2VaJQWkLV7cbgbGhFWysrplm64gakVQsThflu6TkdroHzzX/24O5tjRiwKBq7Xh+DF+a7wk9tuI/oiU+oQBVrxGh3Zwz2bcGJBGPdnza0sktKoTTNS2wqFi6/zAy+lzIvs/TXGIFd89Ez++Or16fim2tdULX3BGb9J8doLPzVaBFfpzY2Y9FuzmLj5nb7zrJpFliKFrDp5BVWQeOGkUv6I8Ld0M9K1CA7q9VovDjBzZOtI377wyBIWfcDHlr8Fd7fZtDD9w5w1GmrdfscrRJ5WW1w9XeBlcdAzJiswPHvYlHc3ld9lRe7D1i1QjPQD9YxuciCClYKJUIHu6HuZC50j816zoubt+CaftUFlUbjyRFePiqU5VTobCCzpuMCKaGguocHTVzQPx5rrrFESmw1PCeHI0hhfH05wdNbgfK8CtO5hWtOSk8C9OWpyatEXXscFxbG5qTscuk8Z3j6AmX5enU/wCrMFa4Ctzmq8/N0vP0sekjHBo5srqurZI2sj2Ptj/AwoISVUYe8/uoZNm+wpqjOjMetotDG4FbtK2Aj0oBg64cHB9niTH4FvAf1xzVsnjam3byU0RqYzyNWvArGYd3igvGsfZJjz+CN5FIcyCvH/hw2dns1gemarbaJXcxqCyNbqlZwMzGJKr/u544L3H0UbGywPQwrW2VyHuKOlKDVxhJN2VxQzOl5/LTj4gR3u1aU5Ha2TpIzNrS6h5NDQhGVnoGYWuZn4z14rB+aDmYgV+Z4ZgMTTi4qtFQ3oEk/Vq38EREBlLIxzjuCf2zMy8cKrel5OGD28CYpsxMVW40LPN20KGbXeeew4z4s/Vxd+p1yzu3T81zHhbme3myOYu2jrzsX+PqNj8S4oTpBYl/NGyZ00T7y5hZ5XErX8llho2azqIDGXpqb4g/fi0/zsZmDE78dwu5YKwydEtiLOhMEcTGRP8tdwhgLhv38/PpEIMxxcjaxcAdH53P4wJKjPWxRjerOH97qqKuByeGqGjNB6NnZDHZ0cOiQtk7I2htM81bW1IgCW8FvdLt5h2UzIuRrH5+nuhLExYavfzTOXOAnoKKQbY6MFnFcY8nF1w8uxu9JizaHBRObw93R1iggfVM5Gko6rg55GD/G48glPy8PJ0+cwFULFyGsXz9kZ2dh/S8/i47/rqqqxJb/bcamjRvED82dDb6ulrh6ootomoILmzuDC/vc3NxEm8Zcg+bSJRjefJ4yFvw5TMAg5wak5J6RAqz4fprtDgxxlB5TMMihFAk5etWZYHixdIx1ZWE7FgNcGpCcEy8F6PGFqx3byFX38GDSxR/uimIUlZuv5tV8mEGl5IXSIagmYd1te/HUCL0V5L6B2yUsLmyElZ9zu/08vgH05RuuwirD5rcH5KajbGvEzk2xWLxuD9b93oCIhSOx/c2xeHGaXbutSY5wpgKxgj0GzHLGAG0Fjunf7WQolQKyi5th62UL7/a8rBDiZYGK4nqjTWL38GjFVS1QuWrgr89bZYtQI4OEPDh8UiS+e2MavlzuhKLtxzFr3QE8uKkM2b0049G3tKKVfzmJjxGjdjOljQ9YKFWWkt+AUsnu2RWVUKtqUJKyTzRjkZ9yCDVNanYOl+73sm6F9cjV2iAs0FTHWMQtEIsenIKZwwzHBGt/RI+wRPZpvWBdIWqa12YZhChxcQ2wH+iHACdD/UTtsILuXqXmRVciO7MCCh8HRF8zEOFFZ7Blu/E11ld5qWFhKSCgnzMSj3P9ORXUSjcERApIjsmV2lBOXs6i4Md4aoFHICKDWpF6Ur8udoCXr5LdoypN3mIxR3AMwq1PD4H6j534z/PxyPYZiIWzjW9gSrFYSiO74oJVIG7/bS0ev1E/1+vKU2KseWjBwryMtRGtYMPmOJVa16dcI3HiVB8oS6tQ2N7UnaXjBC+TdJpRXyfAccwATIywhZOfN+Y+NBL9rQUWRy+qlNdfPcHnjdzaFlizuSo2pxQHRcFNOTKbWZuwxte3K9f+XD4lEtF1GXh2Yxy+rXPDvVP84SpdZzxabk2juE+IEkP4OQrMmzUTMQsD0YXlz04Q0MxluSqj/mTtM8B0KyOLU2xctHgH4ZFIJ3hbazBmWBhmGi3w5da9b1CK91P92BBxC8MQdl0kHc3RNaCs8SMR6AhXth8rMX92KiJvbGi1bfCP9kPhgVTUCOwurrTHwJFqnN6rN68lpzwtqK9tg3pYJGZEWMHW3RMz7hkBNmyN7OE6w4MLcbPKzB4Ud0GQA1sD1KIoiw2ETrGHM7sfiQL2ruiD9ul5rlOC30ZUalYn/f3GORzXPD0Vk/rpzTf01bxhRJftI2du6ZlL8VruLQ5BdvAS6pFzDiIUrmWtYbeJtpazuPcTBHFRuGyuVL1gmH8lvy8EwpxxU2fB3lE3hfO/3E/o0NsoXjrSQTQRIZqB2J7US0EzQVxecGGmlZMnvJxUqC0pRz3bDKpUKtEpRe2qZjQ1K2Dv6gpbKzXUltZwcXGAsqkB9V2t4TuhuboNKT+XIW1jOQoO1oiO/+Zh/Fhv+f67b5CamoJ1d9yFtXfciXnzF2D6jJlYtHgJbrt9DR586BEp5tlz2zwPPLDcG+5ubp0KhrmGMNe+KSkpQWGhXKuOFwHrAHhoatHofgNWD52PcQNuxT+W3Irgqs3YlqHfhWQhpagSLv1vx/VRUzEychXuu+o6OGV/gS36dyVteDqNaPO+HjdETcTQ0GuwetEqhJmko6cGjS2Af+j1GBsyBSO48/UT7bQKmv4YJoVFhw+EOxqgcZlmEgfIQFJhBdyi7seq4QswNvJG3LrsUYxp3Y5f4zrd+Z0T8ZuTUdx/OP7xz+GYODsCC/45D3P6V+HAb/oXM+XRm3RMhMP/q0e/KEeYKLY1lCImV40x4z3gnlOBQ2ZNvH9PHrJDQvHu2hAsH++NtWuHY1VIPTbuLhOP82b0j3DH7JHumDvKDUHWbDvq5iz6uRsibYiPxBSjMjgUr64KxtLxvrj33n4YayycY8uuEYMdkffHsfMuDOYbM9uA2fCPmo3AgePhaMU2z84jRD93rvbSZpzBhfBl+Sls03w1RkQvkOJMg5OJRmMKKotb4Tz4TkQMWYjAwcwFGzSBCo6uR23oPZi1+DaEDFqIyDnvYvbadzA0+CxsINYUYw8rzvhpAe2C+nby8pBarMKwdQtwzbJwjF04Are/OwfjWfk2/KjfwJciKa4Zocun4+olYRg1fzBuenUpHv1nf7hJz9P4QwZvH4t2swLdUZhRgRa3ECyay9Y8P51EutY4fh/lpbKAlYUDvLyKcUY0eK2GpaMG9lYlSDysfwjYc15wdoa7fSuEgUNx3YJADJk2CLe8OAphBWewY5/+/uAMT292L9E4Y/jkICMXiEA3XXtz7bkZT8/AyMZTeP+lTNRnxmHXUSWG3TDEqE/YfSehAW7zJmPl3yIwev4Q3PzmdIxuSsFvGyXBk1gebuPTSDvf3wkeFlw4oxcAVaK4AAi4ehbW/GMMbn59KaY4VqLJyRcz1oUjQMnyc2LnOHSfjlLZjP1fnkKuQxhWf7YSr385HUEV7F6MKhRl6sssow1lcjA+BwV+EXh3cjAWhXjhb2OG49NlI7Dax9DHLmEDcF9gG37Zl4TTQjXe3JeDhsBIPBZmuC5OJOYhyzEQ/53bD8vDvHDD2BF4IAQ4nFrUpW3YjlRgX04zggcNxjNDvHFV/yA8vTAUUZ0Jx3ogL+4M3spTYd70Cdi+cipeD27AYbNnwnLqrkfwugNLt6Xj6lsipZDeUI7UhGa4zZ2ElddFiNf7ujcmIKIwDr9t1auiyhg/elrbIMAW/WaHS2M+AAGOvRkbWmjZ9RzUrwGndtWzyrEQtSdC3HJw4qQURUZ5uGD90JdHka4MxE2frcY7301HaGU520cZXRdWOs3WoizdfagzBBc3DJWu35HTvODK1pmagBBd3Ybam9lzZ2tQtlHzmzQYo6dI17x5nHNsH3nzai1Sz9TCdso4rLk5CmOvGo7b35iEgRXx2PSbpHHcR/OGrPaRMbfI5UJdy7zYfp7umBHkjlkh7gi0ZMPFwUX0czfI2rjf5cEfhl83xR3KlBLsOCd1fzvYObJeruzNmxcEQVxM5M5Ofwm4IHjr1q19IhDmuLi5Y/mKW3H9qnXiX+4/azpownaCrS/49wXakaNdLIOqanaTs7WHSdZi2ucAN0lRl4wdv2zFmRppGPUmzfNUV4K4uFjAxtYaKqUlHL38EBDAFtOSc+NfyVZqUVNahIpmSzh7+sDHyxXWAtusFlfL0wIxo66gGSWn6kTHf58tTU1N+OSjD/HWG6+LmsP8jYuI/v3ZmtwF2dnZ+P77b6WY58bcaCfc34lgmJuNsLOzQ1lZGVuU9n4he0FxC4AHCrHv0C44DLkXt025GkF1/8PbG15HkmQmhL9Gd3T3E9iQ74Dxk5/BmgmzYJvzBl7Y/J1oE1HE1Z+lk4+9h4/Ad9RTuGfOLYhs3mqSjoHD2Lh3K6o8VmDdwn/j/kUv4u4RQ/leFLb97sCDzM/D7h89DBaKEEyfq/Pr4/CPph3Z/U/8mAMMGfUQbpt8Dfo1/o63f3oGRxt7P+56oiXmT7z8TBLqhwzFDY9MxuwhTTjwzK/43uhjMXI4m3T0wuGlb+WZbEiVykYcTmqEr4cN8pPLO9ivbYxPxK1v5KEmIhhPrhmIlREt2PjGEfz7jF6IpsT0a0fi3YeimRuMqzwVcB4ZKfmjsW6wLlb1wQTc/XM5HMaG4/lbQjEyJwu/GBlv5IKAb986dIE0g23gP+ddzPg7d88h1JVda1EPSP53Mbj9U/E6ync9gqNp9ghb9Lp4fPpNLyPKVzrIUCoLkfjbi6ztpmPUda9h2g2vYerMqdDr77VmvIht321Ca9itGHPNC2zD7Y6y7auxa3/vHzzwMfv5D9koCw/HOze6wEUcyTqU2kJ8+8AO/JnHrq+107BybRT8ik7jzTu34bj0hXx+DR74z+/YnGaDCXfMwOp/DEO/hhS8v247Yto/ROgsvnpcwl+l7gEhuQyF1s7wskjD7+tNd8t9lpfGgt1BLGCVm4tYUTbBfFxumJOHeMnGg6y8gp3Y3FKFvZ9nw++mmbjzsVGIrE/Gew/sR3KLFMeDxbEBfBZMxz3/XtDu7n5hKib5ceGAAkG3zsH1w6qx8ckDSOYaoKxP9v6YgtrQwVg4xUJMho/no6/+Dz8fAwb/fSpW3TUUYVWJePduQ1/oylNp+jp3sDMLq0Zhus6rVJZh82snkNrgjJFXhSOgOAbv3HMAe7JtMWJ5EJz5Jc/SceshHU7DkQN4fOHneHz192xu/AofZVjARahBkWQRTl5/yaOxIAlr/shFo18oHps1BP8It0L8kaO475ROGCKo3fDoRB8o0uLxsqSdWJeVgFfSgNkTIzFZMnXTWJiMtb9nItspEA9MH4K7wi1x4tARPHC6XjwuB94Xm/cewzv5SkwZNQRPjfGFa3oKfjaSc8lFydrrgw27MOXrfbjh+52Y8Ut6uw19PT3V3YSQULYHqUNpotErGjLhD6yOvLoFG08qMPiWqeL17pkZg9fu2Yck6UOGssaPntg4/PJHDfyvmyWN+fEYIb0IKm9scPMRlrAtzsARrhjMNYXtrKA8ng797UJueVpOH8czV32Mh1Z8g/sWfoMP01VsjFejSD/Ggx3hrqxFfnrX9zybKeNwn/4a/rsf1Ao3THtS57/jbz5GMycnG7+9nYTK8Gis+df8zuOcc/v0PNfxtfDpd37HjwfbEH7DFKxcNxB++afw+t17caahb+cNWe0jc26Rw4W7ltmx0dF4Y/4o5gZjviNbkwRFSv5RuM1fiiYTAWqMv3EY7g5vwvc/ZKHgLPYkBqxgawvUV3dhP4QgiEsORXBwsIkOy5XMnMXXwNuvl7OoGQW5Ofh9ww+Sz4Dxx9X4h+B67bePwuzpvsjbYRDCGofFYaDJcZNjVQHtH5rjH33Tf3iO2xk+9stB3UfjTI5LeXMbyJ2kLebtN1rUEubHDfnxj9dJ50h5sgxEu8Om5XE8p7rqwwjiQqPh70MxGhv/Ggudx8NDkVBbh5/zL6zm7TdPjcaYAa6SryNbjlbi5Z8LUFJSitraWlEIzc1GnK15iguJesBr+HR6K9598z7sN9EWJAiiL+HPhyJnDcWHN3vBtqAAr7x5Al9n0zVHyIePoUGP/h0PDTyDh244jKJzEnRcuXCt8UdWTMLMzP2Yub/32ht212/ADbc0Y//y5WwPQH3QFV6rrsWLVxXiX1ftQhKNVeICIQT44d07IzDLpxXbPj2Gu7bVnJWiih5BsMaCj1ZiiSIGrzx9AunFTWjq5VsYBEFcWOiOc4EQP6a2dQeSHUbq7O8um9EuBJVz/FzgH5Y7+MsxVIdPF9NeujQSNcn88bYO8fiOZEA6zvO2TzgGQ4yOKHMP41iBLSJmLNOlKQps+Tm2sHfUpZnHEvCJXobFo/2ks3Scz7oSBGHg+eS0Cy4QloOoMbzMW7Qh7OPjI5qNOJsP2F0MfB19oKjJQ75egZQgiPMC35MmbT+J2Q8ex4eJgP05vd5EXClognyl195DMXX1XNw83xLxvySSQLiXuLi6Sa+ie2LF5IFY6tiIQ8av1/cCF/9AoCgeRV19/+wKxS7UXxqrQYi+ahRuWuSCwh2JSJKOE8QFwdYCbUlpuOPBvVi3o+6cBMIcpbIB2945jAyvYXj0p9X474PnpnBHEMT5hzSFjXBx84ClVccPqPSG5qZmlJf29C3ni4+o6RtZgx1b48QPxhEE0TN/NU3hi0VPmsJ6Fj1+ErUtVqKGcE1N336v/HzAtc7GX7UPd1q9jpU//YBmmjsJgiAuKYY/vRr3zLaCtq0VtYUlOP3Tfnz9TX6PdqMJUyZOnYH3o1g7agXU1FZh38l4PHOyotftKAieGPb2QUSX3ouPn1oPLfWDCDeVNfbf63DHVAuxjZurqpG+6yg+ezkBBRf1o6ME0TcIait4hTjDqaEcydlnb+KOIIjzDwmFrwA6mHowM9dAEIQ8SCgsD7lC4eufPoTiBkdkZBgbciMIgiAIgiAIgiAI4nxDjyKvALipB24dQm/qgcw1EARBEARBEARBEARBEMSVC2kKEwRByIQ0heVBmsIEQRAEQRAEQRAEcWlDmsIEQRAEQRAEQRAEQRAEQRBXECQUJgiCIAiCIAiCIAiCIAiCuIIgoTBBEARBEARBEARBEARBEMQVBAmFCYIgCKIbho4Pkn4RBEEQBEEQBEEQxOUBCYUJgiAIgiAIgiAIgiAIgiCuIEgoTBAEQRAEQRAEQRAEQRAEcQVBQmGCIAiCIAiCIAiCIAiCIIgrCEW/fv200m+CIIjLDq1WKzpBEKSQs0ej0Yh/Gxsbxb9E53zz1GiMGeAq+brm+qcPobjBERkZGVLIpQm3KXxyf6bkIwiCIAiCIAiCIIi/PoqIiAgSChMEcdnDhcKtra2S7+wgobA8SChMEARBEARBEARBEJc2ZD6CIIgrAqVSCQsLC8lHEARBEARBEARBEARx5UJCYYIgrhi4YFihUEg+giAIgiAIgiAIgiCIKxMSChMEcUVBQmGCuDBwM94KlbpP7Hn3JYLaCmOmBuGqgEurXH8FeF+q1GwOvUT6lMpDEATx10MI8MSaqU7wVtNcSRAEcbEhoTBBEFcUJBQmLjcm/ucEjqent7tjKR9jwSWw0bIf/zVu+L8TmDs+UAo5S9yWY+KdB1ha6Vj5YjpufvZN+J+l0M0hIhhfvDYVX9/sjyhbKZAhjJ2Gdw6sxq1jdOma+40Ju2cFvjh4J16+z0sK6T2C4IDoW8dg2lC1FGJK9LNr8Pm7g2F3gYSLPZVHj8c1S/Duntvw8DWOUsj54VIqz6B/3ir2t7n7fMMkhJv1T1fliXjgZpNzP30xXDrSEbl1J7rmfLShIFhh9rt34MNnQ6QQ4kpHmDoTHx1YgzWTu56nr8Q4su6nto64+uax2PVaNNZEqKRAgiAI4mJAQmGCIAiC+IsiCNbQ1KfiVEwMTp3OQS0PLMxGZpN4+OLS2ojWlqZz+sCjIKgRNOdZhNrE4eSP67D987XY8c0HKJaO9wrvQHz0SATCcxKwfN0evJhgtARqaQP/115Uc78Eb+/+Ax1QXdkAt4G+cD1roa0jhl4zAuMHWEr+i4288mhZuzQ3t6K55WzrLZdLqzzazDN4/5Hf8JqRe/2FOORIx/V0VZ7c9Tuk87Zge1JP33e+1MbGXxFqQ+IC0Cygld8nWiR/Z1yJcWTcT5UJyZi6bj9eyXHAA4+MxErv831PIQiCILqChMIEQRB9iCCoYO3iAV//AAQG+MPXyxV2nShBcFmSxs0fgd6OUIMWw8TZoVQ2YNtTV+OW5ctx8+P/QwUPzM5Ehnj04lJ39FZ898QI7DhaIIWcDZ5wcNagMe1bxJ/8HTlntiInMRZNyt4tXwRBiWUrwjG8MhPrXs7AiTqz89kGV9y26je45n49Vv7oF96CuN05aA7zRn+NFH6FULbxN9w55WO8urFOCrm4XLDy1JTj9K50xOzJNLjD5WgwG4ddlacuLUc859iuDORWSYEEQfy1aeH3CQGtzZK/M67EODLvp8q6arz38nF8WeWCe2/0vWBvxhAEQRCmkFCYIAiijxAFvS5e8LAFakoKkV9YihrBBm4+LrBii2djlBoXuNlqUVVehRaaiok+QBUSAE/2tzw7A3WdCE0tg+bgjnc3YMPhWBw8E4NfvnsOC8JMNenshqzE8xv2YWd8LH779gHM/scPokmKD1e5SzF6xnrST6KZB727euFo6YiBwOvjcfOauxAw8yssfToeNzy2FdNnjIeVtCkUYAmlpR3UGlsoucUXpRVUzK9zrMz6eIIlHIY+g9n3HcTfnj2Fq+/7EqOGhEJhvrlUe2LeYBWO/pGGky2dXG8trew61BppNpn59Qz1QYhFKTLWFyLbwhPhQ6VwiXEvrsPnrw+Aur18Skx7/Y52cwHC9Fn4+MAd+OrwIkx0UKDfnSsN5gi+jIaHSbnV6L9mMf7zxxq8/9v1uGe1L+yNjvO0PWeMw4Nf/x3v7l6DN79diOtmOEBpFEdnhmIERt62sNN05JbH6Yal7eHcvfZAR9MZgqCAx+QxuPeLv+OdnbfjrZ+vxtq/e5uWGdYYfNscPLN+FT7cczve/HEpVl/tAc15Ko/3nEl46Nub8d7O1Xjtm4W4cZYjVEbl6al95CKnPD0ht+5y+l2YORufHliIueNH4ZEfV+PDHSvxwn9HIdKpd/XqKS9BsMf899fg4y9HwV8hhcEJSz5bg48+Gsbmo16UWcb46avrS155rBC1aj5e+O02fPj7DXhwpScse1LyJq4sJA3YNvP7hDFXYhy591OGsqUa724rh+0Qb8zsxNoLf1vI6/bfccuWWCy/fWzHeztBEARxzpAk4iKjUFtCHRAB6xHTYDtxoej4bx7GjxEE8VdCDWtrFRoqSlDd2IyW5gZUllahSWUDjdFiV2DxnNztoagtQWUDLXCJvsE/KAD8rpGXlaILMEJwX4DnvnsbK2f3h11tNnKqLBE46gY8+f596K8XlLgvw78+ewJzBrtDKOSasLfg4Zv7sa1cLfIyisQ4cmiKe0k087D98yeQViYFdobjYvT3isHpDU/hdIoA7xlvYvRgyRar971Y/Oxp3PTcFgzzBaxHvsN+c/9prHj8ZfjrYkEV8hhmXrsIllmf4/AvzyEhyxGh132MkSFmKrz+9ghWNyIuuQu7Gs3SBrdds8nML+E/zBMOhSVISSxCZrEGYcPcpCMyOXUK7z/1O95+8ijO1GtRsGUX+71FdO+8lYJKKZqIVwSmhRZg86u78dtRLaJWzsWNM6ykg2y2GToWDzw9AHYJp/HNv3dja7wGU566CtcMMXs1wTidY2bpyCxPzZ4DkvmDXTiQ17lkTD14NO57fii8cs7g+5d2YcOORkSsWog7rjXY13W/bg7uvs4JBRv348PntuOXrY0I/8d8rJgoTZB9WZ4RE3H/ExGwjT2Fr1/ah21xGox/8ipcN9xCiiHRXfvIRE55ekRm3WX3OxwxfpED4j/fhc8+yULL0GisvTPIRCjeEz3lpVTWYPNLR5EXOBw3XK3rZ/dlkzA3tIKFn0CRtM2QU2Y546dH+rANbaZPwrpbvFG/5xA+fS0GaRFDMP7szYgTlyOtbWhlK7oW8zdKjLkS48i8n+opTKpEvtoO/fQ3dhMsYO3hCUu1LezcXEFfBSEIguh7SCh8kVAolbDqPxL282+BzZg5sAwdBAvvYNHx3zyMH+NxeFyCIC59lMoWVBVko7jWSCigUrCJtg1aaR/Ov05v5eAGR1UdSssb+Em6AwRxjgQH+kOLBuRl5kkhBqJW3o3pHm1Ieu9azJs6F8snr8OvxWz4BY/BKB9dnP4334ZxjgIyPrsJC6bOweKZTyLekgtkcpCXqosjB6H8iGjmIStuP6q6s22sOo7TX/0XqSd/wqkfHkVSuRO8w4frjpV+h70frsCWD+5BEitnY8JL7Df3r8Dvn74JvYjaZ+RVsM/7EDt/fAdpLJ3TP65FfF4AwkZOkGJIWFvABs2oFo0ud0SZdgSPjPsaPybrrkdzP4drLEUOckVLUgEyUYy0pDb4DvSFdS+EbMrSIhzZloaDW/NR1grUpmXiMPOL7nAlmo3nA4tCbP7nYezekoiNz+zA7nwrRI02SKUGLoyER9JxvPHscez7PRGbnv0f/pfihImLzHbWxuk8vRN7CgzpyC1PW26hZP4gB0Vs2uqM8Ln94V1wCm8/dhh7fk/GH2/9hq93CYicFtyu7Vm5cQvuWfQD3v8yCacOZuPgt39iX7INosZ5iMf7sjwD5ofDPZG1z/O69vn1+f9hS7Ijxi3wk2JIdNM+7ShV0NhbQWOrbndqlaHf5ZSnJ+TWXXa/M+I+/wO//paK/V/vxOe/VsNxeCB689lHOXkJKTH47PsqRKwcj1F+Ibh+lR8qftyNTYmG9pGTjpzx0xN92YYR4wNhn3wC7754Egd+T8Avjx9Dkrncnbiy6UHYKXIFxpFzPzWhphk1UMHWWvIbwU1kpf3fZHy1chK+eWETBON7JEEQBNEn0Mx6MVBbwmbiYmgGj4fCsmttFH6Mx+Fx+TkEQfy14K/D2js5QNVQg1r9wtnCES7OajSWlaNBq4TCzgtBfi7tr8MSxNkgCK4ICHBgv3KRaybAFQQvjBsXyn4lYvs3J3SCkcYilNXwow1oqNedHx0dxvyp2P71ITTyOOWZyKlmQc3ZyM7mcfuY8hRUtEm/hSRUlwNWNs6iV9mShdK0/chPOcH3i9DWJKKQ+UWXkSzWQRBsYe/shJbS9HZzGUplHipL62Dl7G+mEdkH732rfNEvUoGcxCK2MdUiJaEMikhv9D9fgqK8MmTr5w2hHMUF/IPtul0zt13u7mmFutwq1EnCShv7JhTmNMHO07HdDIeISTplKMo3pNNX8OzcPW2B7EpkS1krWRsdffJD/H3tadRI/dNi64kFL67AB3vW4sPtt+OD7TdheZQCdvZ9XR4VPFj7NOVWoKx9bNQiL6f1rNpHMWAsXhbLa3DPrJZvUqWv6FW/owpFadJPRnFeFZo1lrCT/D0hNy/ez6kf7MKu2hD87a2JGNF4Bp+/X4A2qd3lpCN3/PQFcsvj7GIFoagWpfq8W8tRwMYGQbTzV7Lzq+dCxukVXesAK4Vq1Obkolnou3mAIAiCMECz6wWGa/3ajlsAC8+OGh1dwePyc0hjmCD+OnCBsLWLF9w0jSgrqRa1G7gdQwc3Z2gaK1BS0yrFJIi+IBR+/LbSmo3sDl+Zi0JgEPtTl440vXBXGQI/X/a3IofLYRgRCAlmm7KmNKTrBUlqP3i7sr95WcjUC2/7FMFIVCuIcluFojcvh6qhULHTJOGUHq3AElJZoM9ltZHeCLVpQNaZWihVCpSdKUG1jRcioqTjfY1Wa9Q+WlFQZWgeVj8LwG7WXBNB5Z2zNOyQgrWMEd2m01coxL7geaGLtQq3/zz54dmYE1iBLf/3K168az3+fddv2JZiKF3foWsfgZfHCC33n0X7aLPP4G2xvAb30a/iZx0vML3od4bxpVHz0yasnrcDp2WvJeXnpWwpxO5dlXDxtEfx9jicaTLOQ046PY+fvkNeebTiGDAbP9JfghBpbkMz2rq3vXslx+kVdHURBEFcLEjKeIGxDB/eK4GwHn4OP1cOTtc+j+u/+hhzr+19PtqgMQgI0t2YtUHLMPfL5zFY8p8Pzmd+5yttrdYfg1/8SGzjztzE8WyDaZSfed7G5SIuT/hGnH9wztNeQHlhCer02g1Ka9jYALVVVfQKHNG32ITAjysuFmQj0/x1Tvcg+IpKxOyYLgQICkOAhv1NT4VogdjCBx5cAFxagkK9ICmqP4LVbDznZCFdCrq0aIG2DR0emCr4l+nYTtVEjt0ssNgWsDkHhVSXYd7wUNhg2ht34LM/mXt9IBwVDug31F6KwbJtY43H8jfIFBWijEvg4X0Kqx/bjNfu/9NEUMndi6+loU6KdeFg9zre4FyaaiyJVCmhVuvDfDBwuBrZG/bily3ZiD+Wh7gjBSg9S3ML3aNrH6WZdFd86NCqZWOhlzRUIe1IDs6wMutdel5f96kcLmS/y89L8IjCdUsdkRFbDNcl4zDVw7ht5KQjZ/z01fUlrzwKcZlmNn6kvwTBUeYex5PjfsCm3K7Xc1dyHNnYqGEDAY3dmZsiCIIgzht9MJMTcuEfjuM2gjujpSgHjQnHUB+zB43JJ9FWx9/ZNUW0L9yDGQkusAwY7oXc4yfguGARAsy0ZLqDCy/nPbcATpL/fGOenyLzZ2xZ8ThOZ577svt8pq2n8ten8e2Nt3Zw+/azDUsX+V3oNiYuPKJA2NkLXg4CKgoLUGMmfeAWhh28QxEcHCy6IPe+fW2auEJxc4Yjn27qaiFahTDG2gpc/gs7Z7hxIa9ghaHXz0MIC0revxPlXKqi0OrsXnuMwKSR7rB2G45bHrpa/KBbWVY6WswEr5qJz2Dhez9g7LhefmitD1Eq61BTXgG1W0i7XV9B8Iajmy0ay7PbX18XKaxHrtYGYYFnpz/MNf+jBntAm3IKL9/+I54X3UZsSdIicLBvu6mK0qI6wM8FAfqsVe7wYY1YXmh+T9e1t0p9dsswpbINJUVNsLJoQbokrIw7ko+ieiWUbW3QmvVXz5xrecDKw+oe4IxAKQn+ZsSoZ1bhozcGSSYL2tDK5kO1hYXoE7H2RlCA9NuEc2+f4sJGWPk5w6V9bNjC188CNYVVaOp1+/QVWtYGWt2DDKlcHem67n3f710jNy9B0GDyg+MQWXoKn9+1G9vL/HD1g1HtdoDlpMOT6nn89M31Jbc85eVNUHrawU3fTxYu8Jbsr5vjOHUSHvtiCW6cLM60nUJxLr84RN/gEGQHL6EeOfK/Z0sQBEH0IR1XS8R5w8IrqKMNYa0WDbEH0ZgUw1eqUDm5QdtYJ4YJgun7uvxcnka3TFiEKJ+TyFpfgCoMRaDZt3YIgjh/iB+Rc/KEl5MKtSXlqBfUUKlUolMq2MaSLXpL8/KQm5vb7vLLG6WzCeIcKM1BPv+IWv9b8f7/1uOTn37CJ5/diYFcoJF9ECeytYDv3/Davq34dtd+fLA6AoqCjfjgy2Td+S37cOhYMxTqAbjlp6PYd+QbLAnQqe3kZpsaKeZmAILmrYBP2EgMvmomlEbCLS7IsQ2YDf+o2QgcOB6O7Janch4h+rlztTfE7QsKjm9Cte8qTF+2DqFDlmHQsncx0Dcbacf2SzEkaoqxJwUYPy0A3kbllY8XIgaoUHgkEadOFyFZdDnYf6QC6gE+6CfFSv89CXluUVj1bDQmzYnE4uenY5JrKQ78XizF0FOBvGwB/tOjMW12KEbPZG64PRS9KFvcpgSUjxiN+x8cinEzwjBj7Vw88t58LBhmJHSVTdfl4UVyGxSE4ZODMHKqPzyt+dtLPqKfu2A3XZmTWd0LvQdj3f+NxuTZ4Zh553z8bTIQvz0DtVzKhkKcOtoI76XTsPL6CIxZMAQ3vz4cwTrVTDPOvTzxm5NR3H84/vHP4Zg4OwIL/jkPc/pX4cBvueLxvkJueTjcTm5GSjkwOBLXLgyT4gQgwMkQp6ex0bf93j1y8nKYNRnXjG/F3lcPIb2pGL+8koDm8eOxYpbhgaecdHoeP313fckqz4Fs1IYPw9qHWJzZkVjy/ChEdaJnwR8YDV84CBH9fDFzcYiZLXMdFOfyiyNi54jIcd7wNrws0pErOY4M+EPq66a4Q5lSgh0dnmjrECIexfXb0rFw6YW3404QBHEloHJzc3ta+k2cZ6z6DYbKxVPy6WguzEJrQSZsR82A2jMAFs4e4l+1dxCU3OiZGdrmBjF+VwQuvw3+2hOI//EIlGOmINSxBHGHdBsgUUv1zRtgc2IHiip1Gqz6MOsCJ4x4eB6cFPbwmLYI/uoTSMnzRb9p3qipH4Bpj96OQUsXic65aCOyc6Tztf4Y8tIrmHaz7tjAJQGo/uUwqhQKQ37Fzhj+r/sRvcxwfpZqOeY9N9c0v7qZJuXrkHZgcXtdOLr0Dely157OOaTdXbl19XaE18wpcCjYg9T4jhrdHJO2RpTYjtUJzh3amJ/fcxtOh43lQtYHN5gcI84OblNStCt5FlhIGm6tra3iX3O0WhUcXN1gq7aAxs4Bjo6O7U7dUoX6FhaHbS648Ljdqe3gpGlDTVU9hMukX5dN8YOfh43k65qfd+eirlWDykrRqO0li1eAEwpzLu0yaptTkFTgjYFDQuEfEggfb2941h/FZ18fRI2yCMePFMMzIgIBgX5wQjlS93yJF+/7F/YU6Da7CkUdYnefRpuLHdoq0nDkm2fwa+08TBvYhuNfvIzdGYaxqVC0odVpNEIGWaN481tISiyXjvBrwBZh123G5KkLEDJ0GlzYMFC7j2O/uX8BrPJeQ2ahAk6D7kCw5iBij8agjc91Wgu4j7gTfm1/4NTpRCk1nh6bb8eshEfNRsQldLz3tZUfRH6ZB7yHL0f4iJlw02Qj49f7cCyhmBdUiqUrc3ypJZYvDsZUTQW2xdajoRcvg2sD++OaFe5I/XQvTuQazquAK2Ys9UTVtjgkVSsglOQjNluN8BlRmDw7GH7KMuz+7zasP9YIrUl5WpCV3ozAyQMwfWF/jJ3eD9FeVdiyuQitLJ7v1JEYZZuD//1WiGaxfRQImReNIa3p2Li9TEyjrSAPsbnWGDh/IKbOD0d/nxYkfb8DH39VIp7DkZMOp7vytMASE566HrffFIExM4Lh76CAVYA/+x0uOvvUwzicqkBbIStPtgXCpkRi4rxwRLLyJHy7HZ98rSuPQiEg50QhFP2CMW5BJKKH2KHy10M46dIf/RtS8esug43ePilPfg7i8mwRNYf1xZxQBNlV4fBrf+C7P+vb+0JO+3hOHI5xroX4Y30+6qXzjNFq1bLKo6cyvgjN/fth+vJBmDI3AqOnB8Hi+PH2cdXT2JDT79rQMCyZaoGTnyUiq61jmeXSU16CbQBueWksPI/sxOuflaKFhbXk5KMybAiWLHBE+q+pKGqRV+aexg+nr64vOeVpTstFtoUHRswdgPHjXaE4cBwx9v0QUW8+VoEWZx82ntVI3XQEf8Z3fAee4lx+cTh+f1uARx4ahvCmLOw5WS+FmnIlx+kJAWqMv2E4/m+cAj+/dwqbSljDd4Iy+maMHadBxtevI7eLOARBEMTZo4iIiDg76QjRa2wnLISFT7Dk09EYf4RLmqCJkGcvuDU/A3V/bpJ8pmi1YzDpq1Ww++0ZbPk+R7QtPGdBIQ7c+Cay2QpHFDA+Nwx5TzzWbtbAOOwUuKDWcFx3bC4c87fg94d+QiVLwzjNLARgyEtPIarwI3z36iExPfH48BNi/IpgneC3y/PF4+b5SWXJME1bXze8pzPPYO5vz/us0uZCWSO/zHr7xujauTO6alfj32K5zPLmdNqGMYbjxLnR1tYmurNBo9G9RtjYSNq93fHNU6MxZgA3UNs91z99CMUNjsjI6PBltEuKoeODcHJ/1w/jLkcE6zF44vdvsMRzD54d8Xdsqvvrv1jElb0iZw3Fhzd7wbagAK+8eQJfZ9MLUwRBEARxIREC/PDunRGY5dOKbZ8ew13bakxNPhnhdtsOLFuShm0LViG9je7ZBEEQfQ3NrJcCZ6m12IEJI+GLk4j/Tvd5+YrDJ/rEhETeJp1glKNL0wtOXLYtmao48MpB8Rin4rvfkOczF4OM8uzy/O4IHgVfn0KcWa9LW6E4hH0rVrULgBGch1jJfq8e2WmblVuhyMGpTSeB4SNNbDD3VG6nq57u8JG5Xn/cT24bHjEcJwiCOB+MuPdrndmJnzdiw77PsMS/BVnffoCtXbzS+VeD7zeTtp/E7AeP48NEwN5WOkAQBEEQxIXD1gJtSWm448G9WLejrkuBsCCo4RrA9laZsSju9RdCCYIgCDmQUPgCIjR03FkrXTzQWpKHtgZTo3pCbeevKneWhp7AUUOBmGOiVrBIxhHk5QO+o8bq/GdFIarypJ9mOPt5QaEYhvFff9IuFP3b16vhx/K389N/Oabr87vF1xuO7NzKLhQIFZk5osBWO/5OQ97Pz2PnyCS/ACaGH/K4DWZjoW/P5e7sQ3NdaQ53xXltQ4IgCJkIgiuixo3FkOHDMXhwGBzqErH9tTVY99z+i/hRrvNDQ0EJ3vv4FN5LoCUQQRAEQVxolAmZ+MfHmfijoCfFqHA4+VmgPuVUu21xgiAIom+h2fUC0lrcUbJn6RUIpaMrGo5uR2PicTSlxaHu+C7Ux+yBtqVZimWgszQ43JxC4HBAMWK1kXDxaQzwVXTQgO1LtHn/w5Ybbjln4Whv4fWd+OVHuH6NF+If1+X/zeP/Q5V0/K/ExWpDgiAIPUplGb68OgQjQkIwst8AzJi8GI+8sQtFAi0TCIIgCIK48CiV8Th8cwi+fGWvFEIQBEH0NbTbu4C0FmZC22z2sQKFAjaDxsGy3xBoW1tFDWELZ3fYjJoBhdpSiqSDn8vT6Azn6xaIpiP2mwkXdYLSczch0RkVuYWAzzAE9GSu4WzooLlrBjeVwW3+3miwj6zTLpaJebl70Ew+X5zXNiQIgiAIgiAIgiAIgiCITiCh8AWEa/42JR6TfEYoFLD0DoL1wNGwHjIBViEDodR0NHbIz+1Me5h/rCxguJep6Qg9xiYkMvJQCy/4jtaZJRA/crZ2rkGQKh139JX8PfHnRpzJ90LU2uVwkjSRuTmH6758HoODZGgmd5efWG6W9hKd6Qte1sEvfoTr7h0j+kWMhKnih93WDNV5ON2lrS+3UdpDFpqZ3jhfmJfrXNuQIAiCIAiCIAiCIAiCIHoJCYUvMM3JMWgt6r1ZAH4OP7dTxI+ydf4xMv4RteyYQmD4AgwJPoi9T2wBFjzVbl7CcdNH0Buk4B9zy2JZ+K39xFT42gXiB9oeegZnMBdz9TZx13jhzBNG2rvd0F1+7Wl7rWova1ThR/ju1UO64/vfwoEYLwx4Xsr3uWHIe4LXRSdwPZe0zyfm5TrXNiQIgiAIgiAIgiAIgiCI3qKIiIggdcQLjdoStuMWwMLTXwroHi4QrjvwG9CJljBBEL2jra1NdGeDRqMR/zY2Nop/ic755qnRGDPAVfJ1zfVPH0JxgyMyMi6w3ZZeMnR8EE7u79x0D0EQBEEQBEEQBEH8FSFN4YtBSzPq921A4+n9HW0MG8GP8Tg8LgmECYIgCIIgCIIgCIIgCILoC0gofJHQCoJoI7hm8yeoP/Q7mtNi0VqQITr+m4fxY6IdYRaXIAiCIAiCIAiCIAiCIAiiLyCh8EWGfziuJTsJDcd3om7fJtHx3zyss4/KEQRBEARBEARBEARBEARBnAskFCYIgiAIgiAIgiAIgiAIgriCIKEwQRAEQRAEQRAEQRAEQRDEFQQJhQmCuKLQarXSL4IgCIIgCIIgCIIgiCsTEgoTBEEQBEEQBEEQBEEQBEFcQZBQmCCIKwauJSwIguQjCIIgCIIgCIIgCIK4MiGhMEEQVwytra3SL4IgCIIgCIIgCIIgiCsXEgoTBHHZwzWEW1payJ4wccXAFeLtQ6IxeUwEnNC5drycOARBEARBEARBEMTliSI0NJSkJARBXLZwQXBfCYM1Go34t7GxUfxLdM43T43GmAGukq9rrn/6EIobHJGRkSGFXJoMHR+Ek/szJd9fA0HliSFjwqHKOoKTuU1SqCmdxREEBWw8ghAW4A4HWyugqRrFGUlILaoHlL17jiwIGrgHecGiIgtFNWd/DfZFOvahozHcuQiHj6SjsZf1OJ8IgiXcQiIQ4uUAGysLKFoKcOrPRFReQmW8EuiLMebafzwGWmXizxM5aLvA/ScISvgPm4iQ5njsSyiVQgmCIAiCIAiie5TcviY5cuTIXa6OtIOJKw027OEYGACXtmJk5jZIoaZ0FcfKoz+GRnlBVZWH1MRk5Ndr4NM/Cv7WUoTeYOEMv2B/OFu2SQFnyTmmIwq6baygbWxA5+Lxi4dNQBQG+FigIjMR8bGxiI3LRpV0jLiAnPMYU8PG2gItbIxdaIGwDlvwZ5b19XWSnyAIgiAIgiB6hlRRCIIg+hBBUMHaxQO+/gEIDPCHr5cr7FTSQYaVawCCg4NNXJCvE9RcSkcQfYHak40pDapyM1HZ1W2+kzhcW9I3yANC/hmcSslBcUkR0s9koVJpD0cnCzFOr7C1hgb1OGc51TmnYwNrKwUa6+uhvaS0hK3g7uGI5qJUpBWWoay8HOXVjZdUGa8Y+mKMaYDGhnrJf4FRWbMxrmX501ssBEEQBEEQhHwUwcHBpEZHEAQhg57MR3C5rsbFF972LagoqUQDFxA7ucHFqg4FOaVoglIUCnsqypBXYZyGFm0trb1+Pf9ShcxHXDxEDeB+ozDcvQqnDiV0KhTuKo6g9sXwcQGoP7UfyZVSmKCBR5AHFGU5KKnTLRcElT38Q0Pg7WwLG0st6quKkZmUhtImHl8F/2ET0M9ZIcY1hmvtlyfuRWxRz8uO3qQjlieMl8cO1spW1FcXIjUpA1UtUh3ghgGTBkCd8idOF0iaoBpfDBkRAou8kzieXiVee93ViyMoPDF0UjhaUs+gyS0EXg6WEOrLkZOYiDypbXqDILhiwOSBsEjZh9jCjg+FeqyXoGZtNA6BjUlIbvVEiKcD1EI9ynMSkZBTI9bJPmQUhtmUIdvCA75W1Ug9UwyXiH5wVlYi7VQcipo6jo/OkJOXGK+HNhTRuCE0PAge9tZsMi1FWkY9AgZ5ouz4IWTUsn5g43DYuEA0nPrTMA41AYge7YOKmANIr5Gfl8reG/1C/eFsr4El2tBUX4m85ATk1PA3SfpmrHIEpReGTeRjIx6N3YwNWe1j64lw1j7udio0FqcgVxuG/tbZpmYpNO6sDQN1bdhUhvSMOvgN9ES51IacHsezzD4lCIIgCIIgLl9oxUcQBNFnqGFtrUJDRQmqG5vR0tyAytIqNKlsoFFLURhabRva2oydQBtwom+w8kSQj1X3WsJdxbG1hQ0aUGekLalUNqI0O9sgEIY1ggYPRYhDC0qyUpCQUoAma19ERfrBStR2F1CWEYvTp08jpbgR2oYiJLHf3B8bewqppXJfz5eXjgBbBA3h5WlGcUYyEjNK0GofhAFhHlDote+tbGCtaEZjQ4vo5ecERIXAoT4TZzIlgXCP9WLYsusYLbB18wRKs5CSWohGSw+EhPn0UtNfybJUwsKGpadsRlMzL4IujJeOI6terDTW1kCbvTvc24qQkZKCggZLeISEwJPNNzyatbUGWo0lWvNzUaV0Q0ioAyqz81Gndoe3u+4hlzy6z4sjpw0F2CN0UBR8rOqQl5qItMI2eAR7sjMbUa9XsmVl5v5GY8snNlyTtwFNUhxZebH6hg8Mg31TPlJiT+JEbApKBBeERATAWozTV2OVIWNsyCqzwomVuT/ctGVIT0pFocIT/k6WJmYpBIUDwgZHsnav1bVhQSs8gzxhZdSGssazjD4lCIIgCIIgLm9ICkEQBNFHKJUtqCrIRnGtkXaZSsEm2jZo9ftwhsreC4GBgQji5iU8XWCtMjpIEGcJl/U4BQTCpaW4W1vCXcVR21pD3dqIBq5JqGDjVhJU6mSVujGqcguCv10N0k/HIauwBCWFmUjMrYLC0RH27LhSqUVjdTlKS0vRpLUE6spRwH6Xc9MI5ZVoaJO37JCbjtLFD352tcg4HY/sIlaegnSkFzVAbWcPGzEGw1oDDVi9WHXF+gdHIlBThZQzWWiQlkE91UuMw4W4EFCRnoD0vGKWVxrSixuh1FixcHkIgjWCRk7EpEmTMGlMKBwVVvAZzH4z/8SJExDp1ot6qbhZDKC1NB0J6fkoKSlEanoRmpSsvqzJWMVhY61AQ2k2sgsLUcnqX1+UjTxWv5oWnTasbHrMS2YbuvnBy7oWmVK9CnMSkV9rAWVTPRpapTjW1rDSNqDeSHvWivWhRXMD6nRyfVl5wdkNbpZVyEnKRmllNaori5GecArx6SVoZof7aqxyxDKzeb6sm7Ehp8xqT394WZYjNTYZBcXFyEksQSNXqDYyS6F09YU3G79Zp8+0t2Eua0O1cRvKaR8ZfUoQBEEQBEFc3shf8RIEQRC9gn/gyt7JAaqGGtRKwoymijzk5eUhPz8feYWlqFPYwsPDuZeahgTRCVaeCJShJdxVHBtuHqWhHlxR2K3/OJ3gkgsrx/aHiy4KHF2cYFFXjrJWC53AWGUFR3t+XgNMRcw6gWQjl8RKGo5nR/fp2Ds5Qs3KU2qaOZd4Qq/nacWF3domNDYroXYJQ39/NcpSElBoZDpBTr001hoomspRXGXQIBXlqq1tkC5vGTShMOkkTpw4gbjcGmhbSpHKfnP/yZMnkF6umwfk1Itrp1qz0pWVGL3qz/5ohWZeJAY7bq1FfR0XKGpgZdWMOi5pVXL7s81oqDO2WdADPeYlrw3tHR1YnDKUSAE8nsDbsLGxPY6tjbV4Tp3RlGjDVVqbGqEXjcoah20Cays7+ISHwNfTFU72VlA0VqK0vM7sY3DnPlZtWJn52CjpZmzIKbMTu18oqktRpj9Jwf8T2GVpMDfkwNpQWVvRbgaivQ15m+mC5LWPjD4lCIIgCIIgLm/ObvVLEARBdAsXCFu7eMFN08g23dUQ9JtuoQ0tLS0619yA8rIatPLX28/iO14EocegAVwkQ0u4Yxx+zMbaCtqGetH2dVVmnCioTC1thl5QzG2w2lpbQuEQgjGSwHjSxLEY4K5FYXoO6vRjXMRa9+EtExsAZ0PX6fBrzMZWA4GVTy8y4/UQTSaw+HqRp7VGA4XSAwMmT8HEoX7QVGUjqcggEJVbL1sbnVBNL5jU5W9lkn9PKJUCGmuqUFVVhRaoWXrVKKmoEP1VVTVoEpSy66W01n0crcHY3EdVOg7vO4W8ZlZmazavKFl569tErVAbDevHWhZJw81WNBnMNcigp7zktKGuDqbtxc+ztlajhYW1SHFsWDtrWTsb4rC51Og82eOwMgspuTVQOPogtP9ADB0xFhNGDYCbJcvEhHMfq9ZcaG0yNng9eldmbuPXht0Imlk67UJrUXDbyNpdV2ZxbLD2EVhH6Evb3oas/Pw8ue3T4/ghCIIgCIIgLnto1UcQBNHHcIGAxsULnvYCygtLUCfoploerlApRc2vdlpa0QoLKEkoTJwL7XaCs2TYEu4sjjWsuakB/hFFdqiloQoVFbXQqtRobaiXBFC24MrEtfnxosCYu5jjx3DowFEklZrpyqpZXHUrGkVbFOdAt+loYG1lruEpmUyoq4NWFJBxgZ0GQkUGK+txxGXXAA4ucLOSoov0XC9BsIS1hgvsjLVMbcT8G7h0tT1MHsaCzo6iyJ7rJYZw7dTGBtQbTScmWHOTBg1cpq8TLjaz37w67LeNwH7rpa4y6DEvWWPDlrWheb24sNrYPIIVNFZKNDG/vp78PK48XF9Xy07jYfLGIUsFJWmxOH74APbuPYDDJzNRo/GAr7tJ55/zWOVjw8ZaaTY2pP5qHxtyysz6SGwLw4hQ2bLztKyv2oN0cRpY5+naQhdm2oby2qfnPiUIgiAIgiAud/QrSoIgCKIPEAXCzl7wchBQUVgg2u40oIajdwA87Y0kwGoLWKAVbZItSILoLXzMOQYEwrkHLeHu46ig5K+qK9j/9Kjd4OKgRVV5ebsAih9urddpunJXWdsCS3tH2KrNJEs23JZqo04geS50m47SIFvUY83KbNuCqgquEsvRCRQba8pRXVOD4qxslLW5IMDPQdcoEj3Xy0ZMRxTy6VFywZ+xMK436MrV0NBgJNzTI6derESiBLG+XTvVHG42w5IfFxWFbaDhAkAWzoWBSlYPIwXRHukpL07PbaiESiX9lFA5usNVY2wegZs6YH+MzB0r7VndrRtRWWnIvae8BNjBk38wzVbKW9uCuspK1Ldq2VxrZhvhnMcqa1suqDUZG1wAbjo2em4fdi9Q83gsIoNrDnu4O0LRZCy41bWh1shIfcc2lJOXvD4lCIIgCIIgLm9IKGxEWP8BGDpqrIkbNDwajs56a4oEQRBdIwgCrJw84eWkQm1JOdvIq9kGXiU6pYJvxltQzzbnVk5ucNBYQm1lDWcXB1g01aGehMLE2WLliWAfK1TmdK8l3H2cOlTXtMDaqx/CfN3h7umPqKGhcGrIRXaxfnDWoqq6BQ6+4QjydIOrhzfCBg3F0P5esDK3QarVQgtLOHp6wMXFhTkn2J7NBxW7TaceVTXNsPEKRYgXL3MABg4KgnVVDnIqpTjcfq4osJNEoC1FyCqog413INzVuiBZ9VJbQ6MW0GisXquxgbWyUWeeobeI5dIaymVCz/XSmxrQmwzoDI0Vr7jOziy3edvWUI9mFpcLhY1NOPSEnLzkjQ2WZ6NgqJd3MAaEucOCC2Qb9H3agOrqZmg8Q1g6riwdNg6jAmBZkY3cSimKnLwECzh5+SMkJBiuTg5wYHOub0QoPBQVKCk3m2zPdayysWHd49iQ1z5cI9jeLwr9g4PQb8gQ+Kob0GrpDL9gD9iKb5jwOALsvMJYOro2jAp107VhuxHmnvOS16cEQRAEQRDE5Y7K2dn5aen3XxoT7aazZNSEqegXORDevv7tzsc/EBEDBqOtrRXFhflSTIIgrkQsLHQavq2tnUtwtVoVHFzdYKu2gMbOAY6Oju1O3VKF+hawTXg92ixs4ejkBEc7ayhbq1FaUo0W/kWhy4RlU/zg52Ej+brm5925qGvVoLKyXdpzSeIV4ITCnEuzjKIGcPAAhFiXISmhEI2djCM5cfgttLaqGgo7V3h4esPd2RramnwkJ2aiqk0XX6HQor6yBgoHd3h6+8DLxQ7KhmKkJqShvMU0TW77ttXaBV4+vvD19oKHhy2aCvJR1dox7+7oLh1e5rqqWigd3ODh5Q03Jyu0VeYgMTEbdVqdoEurcUOgvw2qs7NQ0czPUaCxpg2Ogf5w0ZagoKpVVr20dh4I9rZARYahDlpHb/TzAIrTClGr7WW9rN0R5Kdh5cpBJSuXMbLqpbWHd4gXFGWZKKxulyq2w/vcxS8UDk15yCptgJNPP9jWZyKvQgs3/2BY12Ujv8rkNYYu6Skvjpw25HFqa9tg4+wKdy83OFjUI7esDR7OAopSi1DHxqVYdzEdN3ixdNydNKzumUhMykOD9DBDXl6NqG2wgKO7F3z8/ODj4QxbbQ3ykpKRX2+khsw417GqtfdkY0PV7diQV+ZW1NQr4ejiAmcHfv1lsT4vgcLFi8VXoDSrFPzbiDW1LbBxYemIbVjH2lCAp0sbCtvbUMZ4ltGnBEEQBEEQxOWPIjg42HR1/BfExsYG48aNQ2xsLIqKiqTQ3jNn8TXw9vOXfB05fnAfTh8/IvkIgrjS0PB3hBmN3O4q0SXfPDUaYwa4Sr6uuf7pQyhucERGRoYUcmkydHwQTu7PlHyXFoLaC0PH9IMi/QhO5XVuE1VOHOLConCLxIRIFZL+PI1iSdB7JaIJGI7R3lWIOZiCGtJYJQiCIAiCIIgLymWhKezt7Y3AwED4+vqKGmd1db2xlGeAm4+wd3CUfB3hWsPDRo3r1nn5+CM1MV46w4Ag+GHMkmmIdqxFYl61FKpD8BuNJdP8UHsmB9VcTaYHBHs/+FtVotpMu4ggiPNLT5rChA7SFL4w6DSAo2RoCXcfh7gwiB+Xc3KBo70T/IP8oanKREpRHbQy7vuXK47ewfBAGTIKqyFcwe1AEARBEARBEBeDy0ItIzs7G6dOnRLtdo4ePRqenp7SkUsPhU80RvuxXfpZIthHYfb0SDhIfoIgCOLKhCtW1qQfwZ5DyV3aEpYTh7hQOCIgahCiwgNgW5eOuOSiK9qeK7dra61Ri3ZtW0hLmCAIgiAIgiAuOJfNKpy/fnzy5MlLXjCcn5QEh8iBsOfqWwRBEARBXBEolZVIPrgH+w4cRkxCLqrbrmxBqFLZgtyTe3AgqVwKIQiCIAiCIAjiQnJZ7Uj6WjDc2NiAP3dsxfpvPsP+nX+gqS/siFbHIaE6HGMGdm2mQhDsETVzMZYsWSK6xaP9dOGilnA47BR2iJixDDOj7HXh5vEXj4YfCZ0JgiAIgiAIgiAIgiAIguiEy05NhQuGc3NzRcFwdHQ01Gq1dKT3HNi1DSkJcagsL0PymVjm/0M6cm5kn0kGwqM6FdxyAe/A2dMRXn0M69evx88/b0eyw0hRMKysOYOtO5JRq61F0vafse1MTYf43O1IdsDI2aSNTBAEQRAEQRAEQRAEQRBERy47oXBwcDD8/PzQ1taGo0ePoqWlRTrSe/JzsqRfOvJzsqVf5wYX7h5KdkBkZ9rCAVEIty3AsYO6vJTKGsQlFADevp1r/5rF51TFJaDANhxRAVIAQRAEQRAEQRAEQRAEQRCExGUlFOYC4aFDh4oC4cOHD6OoqEg6cnY4ObtIv3Q4OjtLv84dLritDh+DKPtOBL11NaiSfopU1aAODnDoRIbs6OAAhcIH0cuWtZuPWLYsGj4KBRw6O4EgCIIgCIIgCIIgCIIgiCuay0Yo3NcCYc64qbNg7+gk/uZ/ub+vUCpzobMice7qvNraJGz/+ed28xF6x81LEARBEARBEARBEARBEARBGHNZCIUDAgL6XCDMcXFzx/IVt+L6VevEv9zfl1TFHUKyQyQGOkgBemx94W+s5OtoD1tUo9pEfVhHVXV1x/gEQRAEQRAEQRAEQRAEQRBdcFkIhUtLS1FTU9OnAmFjNBpr6VfforMXXI2ICB8phJF9Bsl1tu0axOKH5CK9gYI85CpZd1VVoxq2sNcLgfXxxxg+LCf4jcbixTM7N01BEARBEARBEARBEARBEMQVzWUhFK6vr8eOHTvOi0D4fKPMPYyj+VrJJwmKt+5AssNIyT7wDIRXH8OGw7nS8VzkFQA+0cuweLSfIT7CMUOyK7x0pAOSd2zFmZrLxjoIQRAEQRAEQRAEQRAEQRB9hCI4ONggkbzCcXHzgKWVpeQ7O5qbmlFeWiz5CIK4nNBoNOLfxsZG8S/ROd88NRpjBrhKvq65/ulDKG5wREZGhhRyaTJ0fBBO7s+UfARBEARBEARBEATx14eEwgRBEDIhobA8SChMEARBEARBEARBEJc2ZF+AIAiCIAiCIAiCIAiCIAjiCoKEwgRBEARBEARBEARBEARBEFcQJBQmCIIgCIIgCIIgCIIgCIK4giChMEEQBEFcaaiVUAiC5LkyEFh91WoF/yGFEARBED0hqK0wZmoQrgowzJ1CgCfWTHWCt5rm078il2ufdlYvgiAuLnS/uPQhoTBBEARB/MURrAfg4QNrsHZ6zwsuq/HT8OrO2/GvdZ5SSO8RBEeMum0Mpgw6u2UEl8v2nxaFH16fgYSvZ+HoKyPw+FgNVGYCW0HQYP6ycNwYee7LlcB5o3Hiq5n4ep6NFHJlIAhBmHn3w1g+yk4KMWXmm/E49sOtcOxGWD711dM49tPtcJHiCIIbbvopHXtenS36zyeC4IS//ZCOP9+cL4UQPTFn1mzELw7stk+vdPh1ETj9YUQEdX5d+F9zGitfTBfdzf9Owg3//B+mzZgKK/z127SnuhvjEBGML16biq9v9keUrRTIsXXE1TePxa7XorEmQiUFXlzk9OnNa26HldE8NmBNOv52zYWZxyJZXjdef/HnscupT43pql6z75yJ9GeD4Nbe72rc/uxcnL7TXfTrkbPe6Is1idzynA94Xrc+Mxfxd5/9+u9CIQiR+MeOdBxPT8exbQ8h1Oh+JgiT8UwMC098GzOlOVnAPLx0hoWd+A/GsbjKhe/gIDuXn2/ujqUn4sWrFCydAbhnJ/d/iSXWUjpW1+GtNBa26zH01/eR0gOjbn8ZH+04gN0JCdi5bz2eWTkU1u19qEunPf20ROw7/DvefHQevJX6OKzv304wKYfeHXp3kaioIQi2uOartE7jHHx/CZRSfpzu2kde3XsuD6fnuuv6gp/38yODpDA/rN7E8pL64lKcWwhTSChMEARBEH91QhzhgWoUZ0r+bnDwtYempR55OfVSyFngEIAZNw9Ff9dWKaB3aAZH4ZPbfGGbmIYn3ovH1zk2uPGuUXiov/myxBZT5odicT8LyX/2CC1taGpuQ0OLVgq5UgjC+Jtvx7xhPW+qCeLKIQi+E25HaEDX14W28G4lsuoAAP/0SURBVHvs/nwtdnz5II6eKIHrtHcxa1qUdPSvTM91F/EOxEePRCA8JwHL1+3BiwmG+VmZkIyp6/bjlRwHPPDISKz0NggkLh4y63Ulc7n2aTf1ko+c9UbfrUmI7lGOvhazg4E2ga3ZnF3hKoWLOAfBx4n9zc1Ghn6Y+rOxomF/c1gY++NmWYeEmBicYi6zks3naEZxks5/OmYbjsS2AapQ+PmwyCU5yK7jiTDCAuGrYPFzMsV0+IOAkY9/jTceXoKBLi3ITy+BwmsI5j/xHu6bbKU7R0pHW5cn5hkbn4dmx3CMXf0KXlrbTxeH1UBdG99peXYfjINWycesNyyqT4hhOncaebW6swsy0yCIcXR01z6y6i6jPLLq7hIMX94XDN9+kbAUhcVh8PVnf6S+uDTnFsKYs5kxCYIgiC4QBBWsXTzYzTAAgQH+8PVyhV0nD0UFpT28Av3gIt1TCeJcUAc6wbmtGoXZUkA3lPywEWunfY63NutXwGdBqBPcUYlCvto7C8ZN8IZXTjrufDsNP+3LwyuvncL35ba4aoK0sjwP5O2IwYgVO7BqR5MUQhAE0Q0NqciL24Kc+E1I3Lwah07WwnXU9e0afpczgqDEshXhGF6ZiXUvZ+BEXccto7KuGu+9fBxfVrng3ht9YXcFtMtfmcu1T+XUi/hrwft0/NVz4YkkxJ2qBxxd4Gq8l+oXBD/2py07E+3L3rAgeLM/jVkZKFAqUfzTg7hl+XLcvHQNNqbzCOn4ee1SMeyW5Xfh50w2ToJYOpbsUG429DoVqpAAMZ3SrHQ0cSGs+zVYuyIUFvm/4P7JE3Hd3Mm4/YMkKOCB4eP7606S0hFi3sUtS5di5cLpWPbIH6iBJSKnTBffslIqy/Dbw7w8t2NDGj8pGxvv1pXnkS/EABYnFd+s4+XTuTX/dxDNGkDbcALrvz8txuH01D5y6i6nPLLqzvrCB1o0NDTBIjQcoTzMLRi+jkAT658CMRLdLy51aNYkCILoI/j9TePiBQ9boKakEPmFpagRbODm42Lyyim/mdu7OUFRWYzyBropEueOl78DVKVVKOhC3ikI7vjbz3fgi4N3iu7zA4sx3a7j2LMdMhhrPlyBt3auxWf7bscbX83HwmF8xczTsMTsd3RpfPXeELgq3LD0u39I6d2BBxZ2/koYf1ASOTYU79zs1f66mVqlAOpbUS36GG2V+NfD23HVN1WiVxgzBInfz0XmT6OxzE6B4TfOQPoP83TupVAESekI44Yg5fuRuG1YGL55YwbOfDYNfzwchrEOhrp5LRxtOJe5A7d0FDzPv3sW0p8JxrxrorH7k1mIfX8iPryaLbKNFq38tcuxy4bh9/dm4synk/H19Z649xnDK5+CoMCim4fivrF257zYFdhSf/x97+CrfTH4MzEW23b/hKdvHmaS7vz3U3DsyxslrQyevxWWf5mOw+8v0fnnv4lD6ek4kfkJrmKL8yEPH2h/NfDY/+6Fv0kZbRD9wDfYcDIeew9vxav3jm83FSEXPj4Crnocb23lrxjGY9u2L3HvgkATkyBy6iUILoi+50P8eDgWf8bswFt3joDGrCiy8lr4Ng6nf4kV0+/H+7tPYn/sYfz48f0Y6dq7eiks7aC27sRZ9u4VSD4+gkL748PrpuLwmtnYd300Hgqxbi8z18hZtWQ2Tl0Thgj967CCLe68eg5ilgUbxjxLJyAoHO9cMxWHbp+N/TeOw8vDnDrpLxXGjB6N31fNxtGbJ+LtkS4mcXgbTo4eih9XzMTxNbOw78Yx+NcgB5O+0JmhCMHs6Ohu0lFj9Ijh2Pj3WYhZNQWfjvbEnYvn4cgMw6vQPdVdLnxseE7/AIv+GYsVT+/B7DkLMcTs9X9eL/vBj2PmvQfwt+fice19X2LEoEDDq7AD38RN/07Hrf/5BBE2gOf8AwYzEXff2+W1q1Q2oziP7a4dfWEv7Z56yosjCK7wmvkRFj8eixuf2oGZU2disJkZgeAVKbj51hvbXw3m13LEren4+wrdtcyRlZeCjZOFX2MJy+umF5Jxw+N/YObcGYbXfHtTd7Un5g1W4egfaTjZ0vV2UdlSjXe3lbN7hzdmqqXAXnAx+7QzZLUzm8d8Z76Dqx6OwY3Px+Lah37CuLHDoDaOw+s140MsfkzX77Omj4CF2UsqsvIa/Db+/u8vEdX/fsx56CRWPHMYi2++H562RnF66Pd2Ltc+lVmvrpCz3pC7JtGtJUIwa+kI7OBriQ8m4qNrTNcScuBzZvDYCHzx36k49SU3sTUSj40xNbElwBLTrhmKTW/NQPxXM3H0jdH4z1wH2BvHYfPzuOXD8cf7MxH/8SR8ttQRVh3GoYy8ZKy1BIU1Ft0ajR0fzkTyd3PEun/6Nzd49bLuIppZuGomu4ck78CW5AZ2O3PmyrDtWIUEiJqxJdnpaJa0Z92CA8CWOsjPShX9BkLhxyXIzTnIydKFtBMWCK4oXJ+TiTIpHd8gf/Bhnyulo5k8AQPZ7b5450/YX82FqVoUl1aKx1pbmsW/+nRKM1Pby1OeniWucbVtrTB9p46Vh2vRtuUgtxvFCkE9FOtevAVBFo049cZD+DLVqB17aB8D3dS9na7LI6fuGtYXbqym8afYyb5hCLdmgWE6oX1+dhq/eYrxOD3NLXy8et3+O27ZEovlt481mQuJ80vvZ06CIAiiC9SwtlahoaIE1Y3NaGluQGVpFZpUNtAY3fyU1s5wUlahuKrR5GZJEGeLN38kn1eJfMnfkWrsf2UzXnvkN3yxrQqoqkZBu0RWh2AbilteGo+Qkjh88egGvPjwHhxv9ceyh4bDV1yYteHUJ7o0vt1TB21RCr5gv7n/9Ud/xQ97W3QJSeiFwe+9PBUbVvvAoqQe0vIZR+PKUBcejP+7yg0BVlyDQommuhaUNUq7lcQMPPB6DO55LRmHGrTI2BPLfh/Xua8LUaSLJWGLJTOt8ef6ODzxSzGaI/vhtRs82oWl5YeTsPalo8ydxq9FZrshY1z9cH1AOd77LBbvxgoYyzZST401XLgOYyLx1jVuaDmZgic+ScVR7yAs9ZIOSuSWq7Bw7QTse3n4OQmHfW59Ay/fGoLM717Csw88hnc3lGPoo+/hgZnGBiB74NinePKee/DPe97FsToga/2T7Df334PHXtyMEimaiPdiLI2IwefPPIXP9gsYedebeGAB314ZoVLDxsEBtnZ2sHewhblMVDPqYbzx6tVwOv0lXnn0aXxz0gmLX/0Ed400tKGcetnPfwr//scI1G59Hf9+9gPED7wJ832lgxJy8tIRiPnX+eHw2yzNt3ajOfoO/N8jM02EN90hCHaI+r/TuPXXju6W/1shOx2OxjsC783yh3NxJl7cHocvi9RYPnsU7vfS3QOUykZ8vCcFqS6heHSQzu617+Ao3Oxag092ZyBTuldYeYXj3TnBCKrKwX93nMLbKU0YNmYUXhmiO6cdez9c41aBj/bG4aMcYPSoEfhnqKF9fIcOw+vD7ZEZfwZP/HEKbyY2Y/j4aPwzyOy1aON0cjum4xAahVdGs+siOxnP7k7FMacgLDZ77tJT3eWiHvQUps4cA23S29i/4R0Uut6IfmYbYYvghzHz+quhyfkSh39+GvHZToi4/hMMD5LKnPUp9nxzD3Z+/S4K2C248tiT7Df334NdWzajO6M6Di7sgm+sQKPU7T3mxbAa/DSmTh+GptOv4cCGD1DsswKhZpeWHOTkZT/uRUwc5YXyP5/Gnq/uxaEDGXCY+AYmjJIE9L2pu789gtWNiEvu+c2KwiR271HboR8XLPSSC96nSjXUGgeo+MMejS1UZkNQVjuPfwPTJ4ag6shL2Pf9YzgRUw6vBe8h2siQrVivGSPQEvs6Dmz8ACU+NyHM7LqQk5eOQISN8kPejqewf8duCMF3YPLcme0Ckx77Xc/l2qdy6sU62tbGAnYaJRxsVFAb37/krDd6syZha4kbgyrxwaexeONwC0Ys42sJs3m1u/IwNJER+OQfbM5My8TzH8TjkxQ1rr17FB42MrHlP38o3rnKFuk7EvDIW6fx6t5mRN84Ek+OMCTG1y1vXu2CmiPJeOKzNJwOCcRSN+mghJy8dHS/1vKfNxgvTrXGmd/icO/LJ/Ds77UIXTAC/57Z+1ci7RcsxQQ2T6Zs3YD46hoW4gxXIzPIoUEB4LXMy0zRBTCCAgOgZevUnHRJy1WPbQj8+KVQkI0sbjXBCM/gAFYrLrwU1WlFggP8WDq1yMvQ9WpIv1Bw1YjstATRzwkS4wjIz9JJUfXp5GQki34Brpi6Yi582a/k/XtQbbzXsw6BLy9PYQ6yulTkUGPoAy/iujA1GmPewDPvs3oapdFT+7TTTd3b6aY8cuoezPpCiXLEH0pj+91QsCUBS5ILigXWhuYC+p7mFgtYe3jCUm0LOzdXKKRQ4vxjfrUTBEEQZ4lS2YIqduMtrjUSPKkUbKJtg1baRApQw9HNFkoLR/gGBsPf2w32VnTbI84erk3o7WOB6rxKNHbxkEGpbELW/kzE7MlEaQtboOdVdBQgR4dgsH0Btv7rOI4cLkDCgUR8+9SveOudVFHbQalsQ+GxTBzblY5ywQrazFzsYb95mjF7spFdqcvbVBjsBRyPw5K79uC2zdVok8pXvucMHtvbhvErRmP3xzOw5dEorIxkS09pc6GsrMZvB4qw4c8K5LGFbEVOETYxv+hO1aHBrJ5//nwK7+wqxM+b4vDkznq4D3CD3vJnc1Elth4rwZYjpchskAI7Q12BD15JwXd7C/DWW7H4sViNsUMNu/hRIzzgnJ2Bu99Jx8/c5MWrSdgnXdccrkFxfNNxTLvjAF6MVWHBmrMXDpd9tw7zxi3Ckx9swL7dO7H1oxewOcEdoyYPkWL0jLIoBn9s2oQtG46ioJVtqpO3Yyvzi25PsulYUR/H5+v+i/Xrf8JH9z2CjTlOiJ40XDqoQzHkPmw8fRp7RbcLa82KMvraJfCL+wAP3P82Nm34ER/fvwZfngnGVddPlmLIq9fwaRPhGP8pHn/8A/y24Xu8e+d7OGG2n5aTl57Db9+LT37ciF/ffxgv/pgD1zETECEd65k6pL+3Ahsf7Og2vbcFpo9BumfsAH/4l6Thru1p+CU1D+9tP45PSmyxeKBhh95Wmo5nTtZjxKhIzHPwwMOj3FB8Og7vlxjGz/D+vgiqzsT9W5LxU2ohvjoYg5fStIgO9TTVFlZV4OPfWZzkPLy77RR+rlZjdKBhPJfGx2D6p3/i4RP52JNTgv+dSsDGUiuMCXKQYkgYp/PHKfxils6IYA84laXjwR3p2JCaize3JmG/2bMXOXWXg1fkRGgKP8euH99B+snvceKbV5Brdml5Ry+BQ94H2PnD20g7+SNO/7AGcfnBCB+lGxvKmhhknd6EjJNHUc3ObSraLvpFl5xsYrMRbDssChCt3ODQ/yE2B/ihPn4LCqWjPeXF8eg/Hla5n2D3hg+RfoqX+V0Umk5fspCTl5N3GFT5P+Lwzh+RFb8ZKdvvw/bPH0GC9P5ur+pubQEbNKNasmfZLTXNqIEKtlxDrJdc6D5VBN6Hq587jZtEtwsjAqUDEnLauf7oOnz/r0XYu2cDcpN2Im3vC0gtcIdvuGEeE+uV9ynr9w+ker3Xod/l5KUnb+e9iD2+Eel7H8aBozmwCZ0AF+lYT/3ezmXap7Lq1a8/dn0xB6dFNw339TOsu+WsN3q1JlGV4Z1XU/D9vgK8/+FJfJqhxoTh+t6S6KY8nAnT/BCYkYY1b6fhR7beePvtGHyQaYvl0w1zZvH2E5iw5gDu25SPnSdLsOm3RPySZYXxww1PncR1C0vnng8z8Iu4bknDUTMBtJy89HS31ooIsIdlZjaeW5+HzUeL8P1Pp7D6pZP4xiBvlQX/KOO8JZOg0cZj2y/JrF+5qTMXOEvPOPhtLiDQF1pUIie9XAqzRGCgB/tViNx0M8lmvyATG8HGBAfqJJP97vy9/U2q15bx+1sO8lJ5ugoEB/G8ypGdWiHG5QLboEAugeV5NYphPB0t+xd640f45Kf1+P7PnfjPMj+0ZnyDNz4yCK5FJJvFyM3qUB49mhH348mV/WDRcALvP/Qeso1Edj21jwnd1L2dLsojp+68L4IC+FP7UhSxdWU2fBDc3561RwAUKGpvHxO6mVuUygak/d9kfLVyEr55YZPZ/Zg4n1BLEwRBnCf4DdXeiW0oG2pQK0kPVLbOcFQ0oLwoFznZ+ShttoKrpzuspa/TEkTvcYYnW5OV5OoWbd3BX0v28rVCU14lKs0XWy0CWuGOyQ+OxZxFoRg8yB7K7Bwc3VeKGpO4TiwNFaryK9FilgYf84vum4pfVnqg9VAsrlq3D+u+K8QZMxt/SjRhw9v7MPnhY3jmt2KUePjgscfG4JkhZrsVWdQjI1f6ycgqrkWDlbp9wyybwhqc0b/jJ9QgoxhwtNNpLfGFr4cj+13SgHR9ndvqkM7imCPUVOO7L45j+l378cJJJeatHo9993m3f/FeDk12w3Dz+zuwN+EM/hSFsDuwZjDg0Pn7gedOdgpS9BJOgS3sc8DmLmcpQIc2+Ws8vGIF1oruTvyoU4gR4Q8mfHycUJ2ZhZp2beIqZGdUwdHHv/015p7qxU3ruLk5oa0gD3n6dm5NQgYrjx65eenIRlaSwZ+dnYVGjZ34iqkcuKC/IW0/Ck504tKKeAQpZvfwevmxsVRTWYcaKwvYqZVwsGpBVmULG2M2sJXKzJM7efg0fmjywgOLB2J6SzaePVTRfp3xaH72GqCqFnq9HV7G3//YhgEbslBuXJ7KaiS2awbVIquajWejV1aaLB2xau4UHF0zF0dvm4sjt03DXZ4KFsdMq8ssnUyjdHh53G3Y79oGZOjzFurAuqIduXXvCZ6OtT3brFdkG+ajNrYhNpr2+Niwd3ZCUwnvZ702aBWqSqpg5ezfa3MViuAHcQ0XHj57BEtvXg374vex57ft0gd4es5LX2ZtVb5BaNSWhKqep2oT5NarsiAVgs+1GDdvNcIGT4WnlzVqEjYgN69MPN47unmrolNMhVpyuBh9qi38Gjs+WIEtorsTZ/QSfobcvNqshmHQ33fgxv87IwmXd2CEP2Bla5jHxH6vzENdF/3eu3qx9iky+KvLstCqtgP/phZHfr9fnn0qq17Zmbjz2UNYIbpj+Dq7t23RC9gaJFmaM/kbILllWjg5atrNw4h0Ux7ehv7ualQV1KOqXZu4BZn5LXByN8yZTdaOWPPgZMR+NQexonB5Ku4JY3O4nW4O59H4uqWtrBE57X1RhzSjdYvcvHR0v9ZKyq5BS1AA/u/GIFw71g2jAlTIiCnAHxm9eXzK8FmOeWMs0XbiN/yawca7qAnrACdX/f3LHwEBfPRnI6dd3toPAf6sjtosZJnJYC2CA8DFmKXZGTobwRKCYI3AAHc2eprZcM1AVgZ3hajhVW7OZusFHiuA5SXqyvJlkkQoC+NPqtn6goXp01Gwf84hwzFk+BD087FD0Y4Xse66J3G4wZAnRxniL9osrsrJRK1RefRwsxF3vLiyc7MRnB7bx0BXdTem6/L0XHddHDbeavKQe4qt1eoUCI6IQqA/TzEH2R0VhSW6nluUQjVqc3LRzMYmceGg1iYIgjgPcOGYtYsX3DSNKCupFp92cg1KBydrNJSVoK5FC622BXVlZaiBDextzkYYRhAMBye4O7ahOMfMHkSnOMODrdVK8o2kNnoOHsGX64ugGjIYVz80Bw988He8/cs8jPE0W5ByoTBLozhHp6Fhjq1GhdamVlQ1tKCmXZjUEb72LM8qweffxeHG+/bj1QxrXLfUv9e29/iG0PiUst+PY8DqWOzsYgHcNfzFQwM8TYXxurWTNWx328q2mkakFtQivbwN1hoL2dtrQXDA4udfxd9CMvH1g6uwThTCrsUPhrf3zgOCUd0F8I9ZK0wqz6jNRcy+fTiyfz8O7TuCfBOtLDW3LgHHhW9ImsQ698JCR3bIQnz9UF69FNDybLXGLSuYtXPPeRkwHRuVn9+ECdEPYn8vxkbf2BRWwYJl6RAxEkdEAazOvRzBSqtUwFgRWqmtwk+pdfCyt2Yb3mwcMtsYKfReGXUw9Cl/2dPQp/xetGzqcNzkUovPdxzBqg0HceuGI/i2pPMR3VU6Ip0MbNNU5Ne9e1hGHfLqODYUrFs0w9+QhHU6N41rzqksWEl6hzbvS2z/YAV+3/onWrQpiP/hBRQ16ttdTl5yyiwHefWqOfAQ9h5MhfXAVRh1zUeYf98hXHf/qwhyMroIzhu9r9XF6FM05KIoZR8K0/YjP+UIf55hRM958Xms39JXMdA9E3Hfr5KEy2txJk+Xgg59vYxrci71Mp3Hmg/ehK+ef7D9wdn56/e/SJ/Kob4eR06XYn9cOfadrkBud3ZizhndPKlHvJ0ptKbN0m152JzJGsFx4ghJk1jn3pjI5kwWzkV/fA6/5rZhuMWnDp+8ewR/F4XLR/Flplmf8UxN7qfmvdpzXgZMx6H5Witnyyk8+Ect3KJD8c87ovHDy9Nx7JUhuMqtd+Mw6JpFoh3bBvuxuO/tt/HPq4JZNRRwctOrwkp2cutzkK2/7lQh8OMKqyVZyOQyUiMCggPEeoj2bU3oh4AA3kDH8M78qVg6fToWL3gTZ3hQHktHvPH1gz9XJq7NQpb+AZIyTJdXWTayxKW0Lh1t42Y8GBSEWf86Jpa3kc0zMSZ2unT4B+psFhubrNCjNxtxbRdmIzg9t4+BrutuoOvyyKk78/M4OVnIFs4gIwPwDB2DAA+N+GAoq8sHoGbjlLjomI4ygiAI4pzhiyb+wTlPewHlhSWo02/qlRpo1G1oaTVaIAkt4Lb6VeaG7QhCLsGO8EAVivSfTu4OjQs83bQozum4UlMKNTjwn014bPGHWDXjMzx2/3HkuoRi+jQzO7YuTnC3a0VJLn9lzRSutfjNf/bg7m2NGLAoGrteH4MX5rvCT20Y83zRO2qSP+YHsVWthFLbgN9iqqH2tEWIFHYpwdfkNfVsh2BrYfSKvhXczN605whKNaJn9sdXr0/FN9e6oGrvCcz6T06Xpj06MgZjxtoi5dun8e76nTgsCmGPId9sE9vWxsqjUBot5NhvtpkRePgFpwVtLUDVrpckTWKDW/fsZuj2aHLqxTbO4gbaePusZNsdY+Tk1Tf0nU3hNvBpvzozHreKAliDW7WvwKTMgq0fHhxkizP5FfAe1B/XGH1QiqM3RWSyO2ftZcUHguzyuGC8nwWSY8/gjeRSHMgrx/6cSuT1UqGLD+naJjbe1BZwMr4uTMwby697d3DzNS0NbLBYOxpp3XvB2mR6aoGWFacx4SVJWGdwv2/c3G7TXDbN2aIAMW/XW0it6o/+E6cYffhGTl5sMHfY+5qPZ96numvZAPvNr2UeLiKvXkptJjI3r8bm/47FV08MxPfvPI1CzRJETx4vxegFzQLL1QI2cswH2KhhAwGNPZuqNeGi9Gm3yMlrDHxDbVF+6GmcPLlTEi4f429EG6Hv9+7nsb6ql+x+v1z7tDf1uiBws3EGxNtZZ1NBl7A5k7VP1fEzkiaxkfu0UPpArwsmDbRA4rYzeHlvGfaJwmU2h5u/rc8zNbmfmo5KeXnJQyk0YtMXMVhy7y4MWvE7xj0Rj0M2fvjnIvnvbQlCJBYvGiC2n32/SZg1fz5mDtd9vMHJhZuHYDgHgn9GA4W5aH+JqF8/BFmy8zNSYS7+DA7kNnDrkJthZk9FHQI/nnSxkSBZMrcg5GRCFJG6B8Lbjv3Ny0H7d9qCQ8CVY7X6vPTpSHFKDhwDX44HjZ4Et/ZrwECQaGqiGflZoiqyCcZmI94zMxvBkdU+RnRZdyO6LI+cursHw4+tg5uzMrheMFJSq6EIHYWhvMu7MllxlnMLcX4xHWkEQRDEOcHv/xpnL3g5CKgoZBtes022VquCpZVBGAalJawstWjlqzKCOAvUgU5wbqvm34jomSAHuCtqUWT2xQlB4Y6p907E5P66Bay2oQ5ZB/NQ0KRFU4PZ2Ax0hCvbKpR0kZ+yrRE7N8Vi8bo9WPd7AyIWjsT2N8fixWl20uuTSoyeNxDPL3EzfBVfUCDSz4btTJrMbB1rxc2jxSXw0ORkahWawwPx2DRH+DppMG5hKOYYWVjgVQmfFInv3piGL5c7oWj7ccxadwAPbipDdltvyt8kPihSq41e47cZiahQ6bdEfkER64tQROiTVg1EcBBQlGe+0dDZNFdbsB3TeUKprEN+fiVb69cgvl2b+BCya9Wsz1slu3A910upFMQvW6u8faWPGzIsIhCsM/snIi+vvqJvbArzeuXWtsBa2YbYnFIcFIWw5chs5kJ9bXuZ+QOT5VMiEV2XgWc3xuHbOjfcO8WgPc+j5dawXb+jfbsdR37tzJs1EzELA2Gw9NsTAprZdaU2vq4snDCg1zZXgFOFlWjxDsIjkU7wttZgzLAwGH8PUW7d9WgmPoOF7/2AseM62rMszT6DtoC/YeTIYbC1C4DX5Dv4lNYOHxs1FZWsXjUoadcGPYSaJjWbSlp1DdgOawAtC1L1fF0otUcQf+gUbIatQqi9FCYjL173hppKKBx9DGZNVBFwNLXMgtoqdi27hsJVXzzlQDiy6tdV6q5lOXnx5N1GP4fRo4eLkxF/0FaX+RXSc5ph48wuIH3+IjLqXliPXK0NwgKN1itd4BBkBy+hHjkmX9sycCn2aWfIy6sJ/Lmb0sJoHrMaCXcjeUx7vzv5Gl6/N+v33tWra3rV75drn/aiXt0jZ70hI46HHcKlogiCBn6uClRUNsm+N/Hxk1PSAhtVK061axOzObNBAZVWP2cKaGI3IDV/DUOPxgmDfKTfDB6tuKoFKlcN/NvHoS1CzcZqz3n1jMDSHzYrCs/NchAfnCnZufmJWdicJsCdf0fFeBwyuho/ytHXYnYw0Lz3n5gcFIQRISEYtuwTcJGms4ukCWtnrTOdYuMEJzZkeBuPvH4e2PIHift2oMqozILgBn9/PmnnIq+DtDgYvux8bspDr1OhDgnUmVvISteZbbJmezR+wN4VbuwHz2vo9XNF5YWkP3foTDZJ6Qi52TohddwhxFYAigFjMF66X+gRBHtWHn6nzkNuOhtIRgiWwySzEQ04+fpD+MrcbARDVvtIdFt3ie7KI6vuYQHgisP5WSwD5k9KyQC8BmMAG2MNrF2LjfpCT09zC3Fx6NhTBEEQxFnBF0VWTp7wclKhtqQc9WyDr1KpRKdUsJs7uwlW1wtsoe4JJ3azVVtaw8nTFTbaWlTXdbz5E4QcfP3YIrxWCfdp/TB6ZqjBjXQUbfMJLm4YOjkIw5kbOc0LrmiGJiBE9A8faq+z39dmjX5zB2P5HWMwarQ3+o8Owdwnx2GkKhdH/zRTPWltY9sRW/SbHa5LY3IAAhw7WbwaC4f/V49+UY7gCoT8o3cbdpXCYvRAfLE6BFeP98bqW6Px7Dgl9u/KN9iSFalFaoEW/ceF4cbxnlg4jrkoM9t83cCj+Ue4Y/ZId8wd5YYga7Z/d3MW/dwN6cXrtTl/nMFrZ1S4au0E7Ht/Ct6JbsBBE/mrEiMGOyLvj2NnKQzWcxz791cg6IZ/4/HVSzH36tvwzy9Wo7+ZSmXc+l+R7nk1nnjzbixafC1uf+vfWOSehN83nJZi6ElBenorwhbcieWLFmL2QubGBMpuQ7kc/n49Csfeg9efuw0LrlqIax56F+99/w5WjtILT+TV6+SuP1E1YCWe4+ksuhZr3roTI7m2kxE959U39JVNYc7B+BwU+EXg3cnBWBTihb+NGY5Pl43Aah9DGi5hA3BfYBt+2ZeE00I13tyXg4bASDwWZqjXicQ8ZDkG4r9z+2F5mBduGDsCD7Bd2uHUoo52wrukAvtymhE8aDCeGeKNq/oH4emFoYg6C82dvLgzeCtPhXnTJ2D7yql4PbgBh0ulgxJy6s7hHwsKmrcCPmEjMfiqmR3GaM2h5xGTbo3Qa9bj6sd3YvqAXOSbKUAVHF2P2tB7MGvxbQgZtBCRc97F7LXvYGiw+dhIQWVxK5wH34mIIQsROJi54EDdpNEJ1Qc+RbYwHgMmDJRC5OVVmPgnmvxuwZTFqxE85FoM/dsaeJntvUuP/4oKx6sx/vq7ETqUxWHXSIR9EtJiDNdyT3nxrm91GIn+C/6F8VOWIzBqPsIm/weDw1WoyGXpmIwNGXWvKcaeFGD8tAB4dzNXcDv1101xhzKlBDs6Ufu+lPu0M3rO6zhykyvgNObfGDtxKYJG3Iaxt66Gi9lt8v/Zuw/AJsr+D+DfJE2bNk3TvXdLC22ZbaFQoWwEZCuKCuJABVEB90ZffRX/blRcr4oKyl4iInsXyigtpS2je+/ddF3+d5dLm6YrhYIt/D54Nnf35O655y6X3C9Pfsfvd5eHEcEth9/vi/m8nboM3662dWq/36r71MDt6pghnzcMKFNvg4XLeuFe9rPN4wsG4GGvOhw923q6rbYc3c+2WV9//PioF2YOdcC8OQOx5p0QPBmg3Z/FOBRbC5/xffH+XU6YNsoD773mjUC9m+meOpuHEi8ffPoYu5xwFyxd2gtD9d5PO15Xx8TscaaytMJ9c/vio+kumBziwH7e6IcnB4hwKam0WXC5reOHy28cfs9EOLCfUU/9tbMpv21pObjfpZnb2Go+r2aeQmwmuxGOs/HRgR349Z9D+OohbzSkrMXK1fo/mfPVpECoy+A6rjbn6wEuhl6emtSYj1+bbiGTC3Jy0o7hbKoaIuc5+PzQbvzOfj757jF/tsAmrFotlBGWU5iWjFp+OZE4e7YWMA5G6HBNgiTGdjre2rgRP29eiwf7clPsMPa9zfhx49e411c4dobdh6m+3BcjNbCasAI/bubmb2SHDVg61tjw9mnU9rYbVB8Dtt3M24O9pmCQkcwnGEZm4hWUQwGFuRAo1tPRuYXD+L+COXuSMHVma3fOIzdK0yuUEELIdTKCmdwUErExlI6ucHfnEvBrBls512tIjar8HBRUqSG3c4Kzkx371lmFvKxC1NDpmFwjR1clRJYeuPudiXhKZ3h8tiP7UY390DZyGJZ9cBeWcMNDrpCKbDH6Tc34U/c782XE4jRsWRGLLIe+eOyjmXjxg9EY71GM7S//g0MFesdm7AVs/qccbveN55fx7PvhCNbr+aZLGxye+WVm44fY1F3RePiXXKiDvPDGk0H8hcPRNVF49u/mORLE4lqsXn0RR0QOeG3xIHy2JBif3W3PB5cNI8aYe0Ow6sVQduiHKQ4iWIX0EcZDsaifUMwA4rpyfP32QQxdchR3v3QAw99KbvpJHYvrcfP7l5HXEQzWEIsr8Pfyxfj+lBHueOY9vPrcdFj/8zm2NstZyV53xnyOZUt+Q7b//Vj23quY4Z2G3595At/H1gslNMTiHKx7dwVOiMdg2cef4b+ffYb3nhmFrv6lrerUCjyzbDtUQx/FCx++j4VT7RC/cgFe+VHTpdzQ7Sr/8228+uVZKCY9i1eWP4H+l9dgp87NbTgdras7UmUn4sl/MqBy9cFr4/vjGT8TxJ2KwrLzmqt4RmqLV4Y7Q3Q1Dh8LPfkrU+PxCXtdNWF4H0QIKVhUOZew8O8UpLGv+efH9MfTfsY4F3kKz8c0f+20hztWdx4+ja+zxBg5uD/eCnOBTdJlbOrMb4UFXNqZ77YewMg1R/DAuv0YuzkJ+n3VO9p2Le71nnM6ElWqQmRGnWnRS03cEIPY7yKw7qPp+PPzCKz/5n8t0k/UJ6/Anj+2o973UYTNfh+DBtihcO8CHDjW/NjgXhcJf65AJvu6GHzfZxj9wGcYNW5U2/lMVTtw4WwmrIY8DleJZl8Ysq66mLdxYH80TPotwR3TH4d9zhpc1UvpzmR+jn1rf0Ol0/0YMvNV+NulIW7NE4jJbHotG7Kuon3LcCy6DA4R7yBi7qcYNjIEdedfw6EDF4USGoZsO/fl3er1aSj088PXD1rDmn+naI6BFOEPDsSzfjVYtz4V2Xr7i9Ot92krOloXdx5L3r4Y55KM4Db2PYRPmA7T2M9xqYSf3Yjf7/vOwrjfswif/gQcc9dAuIF/I0O3qyOG7/dbc58asl2GMOTzhkGfSfLTsSbVEk880g/PhklxdtNZvBPZ/H25I6r4RDzyRSZUQd5Yvqg/lt1hgtiNUXh6p+acyZ3Dt/94Bl/EizDq7n549z72HH7qMtbr5bAtOxGPZzcVwWKoH959xAch6anYrFemo3UZKm7TebxxrB7BU/ri0+cH4p2p1ig/FotlW5u/sbR5/MjG4a5xdkDNCez7S+ckWVoB7hYGImsbcLdyFOMsPn/sZWyLSkGNlR88LSsR/+cnePb+txCld1NjyL3hysUWc9KQqrcLnD3d+c9BGalNd0Pz4lMplCEzRdNIYnEMvlz0GnacSUe9lRfczMuR8NcXeO7+V3GsVLOuxuWka3LyctsXefoCRJBj0LDB/DT0GYwRg7ib0AXCgS0sgjlc+w1Cv0HsFgn7Q+nhCq5DvUhkCc+BXFnN0G+QJ2RVKoPbp1E7225IfQzZdm9PN/a5OUi/KnwrduES/7mYu0NHZkrzHMWGnFs4Ei8f9to4G/mJ1JX4ZhJ5eXnpfV9ECCGkNTKZ5l7PKpVelxDSzNq3hiAssNlHk1bNWR6JvGolkrk7E3RjA8I9EX1Mv4sBud1x+WZfXzkcE88dx/Cf9aI8hNymuNfFy3NHYFzKMYw7dmNfFwwTiNCXdsAzYTY27TgtTO3eGMYSgYvOIrj0afz2+05havfEdTrrM34Avp/vCHl2Nj5ZeQ5r0jQX8oy7K1Yt9sd453rs+ek0nt5TjoY2LvI7oyfu057kVt2n7W3XzTT52fFYaZ2IgW8kN0tjQMjtrDPnFtvH92HWjKvYc9djSLqODhakc6ilr4OFlwk8JlhCxN3ZhRBCCCG3NBsPW03qiVAHPPxYIO5xVOH4uWvoXknILcTaxhZjPe3YwQFzI4IwU6lCZNqNeV2YOI6CW8AEuAVORcD0d+Bnk4fsxFhhLulK3DV74t5oTHjhDL5PABS6NwuTG6Eh8SqeeuEwFu2rvK7gIe3Tm+dW3aftbtdNp9a7mRshtzkDzy3cfRVs3N2AlFjkdfLGt+T6UE/hDoikxpA6e0Nq7wqxGXcLRvaArapAXV4G5KaZGLDYDmUpNYj/JQ9VdPQSckujnsKGoZ7C5FY18skx+HG0Cd8tqbSwFIf/isPrO0pQfh0Xz4T0dMNHjcW3ASZQqxmUV5TiSHQc3o4ubsp52IWcZp3GnYOtoWZqUVuaiIwjb+PEkdOamwL1AD2pp/DN0tP3KWnpdt2nmp7CCRj0RkoncrwTQjjcrwqG/rIDfjHz8esnh4Wp5GagoHAbROyJXNY7BLI+oRAZt57wX26WDd+BJ/nHDbUMkrYVIeNwGfcFISHkFkRBYcNQUJgQQgghhBBCCOne6CusVnBBYPOImTDtf0ebAWGOyIi7P6WGxFiMXvfYYsBiJ5hYae40SQghhBBCCCGEEEIIId0NBYX1cD2EzcOnQOroLkzpHCt/UwQ96iCMEUIIIYQQQgghhBBCSPdCQWE9XMqIaw0Iq9VA+v5SnPs8S5jSOsv7P8RD63/FtPs7tx7GczamrfsQAz0ZYYqGdnm6w6gRzct0hPEcBi+95XYn19pmHdFt07ba91rptmlXL5sQQgghhBBCCCGEkGtFQWEd3E3luBzCranPy0BNwhmooo+g9koMmKpyYY5GTbU5rpwbiqs7ysHUtZ1UmGHc4RXqiLTTZ6CcNhNejOFBQnHKemy790WcS9HsNm5ZAz/9BVOnZeHw3Q9g9ey5/PDTl2fgvniNwQFULmA5Y8V0WArj3c31tFln6Lfv9dBv065cNiGEEEIIIYQQQggh14MiVDqkTl4tcwir1aiJO4nay9EQSSSQWNpCraqE6kIk1Pw/oCDbG5eiR6Gq2oFfRrtGzkRf57NIWZ+FUgyC50hh+rUQlnXknk+QrHOHU/Hhz7BtazaUoWGwvEEB1JuqK9uMEEIIIYQQQgghhJDbnMTKymq58Pi2J/MbACNrR2FMoz4vHfXZKTANHQMjezdILO34v1InT0iMGJQUuqIwxwtqtSYoq66tRl1W23fS9753ETxwBud/j4T4jtHoZZmH88fS+Xlc79Lp3z4EM+NATHjjKQy4Zyb6D5MidVcsVCJR0/zTu5FV5IHgpQ9Atv8rRF4o45+vSxW7B+d3x/HP42ie+xLCZs/kl8sNntIziC+fgBkr7oKlSAGHcbP4aYmxpXzv3EGfrcSERzVl+9/tgbL1x1Gk9uCnD7HRlOOXPWIJ5v/fU7DO3YSUVM36vF78BVPDc/lta2vd3PN1y2lxqSJmT6xsnNYlbdbGfLVlIPqMc0bp3n+QZXlvY/vmlLDP1W8Dr+b17EybctMMXXZjnfOsMOTDpuXrti/5dxgZaW4iWV9fz/8lrZs10hWu9mbCWNs2HcxAZb0MJSUlwpTuydHdEjnp3buOhBBCCCGEEEJIZ1BPYR1iU4XwqElDYS6M7FwgMjYVpgjEEqiqLFBZaiNM0GhtGVoMMwyewUBpVCRKxGlIjsoBggfrpUNwRN9p4NNB/HT3a4jFXZj68h3CPF2usHQGyjJShPG2cesds+IulH31YGOKCb4n8bSZ8En6A1te+hMl6mzEvPgAtq1N4wOWwZ+/i77Z3zSW377NGcM/vw/WSOHrrdsL2SdsEEoys2Hh6smPc8+3dALSI4+2u25uu69Gnm3WBtxzuVQR3HM1413RZoa2aRP9Nvjp7lVID36yMVdzZ9tUV8tls3VyehLzXhwmlOCwdZ4BHLpHs3xu2W5PLbthqTMIIYQQQgghhBBCyO2DgsKG4O4gJzARizE/0AVP9HVrMUzxthdKtWHkYLjhLGJ+0wRyi46fbjUdQvpXmnQQYnEaznz+J0qDp7e8QZm3KyyQgxKdeCPXw3Taul8abzY3T3tjM+8MnLvnQRw43LS7Net2hqW3MEGXNi3FB5rALKfot61Id74LA9m68s91doYVO10TAM5BWlRWU6DYOwzuXLqHg2yBjtZ98BTSddtA97mcLmozg9pUF1+PHMSu17SBWHwcB+6d17QdnW1TXXrty9dpS/PgOCd9yx8oEdKCGLxsQgghhBBCCCGEEEI60BTRImCqm988jiOxcUB9fiYYVRU/3tdWwQeGOYWqOuxIyuMfc5zlJuxgLIy1xPWoxZlTTfl/kyKRlgW4hen2Wm0e6EVSBsrgCEv9e8a1Ml1zM7N5mt6nL+6AJrkDNz2NDy5yaR60AeOHP5wCpTBfn7WrM0SiYIzYuKap/MaFcBeJNL2B+XoLgVkueIrTSP7tFNKFQLH1sBAos7JQzD7uaN1csPXctpzGNuCfq9NGXdNmBrapLndnto5ZKEkSxvV0tk1bENqnEbtRzYO+enUmhBBCCCGEEEIIIaSLUFBYR11uhvCoCZc/WKy0ger0PoiSLyDIRpMn82xsDHZcykJWZQ1+T8xCZqWKnx7q48H/1adNgyAKWdgURNz4Hvq5iFpJh2CIDJRkoTFlQ3u4dY9a9wvmP+XMpzPQDxq3Rp25A9vu1pTVHbhUCFzP1pJsITDLBU+zM1DE14cLFHvy6R806R7EBq2b7wXLt0HrqSO6rs26zrW0KSGEEEIIIYQQQggh3QEFhXXUZSdDXVsjjAlEIsgCw2Dcqz/6e3vCxMgIV7NzcaZOBh8bC76Ih4UZdqcUoqKuHm7OzvDw9uWn67J+cDqfBoHLa6sbZNUEEnXTIej1YOXTROikUxBwgVk+t6+Qm7ddXAqGrD+x/Z7ncS5F2OV8T9jWFWVkAc4h8GonVQGfC9jJFcFhg/ggrrY+bmEzYemcg7TjQq5jQ9at7Xn8YPPUEV3XZoa1aTMteu7q6WSbtqDfvh30TCaEEEIIIYQQQgghpKtQUFiHuq4WqvgoYUyHSAS5kycGBPjzo8l1Evg52MLHUtNreKijJcykYiQlawKh4aMn8H+1tDdPa5YGQauVdAjaG4rxNyR79q5m6RR0lax9EUfODMLwDc1vQMalNOBTGWSdRrI2yKgThORyD894apBmhKOfTuHgZsRmOaLvs/c13kyOW2ZjjmIOlwvY+S70DW5Kc8AFk0UhwXDTXS+nvXWztAFl9+lsnYVt7eo2M7RNG/HrYNtgtmYd3PMGfvpL85vBdaZNdWnbV2fZwTP00mQQQgghhBBCCCGEEHKDUARKjyrhNOpy2k/mKmL/cbgcwtwN5jh1eZlgSgv4xy3wNy1DY1oEXdqAKIKnY5ATNyUHsdvA5/PlUiX0zf4Gv3x4nC/bmuQP5+HnrzTlG1MsLA5G2pcP4Jel6/kUDuLDn+HIGUf0+1BTZv6KEKS99A3ShaAll9c35QzgvngNH/Tk6nTm2dcRi7swTVgulyYh9qWmXrHa50A3AHzwFNLU6sbUEZyO1q3FpZAoYZ/b2EZd2mada1NOYxs4PalpU73ndbZNdXW0bEIIIYQQQgghhBBCbiSRl5eXWnhMBCJjE5iHT4HUsXk3zxB7JYIdLJBSXo09qQW4w9kKDmYmuJCSjtNbfsGCp5ZCYaHE2h++QmrSFeFZhuN7m/LBRZ2UBLcJzbY7I+aeTzrVW7ajNrud25R0PZlMxv9VqTQ5xEnr1r41BGGBNsJY2+Ysj0RetRLJycnClO5pQLgnoo8JKXF6ArEUovoaqK/zlweM1ATD7nCC3dUk7Eij86cWwzCQmkjQUNPAfcsnTO3eum2dJcZAHXs+7SHt2JUYqTkC7vSFxcWzOHWVXl83E+PjgykBVTjxdyaK6lpve8bdAYt8arDtaBGy2yhzrbgf4Sl9QzHIvgznI+NR0kofHUPKEEIIIYRcL/qE0Qour3DFoc2oPn+0WY7h2IJy1LCf0jwVphjqZIXItDz8snEj4netw6zZD/ABYS4YfC0B4dud9bAQYNtmSp9ACCHXwcTzdaxcfBAf3hEoTGmJgQOCwz/H/z1+AL8uicSaJ99EPy4CocPC3wu/fDYKa+a7IUAuTGRxxayHhuLZ1fPw9f4nsHL9LCyYbQ9Tvee3x//5+fjlxOLG4acVfsKcJoaU6WoMY4HQR8MweoBUmNI6+9kzsOrQ43hptsFZ5Dtt2IpFWP15IKRCuzKMGKM/f6pFO1xvnf+NdtaS9P4Q9/znAqZPHCBM6RzLiXvx8IqkFsP8Z5fCvBPHo6EYxgce416Cr7vmy8HrYdpvIF7cMBcvLwlgP1MKE7sYw3hi3LMv4e7B5sKU5satjMPp9Y9C2U5bjfo0Bqc3PgHrxuPQFvM2JuHQp83TpN0IDGOJ+9cn4ejKycKULqSww4glM/F/G6Zhcj9jYaIeuRL3zB+KA5+F4kl/iTCxi0gd4OkkQ2lGStvB3lbKMIwIJtYeCBg0GEPDRyB8yCD0djGHSGcf2vQOR0R/F0huwGvgWjGMDDbunnBQaH5peS0UPkMQEeIJWTfarpuNYYxh7dkXIWHhGBERgYhhfo1p/jpiwbbfyJEjG4fhAXbcAoW5hBBCbmcUgWuDmn2jrL54CiXbv0fF8b9QcyUGFRlXcD4pnZ8fZGOOhwd444mZU/HE0lfg4dOLn35s/27+LzEM15N32rpfMDX0NA791oN64hFCSDdkoXSCrKEIGcWFwpSWnIPfw9N9LXDhxH/x+faX8cmfvyBRmMdz8sAPL/vDLz0edy86hBXxTR8VxD7BeHZFCFxzE7H+w4PYcbwB/Z6discmmgolOpaxZR8+e/lPdtiFvYmt/1jJkDJdT4kBs4MRHthGkEigrmtAbW09auu6wwX19dX532lnDVNrF0jrC1CSnydMMRwXy1BauYBJ/Ql7Vy9sNuzbsgEVQrkuZXYHAsbMg7OiSphwjdz7YdnHQ+F69Tjemf4b1kffqI/ingif/wQmDWw9KHw7E0dH4oXpG7DxqjXu+Xgyxru3fC2L4y9h1KJj+CTdAs+/HIKHnbrm9c4fux7usG7IQ0pGtTC1ubbKSK17oX+QM2QV2bh6KRFpZWLY+wbAS/iuh2GkMDM1Qp2qGg3dqZOFkRVcvdxgZdwgTOgcLhhuZmYCNbtdercDv62YuQcg0NkIxSkJiIuNReyFNJQK8zpSnXMZMTEx7HAZ+TVqqKrZ44o64hBCCGHRu0EHuJvP1aYmoDJqL8oPbcWxtd9CxX4o0TI1a+pCdb29hMUp67Ht3hdvqzQHmm2e15j/uLM6arPbsU3Jv4thJDC1toeLmzs83N3g4mgDc6GTEXfBZu3qCS8vrxaDp63hQTVC2pJ//iks+GoKPo9vPdDGME4I8w9CeeIXWB27B6eTDuJMRgpqhPMv1yN11lw/DCpJwaKPk3Gusvm50/1Of3iWJOCnl0/g4N+J+PuTndh00gjBd/o09mrtSOXVdJw9lILTB5KR0cYVrSFl/i2F2/7E4pH/w6fbKoUp3V9bdf4327ni+ANY++YwHDybI0zpDHcobUxQmbEb6Rf1hrQM9s3/BrznO3jBHOkozRXGrwH3HhC+OAy9is7ji5fPIamcPpv8W8Tledj58t/YU+yMmU/1abUHqriyDN98fAa/llpj6YMuXdMDnesB7GJAL2G9Mtyx4+TpBEn+JUQnpCIvPxepCSnIZ0yhtNR+fjCDqQxQVV/nFxddTW4KGapQdc2nTHa7TERQVVVdd1qknophTGBnr0Rt7hVczSlEYVERispUBrdHXSVbnn1OQVEN1EZANduWhBBCCIc+jXYSFxD+9J1X8f6rS1sMXC5hQsjti7telFk7wl4OlOfnICunAOWMGWydrWGCpotJVXEm0tLShCEH5fVq1NXXC3MJ6RyGCcDcRyKxdulJflizZBXGGbcRvBD3gbs1kFlwSZigR+qASf0kiPrnKqJbyaNp52gOZBUhXThcxeI6nPnhH/xvc27jBwquV5fTnSPw4u/z8c3+Bfhs7VQ8OF55Q37OzAWxHcYOwwtrHsKqg09i5e9Tcd9YC4h11sXVxz4iDEt/eYhPefHlpnuw8CEnKIQyzJjx+N/xp/DbyWkYbiFCr8UPN6ZTWP1rKOyFcpYPzGyWauGz5x356boM2fbQd57E6lXBCHl8Kv7vnyfx7Z9zsGSBS2N9DNGVdTYEI7ZA2AvTsOKvJ/DjsYX4buccPLfIw+CfLmsxTH+EvqiT6uGD3+Fv0nIZxh6PYsTCQ7jvnUuY/14sZi/9AX09LYS5HF8obICKgra/iLebchjzHn0HgxZF4YFXvoeP5wxEPBeN+1/6Fr7WmnUyxg9gwgcJGBk+EaGPH8Ccd9h1Pfsl/B00Pa8ZRomAJzR1fXTRPJiL/DDohRSh7lcxLkQTjGOMH8Sd7HIigvhRHmO7BNM+iMRgT53tM/HGkDAjJGw6g6RWXl9capfwZV/jtyNncTQhFnsObsTy+QObBSMnf3sZp399EMbCNC5YdPevSTj57QzN+OSViExKwrmUHzFFCfR/6TjOsOPccPqvpXBrts/MEPr8WmyNjsPhk7vx6dLwxlQRhuJ+0u4+5XV8ufs4DsbHYc+eX7H0Lo9mx7wh28Uw1ghd8j02nIzF0bP78OXiYMj0qmLQuqZ+hZNJv2LumOfw7cFoHIs9iQ3/ew4hNi23S1yXiz83Z0E21BeDTISJesR1ZVi1pwjy/k4Y136Wlg5x1VR6esC6roNewq2VkVjD0kKNkvxC9vUoHDsNpciIj0dyQa1m3MgUpsZqqBrk8O4fimHDwxEW3Acu8qa0DYzUBf0jhsHPUqfNZO4IZs+R3gqdNpI7wG/gEIQPH4Zgfzs4+A3tVFoK7gtyl/4RfKqC0cHuMBUp4B02mh+PiIhAXwedOkkUcPHvz6dFGD5sCIKDPKCU6qxHzG6XmV6wW8ZuR/hwBHP5V4Q68cvxY5czZBhGDB+KkH4+sNXZr4zIAf0ihqOPi02b7dNVGJEtfAI8YSvrqmWbw5z9bFlV2UZk3dD9JTODqbgG1dWtf+aUKJzQe8BgDB0+AhF8+wTCTdH8XNVROxNCCOlZWn4iJYQQco2kMDWVoLo4H2WqWtTVVqOkoBQ1EjPI+ItJBnUqFWpq6tDQ0KAZjOQwE6tQVnY7/yiSXJ8sHNn/Mj7e9hJ+TsgGqjOQpXcvRLFYzh6D7LFm7Q0HozIUV7DXhuw4N0hFOheNbgp4SVW4cKn141EsYj82qNXQTTRQfjEJR44UNvY2lgYPx3Nv+EMeex5rPjyCPRdkCH9zCu4bZMTP70rSAUPx/PJAmMfHYO0HB7E7ToaRb03B7P5NOUCl/YZg2bsD4Jh+Ees+PICt+1Twf2wqnrpX+M31+fP49q2/8dWbUbhYpUb2rgPs41388PWXl1GiKYXyQ8eFVAsHcDyz9VQLBm+7oz9G+2Rj56cH8edpNQIenogHx3biqroL62wIu9ljsGCKOVL/OIhVr+3GrxtL4DRnIh6b3tlfOGTg8nZNmofj5zKAyjSU6sXGGOMpCJ//ImzKfkfkb/Ow65d3kFo/DMEzn2zKf6vwglJWhvLSWkiMzZsG4RjkAlIW1o5QW1mj9uSvyJOOQejEAcg9uA4lZuPg39eFLwd7T5ijAlZB08DErkTkzt9QZj4JQ6bcBxN+XbXI2KOp78nYPKiL/8IJbZqKXxYgKl4I0DhyvYgzUJav81qy94AC6ajIF8Y5XlZwNKpASlzrvfScH/0CHz/qjZQ/PsQ7z7+GVVuLMOCVb/D8OJ3E3h05/RPeXLIEry5ZhdNs9VK3vMk+5saX4LUVO6FbHThNx0z/s1j99lv4+RiDkKdX4vm79HJlS6Qws7CA3NwcCgs5jPXS68oGv4QvPr0HljG/4pNXlmNttCWmf/ojng5piqAasl2KyW/hg2eCUbH7c3zwzneIC5qHycJu0jJkXRoemHyfK05+xS7zy4OoDX0K7708rtVfMxRfyEWhkSVcvIQJrchJLEGW1By93IQJ18rEAZ7OJu33Em6rjNwMZqJqVFU2bQP3pVx5QR5KqoXXNltGhjrIbR2AglRcvpIDlbE9vH2dm7bdVAZTqKDzo0fAjOvJW40a4bBkRJbwC+oNW3UhkhKvIEfkADdL406mpWBQmBzLpyy4nKeCujoXiXz6ghjEsufHKwWaVBIM5PDsPwDeFrXIS76EhOR81Cs8Eehr35Qr2cQMpqJats51/Cj3HPcAb1hUpeBiSinXEOw0U3j245ZTh/zUy4i/nI0aUxcE9HEVXsssQ9qnq4jr0SB1QJ/QMAzwc4Himr9QELObJ4aRGVt3cS1qarnN1UzjWoLTqf3F72u9/S9gxLbscnyhqMnC5dhonIu9jHzGGt7+7o33DTConQkhhPQohr6zE0II6QB3gVaanYa8Cp3gi0TEnmgboGY/K4vFDewFXA6KhAs4rlehXCmHqLoCFdRRmFwjsbgEKSkHcSbpIPIbzIGSDGQK8zgM4417HtyHHxfvx48PLYCXSImI6exjdvx/T/2NJ310ojymRjBDLcquIylr4GQ/2CWcwRfvnsGRvxOw492/sOuSEsPuchVKdJ2gqX1gn8iu6x3Nura/8xf+umyJ4dOaojd+E3vDKfs8vnrtJA79fQn/fPkn1hxg0Ge0F987V1yQi1N7ruLE7iwUsq/DiqspOMmO88PJEtQKF9UNGTlCqoV05Lbeyc/wbTfKwc5XT+LgrgRsW74fh7JNEDDE8F68XVlnQ7j62sAo8SLW/ByPqINJOPS/f/Dpi3uwr40O520RiwtRkqBJ81DZoAAKucCXnl5j4Gp6Fhc3fo2US5HITdyAqN8fw4Fdu9C4CXbuMIcF/ObFYN5/moYZdwULBXyhtDFCedy3iIn6A9kFQGnMl7gYtRN5lWy71Gl6Vkr4oHAZ0nY+hTMnNiP55ApEnr4CsZ0Pu3SuvtUoS9qN1Au7UaW2BPJP4NKFXUKqiv0oEdKrGNl5QM6kolQn4ipn62ikSkNpuTCBY2YME9Sgqo1UHYV/LMKkYdPw5ndbceTgfuz+4X3sjLfD4Ij+QomOiXPP4p/t27FraxSy2WOj5NJe7GbH+eHQJah0g0TSM1i96CNs2bIRPyx7GdvSLRE6YpAwU0PUfxm2xcTgMD8cwEK9qgy5dwZcL3yH55/7Ctu3bsD/nnsSv170wpQ5EUIJw7Zr0OjhUMb9hNdf/w5/bl2HVYu/wTm971IMWZfWya+W4scN27Dj25ewYkM6bMLugL8wr5kSdn9AynWgbFt5Lcoh4bIgXDMuXmbp3nEv4bbKSLigoLoa1Xpf+OmSmJqyx1cDCpPikZSZh/zsq0jKU0EsM4H29oh8GXY5VTrf+5mYymBUW41KTcwVUgc3OBoX4UrsJWTn5SE9IR8qdts7k5ZCLFZDVVaEgoIC1KiNgcoi9nVYwKcwKCoqQXWD5jgUW7vC1bwCyTFxSMvNZ+uchCT2ZCU1V7DvRQK2flwgk0uDy7eRVx94yEpx+WIqe07QLEdi6wk383IkxVxAag67nJwUJGSUQqRUQnsvR74NwaC4nfYxnCYw2zSImt3wT9xQgqRzJ3EqLgM1CncMHByKQE9bmIqbynSEYUzhGTIcI0aMwIgwHyhFJnDuxz5mx4cPvwN9bDXb3pn9xe/rOnZft/a9r5UtbI1LkZ6YhoKSMpSV5CEp/jzikvLZTwUahrQzIYSQnkXnkyEhhJCuxAV9FZYWkFSXo0K42GrGyBwKUzUqyspu2zx5pOtwP3V3VpqzF+Lpejna83F4z9N4b+NifHE+GeqaSPzOPubG/7tpMdal6t7859p7k3K4Hpr2DiaoyShGoVAHsbgCmen1MHdQdmlPIm5dduy6KtkL0koFe1Evl8JMUYOc9JrGdXGrs3OQA2klSBNWzQUrot78Hg8tjEF5F77uOrXtmYVI054TmELkZgFy5XVEnG6wjCuFqPcLxMOLByBirDt6+0iRc+wyziVc2y8cuFQBFjZK1BWlNA9Schrq0IAA+M94GQGhU+Di7gFJwVGkxsc2Bru5IKxZzRFEfTcXu3SG/YfO8/Mh9oGFVT1KsxPYEU/ILYtQnJMLSLxgoSxFWaEmemth6wZRyRGkNe4M9qkSCVBXheanbA+2vsaoKkhu+um+Dku2PqKSVJTqfLlnaeMOFLLThHGeiP+vTTXmAzH/2304HH8RR/kg7D482Y+tp5WNUKKLpV3G5cbj8BLS0sG+Z1kJEzTUl9bgpblzsZAfFmODzhcBDCOHs7MlylJSUd7Ym7gUacmlUDq7NfYu7Gi7uDQwtraWaMjORKa2fesTkay5tzPP0HVppCE1sWk8LS0VKpk59PpA6+hgx/CuMw2AiQM8DOgl3FYZmakMIlUVqtq5V5uZmSlENUXIL20qpOZO6fUNjceznC3DRVd1OhzDzJSdVqOCNoRoyX5uEZUVoFD7JL55GFRXtRORbpMpu3wR2rqxmcJSCWllEQr04+RsxbVbYSI3hVRdA1WtGFJrX/R2k6LwcjxyapqWp7S2hBG7nMJ6I3Y1YvZ1bAKlQsZvq3bRfBuy7ZPXTvsYgsvv7DpACNYKw/DhfWGv9yUGt7k1RemIizqFM1cKILLzR0iwTydyU7PvZ4nROHfuHC5klENdV4Ar7GNuPDr6HJKKNMvpzP7i97WqqU2aaWDYNjeHs583XBxsYMm+r4pUJSgoqmzscWxIOxNCCOlZWr47E0IIuW5cQNjU2hG2MhUK88taDSRI2QtbWUMFyg3vfENIO7xhrwQKilOEcQ2xuBzZ2VGIS49COdf/seQCTqae5Mfj0s8jr5XcptfOCBL2wpjhr7SbqLlxIxGuMyWnHs26zMdPxHd7n2gcFo9nL1Ab1yWCiOsIza2/lddg1+rEtrPTmkqp2fMFW9PrjDndSPkb9uG7TcVQRgzCfW9OwWtrHsFXv4/DYEdDgxv6fKGwAsqLkoRxHYlf4sTxGMDzfoTM/BzjnzqAOS+tgqeyaV2Wdm7scRyLtMtHkHP1WONQVCr0Z7P0hIU0C6X5NYCJD5SKFJRy97Oz9YZCko4y4WZxljauQGESijSjfHBSaeMCdWEqyoRpGuwyrLn6tsxhzO07hTW7nKKmXs8MYw6lrQ0aClP0ltM2hrHA9Hc/xf3eKVjzwmNYxAdhF2J9vFDghuCCQFoMe+xyx6HegViRgbNHjuDUsWOIPHIKWc1+RSDlsktAOfULoSexZnh/KnsikhqBy8xs2HaJoOZW2+y1w+h9RdXxuppoXlNaJavn4Y7QF3CszXMAu6bmK2tFhwXaxNVF0wM414Bewq2XkZvxSXXR3r3aTLmAX3V1Y3CXW6aZmQmY6ipw4UHNuAxqtow2XMh/VjHVLSOFmakRatkyjakH5GZ8yolq3UiywUw1N79rJV8Bt24zuaxx3Zpp3HawdWTLa79yMpXJIBLbIzBiJIYPcIWsNA2JuU1fSHFfyMlNjSGy8EaYNlA7fCgC7dTISUpHpbAdcnbbm7cPt/6mbTdcPfKvaoK12iH63CUUtPWLL7EERmL2AGdfYEytqnG7OiIWM1CVl6K0tBR13DtIdRnyi4v58dLSctSw56vO7C/tvlaz29tqHUpScTmjHCKlM3x6B2FA8FDcMTgQtsI9CgxtZ0IIIT0Lnb0JIaSLcRc13A3nHBQMinLyUcl+cNfHwASWCilUZaWNvd8IuS5G7nCQM8gt0elep4NhZHBWWqOuNBV5wrQWahn24tOIvcgUxvUwXB4UkYjriNRIEeSDiJE2Qk/YejSwF8ZivcASH2jibqgojHcNzboqjh3FB09vaTas+OyqEDxRQ81Fvbj18/UTSMSQSvWmXbeu2/aGBrZe3M+RhXEuaMadJpj6phDezSRuKMPJL3bi7Xt/xhMjv8GzTxxCvLw37p+rl/TVUFJvWFg0oCK/ZVBYrE5F8va52P7BAPzy1jBs+fF7FCsmok8/TXoNLrChtHaBuigVupkZmnHwglydhjLuQHfwhkKVgjKuMDvdojYVpUXcclygtDGDil1OU95NL1jaGvM3sGv2RZ7CCwpZJcoKuMiyPkuYWZigoaqkaTlGI+DozB6bxVf53nSNauv511frqQrCEDZUjsu/L8eqLftxkg/CnkaW3peGXC56iMQ6H+DZx9yhzE2/6eq4jt0oPfCh0JO4aVj0zk5h/xiyXWqIuJhrs9eOuNl5xrB1XQNzKWRoQG17kTozKczYd22VodE8fY15glPb7SXcVhku8GcqE6NWVd34qyI+eGrpADshWS13Ez4zU7ZMdVOvTi4gy/XSra5iG5ufZgKZiRg11VU6v06S8+f7qsoK4Vg10wRxq5uCuBK5XJO64lq6gvK56+vZ5bXWeDKYmuj3IhbqXFnJ15HfTrZCTHEyzp45gwtp7J62sNa7sRm7DrbOFVlxjUHas2dOI/J4FBILNGdern1MZVzwVLd92G1l19/UPobhfm1SIwRrG4cylc5yBRI57Dz6IGRoGAJd5KjKvIBTMZmo68S6OLqB+5a7oDP7y0yzr5u1dxP2yED+1VicOXkchw8fx8noFJTL7OFip23sjtuZEEJIz9O5dyVCCCHt4i5gZFaOcLRgUJyTjfI2PieLTRWQS6pR0VYBQjrL2g12ojzkFrUVufCGoxWQX5za6gUhL6cKGWoz+Hro3U1KkJ9TAThbw1X4mSwXrAh+ZBwenuYArpMUlzc7L0cFE1crWAsBV+5n3y7sE8pzShtvRqehRn2dGiJuWpvB2bbLcOvKz62BiVEdkk6l4+LpTFw4lYXcKjHEDQ18QIF7Wn5uJeBuBQ9h1Vxv0MFvP4YfvugLc80kgZrP/S2R6tbRcJ3b9vYVcolvna3gqn2K2BZOXGfUPP1kz9dX5yZttzPDjnvPiMC8mQ78PDHTgKLzsTgZ3wBLB8tmeTQ5suFvY+o36zF0mK0wpRV2HjAX5Wh68upg0B9+U96Cr4uwzNocFCWeQkl9A+prtH35NKkcKtnjuK20O6a27jApS0Ypu3gjLm+wkLvYws4dEvZ5mpQOvlDw2Qt0Qo9WY+BsV4n8ZCENhZatG+TIQkWBMN5MNWqrayDxng5/JxsYWwxC7ymPw1GmRnm+Xs/itDLkqy3g3KtZv3FBDbhUx1KpTrTLLAQBPsJjQVZ2LtsEPvDXbrokCF6eQG5mmjBBS5PLXmrUvA9tVxKLK5GVVQIzaTniGnsTRyKtQsoeJ/VCYL3j7eJ6ROYVlEDi5AIX7fFk5A8vnRu7GbauzjPrZcu+Xtn90vp3aTwLT3M4MlVIF3qYdwa3OUp3D1h10Eu4/TJiPl4u4m70qW0fqR18AvzhZC6Mw4wP2PEBTi2xXAgYaqdxP/dn/+h0ehYr2O03VaGkRFvGCEbs4antMc6d4+3tlBDVVKNKu6rOMOPy9arYegnjzWjO0c2YsvWR16GUuxsqTxO0VpUXoay8HHmpaShssIa7q0VTW7D4796qmoK0JRV1MFYoIZc2tQ+fOaNZ+3ABaN326RrczdgcfPth8LBg+FirkX85CpGnziMppwx16ms5TjVtUF1dzbaX/vM7s79MYcIeDzWt9dpm3w0dvL35L5Z56jpUlpSgql6NBp0vIztuZ0IIIT3NtX2CIoQQ0gIXPDGxdICjpQQV+UXsB3IpJBIJP4hFTR+YuV4f3F3cUVGGin+n4x+5RTCy3hjoPRLB7BDqFwQ7VENmPZofD3ZxhUTnohkSTziYM8gtbuUn+1rleTh0GQgf7Q4n3ecK0nYnIsWyNx5+fwhG3umHCUsmYeaQepzeldTYSypu5yXk9R6EZ14dhOET/HHXq5NwZ+9SHP8zg5+vxfW2Sr5cBPTrg3un+mJQhCc7uMPdsmm9HZW5sD0eRcFD8NwLAzBsrC/GLpyIl7+ZjLsGNiV3vPR3InKc+mHRe0MQMcEP4xZPxv0RbD33JqOi2QV2MTLTGLiNCcXoCT4YMo4dBin4oCfXFLZ9uXV7ImSUGxzYC3QjB2ehPp7wstXUx9Bt78jVfy4jxyEAj7wVguF39sb0t0dhhF0xovbq9/G+/jpz2mtnLghRZ+eIUU+PwuNz+yA0wht3PDgOU4aIkZ6Y2ywwy/XG85w0F86+Ieg3ZRzEOscQIw+Ca8AEuLGDR/+BMEclpLYT+XE3Tw9NWcYGdsEPIXjiC/DwC4O932QEzn4BnqJIJF/UJmfw5VM51Es9Nc9tHMbBWgiQKW3coL2JnaW9J+oLrvI/bVbauKOhIEmT0kHuBQvTUtS5PIah4TPhGfo0Rj7yNGyLNiH+ot4XKw11YGAPx4HThXWNgqWpZl1icQ2SD65CviQCw5ZE4f7n/w92lZdRg1yU5esFX0qTEXuRuyFhYOMXB03O4NixYng+8AFeXzATE+95HK/+sgC99brAXtiyA0kO9+CNlc9i2vR78cSXH2CaXSL+3hojlNC6jKSkevjetRh3T5uKCVPZIUxo5y50ct0W5Axdgs//8zjumjIVs19chW/WfY2HB2uDwIZtV/SBoygNfBj/4ZYz7V48+eVihOhlbOh4XZ3DpfkYOckVooupiG4jzwfDmOC+kXYQX87HvmvpjmziAC9nE5Skt99LuP0yNXxPVKm9N/zdHWHn4Ibe/XvBui4TqTnCF8tSU5hKGah070QnM4OpWIWqxkTE1Sgrq4XMwRueDjawsXdDQIA7jIvTkKF9eaGK72GqcA1Aby9P9OrfHy7SatQbW8HVyx5y9pXQKXyqHGMoHexhbW3NDpaQS7TLqEJpeS3MHH3g7WjHbpc7gthzlmlpOtJLhDJiTfqJ6iohcUZdLlKzK2Hm5AG7xu9WKtj2qYOFix+7XbbsdjnBt+8ADOjtCBPtprPtI+uwfbqIqQ1sZZVIOx+Jk2cuIr2g+pq/tODxbaBuaoNmOrO/NL3t5XYusLXh9gU7WJhovthjjGDp6AZvby/YWFrAwtIWLv4+sBcVI79ImxfDgHYmhBDS40isrKyWC48JIYS0w8hIE2iqr9d+QG5OrZbAwsYWcqkRZOYWUCqVjYO0rhSVQrpLtZEF7G1MUFVYiGpG07vjVjJrpCtc7du7lbvGpoMZqKyXoaSk8Wq0W3J0t0ROeveso1mft7Bi0nwM6z0Ow1ydIBZZwbsX+5gdHyy7hC0JiZquPSy19RjMHOCEq1G/Iaay9eNOJGpAXIEx7p7uhVGyYuyJ5X6u2lSWKczGhctieI8MwIiJveBnp0Lsj3uwemsx6oX1NGSl40KmHAF3BiDiTh94mpfi5Gf/4I+jVVALZbRK4nJR27sXxtzdFyMn+mPIGE8YnTmDcxlN5dorw92YKjbDFEGTgzBqsh96O9chcd0+/O+3fNRq65PDlkkzgu/IPhg+yQ992DLxv+/Fj2uaynBEojqkJtXCIyIQY6b2xtAxvRDqWIpdO3PZS2lj3PHWHDwxzx9hY73gZiGCibsb+9iPHxRXTuLkFbY+Bmy7y6gQDJan468/c/j1q9UieE8KRf/6JGzbW8iXYXIzcTHbDAHjemPEBG94mJbgxMq9WK/Xhl1RZ6322rkkJgelTq4YelcgRkzqhX69jVFw8Dj+93UqynTOYdzxU285BN59TZG380skJmiz9QLGgz7GjDkL4T3gLnh7ubDHqg3s+rKP2XEPszhER1+ESJyC4gJrOPSdiT5DH0SvvsNghRhc3PQK4nM1AVa1Ygz6jh4OW9exmmUJg1f/wWi4+APSi0zgHP4i7IpXI/piGhzDXoNV/krEX1HDPeJZWOSsQsKVPKhdZ2BQiAUub9kGi1EvIahfP0gKtiPyj/8iSy8Xp7okDbU2I+Ab+gD8g6ew6wpA9ZlfkVul2XZ16UkkHlmDpNitiNv9GS6bTMHgfgyS/1qPgnq9/ZUjx/CHBmKAaTbORJWhVnh9iUS1uHwqFuI+ozBh1iyMCXFE4YaPcMR2BoKrd+HHXZf5cg05UYhMUqD/XXdj+vTR8BEnYMtbz+HbY0V6x0YFEi5Voff4e3HPfTMwYeKdGO2Sht82nkMdW85n0lMYa34Cv6w/ixr+ODRC4KzFCK/7Bz/8yd2gD/C6cyHGK6Pw67rTqObLmGHAvQswqGwnft59lS9TlxGJE6l2GDLrXsy4ezKC3VQ4/+MreOfbWP45hm5XTeIpXDJiX8czZ2HS6D7AgW9xRDkJAyqbynS0Lo7afzIev9MER7/ajISGpvbQx6VwCnxqMh4ZCxx+bw8is4UZOhhIEf7AILw3TIRN35zH9vy2l9caLtam9AqEt2khEuNzoNJLiMExpAy3adWlZWBMrWHv6AQ7K1OIK7KRkJCCUuH4Uisc4OUkQXFyVtM0pRN62QN5V3NQwZ5nuOVUlpRDZGELRydn2FnK0FCSgoTETPY8rwlaikT1KK8SQ2ltDSsLU6jLU9n15ENk7QhHaxEKUgugEtraEFxu4Hq23o7OLnBxcoS9vRw12Zo68vUprYCYrQ+3XbaWJmx90tn1paFS6FGrltnCw80MZWmpKK7lniOCqrwBSg83WKvzkV1az05To4rfLjs4sNvlaG0OcXUersRfRVGd0Bbm9mz7GLXbPl1FVF+G/LxiVNQ0aHbedVKb2sHTVca2QTpK2DbQ1Zn9pVZXo6rOFNYO7L5wZuc7OsLWqBypeRXsubcGFdVGUNo5wtnVFc72VpCry5GZeAlZVZpvZwxpZ0IIIT2PyMvL69rvnEAIIbcRGffbTJZK1blbktxu1r41BGGBHd8tf87ySORVK5GcnCxM6Z4GhHsi+ljzm7f1RBK/D/C/CTL8+PUzONzQdq8lLkjRZ/wAfD/fEfLsbHyy8hzWpF1HLydCuiFx6E+YN6Meh157FMnX9JPutlmM3YmZoWfx13uvIU+vhyD3SxG3mROwdKk3ZGlXsXn5Luy/Sq+vm4nxCcTTy8MQ4l6LM5/sxNdbClr05GTcXbFqsT/GO9djz0+n8fSe8pY5YzvASB0xIKwXREmncD6z9bQ+hpQhtzeRbR/c0UeCxKMxyOvicxUhhBBC7yyEEELILYphTOHixqWWmIMnwsJRm7wbZzpIY83FPRL3RmPCC2fwfQKgkAszCLmFWNi4AyVpKO2Cnz0bO0Q0prHwCH4eYYN7oTRmW6s3dORSdWRu/Ruvzv0Lu2LUMFUIM8jNozAGE3MWX8xdiy+3FbX+0365ERoSr+KpFw5j0T7dm5MZhu8B7ObO5wlOzWyZw5VjSBlye+K+PJIprWFj6wQ/Tzs0FOSikFI0EEIIuQGopzAhhBiIegobhnoKdx8MMwyLFn2CYaJ8pKdtxK97f0JCDX0fTG5vXDDOe24CRpr+F7989/N15fvULmtUP2Oo1QwaqtKRH7MSx7dvRBlDrzVCSOcxjCV6h/eHg0iFyuJMXLmUhrJ2fuFDCCGEXCsKChNCiIEoKGwYCgoTQgghhBBCCCHdG33lSAghhBBCCCGEEEIIIbcRCgoTQgghhBBCCCGEEELIbYSCwoQQQgghhBBCCCGEEHIboaAwIYQQQgghhBBCCCGE3Ea6PCjs2zsQAwYPbTYE9BsIhdJSKEEIIYQQQgghhBBCCCHk33JDgsIDBw9rNgwZMRoz75+PoIEhQilCCCGEXAsvLy/hESGEEEIIIYQQcm1uWvoIsUSC0PAI9AseLEwhhBBCCCGEEEIIIYQQcrOJvLy81MLjLnHn9NlwcnUTxq5NdkY6/t66XhgjhJDuQSaT8X9VKhX/l7Ru7VtDEBZoI4y1bc7ySORVK5GcnCxM6Z4GhHsi+liKMPbv43oKd/c2I4QQQgghhBDSvYnNzMzg7u4ujLaOm8+VI4QQQgghhBBCCCGEENKziYcNG4bg4OA2cxRy07n5XDmRSCRMJYQQQgghhBBCCCGEENITSYyNjZc7OzuDG2pqalBSUiLM0gSEBwwYgIaGBpw9exYVFRXCnLZxN5pTWCiFsWtTUVaGKwlxwlgTRhGA8ZO8IRMH4I47+qN3byUqLqajRG2BwPGTcEf/PujTp0/j9DIhiK15Xjj6s/O4+dygrLiIzDJhPqNo/nxlBRIyyzTz+OcOgCzzCvJrdZenmZZrEmhYnXSWyWmxzk7WmRBy8xkZGfF/6+vr+b+kdbNGusLVvuNfl2w6mIHKelmz953uyNHdEjnp3aeOVlZW3b7NCCGEEEIIIYR0b+Lc3FycPHmSD/xyAWBtj2HdgDA3nyvXPTjBTxGPLVu2YOvWk0iDEkETxsCv7DQ/jRv2XbJAyIQgKBiGD65OGOOCzH2bG+dv2psIi5CZGOLKzmcUzZ6/adNeXLIIwfQhrsL6DNF+nTZtikK2Uwi/Po7+OrmhM3UmhBBCCCGEEEIIIYSQayXm/qcfGA4NDb3hAeFdW9bhpy8/bnXo6CZz2ZlpwiOWewD85Nk4faJpWumFeGTL/RDQmCq5DGWlwkOWuPwi9mzdipMZ7ObrPV8sLseF+GzAyQWujOEB2GZ1UrrBRV6JSxe1y8zASe36ONdbZ0IIIYQQQgghhBBCCLlGjRFG3cCwq6vrTekhPG6gAh8+7NTm0LpKlOsES5UWFhCJnBE6axZmzJjBD7NmhcJZJIKFhZIPpsZnOzXOb7UHcGU5dBYJlJaza7GA4VkwmtcJSgXkekFdXV1SZ0IIIYSQWxT3vbxIImX/3pq/kGKk5ug9ZQAG+9AvwMjtgZG6wHHik/D2ajrmGa8p6DcxDHJp268DxscHk6c4wbqdMjcSdwpSeIciIswflmi9DoaUIYQQQrqjZt1OtYHhurq6Gx4Q5uQW1yMmRdXmYCh1RSL2btrUmGpBO+y5WM7Pzzi5VZOCQUjjwAdapw/pVE/grtYT60wIIYTcbAzjibCwpzDa0USYQjqDaz+PMS/B39NcmNKcx5w4zH/yURjfpM8XHdVHSxG+Bg+8dw4Twz2EKTeGofXpDIaxRJ8nk/DgnMnClOZM+w3Eixvm4uUlAfBUCBNvsjvHT0DcdA8o6XNlmzo6Ntxmx+DhFUn8MP+DRDzw6l8YPXYUTCgo2IJx0ELc9fM+TFt4D2x1m9M8AH0WrsH9P/+C/kEWwkQ9CjuMWDIT/7dhGib3MxYm3kRSB3g6yVCakYKS5pfOTTooI7b0xeARwxBoLxWmaDCMGOYOvugXMgTDhocjLKQ/fOxkEOm9LhmJAu5BQzA8IgIjAu1bzCeEEEKuVYt3LS4QvHv37hseEObklNQhJlnV5mCI0rIyQO4CNwN69WrTOPCBVjjBRZuqQf/5HfT07VAHPY27pM6EEELI7UAWivFhs9HbrFqYQDrHEy53PAEf964Lel4fA+tTr0J9Xc1NuLHnTW4f935Y9vFQuF49jnem/4b10W0EmUg30PGxoc5Zh4OrF2Lfry8g6lw+bEavwvjRAcJcwmHcHsGd7z4Hq5RPsPmBMTgV23TMi2NX4PcH7kZkih+GvPsDgtyEGTrE0ZF4YfoGbLxqjXs+nozx7jcvIMrFXpUe7rBuyENKRuvvQR2VYSQ28Pd3gSj/EhJyaoSpmueZufVFfz8bqIsycCXhCnJqZHDpEwA3nXv1ShVu6BcyAJ7yelTXAqrqaqjFdN4ghBDSNVp9R+F6Ct8M47n0EY84tTkYJO0iLlXK4RemuUkbh3EdgunTxyFAwQiP9XrYKi1goU35oH2+kMyXvwlcH3bd2ZnI4N5wS8tQBjlchAguPz/Mj53SjtJ0ZOotM2Dc9KY0ENdbZ0JIt8UwEpha27PnDHd4uLvBxdEG5hJhJouBFOY2jnB194AHexHh6mgLc2ORMJcQ0oKNB+yQhZwiYZzcFiqjHsUfbwRjX1S2MKXnYxgpwheHoVfReXzx8jkklVNgp8ervoLMC7uQHrcdCTsXIDK6AjaD58BW9zP8bYxhzOG3YCkci1fjn+XfIF/zg8hmxOXncH75YsSWBCP0sZmQttJ24vI87Hz5b+wpdsbMp/pAdrPal+sB7GJAL+E2ynCvecfefrBTZyMxMQ8NusFcsSX7OVCJ6tTziL2Sjrz8XCRdSEKhWgGlpRFfhPvVgVeQJ+RVKTh3OhkV7NOrq6r4eYQQQkhXEHl5eamFx13izumz4eTayte8ergbzeVkZghjhmEUAZgwxgWZ+3bjos4HaT5QO2EM/M01gRW1ugKXdMpwQdZZoc78Y06L+frPz4rC1pNNddOs1w/mIs38rKgoIKQPytllXECQYXXSX+Z11pkQcvPJZDL+r0rV+i8ZuGsUmbULnBR1KM4vQTUXILa0hbVJJbLTC9hxdr6tB5zlNSgqYOc3iCBT2sHaVIXctDyo2rrg6GHWvjUEYYE2wljb5iyPRF61EsnJycKU7mlAuCeij6UIY/8+9n27W7cZdxE75d6/Mb38//BDzQTM6d0bioYMxET9B1+fiUOd9qJYNgCTRizEGA9f2Jo0ID/rH2zc+ykiyxrYZVhg8ux/MNdN8x6pS61W4/yekfgwTgVGNgfvPPkYcraOwjcpwvun5QL83/wZiN9wJ37OFBtUH0Y6E288tQwVB99Ake/TGOFgidrSU/jz77ewq6CpZ1dHvOZeRoTx2/jl+1/AcMtlTNBnQTzCap/D6l+38GW4dA2jlN9g/9UhCAkfCNO6DOScfAdH/zmCGqFtGDjAbdxbGDQoDEqFFHVliUg/8h6ijp1pbL+O1sUErcT8BydD0rIJ2c8kK7Hx049RwT7PoPowxlAOeBFhYybBzlqJhuKzuLLndZw9n9zYY62j5RhaH9MRG3Hf5EHCHKDi2Bxs2H5SGNPgAi0WQUsxZOxUONhagqm4guyoFTix7xhqtXXuoA0NrY8h284w1nAavwJDh4TB3CgPOYf/i1y/79G/7Gn89vtOvgyHkfrj+X1jYPzlj/hgfcv3EYYRwbuXP14LdUI/S2P2GCzCjpMX8PGVSj6YxDAyPD4rAk9Lr2L2+ktIZN8zGEaOZ+4djkeYRMzccBUpfDkRPL174eXBLhhkZYyGynJExl3Ee2eKUCTUmUsf8bHZZSzLtMHS/tawqa/CqQtxeONUQWMZbttHDQnA4t528JaLUFVRhiPnL+K/50v4tuEYthwphob2xatBtnCT1uJ8bDzOOAVjXkUUBu/NF8q0v+2G4vfFuA8QNmQoLIyLkBf5MXI8P0Ng0UKsXb9bKNP+PjX02ODSR4yx/hxrv/6+8bgzCV+POXeV4dArjyCZ3z8GHD8iL3hPeRcD+/WDQm7C7q8U5J35EEd3/oNqoYz29bX3UjBChodC3pCJnFP/wdG/DzV7nVoOeg1DR4+HjaUZ6kpikLpvOaLOXTb4dcoxpD6GbBeHO7dO2v4hpN+FYceWAmFq62Qz1+OhBWXYN/URXKlrWoYu5X0z8PmiWnw3ZgeO65XhjjPnhTswaboLyrY+jk2rjjWrS2dxn+mUvQZjkF0pzkfGtxoUbq8Mlw/d1GUAgnuZIDv6NJLLml9yMxY+GDrQApknziCjVvM87v0qYHh/GF05jAu5anZfWMLNuYH9DFmKehM3BA9zR3n0MVwpvfbtIoQQQnRJrKyslguPu0RRQT6SLyfgSkJcu0NRfj5G9zPDkxNt+BvOtTbsia4Qlqohqs1HUkIS8mubf0oTiWqRn5SAhATt0LyMqCxTZ14r8/Wfn1kmzNHQrLdpfmZZGTKFZRhcJ/1lXmedCSE3n5GRpudGWz9nVqulUFhbQF2ajaKqBjAN9aiuBsyszKGuLIWqQQJzSytIq/KRX1HLzm+AqgaQsxdvqCyDir0ovhXMGukKV3ud3z62YdPBDFTWy1BSUiJM6Z4c3S2Rk9596si+b3frNlOrAxBxx2TYyYwhy9+HfRdPolQ5HBEBPiiK3YnkehF7oeuLmfd8g5mWV3Eg6nccTM2Ffa/7MMlNhaOx0ahkL6yryhNw4cpeJEsGoa/xCaz++1vsS9yLE4l/ISrtKkrZ5agdJuHeQDOcP74ZCTWa14/aaRru7w1EHdmOK1wZA+qjth2Pe/q6Q26kRM6VrTicWgJHn0kY7lCBAxfOQyV8KdwRq/7PwFNyCOfPnoeafY5abQS74MVwbfgH52MS+DKWfZ+Cl4MrTNSHkXB4G4pEA+Ebfg8Uub8jNa+WL2Me/iMmj3ZC7rGvEBO1G/nlbvCe8BiU2WuRXqA5/3S0LnV1LkozjiM5Nhkyv1A0RL+J4we2seN/IyXhBAoLCvjnGVIfieermPzwPRAn/IjoY3+hWDIEgePvhvGVtcgu1QQ6OlqOofVhylNQcHUfks6fhNptNMwLNuFiYia/Di2x+4uY/OhDMElZg3OHNyG30hPeo5+AS/VfuJKh+UlVR21oaH0M2XajoA8weUYYqs98iXOnTqDe52742HvAuHQXYi5c5stw1L69MHOmAvH/i8KF/JbHlIljb6y5yw2StCR8cy4bV4ys8eAQd1imp+FYJffZsR7n8tQYG+KLwTVZ2JpXD+e+A/Bh7wb89FcM/lFplmns4I/fpnjBKicFX51Jx9lqM0wO7YWwWs1zOL4+vphgbQYl8rE+OgsJsMLU/u5wK0zDPyWa7XLuH4LfBpvhbPQl/BiXjehKOSaF+cA3Pw37hG1vsRwRu5x+zZej8O6L30bao/TqJayMKUCFsztm2JnBpCwL3ydpej12tO2G0uyL4aiL+RpnThxBncd96OXsDEnRTsTGXeXLdLRPDT02lIEL4W16ErFRZ9HAjnOsBzwNP7srSDzwDyoMPH7Mw7/DnWz75Bz8P5yP3ImsYgd4jHoSDmXrkJSlSUeg+/q6dGQr8mt6w3fEHFjkrm18nYq93sRdD00De4Ah+vjfKBEPQe/xsyFL+h1ZJQ18GcPOPx3Xx5Dt4qi9piJkqjMyf1mJzIL2z6O18EfvyQNRdWQ1u87Wy1bDGiOmOaHsUAwuFjYvo1abwH7ys/D3VkCcdwgxhxP5/XSt1MYO6N3HAbVpcUgpa71ncntlRGbu6BfkhPq0GMTnqLgXsDBHQ2LlCh+lCulJBahi53F5gtVSa7h6KlCVnopi9j1NBBXKy9nzJztfrXCAt6MEhUnZKL9FPi8SQgj593X514xFBXl8D+COhtraGnTVjeYIIaQ7EIvrUJqdhryKpgsirquRGA1Q89cKDaiuroFEroApf/YVw0whh7SuGtU3J2sPITee1AMO3PccV77EyqMbcCxxE1Yf34sSiT1shNxL0l6PYIrtJWzY/Dw2xP6FY7Ff4eszMZA49UMvdr5YrEJ2xkFEXTmIIrUC6oLTOHBlP84kHWSH40hVaT6+mLIX1cqGLOTofO9qa+UMmSoDWdpf2BpSHxtXWKMGccdexW/Rf+JIzP/hj8R8SJTOcNAU6VqSM4j57SNcid6I8+tfQWKRJZz8mnrHVkUtwrr/TsPhQ1uRkbgfVw+/jyvZdnDx6y+U6Ji4/CxSY7YjOToKXKyiJncvP84Ply7xvYsbNavPyy3q4xQ6AxaZ32H/+q9wNXoDYtY/iQtZXvAbHKEpoNXOdhlaH6boFNIv7kbqhWMobaOTtv2gaVAW/YYDa7l1bUX8XwtwKrYBjv3Hw4TrusfqqA0NrY8h2+7YZzhkmT/h4NbvkBS9DufWfoMcneZtZGYME/Y4q2ojFdjQQDe45V/F03uvYvOVTHyz9wx+zJdjepCtUIJ9FylIwtvRVQge3AeTLOzx0mBb5MVcwLf5mu3mDOrtAs+yFDy36xI2XsnBbyfO4sOraoT6OMBaaB+epBj/+5stcykTq/acx6YyKYZ4WAozgYK4sxjz01G8dC4Lh9Lz8df5eGwrMEGYp94NwXSX8895bNZbTrCXPSwLk/DCviRsvZKBlbsTcUznbZJjyLYbgt8XOatxYMPXwr74BBk6m8zpaJ926rUDY0hlFpCY2MKi94sYHOyKqrhdyBHmGnL8WDr5QpK1ASf3b0Bq3E5c3rsMe1e/jHj9zCnikzjPbs+V6M24sGUJLmRawqX3YGEm4BwyBYrM77Gf3far7GswZsNCxGW6wzfkDqGEoIPzjyH1MficYGYGKcpR20raiBbKStlXB/uZqL3vlEvY1w+7RFkrZcTialx9LwK/PTwCa9/frrefOod7mVi6e8C6rvU8wZz2yjAic3gGeMKsLAnxqeVgYATHoHCE+VkLJQC5mSmgqkK1iRP6DRvBvk4U3ESYsVtY1coXIVK2LY3r2c+Lhv94hRBCCOnQtb9bdoGuuNEcIYR0V9zPYRWW7MVidTkq6rgLFjFqivNQUCODvbsnvLw84KhoQFFeEXsh9K+ejgnpOjZusBdlI/pyPHfQa6axf5i6YlQIF7NBHoNgUnAS51QKyKRyyExcEODgBJRloXkcxBWOSilKytKa0k7ocLVyYZ+ThiydoI+zlStQmoHGvqUG1MfZ0hXiykiczNS52uaCVqpy3JBU/kWXUazpuMdWJBFlRYCJmZUwAWgwGYi+D+3Dg+9dxLz/xLDDPgS7sWXkHadluSbN6nOpWX249AQKK0vU5KdCxQW/jM0hlZWiNL8UJlZukOgGGTvYrq7AnVfNrRyAgisoElbNfSGX+vsA/PzND40/ge+KNjRk2xlGDFOFJdQlmajUHl8NiSgt1jxsRsT/1ypuOa7mUpSXVKLcxAjmUjEsTNjtYj8rK83NIBfamVtF9MkYrK9xxPPTgzCmLg3vRBY3vj64Yq4KGfsaqAB7xPPEYjX+/mcPAremNqZ04JWUIUG7v1CB1DJAKZMK40CNsRKPTRyJqCcnIurxiTj1+Gg87SBiy5gIJQR6y0nRWQ5XHzsz9nFFNZK162YqkazzwjJ02zui3RcoTkN5475gj2edfdGp49kAIq8XMJs7vt45hZnzF0CR9y0O/blXk4bCwHWVZF8B43wvhk1aAN9+o+DgaIry+K3IyCzk5zcqTkKp0M5icRoqShpgorDnG1m7rrqCpMbjUCzORElBZadfpx3Vp1NteC0dWjt8TtsvJDFThor0DNSyx8J1MXGAh7MJ+1bSTi7hNspw5ygr7z5wNynBlYQ0ITWYHGZyI9TVaILHXBkzMxmYai7Im4fL56MQk1YOIy7wW6dqtaOAmSn7ulZVgzIKE0II6UrX+Y55fbrkRnOEENINcR/4Ta0dYStToTC/jO+xwueXY6fZyGpRnJuFzKxsFFRLYe1oA5mocxeihHRXRtZusFGnI0cnniFO/z88/dUT+KuCex1Yw83KEiLHx/Dx4v34kRsWbcZi3wYcPfZbU+CI5w5HCyC/uGVOZy4A5GLlAKakKQDM5Vx1VlqhriwN2uyVHdWH42TFfuYoTkUaP8YtRwpHSxs0lKYhV5jWtRg+5qzBvvbZEZHw02Iun3KvmZ8iyC4FF9Y9hl3fzWWHhbjYPINCF2u7PoAUIgkgG/SFEFzVDKMHKQGJEXTuo8lqbzldRQwRt9vUanBftLWm69rQkG3XBqiatrx5OxhKAiN2cyz8Q3CKD8Bqho/9jdlNFkGTvEhDrC7FxiuVcFSYIv1yGiL1AmB8+3DaaB9djbFctsbcu1DTcSjBrFGDMM+6Aqv3ncJjW0/g0a2n8Ht+61vW1nJ4rRwCzZdi+La3T7svdOnvi84czx1TZ/6Kvezx9ffuo6hTX0bc+veRK/ySwdB1lR9/EYdPXIFp0GMYPPsHTF4Wifue+xSellxL6lI32xb+ceMma9al1g3IstQMW6qTr9OO69O1bdiC7ka2ii3QYZlrxzWhpgdwrgG9hFsrYwNnZzNUZCShoF4KiUQCqYk55DI1qqu0nZ5kMDUVoaqqkv/Spqaymj1+xE29h4VSWk1B5CpQtylCCCFdqeNPizfQbweKceebSW0OhBDSE3EXCzJrRzgoGBTl5KNSe8EulsPCUoKqwnyUVdeitkaFsrx8VEABC/l1X0YR0i04W7pAXJmBrNZTb7M8YGcBZF14G+9tXKwZ1j+CZT/MxqpLmptONTLzgIOsGrklecIEXS6wUxjxvYibbkTlA0dLIKfwSmNArKP6MIwDnJQyVJSmNvX0hDcclWLkFTW/aVJH1EwDmiJyHPaxiFtHU8isY2Fw8ZGjKHI5oqP3I+fqMWRdPo1yTbrPRl2zLkPUQc0uUhX/oRBcbRr+3rYTetW6CRhNOh6RiN1WbZCKnSoyhlgiEaYZ1oYdM2TbtQGqpqAaty90xxrV1rNLNGr1p+9cWLWerXpZShwe5QOwTcNjR7Kh++t7Ru6KF/rKcTGrGE59e2O2vKkdOJp0RSyd9uHay4Q7XHSntcsa4a5GuBR7EV9cKsDxzCIcSy9BZidTHXEvn4oathGlRrBsXLcJbJu1geHb3h6xuAF11VWAqbIxjQjgCFMhTYxGFx/PtWnIvXwEmQe+xJXS3ug9fCSfG1bDsHWJ1SlI2bkAOz8ait/eCMK6r5cjRzYDoRHhQgktLsdsE/4xow0Ua9Yl0jtficRsqYZ6naB9xzquTyfasLaWfcXKINXcp7d9cjmkqEF9ezvBXMourYH9/CSM3wgmDvDkewCntttLuM0ypmZ8ijAL71AMHz5cM4T7s68oFaqrtXuCLcO2SY3OjYu1gd/6qpZBYT6ILBNBxd2oohPvSYQQQkhH6F2FEEK6EHctKLNyhKMFg+Ic9mJW9wKaaSNQwF7R0cmY3CqcuV63pelN6RtaEEPCHvCVRWcQlx7FD7HZRVA6hsBdpg2mCKxcYINc5Lf2U3yYcHEm9vXT9KoS249EX4sCxKdrbijF6bg+XnBSArnFOl9GSzzhZAHklXTuC+qK0lzAxgc22he0OAhKW3ZbS7R9kA1Rg4YG9qlGOj/RNwmBnb3wWGD4utiFcecYibEw3jlicSXKi0sglZQj//IRIcAaifIaKbvceq6AUNJQ11sfNSqK2W237QVrYdUMYwzvOacxb8F8mPJTDGtDjbbrY8i2i8UMqstLILJ0aUpzIPGHsrWsGWllyFdbwLlXU4oGLW45GRV1MBU3IDa9ACf4IGwRUmrZdbAVbMy5zEhx98g+CK1MxjvbLuD3SlssHekGG2HdXLGMchWgVCCAn6IJNk0aPw5np3qgKdNvRxjUsk0j5V6sWkaWCGxKiWqw8zklqHPyxMt9LOFkKkPYQF+M0wnUGrrtWrLhb2PqN+sxdFjLfMMFaRfR4H4/QkIGQm7uDseIp6CbArlzx7Phx6pYfQpxkedhNvAx+CiEaQasi9tttkP+gyFDBnE7il1ONSpTfkNSei3MrNz4aY2svKEUvj9mGHeYW0qgKs/jl8Ovq6gYUltvmArPYRgn9pwgh6pI94uz9hlSn061YWYaytXOsPJpFplvlYlPL5gzmShvp0e/WS9bWDPs6yhdmNDFuO1XunvAqoNewu2WqePSQZxHdHR005BSzB5KKlQ15n5g37fY/yS6bWViD3v2vaikqIhtQv39JYcpe3KrbloAIYQQ0iUM+4RACCGkQ1wPNRNLBziyF2oV+UWoYi/euZ8NcoOYTw9RhUr287zc2g4KmTGkxiZQ2rGPJSpUVLEXn4T0cAxjD0elKSpLU1HRZhAiAfHZlfAZ+BruDboTYX3m4OEZ3+H18ZNgp/8yaKgDA1v495mIYO+R7DBMJ3Ccisu5JbDu/QTmBIxCSJ/HsGzKfbBM+wW7hKCCQfUxdYe9rAY5RVnCBJbSHQ6SfOQWtR4UaEvBmR0oVt6D8DnPwmfAvRjwwAfwVyTi6tkYoYQhziDjUjEswz7A0OEz4Rn8OIY+ugDWer8ZNnxdl1GSVw+rfovh338qPPqxg5eHJrJhoOyoLajwWYLx0x+Hd9+p6HPnKkxY+DUGeOnlljVI2/XhUoLI3SfALWACPILCoWQXL7EK5se5wUahqXP+ue0osX4Ao+5/Dr79p6PPpO8RGiRCdvQeIaewYW2o0X77GLLtOQlHUePyMCK4Mv3ZfXH/YrSaBK00GbEXgcDJgc1v+CY4EZeObFd/rIrwwjRvR9wfNgg/zQrGAuemY9faNxDLPBqw+UgiYpgyrDySjmqPPnjNt6k+5xIykar0wEcTe+FuX0c8MDQYz3sDJ6/koqTN16W+YhxJr4VX3354u78TpvT2xPKpPgi4hh6amRcu4stMCSaNuQN7Hx6Fz72qcVKb30VgyLZzuC8APCfNhbNvCPpNGQexXjuWR76Ls0mm8Jm9Bfe8vh9jAjOQpXfDNsOP5869dsqO/4Q0JhyBdwQJUzpeF7c76i1C0Puu/yJ85N3wCJgM34j/Qz8/CYoz2Ney7v5qGIz+Dyxjj/mZCJrxGYJcSpCVECXMZNd1ZjvKXB7DmFmL4NN/FvrOWsWWScPV08eEEh0ztD4Gt2HpXqQmiOF65/3t5oZmGBf4jx8GUcIh7ruTVjGMOUZOcoXoYiqi2yrj/wrm7EnC1Jl2wpROMnGAl7MJStLb7yXcXhkxo0J5SQlKdIbqBglENVWorhcKoZSdzsDSMwjeTnawc/RAUH8/WKnSkJqneSNkRDJY2trClh3sna0hF9dDJLPmx23MW36xRAghhFyLNt7tCCGEdJ4RzOSmkIiNoXR0hbu7e+NgK+d68qhRnp+NohoxlPZOcHZygNK4FsXZuajQywlJSM/kyadvyCtuu2cs18vs2N7XsSPfDsOHv4YnIubAr24vvl7/Ds7U6b0OcjZhU0I23IOX47lpK7Bs6jMIFX6GzN1cLOrgG9iaZYHwiLfx5B3jIU//Au/v/AN5jR9vOq4PrN1hhyzkFAnjHGs32LPTsnWnGYDJ/Bz71v6GSqf7MWTmq/C3S0PcmicQk9kYCeiQWFyB5O2LcS7JCG5j30P4hOkwjf0cl0qEAgJD1yUW5yDhzxXIFI/B4Ps+w+gHPsOocaM6lfezPnkF9vyxHfW+jyJs9vsYNMAOhXsX4MCxznfXa78+ZnC7cxXGPsQN/4GPDWAa8Lwwvgr9fPhCqE/5CHvX/oJyu7sRevd7GNRfibw9j+PAcU3uaUPbkNNR+xiy7XUxb+PAvrMw7vcswqc/AcfcNbjSSu927tjf891FlPUbiqcXu8Ccy+eqQ5WdiCf/yYDK1Qevje+PZ/xMEHcqCsvOa76cYKS2eGW4M0RX4/BxqiZwVJkaj0+uAhOG90GEVLM8Vc4lLPw7BWmWHnh+TH887WeMc5Gn8HyM4b0Mud67Ow+fxtdZYowc3B9vhbnAJukyNrURjGuPmCnHd1sPYOSaI3hg3X6M3ZzUmL9bq6Nt1xKLa5FzOhJVqkJkRp1p0YtY3BCD2O8isO6j6fjz8wis/+Z/LdJPGHo8d/q1o9qBC2czYTXkcbhKNPvCkHUV7VuGY9FlcIh4BxFzP8WwkSGoO/8aDh24KJQQlGxBfM4g9J3+Lgb2VSBv/7OIjG3aIfVJ72PvH9tQ6zUfQ+5+C4Fe5bj6x6M43cmbdxtSH8PbMBtxP69DdeASjHs8HCZ6xzyHgTWcH/8KgwMKcPHn1TppfJow7DMDF9+JmX2rcPC7mOY3TNQh8fKBAtnIT+x8NnguZq100/QATs1sp5dwB2VaY2rG3SRO1ZgWgnv/yk6IQ1q5FHZeveHnaQ/jihScj0lBhfb9y8IVfQIDERQUhKDezjAXSWHjxT5mx73t9L/AIIQQQq6NyMvLSy08JoQQ0g6ZTBONUunkgCMtrX1rCMICO77D/5zlkcirViI5OVmY0j0NCPdE9LGWNzr7t7Dv292+zQghreNSObjNnIClS70hS7uKzct3Yf/V1gNctyqux+fLc0dgXMoxjDtWKky9MRgmEKEv7YBnwmxs2nFamNrzeMyJwyiLT7B21feobSMg2l1xNy20nroSExeNg3HGPzj1/kLEJ2u2gfF6AONfXgZvt0okf7UAe3fEt8jjzvgE4unlYQhxr8WZT3bi6y0FLb4M0LJ9fB9mzbiKPXc9hqSGzrUTI3XEgLBeECWdwvnM1rvEG1KGEEII6Ul61qcKQgghhBBCeijuFyOZW//Gq3P/wq4YNUyF/LO3OmsbW4z1tGMHB8yNCMJMpQqRbeUJuE4mjqM0KUcCpyJg+jvws8lDdmKsMLcHa/WmBN0fdwPAkj8XYf0TTyH6AgNjc2EGx1wBddz3+PuJCdizM7H1G3sqjMHEnMUXc9fiy21FbQaEuXzbNu5uQEos8jp5Q0RND2B3A3oJt1+GEEII6WmopzAhhBiIegobhnoK31jUU5gQ0tMMHzUW3waYQK1mUF5RiiPRcXg7urid3OPXzmnWadw52Bpqpha1pYnIOPI2Thw5jbobsK6bhe8prPwEa7/ueT2FbxauV/jQX3bAL2Y+fv3ksDCVEEIIIe2hoDAhhBiIgsKGoaDwjUVBYUIIIYQQQggh14u+aiaEEEIIIYQQQgghhJDbCAWFCSGEEEIIIYQQQggh5DZCQWFCCCGEEEIIIYQQQgi5jVBQmBBCCCGEEEIIIYQQQm4jFBQmhBBCehC6yRwhhBBCCCGEkOtFQWFCCCGEEEIIIYQQQgi5jVBQmBBCCCGEEEIIIYQQQm4jFBQmhBBCCCGEEEIIIYSQ2wgFhQkhhBBCCCGEEEIIIeQ2clsFhUUiQCqnODghhBBCCCGEEEIIIeT2dVtFSG37y2EbJBfGCCGEEEIIIYQQQggh5PZz2wSFLX1lcAg1h8LDRJhCCCGEEEIIIYQQQgght59bPigskgCOg83hPtYSYokIMmsjGJnd/M1mFAEYN30cAhRMs8ddgVG4wlVYVlcv+990K20LIYQQQgghhBBCCCHdxS0bFDaSiWETaAb/++xgP8hcmKphZm8sPPp3iMsvYs/WPbhYfv3NzwVOJ4zpAwthvCuXTQghhBBCCCGEEEIIufX0+Mihqa0Udv3kcApTwG2UEh7jLeE32xZ95tnBZbgFjBUSoWQTmU3LaYQQQgghhBBCCCGEEHI7EHl5eamFxz2K3NEYzuEKmNpJhSlNassbUMcO+hrq1JBIRagurEfWsTJhahNNr1s/mItEwhSgInEv9lwsF+a5IPNSGfz9nfl56opE7Nt9AeViseHz9+3GBQQ1PuZ69DKMAkETxsDfXLNedVYUtp7M4B9z2qrX7nS3ZtObphm27MY6nc6ES0jTcrKiNuFkRsvvC1yHTEcITjermyJgHMYo4vlpbdWzWfvprau17dCuX7fNqOcz6Q5kMhn/V6VS8X9J69a+NQRhgTbCWNvmLI9EXrUSycnJwpTuaUC4J6KPpQhjhBBCCCGEEEJIzyexsrJaLjzuMSw8TeA50QrG5q33+E3aUYy8c5UoTqxuNpRcUfF/uYBxvap5nlqGccXQyX1Rc3oz9p5KREJCAjLFbvD3s0DFxXSUyuzh6+0EJ5sKnN78DyLjsyDxDUWofSUSMsugNrEzYL4FypOvIg/csjSPc1UWfNDWr+w0tu49hYsXK2A5OASuFReRWSZqt16V0WdxNksCdy8ZkvftwMnMumbrabnsTEgC70C4XUXzOisLceTPQzifmMgvu19fe36by3SCu5wSkRJ9/DXtwc3jAs69BvqjNikS6SVuhrWf3rp6+/dGH/vW1695jmZb8mub14WQf4ORkRH/t76+nv/bGoaRwMzGDg62NrC2tIC5qRTq6mrUCl+/MZDC3NoO9na2sLFUsvONoK5Vobbl91g91qyRrnC1NxPG2rbpYAYq62UoKSkRpnRPju6WyEnv3nUkhBBCCCGEEEI6o8d1v5TIxHAdpeRvGteastQaqCuMsPTN/+KV/37aYrj/saegKmkloKMsxcXNm5v1kC1Nz0QlLGChFCawsk+fQIZYDLG4HBciL6HSqU+zG6F1NL8FpRtc5JW4dDGNHxWLM3By69amehhYr1a5B8BPno3TJ7TLZusUnw04ucCV0alzvKY3M6fdZadlIhtOcHEXxvm6ZyOTW7yh7ae3rgq12vD1E9LNcS8rmbUj7OVAeX4OsnIKUM6YwdbZGiZg2PkiyO0cYWvGoCyffe1k56K0XgZrRzvIxe2cJwghhBBCCCGEEEK6UFMEr4ew9jeFkUnb1c47U4HQ8AjIZKb8eG52Jtb+8BX/mOPh7csP+sTl5Zo0D65DMGPGDH6YNdYfcmG+RiXKS4WHnNIylLElFI0BzI7mt0KpYEuw5XSfp8OwerWjshzNFl1arhd01atzO7iA9cVLlXASosJKNxfI2fblg+DX0n48w9dPSPcnhampBNXF+ShT1aKutholBaWokZhBxmW6EZvBwkyEyoJ8lFdz82tQmsc+VptBYUa5zgkhhBBCCCGEEHJz9LigsJljyxzCWuXpNWDKjBASPoIfP3XsENb+8DVSk67gm4/eZf9e5qeHj57A/9XFpWkYMn06ZoZYIHHvJmzZsgWb9iaiUpj/b+lu9eJ78vI9jRVwc5Ejm+8m3H3bj5CbSSyuQ2l2GvIqdFK1S0TsibYBaq4jMNcjXqQGw49oqdHAz6MUKYQQQgghhBBCCLk5elxQWNRO4CTvTGVjL+HEuBgc3P0nAvoN5Of59gnCxl/+h/Ky0tZ7C7u7wKnyEvZt1rmpGd+LV5der1+lBSwgpE/gdTS/FS167uoxqF7tkLvArVmd2u+Z3KHSdGRWOsElSCd1BOd660nILYhLF6GwtICkuhwVdeyEehVUdWKYW1lDxr9MxDC1tIZSWo9aVdt5igkhhBBCCCGEEEK6Uo8LClfnc5GVliqyatFQImnsJRwfcw5BA4LRu+8AfnzMpGmQKxS4Eh/Hj7fWW1g3gMooAjAhxEkzosMpZCifj5e7yVpQmF9j+gStjua3wAdZ5fAL0KRk4J4XMG46pg9x5cd57dWrvRQVaRdxSW/ZQX3Y53ZUp3ZweYnTMyvh7O/fctsMaD9CbhdcQNjU2hG2MhUK88vAsK8VvidxXiGqJBZwdPeEp4crHKxMIVKVoUQlPJEQQgghhBBCCCHkButxQeHCuCo0qJp+es3Uq1GeUYOCmOaJCkQiEdRqNd8jmLvBHI8dZ2doHusRZ5zE6Ww5/MfO4vPhzhzjgsx9p5HdLOBaiUuXgNBZszBr1lj4lZ3G1pMZwjxOR/Nb4m/+tnsfLlmEaPLw6j2vo3pxeX4zswHn0FnNA8msjpbdEW2AelyAQpii0XiDOJ0u0Ia1HyG3B+0N5xwUDIpy8lHJ6Jxq6yqQl56C1LR0pOVVghHVo7SohA8aE0IIIYQQQgghhNwMIi8vL53klz2DsUICC08TVObUQVVYDzWjhlQuYbcGCBsyDneMmYDLCXHY/NuPGD91Flw9vBF96jhizkbh8aUvQ2Gh5G8+x+UaNhTf85UPdOqkR9DR0fxbiWZbFYjffOKaexwT0hPJZDL+r0rVdrdePiBs5QhHpRrF2dkor2v9NcIwEli5uUJZk4f0vEqob6HX0tq3hiAs0EYYa9uc5ZHIq1YiOTlZmNI9DQj3RPSxFGGMEEIIIYQQQgjp+XpkFKK2vAEFsVWoLW2A0tsE7uMs4T3VCg7BckQdOwSVqhq9egdizOTpOPj3n/jh8xW4eikedz/4CB8Q5oLBnQkIk+aUbi7ApYsUECZED8MwMLF0gKOlBBX5RahipJBIJPwgFuneXA6QKu1gaaRCcdGtFRAmhBBCCCGEEEJI99ejIxENtQxKrqiQtqcEib8XIONQGR8QPn3sMD8/ZOhwLH3zv1jy+rt48rnX4OHTi59+bP9u/i/pHK6H8Ljp0zHGJRORF671TnWE3MqMYCY3hURsDKWjK9zd3RsHW3nT6ZYRmcLaygT1pUUopfvLEUIIIYQQQggh5CbrkekjOiKTmWLhi2/wf/VxPYS51BGEENJZhqSPIJQ+ghBCCCGEEEII6e5uyaAwIYTcCBQUNgwFhQkhhBBCCCGEkO6NElkSQgghhBBCCCGEEELIbYSCwoQQQgghhBBCCCGEEHIboaAwIYQQQgghhBBCCCGE3EYoKEwIIYQQQgghhBBCCCG3EQoKE0IIIYQQQgghhBBCyG2EgsKEEEIIIYQQQgghhBByGxEND3VRC48JIeS2oqrt3PdiFbXm/F+VSsX/Ja1b+9YQhAXaCGNtm7M8EnnVSiQnJwtTuqcB4Z6IPpYijBFCCCGEEEIIIT2fKGIIBYUJIben6k4GhctVFBQ2BAWFCSGEEEIIIYSQ7o3SRxBCCCGEEEIIaZVare4RA+m+WttfNBg2EELIjURBYUIIIYQQQgghzTAMg/r6ejQ0NPSYgasz6T564jHU3Qau/ei4JoTcKBQUJoQQQgghhBDSiAtG9bRAFNerkqszBdC6h554DHVXXDty7UkIIV2NgsKEEEIIIYQQQnhcAKon/2ydApH/vp5+DHVH2i89CCGkK1FQmBBCCCGEEEII71YIPFHw7N9F7X9jULsSQroaBYUJIYQQQgghhNwyvTupl+q/h9r+xqL2JYR0JQoKE0IIIYQQQgi5ZVDgjBBCCOkYBYUJIYQQ0inczxelUhH3QJhCCOmJuJewSCLtdj9JZqQmCBvliSnuTfVi3B3w5ChLOEnpvNNVWmtnQsjti86zhNx+KChMCCGE9GBcLKf36ACs/3ws4teMR9QnwXh9qAwSvSAPw8gweZYfHuxz/W/9HpOG4Nxv47Bmkpkw5d/DMJ4Y9+xLuHuwuTCl8wa9fRynd78ALwpyt6mjdh63Mg6n1z8KZTttOOrTGJze+ASshTIMY4t5G5Nw6NMJ/PiNxDCWuH99Eo6unCxM6bm4feEx5iX4e7a+L5xmncbDK5JaDPNfeRt2evtHEb4GD7x3DhPDPYQpN0ZHddZl4e+FXz4bhTXz3RAgFyZy5ErcM38oDnwWiif9JcLE7st+6vFm7f/Q3BnCnO6hzXa+hTFDR+Pr4wvwaJhwDtIb5wxa/jh+ObGYH1YfeQIr18/EgtkOMO3h7w+GbHtPwnjcj9d/fgGh9L7NM2T/GnQM9LDzLCHk+lFQmBBCCOnBZP0C8OPjLpAnXMUb38RhTboZHnx6MF7srf8WL8fIyT6Y3stIGL92TF0DamobUF3XHX6e64nw+U9g0sBrDwoTQ1A7dx+ecLnjCfi4t70v1LkbcWj1QuzVGfZt+h0lwvxG9SrU19Wgvr5emHCjdFxnnpMHfnjZH37p8bh70SGsiG86j4njL2HUomP4JN0Cz78cgoeduncwqOTkK0LbP4O4DGFid9FOO7fn3wjEdek62fcu7l/j4a4/LlBficVXL/+Jz98+iL/PGWHQkrswf6xMmNtDGbjt5Oa56ce2AWV62nmWEHL9KChMCCFdhGFEMHf0hJeXV7PB080axsIHPoaRwNTaHi5u7vBwd4OLow3k9EU8uQ7D7nCCY3oSFn91FRuPZOKTz85jXZEcU+6wFEp0vcx9ZxE8dx8e21cjTCGEdCtVV5F5YRfSL+5uGi4loE7c/KN/ZdSj+OONYOyLyham/HsYRoxZc/0wqCQFiz5OxrnKlpcp4soyfPPxGfxaao2lD7rAvBv3EqzNPcS3e+qFPSitEiZ2A4a08y2rluGDYA11bYxrlRbh/IEknN2biB3v7cSueBn6hjsJM3soQ7ed9EyG7F8Dj4GedJ4lhFy/f+VTgFruDD85Jf8nhNxqGlCZl460tDTNkFmAynoGdVVV4D5vcTkbZdaOsJcD5QU5yMrJR1mDKWydbWAC+sBFro1UIgKq6lEmjKOhBP99aS+mrC3lR5mw/khYNxEpG4dglrkIgx4ci6T1kzTDhz7w1H5hMaw/Lq8LweMDfbH2i7G4+PNo/POSL4ZaNB2bjlOHND2XHY4/0jLwPPnZ8Uh62wuTZofi4I/jEfvtcHx/jzVsdC4qGEaKobMG4u9vxuHiTxFYM8cBS9+eiJjFdkKJjjGTVyIyKQnnUn7EFCXQ/6XjOMOOc8Ppv5bCTbtdjDG8pr+NVXtO4FDceez651e8ONUH0nYuchhGjpGfROJ05KcYLm9ajvuU1/Hl7uM4GB+HPXt+xdK7PJql6dCkUHgaY5f9hq3RcTh8cjc+XRremC7BUCJjc0hNWxmMO/cNEgMHhC/7Gr8dOYujCbHYc3Ajls8f2OwCb/K3l3H61wd1vrgywd2/JuHkt5qfuhvazhpmCH1+7XVtuyHtbMh2MYw1Qpd8jw0nY3H07D58uTgYMr2qGLSuqV/hZNKvmDvmOXx7MBrHYk9iw/+eQ4hNZ7fLGg5jvsO0V2Mxd/khTLhzKvo/mYT7ZzelzuDqo+j3OsYtPY77/xOHe5f9iuC+HhAJ9WGCVmLeB0l49P9+hL8Z4DC5KT3B/GeXdurC3XTExmapDe5hX9v6mH5f4aEPfkVA7+dw54vRmPv2SUyf/xwchNcEhxF5wXPqGsx4PRbz3r+EB17/B+Mmjm38qX2n6ix1wKR+EkT9cxXRdW1foojrytjXcxHk/Z0wTipM7ASDtquDfcHxmBOH+U8+DdfRP2P6W3H8to8ZPxwmndgPHO54dhn3Naa8dBYPvhuLe1/ciGFDBzY7R3HnTPOAFzHmmaO4/50LuO/FrYgYNbTxdcsxpM48A9tZH8MMx5NvT4GDKBhzf/kM0zw0y2WGvYCVq/9oHL54drhmOtcL8oMX8PgHv+MLoTekpmfk70K5+zGNnff4MGE57PIf187Tlm9jnaHP/o7XZ3vxjzulrp79PKbW6SmpN94qFSor2fOymH2vFXCBdYexw/DCmoew6uCTWPn7VNw31gJi3f0BU/R7/E68veUxfH/oCazcMBML7rFnz0M6ZcZNwE/Hp2Ji+GC8vGEBvt/3MN7/aDD6WOqUMWRdBizn2ra967V6XLSy7/myjBd7jHyCabObjjHt8aWvreOQo3vccYP2mOO0v272+Jyte8wO1zuGddbR1nL48i+w2/AJP48buGP3Xzm2O3EMdHSe5c5Jjk/8jUd2xeLuJ4a2PM8QQnqMmx4UVsv98cDgXrASxgkh5FYhFouhZhrQ0NCAOsYIShsrSKvykJVfBTXfO0sKU7kUNSUFKKuuRV2tCqX5JagWm0JuolkGIZ0VdaEQlX5eeG+KLdxNGP44rKmsQ6FK+PI1IRnPf34WSz67hMhqNZIPxbKPz2iGNTnI1ZQSyDFjnCmObrmANzbnobZPL3z2gH1j4KHoZCIWfhjFDjHYkdvOl7s2rpjjXoRvfo7FqlgGQ+8ehLeGNl1VWIT1wZezbVEXfRlv/HgFUU6emOkozDTU6Z/w5pIleHXJKpxmL9hTt7zJPubGl+C1FTuRLxQzGfoaPv94GhRnV+Pj1/6DdeeUmPjJ/7AkrO2fApuELsWzU81w/NP3cUToRScb/BK++PQeWMb8ik9eWY610ZaY/umPeDpE72rJaTpm+p/F6rffws/HGYQ8vRLP36UUZnaMYcwR8F4MHt3RcnjkvbntBrP1OT/6BT5+1Bspf3yId55/Dau2FmHAK9/g+XGdSCBqYDvzdLf9WBvbLpHCzMICcnNzKCzk0I9zG9LOhmyXYvJb+OCZYFTs/hwfvPMd4oLmYbKLMFNg8D6FBybf54qTX7HL/PIgakOfwnsvj+vUvpD2fQujxoVBnfgVjm39Gjk2D6KXjTBTYOT1EsbNuQey9F9xctNyxKVZwn/OjxjkKdQn9SccWrsE+9esQrYKKDn9JvuYG1+CA7t2ojOdUWsufCikNngDVwuFia3ygO9gV2TuewvH9h0E4/UUIiaOawwAKIatwPDBjig6uhyHfluKyOPJsBj+Be4YLHzB05k6uyngJVXhwqWOf4GQk1iCLKk5erkJEzqt/e3qcF9oKaejj1M0Lmx7A+diK+Aw+nMM6WchzDSMIvwLjBnujdJTH+LIutdw7mwRHO/6BqE6iX4lHs9h3IPzYVGwGac2v45zMSWwH/cdRod7CiU6UedOtLMusfgIvnlrB3LVZ/DrvCXYlirWBLYeH4TYb2fj6Yfuw1PfngEGzmgMcMFxELD9Xjwz//9wEhF8ECzvu3v5siuyQzDWSRNo5QJwMz5cBGjn/eWEuR8+CDccarFOTtTnc/Du+mT+cafU8v0idXpK6o1rse+jMoUJZEpz+E4ZifFBxTi0NVWYyb6eBwzF88sDYR4fg7UfHMTuOBlGvjUFs/s3ndDs7rsTz95niextx/D9f/Zi824V/J6ZjLnD9c8vSoRPs0Dc6gP4+cdU1A0IxcLFno1fThmyLo32l2Pwtt8MzY4Ln1b3vUvj+dUJYyYBv8ydjafmfoULAxe1CJq2dxxqg6/a4+6pN7fD/vGXhGB068dd07qBILaqP827t3HdXy4Uxtnl5DWuo6PlDEJfrGysm/2kuzHk3zi2O3kMtH+eNYKpvQOMpXKY29qg6SsTQkhPc9ODwoQQcqtjIIWVoyMUKENBUbUQEOZIIGIfNrvLO1MHRi2BTgcUQjql6NBFvHa4AeFzh+Dg/8Zi1ysBeLiPMXeg8fPFJWX483guth4tRmYDUJyei+3sOD+cr0R14/GpcXTTeXx9IAebtl/Am/urYBdoiwBhXm1uCXafzseuUwVIqRYmtkZajO8+uYw/Dmfjyy9jsSFPiqEDmnoVDw62h1VaMp79OgmbuJQXnybiiM7LwhDi3LP4Z/t27Noahex6oOTSXuxmx/nh0CWohO0afPcUOMd+j+df+Brbt27Ejy8sxJo4d9x5zx38fH0MvDH/jQfhGPsNPvo9R5gKDLl3BlwvfIfnn/uKXc4G/O+5J/HrRS9MmRMhlBBIz2D1oo+wZctG/LD0FWzPsEToCPaq0mCVSPpmLra90HLY/s0udOb6vfCPRZg0bBre/G4rjhzcj90/vI+d8XYYHNFfKNExQ9uZp7vty17GtvSW2y7qvwzbYmJwmB8OYKFeVQxpZ0O2a9Do4VDG/YTXX/8Of25dh1WLv8E5vXTaBu9T1smvluLHDduw49uXsGJDOmzC7oC/MM8Qjn2GQ5azGgc2fI2k6HU4t/YTZOgd806hM2CR+R32r/8KV6M3IGb9k7iQ5QW/wZr6iMvPIjVmO5Kjo1DGPrcmdy8/zg+XLoHR3RdiKaQyC0iMzRsH3dlM0SkhtcExlHYQG8zcvxSxZ7Yh6fBLOB6VDjOfO2AtzLN08oUkawNO7t+A1LiduLx3GfaufhnxQjaKTtXZ1AhmqEVZhTDenvJalLPvqXJTYfwatLddHe2LRuKTOM/uyyvRm3FhyxJcyLSES+/BwkzDVEUtwrr/TsPhQ1uRkbgfVw+/jyvZdnDxazqe7QdNg7LoNxxY+xG7rq2I/2sBTsU2wLH/+MaeyQbXuTPt3AEuUPzd/Dn47riwH49G4oLmkSAbuZnCwzvCEJSzAzuPakbT/9iCWLXw5aLXUPR1PItzOvMuOIYg5Bo6TLZHfPUUXh62BhsuaeqrP64lGjgcX+x9At/9PR9vveSKrC/+wh/n2DdQQdDUPrBPPIMv3jmDI38nYPs7f+Gvy5YYPq0pelaybReWTFuPb39NxPkTaTjx+1EcuWSGgGH2QokmF1b/gx1/XsGxNfuxekcZlIM8oL31oyHr0mpvOYZu+82hc1wYsO8vfLcCUey5gjvedv6VDXsnV2GORrvHod5xJ05di3fn/x+/PIPWvf03ZPLnqQzksh8JGseTTyA2xwkO3JeNHS4nG7Enr2oeZmYiT/OoSxmyfzt9DLRznhWLq3H1vQj89vAIrH1/e/NzOSGkRxFzPXfvHzUZi0ff1Tjc76XgZ2rmhWCIVwQ//Sn2sR/75q1WO2OS8JynRkVgiL2mHDePf55agSFDmpbZ+Dy+l7AvrEUKhA6Z0rgeQgi5tUggYlRQwRyO7i6wNW35k2+phRPcXSzRw29bQroBMWqw9asjiHjpNN7+Mw/59s547bUwvN2iF5EhqpCsc0Ok1LwKVJtIGwMlBsspx0XtzxGZciSzV0BKc03vKC5+Ya9kH+dXI0l7EdFQiaQbcJXEpYFwdbZEdWoScoR1icWZSE6phNLZrfnd5MVGMLWwgPuDb2JuUCb+eOdbpAnP4ZbjzC6nLCUV5Y29XEuRllzacjlpl3FZG7llEpGaBigsDf99lFisRvXVY8g+18pwNZcrIJTsWI35QMz/dh8Ox1/EUT4Iuw9P9gMsrPS6qHaVZtt+CWnpLbddfWkNXpo7Fwv5YTF7MSrMYBnazh1tF/dza1tbSzRkZwoX86z6RCSz9dHq1D5FGlITm8bT0lKhkpnD0P7fXH1MFZZAcRrKG4/5Sygr1jzkcPVRWFmiJp9btiaYK5WVojS/FCZWbs1SWhhC5LEM9/wnBvN0hinj+ghzO4Otc27TussKU1EvNW987yrJvgLG+V4Mm7QAvv1GwcHRFOXxW5GR2W734zZ0NrXc9Xyb2vZ2dWpfFCehVIgVisVpqChpgInCnluIZqIBGkwGou9D+/DgexeFfbUPwW6AiVx7PItgbuUAFFxBkbBYsbgOqb8PwM/f/IAa9pjq3PHT2XZun+7P6b/69SkECdM1spEldHp0c9XPyasJsjUZhHm/rm9jOTeXOvE8Pnl6Cz5YuhM/ry+Gz7LJuD9Y860Sd28IOwcTVGaUopLrTSyXwkxRg5z0Gpg7KBuD9HVyB9y1Yi6+O7QQ33MB5r3zcHcAuy8V+hG2UuQK8UJOXmYpamXG7CdIw9el0fZyup+m40LD8H2fnpENOLnBlWl+HLd1HLY87vR11XHX3nL0t7cnafs8K2bKUJGegVr2PY4Q0nOJJw/2RUncn/hyv2ZYm1wOK0//xgAv4IAQ+WV+3lcHTiMRLpg8eiAsUw4Lz7kMm0DfxnQQXEA4LGwEQirPNS7z9xQ5xoX1hk1FAtacYj/QqMsRdXIHvy5CCLnViKFCSW4usjMzkFFcD7mdVYscgzVlOcjIKmFLEnL9uDhTUWo+Vv9xAQ8uO4ZPk01x30y3Znl8DaNuFsso/PsMAhfEYn8nApEaajT1qeIubNnLCt3rilauMbo2TKEl5bIVsOtv3g4MdzEpNYKxMM4R+SzArzEx2PbOCJicXoNfz+j2ydUsRzn1C6GHq2Z4f6qyxXLYpetsOwNuVaJmG9+xrsgpzDAWmP7up7jfOwVrXngMi/gg7EKsjxcK3BAGbHtFBs4eOYJTx44h8sgpZDXrrdhxOxu2XSKoudU2fpblMHrHWGf2afPXRcnqebgj9AUcM/h1wVamxSHQsj4idvfKBn3RLJA7ehBbH4kROvsVjzpvAw58Nxe7dIajUdcSlWi+7bUn5uG3d19oDLaXH38Rh09cgWnQYxg8+wdMXhaJ+577FJ66uUxvmOYt2DntbVdn9oW6WS34x63t7jZwx3OvmZ8iyC4FF9Y9Juyrhbio7UXJE/O/MuKOZy49UOu69vgxFBeIe/PtEMS+Jfw0n/uJvTBPHx/Ma8YVDs3SBp3lUwRwy+GGZ+Yva/xJ/U1XUYKEU+m4GJmMfV/8iV8PmmL84gHCeyrbnkaA+fiJ+I4P9mqGxeNl7CwRuye4/WqMiJcm4E6PYux6bwdWcAHmp//EnsutH7O6x2L5xu1YMGkfYvh93fG6dLW9nO7O8H3PB3mz05Ghm+O5neOw5XGnr6uOu250/Hap6znPEkJ6AnHk/j/xV17TSbUwLwfFkMNK52vF5DydTyYOzvBCLk4naW5pIxJlITJF5xO9gz9CzHKxJ7bpOYVJl5Fs5oswB2ECIYTcBrjP4XWVKtSLpTDR++Qu5i5I6XMWuU7cjT4Gj3DDZM+mS36xuhp/ni2D1EEOb2Fad8K9LsqrGgC5kc5NyExg27k0nAaq43Pl6QdSxNzFZF09aoVxjjpjC96eOxcvfnsWDcEPYF6obj9+zXJKD3wo9HBtGha9sxNd+RV31+UUDkPYUDku/74cq7bsx0k+CHsaWXqJZ7kc6FzEqamF2Mds8zDc9JvOkHY2ZLvUEHHn12YBabFeoO7m7VOxuAF11WwFTXV79jnCtFlq5zqo2SZXxX/YLJDLDX9v29nsWDVIbQbyLx9BztVjjUNhUdd/DSlWpyBl5wLs/GgofnsjCOu+Xo4c2QyERoQLJTqhlmFbwQhmhqSEMJPCDAxUnUuLa6DO7AtRs+OKf8y+uRv+9h4GFx85iiKXIzp6P7+fsi6f5n61rYOBmjts2ONZ9wsuRmQMsUQiTOtEnTvTzq1ygrP2Z/EuLrDX6QU5ZOmitntacj/pd5yCyULmHrf7ZqCv9jXK/xR/EAYK87Q359LerKvZOm8ysZhB0uViiFyt4MxPqUdDPVBx7Cg+4IO9TcOKz66iki/jjKBBUqRtPYzNu9IQdzoTF05lo6C9tEutMmRdPVyH+55LoaHJz8vlB548yQkXog4JcwTtHYd6x51m+Z9o8l4bsG6DXNdy/r1ju0M39DxLCOkuxEXsm7HaPqQx1cPTQ/RvAleBQp13HBs5+wm2qhwFwjhHE0jW4OaLRI4YP2ZK0zLHDII3ux5L+Q254iOEkG6Bu2u/tYsrrHVjSRIRxNoLOjTwf5sFqMRSiEWaHnWEdJ4YQyYF4d0Ztk13+2dE6ONqBi5RaBY/RUvNBw2MJM0DpP+G6CulqPXzwGujlXCxlGHYVB/cec13oNW8rqRGzft2csTiSmRkFsPUwxsOje3jBE8POUoz05rnU67OQeyRI9jz4av4Kd4F9737LHqLNc/hlpOVVcJeH5UjrrGXayTSKtjXL1Pfxbn0uiqncA3qatl2kercxdIsBAE+wmNBVnYu4OEDf+0mSILg5Qnksu3TXNvt3FUMa+eOt4sL4uQVlEDi5NJ0ox8jf3jppOC8EftUNvxtTP1mPYYOsxWmNClIu4gG9/sREjIQcnN3OEY8BU+dj8VcfcqLSyCVlDcGc7MuR6K8Rsq+dOu5AkJJDvtCZt8zxJIbty8MwTWt7ZD/YMiQQfwI94VUZcpvSEqvhZkV29jatucZUOecKmSozeDr0XG/VgtPczgyVUhvfqfMRu3ti450al9YeUMpVJdh3GFuKYGqPE9vf9WjvoFtC7GRXptwasB9/yI20jmeTUJgp5N2lkspU1HMbqhtL1gLi+V6onrPOY15C+aDi+12qs6daOcWhDyqY99Zj8eHsdtydCP25TT9bH5C9tfsuJBnVY/2RnX2j6/jy77klI1YdRafW1YsTsaWF78GhHlf8r0+NXlkW6yTFfrs7y1uNnajcO+pbp5KIJ9tW3ac+5InP7cGJkZ1SOJ6E/MBX3Y7qsQQsztTcx+JBtSzJ2upkU4ic1P2vcddeGwgw9bVs7W77wUXsl3wMnuMcWkZ7P96tSl3sFY7x6H+cffVO1OR953mxm6GrNsQ17ycf/nY7khH51lCyK1BsmjunOUT2A8ep0/9gy2XLuNkngi9XMxRnJmCDNiin/A4s07zTa6plSf6yitwIaMA1dpvd425cibISs5CFTs/yDgNvx85jkMpl3Eq+VLjEFvCfornyzZfJiGE/BvqGzp3Dqqt11zM1tezF1itUKsZSEyVsFJIUV/LlpGYQGltDdOGChSWqsCw/2BkDkulDOq6OjBiKczZ+UqJCsVFlexl461xTpw10hWu9mbCWNs2HcxAZb0MJSUlwpTuydHdEjnp3bOOIlEDsiVWmHuXG4Zz93EzM8WwcX3wwkhTnNsSh9VJDZqCLLW6Ad6DvTDF2wglVSJ4upnDX9GAy7m1UHNfELs54tkwCQ5sZi862YtgfVwsw723HYZ6ydnPCRYIDXGAd30lUmuk8HWWw7yqArkqEfzCfDDJtADfHiiBiluuWoT+Eb4Y2ZCDlcc1vywqTSlDg78r5k/2xmNTPDHGJB8Hy6zhV5mFVaf0urJ2QK2uhcf4hzAhyAKlFaZw8/eHr5UKyWnF/HblljphwqL7MdJZjAZzD4Q9/Crmja7Brnf+i+NZmvZxGvUoprgmYMOvx1AqKkJ0jAnGPvkYhjF7sOVkPt9DL6fYHhOXPIQIO7YtFK7oP20ZXn1/IXolr8Wf0Zp+pT6TnsJY8xP4Zf1Z1PDbboTAWYsRXvcPfvgzgS/TEfZpqC9OR0VOK0NxpaaAAdTqQpj0vQ+zpgyBfUMN5D7Dcc/rszFA6gR57i78uOsyXy6/yBZjHn0QI/0kqDHxQsTTL+G+vnnY9PanOJ3f9G1VR+1syLZ73bkQ45VR+HXdaf4zpFpthgH3LsCgsp34ebcmGWZH7WzodhVJAzFz/jQMsmHQoOyFUc/MRYSjG8yym8oYsk/V/pPx+J0mOPrVZiS0857BBel6Lfoeffs6w8E8Bef2xPDtolWTlQjGcwYChz+KoBHz4G58EOkVIbCq3onYOM22V1baw3vcQ/AwZ5dn7AqHgcsw9O6FsMlfiysZTX2XuX1hEfAQvNnXYY3KFOYO/rA0U6G0qJg/PhQBj8NXcR4XT55EnU4dtLgcx+Ye4+Ho4gtL+95wDBgNZUMKSuvY9yM7X0hVl1Fdy+4fh8kY2NcE6fs3o4jPx9Ect2jjgBdxx7ixMGeqIZZ7w7bP4+g7OACq2M+QmNyUV7ijOvNlampgP8AL93jWYfP+YlS0UncO9wXsQ48E4o6iNLz5d8tyHe2LjraLY8i+sOz7FLwUSph52UAscobT0BfRL0CGzP3vITW/qW+uSKSG2n4ievf1hVFlFYy4QLKdB8RVV9l2LoLE5T70GTCE/axQAyO74eh912zYS5xgXLYLMRc0x2p1tT08hj8ILwcT1IsdYT/oRQwKdUbhof8gMVPz602Djx8D2lndLPVKE5GoBIl7N2HX1o04ky5qNs4Nh+PS+HF+XmksDm89jiyd5WumacrvPCFByIw+qDz4NxJLuWWl4Ywwb9fW3fw0/jl66+RkndzErqvj9+W20220zWlkMMKcqpBeLIaDjz17XgjH7CmWyFh3EH/FavZrQYkpwh/rrzm/yBXwGx+Gh18NhVvaBRy9yL6nqqsh7R2I0eNcYMV+ZpR5umLMs4Hwlypgmn8FOw5oulOpfXwxY5QRon9OQGob55eO1sUxZDmdwTg+hVlb1iFI+g8untPtCma4No+h1o6LNva9Wm2FPuPGwPzAEry7UjNfu991l9PecdhUtmm+djqno+OucRkdjrexHL3tbave2uUYcmxzx3Vn01J1VkfnWQ7j/wru/+MXeFeuRWJ85z67EUK6D7FX1RX8vv8gTlYKL3T2zaa9zjqFlewFiZkCzb5313mOZr4jenXPrPaEEHLDcL15ygtyUVxrDCsHZzg72sCUKUVuXhka2A9w3Ic4VVEO8thrMwtbR7g42fMB4cLcQqjQ+QsXQjipu6Lx8C+5UAd54Y0ng/DkABGOronCs383/4AuFtdi9eqLOCJywGuLB+GzJcH47G57dBy+1xJjzL0hWPViKDv0wxQHEaxC+gjjoVjUTyhmAHFdOb5++yCGLjmKu186gOFvJSNVmNdZYnEO1r27AifEY7Ds48/w388+w3vPjOJ7z3FUke9jydJtKA+Zj+fefwtzQsrx99JH8fnJtn9KXx/LLuPnNPgvehcPCB12VKdW4Jll26Ea+ihe+PB9LJxqh/iVC/DKjzp3L+tGxOIK/L18Mb4/ZYQ7nnkPrz43Hdb/fI6tzXKVstsa8zmWLfkN2f73Y9l7r2KGdxp+f+YJfB/b/Muvjtq5q3TUzoZuV/mfb+PVL89CMelZvLL8CfS/vAY7dW6iyOnKfcq9vnJOR6JKVYjMqDMtehqLG2IQ+10E1n00HX9+HoH13/yvRYqK+uQV2PPHdtT7Poqw2e9j0AA7FO5dgAPHmteH2xcJf65AJrsvBt/3GUY/8BlGjRvVibyxZnC7cxXGPsQN/4GPDWAa8Lwwvgr99HqTt6do3zIciy6DQ8Q7iJj7KYaNDEHd+ddw6MBFoYSGIXUWi2uwen0aCv388PWD1rDmvkjVw0CK8AcH4lm/Gqxbn4rsVoJ+He0LQxi6L1CyBfE5g9B3+rsY2FeBvP3PIjJWE6TVVXTgZURdVcB32ud8G4+Z9zEC+F6MFUjevhjnkozgNvY9hE+YDtPYz3FJLyZUn/IR9q79BeV2dyP07vcwqL8SeXsex4HjKUKJzhw/HbfzjdDsZ/ucO8IQ1E1vwCXy7YunPrgLz/5nDKaNkuHqLzuxck3TnSHrok/go7cTURs8CPNeH4tZ482Q9OMOfLVOs++5GwFGfvwXtpwTY+Bjo/DIE71hcfAUDjW7sZ5hOlrXDeHtAyUqUZBwQ5PQk27KkPMsR+LlAwX7Gs5PpK7EhPRkovUv368+fUoTFFbL/fHAYO6mcRXgpkWiNzvuiKvCfI5a7dx4oznuRnHacS7P8J79UUiEheZGc7iC3yMT0JieIlCuWWaF5kZ1iGuey5gQQm626trOXSiWqzTfdqlUdHu49qx9awjCAjV3TW/PnOWRyKtWIjm5G14R6hgQ7onoY00X3qTrcXl0X185HBPPHcfwn0uFqYTcuhgmEKEv7YBnwmxs2nFamEq4XyT0GT8A3893hDw7G5+sPIc1aZr3asbdFasW+2O8cz32/HQaT+8p579w/bd4zInDKItPsHbV96j9F+txLdptZ3am/s05u4rL7E/w8mRNZl61Ogv73tL8jP9G4HpSSiTXkCKDwHzOVjzwSC2O3X03LpR2fv901THEMF6Y8eF/4bD93pYpI25jXCeTa+kFb4jOnGdtH9+HWTOuYs9djyGpgfYPIT2VeE++OUKHCPl/+QDwOSTDHDbNbn7RhLux3M7951DiOULIGdwLhSlN3w6JROWIjDyM0/DF/dq8wkJAmAssc8+/kg94B03BU0GaDwWEEEIIub3YeNhiQogdJoQ64OHHAnGPowrHz93Ank+E/MtMHEfBLWAC3AKnImD6O/CzyUN2Yqwwl3C42EPi/7d3H4BtlHf/wL86WZZkWZL33nHsxJlkkEBIWAmrjLDLW2ihk9IJpett+0Jp+/alb+fLv4WWt4O3QAstEKDshBWyyF52bCfe8l6SrGHLOv3vTue9zo4TnPj7oVfpnntuPTci/fzod5sP4PJv7sXjxwDr4O8jlggES0/gS998H/ds8XykAeF+Z2j/lvHa+VT+LN3x7H34yqc+rgxfvfO+UxYQppMTl5kNNB1F00Dn6EmZrnNIztX74nduY0B4mFOaOkLjfVZ+0HF8ViZQdRjN2h92QEQzkO7CVemjJ/yZBKUncK67v2cwEdGZgD2FTw32FCYtLrr7UvzpEqP8zQLONifef/Uovv9yJ9wzIdBDdAqk3rgHV5wbh5DYgx5nKeq2/hA7tu5BgOf8GUnpKWz/JZ7+3ZnXU3giQfkhZmPkhD1TyL2ET3Xe1bORKCbjnN/uwMrWe/HHB16Y8sPszoZzaCaaKT3g5V+7nPd/L6Pg0J346y/fV0uJ6Ew06aDw4FQQSsqJkDWcLsKzH789MvQ550REMxmDwqcGg8JERERnrlOZQuJ0YVD4o3U2nEMz0alMHUFEs9Ok7yi65j34m/TduC/lxFcuvZABYSIiIiIiorPAmR54YkD4o8fg5fRjmxLRqTClu0p75Xv4f2//q39gQJiIiIiIiOjsIAefIiIilNczIcDa97N6BoRnjjPtHJqJ5HYb3I5ERNNtWnIKExGdiZg+4tRg+ggiIiIiIiKimY1/biIiIiIiIiIiIiKaRRgUJiIiIiIiIiIiIppFGBQmIiIiIiIiIiIimkUYFCYiIiIiIiIiIiKaRRgUJiIiIiIiIiIiIppFGBQmIiIiIiIiIiIimkV0SxZkh9T3RESzSm9Qp77TRtSZlVe/36+80uiefmAVVi+IV8fGdtuDO9Hss6OyslItmZmWrsnBgW1V6hgRERERERHRmU+Xm5vLoDARkQYmk0l5ZVB4fAwKExEREREREc1sTB9BRERERERERERENIswKExEREREkyIKkRAMgz5GGszQCaI6QkREREREMx2DwkRERDTtRBHQ6Q3S68wKFIoGI1ZfnINrshjAnAox5Uqc/9/v4tOvlOD2r65TS4GMr27F518rxid+9V/Iz9SrpTQZYlYy7r44BqkGnptEREREdOoxKExERHQGW/vf+7G3oqJ/2FP+R1w9A4JK1jVP4RM/2Y8r12SrJVOUcBPWfnm7tKwK3PVwBe586BFkTjHQbCvMxf/9+mI8dWcmiixqoUQ87xL8bvvn8JnV4eWOGC9cjf/e/iX8344vjxie2H47bi7Uvj2F99+JJ55ahdQZFizXQhTtKPrqf2NhyjHse/hzeOPZ/eoUoPnZe/DqT3+DprgbcPF9n4Z5lP2bqJ2nmyjmYMPXvo2bzo1WSyZv2Q+3Y88b30Tu6TheFjtuvvM8vPPrlbi7kIF1IiIiIjq1GBQmIiI6Q4miGSbvcRzctw8HD9WiSy5srEFVtzL5o9XrR2+gG729vWrB5ImiATlXPIQ5UUdw4B/3YPMTX8SWp/+AZnX6pKRm43+/U4iC2hLcdM97eLhk0EegQBDyf/2bOny87hj+/N1X8Ovv/Au//k05OkJd2PUb6b00/pvvvoMP6tR6Z70sxGREofO9R3Do3bfRVOtUy4Ge2g9R++7j2Pd+FYSkDFjV8iEmaudpl4M1d34BV50z9aDw6SSUlOHie7bhl7U23P+dFbgr9cz7wwERERERnTkYFCYimiaiqEN0Sg5yc3OHDDmZcYgc1MtMF2lFcmY2cnJykGDml36aOkHw4a0Hbsanb7oJd37/VXTIhTVVqFSmfrQ8uz+Dv/9gObbsblBLpiIZtlgT/Cf+hqMHXkdt8RuoPXYY3cLkPr6IooAb7yjAss4q3POLSuz3DJu/R1SCk8HA6OOCpxPF71VhnzTs2e9ED3rRvL9CGd/3ngMNw5d31vIg0C2nDx7UzXoYS3wC0NYAlzo+xATtTPK55sJjv9iLvzrjcO/t6Yg+A3uUExEREdGZgUFhIqJpE4SnuRY1NTXhwdEKT6+IgNcLOeYhf7fXWxKQnhoLweuBPxSei2g66POykCy9ttdUwjNK0DQy5wp86dFN2LTrMHYU78Pzf/8Rrs6PVKeGRS+5Cz/etBVvHz2Mf/3tflz+1WeVlBSPfzZRrTEx87p/Kmke+oabr12lThmQfdtR3Hn3V5C14Unc8OBRfOJ7b+DS9WtgVANgIiIhREbDYLJA0EkFghF6aTw8SNvcV0+MhG3pD3H5fTvwbw8dxM33/RXnLpkD3fBAmiEZVy3WY/ebJ3AgMMpHn0CvdI2GBvVgHTaukfyHodQr1uFbf7sTj739Ofz66Wtx+2V26McJ7ImiHuc8cCeeeHk9lqh/JJKD2Mnrz8c3n/oUHn33bjzyt2vx8fU2CIOWs/Khu/HEo8ux4vPX4r/fvBu//9dt+Prn0mEdti55tPCeW/Hoe5/DQ3enhAumrAXdTsBkT1LHhxJFG+wpMehpqIJ/tMD9NLXzRMSPPYKd0nm7v+pPuMYOLPn29oH0Kq/e259+RD5/cjf+EI++tQPvHT2I1978K7517RwYxmkjUbTgol/uxJ6dv8Jay8Bysq75Pv7fG9vxbslRvPXWX3Hv1dlDjvuGR45iz7Nfwfr7nsSmA0fx/q438Kt71yBulHUJAZe0Te2wLEnFBoNaOIjcgz7lC6/j068dxk1fOG/k+U5EREREpAGDwkRE00QQBITEIILBIAJiBOzxsTB4m1Hf4kVICZDoEGWOQFdzHRpaPOiVg11E0yQzJwtyiNdRXR4uGERMvBo/+vtvcdfl8xDdVYNaZySyz/0E/uP392FeX4As8Ub8519+gCsWJ0JsrEVP/qfx7TvnIoQuOCqblDpadB/5mZLmYfMTP8CJNrVwNPaNmJeyD4c2PYBD5SJS1z+CVYvt4Wmp92LjQ4fwyR+9hnPSAfOK30nv5fFDuOP7v0BmuBb0ed/DhluvQ2T1E9j1/I9QUm3HnI//ESvyTGoNVaYVuQY/jpSNkVejR+mvOqgH67BxjQzL1+IbPyiE5fBBPPWzrXjriAlr/uMafHxZhFpjJMOSVbhtQyQOPb4NB33hj2WGpefh/gcXILrkEJ7+r3fxxlETLnrgGtyyZFie2ZRCXDKnAa/86l38a08IRXddidvXG9WJfXSITrLCbIhEXJIJJ5OpVhDc8HtDiDBFyZFJtXSwTETFAd6WMfJpTFM7T2jPn/EfX/86/v3rj2KPB6h+4T+k9/L41/G9h19Bi1rNeN738JtfXAfrvifwi+/9CM/st+PKX/4RX1897PwZxLjyXnzt2ihs/9VPsVXtIW4699v4n1/djJhDf8Uvv/sgnj4Qg42/+hO+smJYRDd1I24o3IcnfvgA/rJdxIqvPIL7r1bP+WEaSztRb4jG3L6TfYgImJOSEWmwIDohXjrCRERERESTx6AwEdE0E2FAbEoKrHChtd2nBoRlQbhb69HpE6U6RNMrNzsTIfjgqHKoJQOK7voaLk0KovSxW3HVxVfipgvvwcvN0oeA3NU4Ny1cZ96dn8f5dhGVf/kkrr74Cmzc8B84GikHrGrhOB6uo4XY/qGS5qH6yDY4x8ttrN+LQ0/+HMcP/BMHn/0uSttjkFqwLDyt9e94//E78Nofvo5SaTv9JT+T3svjd+D1Pz+CvhB12oprYHU8jrf/8TuckJZz6B9fxFFHFvJXXKDWUJkjEIUeuJSkyyMJJz7Ed85/Cv8oC1+rw8e1WvCxAiQe24v/+fFebH39GF7+8at4rcyO86/OUGsMJcKOj319CeKO7cGTmzxqKbDw2vlIKpWW81B4OS899CpeLY/B2uuGRQgjGvHKv+/Cu68dw4sPvo33GowoWpWiTgwThBB2//AJfP2Wv+D+H1UgOFoP3nHIvZ8FYzQMZjtMOdcgMzeIlmMH5QWrNQarg7POA0vRJUhKjpfmkeYzDvTsnq52nojQtA9vvvQSXtu0Gw29QGfZZrwhjSvDe2X9vZjPvekapB1+HPd/83d4adM/8advfhFPHc3CFTcPO39UIvJw5w9uR8rhx/DzvzWqpcCqW69HxpE/4P5v/FZazj/wx2/cjb8W5+Ka2y5Ua6gMe/HEPT/HCy/8E/9773fxUl0MVq5Tz/nh3D1wQw+LWR0fRE4bc+InF+LJu9bh6Z++BHGSx5SIiIiISMZPkURE004PneiHH9FIyUpHgjncN0/uSczbLp0KohiPrCyb9K4OdcMCuKKYgvPPnyO9O4bNT+9Hj3we+pvQ5pan+uDzhudfuTJfGj+OzU/tDAfN2qtQKyeG7ZHToch1p1l7OTqC6nuxFK52wBgVq4wKgWq0ntiG+vL9cmwMIfcxNErjylBZpuyD/DN+a2wMAq0V/ekyBMGBzlYPjLGZw1I2nPpcLXIaiKRkI7rrOtDWvz1dcNT2IjrZ3p8aQyFNN1qNSL5+HT5W6MRbv96PJnUeeTmJ0nI8dU54pDomiwFR1m401naPXI6jDTV9vWzFNjTVAxb7yCiiEAqgs05OWRNex+Qsx+q/HMJnXt6PTz36PVi3fwWv/F+JOm0oQXCi5OffQkXc3bjhqd3SPIfw6b98D6Mnm/hoyedPRloMfNUVaBx0/lRWeWBPy4R5yPGKgNlmQ9bt/4E7Fjrw94d+j5r+42VBmrQcV1U13FIdS3Q0rDYnaiqdI5dTU47y/uNVimrpurLGhM/50Y3dB1gQXeiqrUOPOJVjSkREREQkfaZUX4mIaJoI8KOzqQkNjjrUdfTCkhg7NJBDNO3mIEPuRNpbg5oRT5krQnaO9OKpwIm+4K6Qh4x06bWjFjWdckEh8nJ1QPcJVJyQxyWGDKTGS6+OalT1BW+nlTgoVCtdH9KITjeZH8IboNNLsw27tkKitCB9xEmlSZgaaZ0R0p6EhgagQ/J4hE7a2gG6nOV4aPMX8ItvZSPy0BG8emhwA4eXE33ZlfiDVKdv+PJlphHLkRY+qA1DkJtiUk2oyTEc/skdePGbd+G137wArP8pLrpyaG/kPnJu3ezPPYD80GZ88OPP4uVv3oGXfvLn8AMQZxwD9FJjisPOH1E+fwwRSiqWPro5n8NfDx3Ciw+tg3HPU/jr3sH5LsLLsV/7P3hfqtM3/PRa+4jlyOf5wJEWpXNlonN+6LlERERERDSdxg0Ki9YibNi4AUXW8Adm0ZqBjP73Q6cREdFQckeygMePXsEA47DUkkTTKioPGfKz4BpqUDU8P2tiDtKVTsTStHAJkJOPLDltasVxKBmII9KQJAeAW1vQ2PfPetE85MpBs9pqVKhFM0sAoSCgU3ts9tHJT6YL9g4Kvkl6RKl2BKJG+Sn+9JHW2Std98OCfErQrzckrX9AqL4Ej3/lBfzmr/UILlqIjy0ZnHM4vJyubR/gv6Q6g4eHf30CA0kmTg+5t7P7yDY07H8PNa8/jOKjdmRfcKF0Yoz2+W8u0hYkwbX99zjy7ttw7JfmO1KFwLBjNDMElFzG4V9wDBDk8yfQix51XBaqewE/vOMOfOv3+xBc/gl8cuXgnMPh5Tjf+Rm+KNUZPNzz0CtQOuRPRZQBURDhHy8FCxERERHRSRj3U7rgLsZbm95CsVtQgsCXXzof8vfK4dOIiEiOkRgRl56BuMHxAr1OutGKCPHvZ3QqJcTCLsciPV0jg1BmI5RTMjoWCUrPSCOW3nYV8qSism1vo10OiulC4XM0aTnWrUiEOWEZPv2tm5UHurVVV4wI6pnW/hDXPvYszjs/QS05/QTBA3d7BwwJef0/0RfFVNgTLPC31wzNndvoRV0oCvnZp67/sCAE0dzohzEjFnH922NBekYE3I1OdA/eHn8Xjn9Yi92Pvo2Xjtuw4VsrkSWE55GX09LUDWNEABVSneI9Dhz5sB5NXgFCMDgoR7l2ok6PmAwLjLqTuxGJogmRJh3EQLe8oWrpYK3wSyegOSZZHf+oSe0l7bIhYmh/XZl8/tQ5OmDOzkPyoPMnJ9sCp6MGvsH752vE4a1b8dbP/h1/LknHx3/8NczrP14e1Nd3IsrgxlGpzofbtmHn1p2o6TJAEHunnO/XlhONFNGLWu3PeCQiIiIimpSpfVIlIqJR9KC7RwdrfDwsRgMMkWbExdkgdPvgDcoBBxE6vVRuMMBo1EMIhSDojcq4fmjnQqLJaa1FvfwQtXmfwe9ffQF/+uc/8ae/fBkL5WBXzQ7srwkB6f+GX299A397Zxv+8LlC6BpexB/+WhaeP7AVO/f0QGdYgE//cze2fvg0rs8Kd1GsqxmapFhOEZBz1R1Iy1+BxddsgKAG1GSiKMCSdTkyiy5H9sI1sBsBfexyZVwe4qf510UNe1+CK/2zuPTGezBnyY1YdOOjWJhegxN7tqk1VO5mvFcOrLkkC6mDtne6HX2lDM3zluGr/74May8vxNX/fhWumOfE9n/VqTWGEkKdePmn+9CYswx3fTJObkCl/MhLJWhfvgrf+OZSnL8+H+u/eCW+89jHcPU5g3sUayM/KG7FD+7Er5+9Ez//fu6wXMuTlQyTDfA7W9XxoQShCc4GD0wpOYg8yXYWU76EG96qwM2fnq+WTEU5Kip6kX/1l3HTddfi8mulYXV2/zm7+58voW7RZ/Hzh+/BtdfdiDsffhSfWFSD1/4x7PxRCaEy/PG7j6M67zP49y/O6z9eu555AY3nfR2/+dHncfU11+KWbz2Kx575He46V7oApkD+w83HL0qEUN6CLWN0NRYLv4vbpPa59gb5JwJERERERJMnfS7OwKqNG3H99ddjo5wOIkNOC7EKGdIH3b4UEfNT5F7CBYjWRaNw/Y3YUGQdmVpCw3LCZeE68rAqY+ALgyhaUbRhYNrGVQNP6g7PvwpFRRvU5avLHT6PWk5E9FGQn/Lvbm1CR08kYpPTkJYSD7PoRFOzS+21qIclMR0ZGRnSkAiLVGZJlN9nIC12asEDIoX3FTzyg2dxpCGIuKJzsGTZMixOjICcLlgQDuCRe76Hf+2tQzA2F5nWLpS+9v9w/799G++2hf82LAjNePrLn8fvntuMndvewvP/dRce3a5HCC44KluUOn0EoQeNe3bC62+DY/feYT0ho5B5xaNY/yl5+BHmxAPmovvV8UexWH7e3TTqrfgpNv/9RfTk3olVNz2ABblunPj7Z7Cn0q/WCBOEbjzxbA3aCgrwu9vjECfnMD4FAvs+wC9+WArvkqX4xHcuxOVLurH9hy/jmf29ao2Rgsd240/PdCLnkxfj8qxwWeDADvxcWk7P8mX45PfX48bLolDxp5fx22fkJ/9NVgieNg98vT1wtnUPTasxaXZEWoDuLiUR9ahcLU1AUnr/L8umLG+OtDYPWo+N/lA7LQShEc/8+GHsEC7Ffb/4Nf7z17/GT756MfqyiPh3/hRfv/dFuFfciW/89AHctsKN1+/9DH6za+j5M1jvYWkZf6lB4T0/xidyw2X+Dx/GV+97Cf7zPoNv/uyn+OK1iSh55HP47p9qwxUmQYQBa24/B18r6MYzz1ajYYyexvrcObCiAS2l7EpMRERERFOj+/i994ZsZVvwVrFbCeyed8MKpEofMvc8vwM19oW4/NJ0OLa8gSMYeD+QTkKd5sxS5ht/OQWweMqw5Y0jcEsfcK1FG3BpgSs8XfrYv/DyS1Hg2oNNu+qUYO+QcWVd0vwN4XHZ8DoyZZnpjv51EBFNJ5MpnBfC7x87YEDA0w+swuoFcoLa8d324E40++yorBzxZLQZZemaHBzY1p+Nd1YQzavxg9efxvXJ7+Gh5Z/CS54z/99U+W/G8y9bisfvTJE+TzTgl4/sx1M1/KwwGaKYjKWPbMNK4Q945Sf/i5a2TgQDaoDdYIExfiEWfvt/scLyZ/ztsz+H6yQ+i0Xftgmf+HQPtt10k/Q5c3YcJzErA49+uRCXpfXirT/vwVfecg9NgzJIwue34MbrT+Ctqz+LiiDPYyIiIiKaPEEO3JYccYZHhDoUl03hESZZ6UoAeKLlNJQMBGudtQ54YIPNLo1kFaHA0oA9O8KPRRcEN46UNACp6UN6/jY4+h6bLhk2j8x5pAQNlgIUqT1tiIiISJvl9z4VTjvx3IvYtPUvuD4zgOq//QFvTPlJWTOL/PGjdPMBXP7NvXj8GGC1qBNIMzk9xJH//Q1akj6DjU/uwSe+uk6dAmR89T3c9eTfsDy7Avt//6eTCgjL4jKzgaajaOpQC2YDSwSCpSfwpW++j3u2eMYMCIuiAfFZmUDVYTQPf7AkEREREZFGAjxuhEO5YeFg7eTYbTZMvBwP3IMrDDdsfjjdA0FjxdD55XXqdGlYeeON/ekjbrxxJdJ0OtgGZiIiIqIJiGI8is4/L5x2YnE+bJ5j2Pzru3HPj7YNfUDaWcDX0ILH/ngQj5WcXft1uoiHH8Gm28/DU3ffijee3a+WAs3PfhEvfOUKPHHrNfhw79jpJbSQeyTHZtoRLD+A0bMXn52Ekip89Y9VeLMhpJaMpQAxGRHwlh9E11l2fRIRERHR6XNGf5IMdZVi83PP4YUXXhgyyCksiIiISBtBaMNfb87D8rw8rJi7AOsv3Ijv/M87aBIZcKKRhEA73Md3o6l24K/1PbXSeEkZugMnf87IPZIPfiUP//vDFxFi0HMEQTiKXXfm4a+/fF8tISIiIiKaPAEWK4b0q7VbMdlfVDpdLpz0cizpyBy8AGV+F1xj9C4Or3PYPEREREREREREREQ0LqEBqZi/MBxZVR4QtyJVeT+C0wUXLLCOFoStcUDzckZTU4wyjwUFajJg5SFy86X5GxyoG6uHSN88qxfCquYdFjNWYePGDSiynpqnihMRERERERERERGd6YQdz++Bq+BSJSfvDTfMh7usQZ00lPzwOIc0KW3ljdi4KkMtDZOnaV3OaJQHy72xBWW2FWpu4PUocO3Bpl11ao2R+udBAdareYVvWGFD2ZY3UOzmTw2JiIiIiIiIiIiIRqPLzc0d8jQLubftDfPd2PLGEbhPIo/bdC2HiGimMJlMyqvf71deaXRPP7AKqxfEq2Nju+3BnWj22VFZWamWzExL1+TgwLYqdYyIiIiIiIjozCcMTrfQn7bB5ZpUIHd42oapLoeIiIiIiIiIiIiITi1hSxlQuD6cfkFL2obRCHW7MB3LISIiIiIiIiIiIqJTa0T6CCIiGh3TR2jD9BFEREREREREMxtzOxARERERERERERHNIgwKExEREREREREREc0iDAoTERERERERERERzSIMChMRERERERERERHNIgwKExEREREREREREc0iDAoTERERERERERERzSIMChMREZ1lRBGw5q3EhasLEQNpZBRa6pw2Ol14g4iIiIiIiOi0YFCYiIhOuRMOH/7fpjr87e3G/qHTC/T09MBsNvcPUVFRsFgs6lw0ZYZk5KSa4KyrQudY/9RrqXMa6GIKsGrtWqzIs6olI4liJOJyFmHF6jVYd+GFuPD8AsScgiCyKJoQn5WDZKtOLZk865xVuHBFDkwMchMRERER0QzGoDAREZ1yr+1uwz8/6MQjm+r7B6c/EsFgEHa7vX+IjY1FXFycOhdNhRyLtGdnIS7YjKo6n1o6lJY6p0uk2QR9qBseb49aMlJUVhEWpEWgo+oYjh4+jMNHauBUp02riFhk5GYiNjKoFkyOKOoQFWVEyO9Dt1pGREREREQ0EzEoTEQ0TeSAUHRKDnJzc4cMOZlxiFR7DYqiHua4JKRnZiE7KxPpKfGI1iuTzmrxtgilV3BjY+O4Q3t7OwKBgDoXTYncAzhdQy/hieqcJt0Nh7B96y6UNI9+3EXRiMQkO3qajuNEYxvapHOk3eVHSDgF220xwwQvvB51fNKiYDbq4Pd6T832ERERERERTRN9bGzsg+p7IiIaR0REhPLa29urvA4XCono9XXB5XLC6ZSGrgAiokyAtxNObwBiSAdTXBpSokU4W1rR4fZDNNoRHxsBn8uDIKb+k/WZ5MaLMpCRFKWOhR2p7MKHx9zo6upSS0ZnMBhgMpkmrHc6pWTFoLG2Ux2b2ZQewHMWIM/UjtLiBvhHOafGqmPKWoY1C2xwVrfAL+f4lYiwIv/c81BoccLR4lVy/4p6KzLmzkdh/hzk52UgMcaIns4OeNXOtaJoQMbStVgU0w1fzBwsnF+AnPRERIdcaHV2h5chRmPOqvOwZG4ucnJykJ1tQ3dtA7qka2S4UChGWl8Sgo3H0dwVUkvDRCEFS9YtQ5ynEq1edZtNWVixZj7M7TXo6Bm5vOHkP9RkLF2H5fNzkZtmh0FnRGxG33Zlw+avQbMaJFb2vUDa97n5mJOVhkR7BLwdHegWw+sJ6exIy09CqOkEmvq21ZSOJauWIkPfgYZ2v7Y21CVjyYXSfvV6YMtbiPkFuUhPjEbI1QY3/2ZCRERERETTgN1YiIimiSAICIlBJSVCQIyAPT4WBm8z6lv6eg0aYDbr4etogcvfg0CPD52tTnTro2AyhJdBdFKMychJM47fA3iMOn6vD6LBBMugczEiIQPJpi7U17Yr57AIM3IWL0WeLYCW6nKUlDeg25yOovkZMKq94QGTdJ4DQWsiEoNNqCwvR4MvEkl5eUjuX7YPTWWHcejQIRxrlJNL++Eb8bcWQbmmIqKk60PoQXdP+BqTB/Q9GE+aZh7eszdK7u3rQ7e0WG1EtFWGt6W82Y+Qrwml0nt5/PDhgzjeGo7UirAgZ4m87z1orizDscoW9FpzsCA/Cbq+fTdK26Prgd8XjtzK82QV5cHmrUJxlVPeAW1taJH2GQFYEpKB1mqUH2+EPzIJeflpMPS3MxERERER0dQxKExENM1EGBCbkgIrXGht9/X/jFwQAnA21Azt7ajXSTfiIEKM89BJkmOFMVnZiAuMn0t4rDpilwdemGFSn/MnP9wtLSMBuvY6ONSgqz4hB5nRblQcOoLqxha0NFbhWJ0TOrtdOt9VejmFAtDbWoGSinq0tDTieEUTugUTTJHhKoIQhKezXUkX4hf1gM8rrXuAKJqRs2It1q1bh3Wr58CuMyJtsfReGl+79gLMTwhfU/ooM4whP7x+ZVRhksoiAn54NPaoFYQQ/K52tLa2ojskbaCnHQ3Se3nb2ts74Quq129cBjKiu1B56ChqmqR9b6hARZMPhmgr+vvFm6V9hB8+qWmVts6dj2yTE+XF1fCpH7m0tKFeDoRLd5KOihJUOJqldZ1ARbMfgskolRMREREREZ08BoWJiKadHjrRDz+ikZKVjgTz6EmD5RzE1hgb9D43umbZT8KH512WBzpJxmRka+glPGYdrwde0YioqHCaFNjSkWbvQWNNE4LqHzbscTGI8LSjrTdC6bEr6I2wW02Qo6D9IWaL3HvXh7YWtxxxDZdJLyGxB73Dnt8mp26wmCPR6/ch0FdX0Y3G0gPYv38/jtS5EQq04rj0Xh4/cGA/KtrDf0WJijJD5/fCN2i5cpkcZJ784/PMiDLr4JcjukO2JcwaY4dB2vfW4QsOhdC3eqPFDEOoG/4eAYa4fMzLNKCtvASN3QPL09KGJrMJuu52NDsHdkxaDeQGZPYIIiIiIiKaDiO/9RAR0UkR4EdnUxMaHHWo6+iFJTF20E/rw+SAsDkuBQkmP9paXBBHCUKdTVzeoftfWVk5YpD15W2myRnoAdykoZfwWHW64PEA5iiLUjcpMxUmVz3qOsPHri+Aq7PlYbXcg1ce1p6HBYkhNFbUwqOew4I5/LA236CUDoKzAru2HoSjZ/h5boHJBPh9Q3M9CIIIvzucmzsAA+BzoaWjI5yr2+lGtyhI2yPCLOepkObtW5UolZtNkQj5BwWpNTPLHX3hl+YdTr5eoywmiNK6+joly21klmaQ19WtlpmlndEJSVhw4UVYuzQDJmcNSpv6pmpvQ4uci9zn6+89HV6/ccj6iYiIiIiITgaDwkREp4gc3wl4/OgVDDAOytMqB5NMcSlItopob2yBRzy7b8WOth78c5trwoCvHOCLj49Xek/SJPXnCa7WkEt4rDo+eH0iTFFREIypSE8AWmod6O4/HuEAblf9UaXHrjzs27sHO7fvRmnrQP9Vs9J7V1pWOJY8PkEOxIbgG5z/YRDljyfmcDB0ZKjWAEOkgFBvb3+KFgixiImGtB+eyZ9HBmn/DL3w+waCuANMMBuH9yIO9yz2eTzhfMtqkFjsqJTaZS+O1LgBWxwSjGp1xcRtKKftMJsi0CPtQ18PbUBOySGty+sdtH4iIiIiIqKp4zcLIqJpIopGxKVnIM6kFsiUnMFif85gJSAcm4IUm4iOxga4Z8FvwdPjI3Hz2jgYDAZYrf2ZZ4fQ6XRISEiAz+eT2khLNJH6yM1lz8pG7AS9hCeqIwdRuzwe6ExmJKanI8bfiNrWoU9/kw4Ter3hHrzy0NkVQKTVDoth4JhFKd1th+YIHpPZDLOSg3dYXol+Fvm5ccp5MTLIG0SwV4QuRrqeLHroDdFInZOFGIPc83j0fRxXlJyvV9qWUTdcfsCd+raPOQFxlgCcHV1qQXhb/e52uNxuNFfXoC0Yh6wMW/gAqCZuw6jwPssB4D6CHIAe2aOaiIiIiIhoqhgUJiKaNj3o7tHBGh8Pi1HuxWhGXJwNQrcP3qAcFxJhjElGSoweXS3t8IoG6PV6ZRB0A0Gjs9Hnr0rC/TelIjEhYdTAsNxDOBQKoaWlBY2NjWopaWJMRm6aEZ214/cSnrCOxO/1QTQmIDvFjM76OnQNqdsFpysAW3oBcpITEJ+UivxFS7F0XgqMakxXlM7pKHMEAn7foF6uQ4l6C2Li4qRrIw4JyXaYEIReDrDKZTYjdIP/KNDfk3hQLgqVvPjmmio4dfGYt3ItLjh3HuwBDwLww6upm/Iw0vkXQiTsyUnhbYmLgUXftxwvnO4eRKXMQV5KIhKTs7BwUQ7MzlrUquk1wtsqB3PVbQ00obrBg6jUbCT2/1Jg4jaEwQyTQYTfN+TpeTAL8n6NFTwnIiIiIiKanLG/GRIR0aQIQgju1iZ09EQiNjkNaSnxMItONDW71ABZBKIsZuiFSNhTMpCVldU/JFjO/tvxlStj8I1RAsNy2ojo6Gi0tbUpgXPSTukBnBnuAVztGKeX8AR1+ojuLngjLLDoWlDrGJrSQc7z21JejBqPEclz5qMoPwv2YDOKD5SivT8FSpQaGB17PRGJeVi6eDEWy0NOLPQ6KzIWhMcXZNohP0+tn1lanm6cIK+7Fvu2b8fO3buwY8ceHPPqwz2Pp9Kh1lWPqsZuRGcVKduyaNEcxKvBXPnabjleguquCCTmzcPc3CQYXBU4dLgavr6PUkrgthseT7h3tdyz2VVTi3Z9PLIyLGqZhjaMCudkHhIHt0RJLTvF/SIiIiIiIhqFLjc3d8j3LyIiGp1JTgYq8fv5qKfxPP3AKqxeEK+OjfTa7k784rkGtLS0oqurCxkZGUp6gNbWVrXGzLJ0TQ4ObKtSx2YW0ZCCpavnQlfxIQ46RsuFq63OTKVLmI8L5utR+sEhNIcm/sOJKWsZVqU6sX9HOVxj9FQmIiIiIiIisKcwERGdXkqP4RtTlRzCaWlpStqI9vZ2dSppFe4BnKWhl/D4dWYa+eFyJnsc4hNSUZCTiGBrE9rGyJqgN8eoqR7kVBTZmJsWDU9zM1zqdCIiIiIiIhodg8JERHTayYHhaEM3IiMjlYdtMW3E5MkdYd0VH+K9nWVj5gnWUmfmsSOraBGKCrJg8VTgSFnTqPmJ5XMmNiecdmLRooWYn5cEobUER6qc4R0nIiIiIiKiMTF9BBGRRkwfoc1E6SP63PbgTjT77KisrFRLZqaZnD6CiIiIiIiIaCqE66+/HhuKrBCtRdiwcSPkcXlYlSFCFK0o2rBRmT6YtWgDNm5chXRlng0oytA2r5ixqn96n4xVG7FxVYY6RkRERERERERERESnkrC5tAvRhetxw2pg5/PP44UXXoBclrriPGTBiVqHB5b0TFjVn/bKwd7MdAs8ZcWoVUosKJivbd6s9FTloUI2m10Zl5dlswENjhplnIiIiIiIiIiIiIhOLcFZ60BXKISGkiNwqzn45DIPbJBjt8p7Szoyw3Fc+Yk1SLd44Kh1qgWYYF4r5FnDAWBpPodrIFCsLKsBjAkTERERERERERERnR7qk1g8cA/EeIdy1sLhsSBdjQrbM9Nh8TgwEBOeaN5UpGdJ7+UAMKT5jjjQoAaKw8tyY6zZiYiIiIiIiIiIiGh6Tfh4bkFw40hJg9q7V00d4ajt7xk8HnlelwtIlaPCdiss0ohT+s+tBIrtk1oWEREREREREREREZ08bdHYGrl3bzoys8LpHkqOaO/bW+NogJw4eGF6qpI7WA4Uy7mGU9OLYB2WhoKIiIiIiIiIiIiITi1NQWFBqIOjwYLClYWwNDhQN5mevUpAuQAFqQNpJpwuF3RpaUgdkoaCiIiIiIiIiIiIiE41zdFdpcevRO7tOxnhgLL0ZnAAuMaB+lCIqSOIiIiIiIiIiIiITjNdbm5uSH1PRETjMJlMyqvf71deaXRPP7AKqxfEq2Nju+3BnWj22VFZWamWzExL1+TgwLYqdYyIiIiIiIjozMduukRERERERERERESzCIPCRERERERERERERLMIg8JEREREREREREREswiDwkREdNr5ukV0dpuV9zExMcorEREREREREZ0eDAoTEdFpdeCEF5/4r3J4e3RwOp1KUNhqtapTaTqIImDNW4kLVxciBtLIKCaso9OFK51JzsRtPp3YPjQWnhtEREREs44+Njb2QfU9ERGNIyIiQnnt7e1VXml0N16UgYykKHVsgNw7+JGXGvH/pKG13Y3m5mZ4vV4Eg0HEx8crrz09PWrtmSMlKwaNtZ3q2JkhFJGMefOT0VN7FFWu0QM949XRxRRg1bkLkCq0ob4zoJaOThQFZCxdh6VxHtS0etXS6SOKJiRkZ8AmOuEZ5/SYaJu1LudsNZljOtPZ5qzCeUvmIicnRxkyo6Rzr6krHNhUaakzGWfS+TPZfT9d1/vpbMPpWJdVbsc5BjTVtaN3iucNERER0UzGnsJERHTKyb2D7/z5Cby6sw2NjU1obW2VvrSHA5FutxttbW1KYJg9hk+e3Kz27CzEBZtRVedTS4eaqE6k2QR9qBser5ZoigUmE+D1etTxaRYRi4zcTMRGBtWC0U24zRqXc7aa3DGd2XyN5Th06JA0lKOlOwS/TzqHhaEfabXUmZQz6PyZ7L6ftuv9dLbhSa5LFHWIijIi5PehWy0jIiIiOtswKExENE3kL5HRKTnIzc0dMuRkxiFSFCecfrZytPXg/ser4Wh2oaqmDj45QDFMX2A4ISFB+iI+spcxTYIhGTnpJjjrqtA51j/zE9TpbjiE7Vt3oaRZQ49SvRlmoxx48qsF08xihgleTBSDmnCbNS7nbDWpYzrDBTztaG9vR2t7N0IRgM87sseqljqTcgadP5Pd99N2vZ/ONjzpdUVJ+6mDX2q70Mn8MYGIiIhoBtPl5uaG1PdERDQOk9w9SuL3j/5lWO75qo8wQOj7lak+CvHJcTB4m1Df4oXcX2m86WfLF8+nH1iF1Qvi1bGw3/+rHk+82YjGxka1ZHRyT2GLxTJhvdNp6ZocHNhWpY7NbEoP4LnnYlmiEwd3lowa8B2rjihGI3/1cmRFhU/QUKgdpVsPoFEctgxTIuYUZCPJaga621BR6UHGwmS0792Jyi51WXorMufkITXWgqjIELzOZlSVnkCr2uVO1CVj6boCBI4XozshDym2SIjedtQeOwaHJyRtix6Z51yAubEjf7IdCoXQfux9HG6S642/zZqXI6Rg6Vppe46+i5JWdV5TFlauSkPHvu2ocA9rg3HoramYOycTsVYTIqWrvtvbCUdZCWrdA3/4mbB9RIO03ecj21+Kst5k5CXbYBC9aK89hpJat9Lr05S1DKsyPDj4gXQM1XuHCCvmnrsMiZ0HsetYu7R2m6ZjKuqjkZabi4z4aJgjpHtcVztqjpehSToWfSbaZq20rAuWZBQU5CAxWg9/cznqQvmYZ67BB/trERx0n+w7Rp37t+OEa/RjpKXOWLSePzKlffLl9pH2S+iF19WI46WVcAa0r1PLMVX+nZiG9pnO63287QlAPpcn0YYncY5N5/ESkYAF6xbAUP4BDjWovY1N6ViyPA8RjgPYW+FUrsMJr+UJ7nVEREREH6Vhn/yIiGiqBOkLYkgMKrlxA2IE7PGxMHib+wO+E00/m9mitO0f8zWfJGMyctKM4/cSHrOOD01lh5WfnR9r9AI9fviGHQ5RZ0P+4vlINnTBcfwYTjT0IjknGUb40dcZUYQZOYuXIs8WQEt1OUrKG9BtTkfR/AwY+3rEW6JgQgCWhGSgtRrlxxvhj0xCXn4aDEodEW2V4W0pb/Yj5GtCqfJz+EM4fPggjrf2/SR8om3WuJyoKGmrh/UqjJJ7GvrQPYkOpqKQgIKF+bB216P88AHsP1yOFjEOeYVZMKv7rql9pDWbzUDQmojEYBMqy8vR4ItEUl6e1PbhGn6vD6LBBIs6LotIyECyqQv1tWrwUMsxlbYne9ESzI0Poa3mOEqO16ErMhmFRdmT3OaJaVqXLkZqw3lICLWhovQ4GnXJyIyJRMDvGxLwVCjHyA9p0ti01BmTtvNHhAU5S+T26UFzZRmOVbag15qDBflJ0E2ifbQc0+lrn2m63ifcHq1tOB3n2DQeL6N0T9D1SG0X7j0tz5NVlAebtwrFVWpAWMs2T3ivIyIiIvroDPv0SEREJ0uEAbEpKbDChdZ234iA70TTiaZCji/EZGUjLtA8bi7hseoIQhCezvDPzv2iXv7NOYbHQ4X4dKSanKg+VIyaphY01h5DXVcEDN3e/oCSPiEHmdFuVBw6gurGFrQ0VuFYnRM6u10659U6UXKgRERHRQkqHM1oaTiBimY/BJNRKpe3JQS/q13JPd0digQ87WiQ3svb1t7eCV8wfM1MtM1al6OPMsMY8sM76EcAJqksIuCHZzLZFmITkBDpRG1pDVo7XXB1NqOi5CCOVrSgL1urlvaRf0VgNgK9rRUoqahHS0sjjlc0oVswwSTthkzs8kj7aobJoo6LkUjLSICuvQ4ONbit6ZjGZSHT7peO6RFUNrSgtakWx6pagSgrbNIsMk3brIGWdRmSM5ES2Y7jh8vQ0NyM2mMt8JsBv7TtwxnNJukY+eAZpyepljpj0XwexmUgI7oLlYeOKtdFS0MFKpp8MERbMZlkOFqO6XS1z3Rd7xNtj+ZrcBrOsWk9XlLbyQF1OduRct/MnY9sqS3Ki6vhU78+Tce9joiIiOijFP5UQ0RE00gPneiXvk5GIyUrHQlmNdrRb6LpZ7/heZXlgU6SMRnZGnoJT1RH/gm2xRyJXr8PgWF/sLDZbRC6Ovp/Gi33fhflX0D7fOjrZGuPi0GEpx1tvRHKdEFvhN1qUur0haFNZhN03e1odvb1+JV/3i39X28QQ2OwZkSZdZjoQVnjbXPY+MuJijJD5/fCN7A5SpkcKBsaOp9AUERQuq7TCvKQnhyPGKtRWm4nWts9/b04tbSP3LvQLI21tYRTRSikl5DYIzdRmNcDr2iUtjMiPG5LR5q9B401TSN6jI7XPtYYOwyeNrR4BnothlqK8f57h9EUmsQ2a6BlXTExNuhcrWjrOxF08v9E6VCMTNsTJXenlvZpvG3QUmdi458/4f1qR+vwlUgn9aBTamIajul0t8/JXu/at2f8Npyucyzs5I+X0WKGIdQNf48AQ1w+5mUa0FZegsbugeVN772OiIiI6PQb+UmJiIhOigA/Opua0OCoQ11HLyyJsUN+/jrR9NmgsrJyxEBTN9ADuElDL+Gx64RZIKfPHt7zMPw0fhNEn6c/4CEHlMxmQ/9PxfsCTDpbHlavW4d18rD2PCxIDKGxohYeNUBjkZYjB0761qAs22KUlu2Vro7BzHKHPfil5Y9v9G0eMPZy5FzgZjl4Js3bF+gSRUGqH4nQBAG1ETqrUV7nhs6ehjnzFmLp8vNwwbkLkBAZvr61to8gbY/8kCypqfsJzgrs2noQjp6+j25d8EjTzVEWablAUmYqTK561HWOdi8Z55hapGPqHTimw2nd5oloW5cBUeYI9EjnRn9gWwmQ+6W2GLpf8vLMZiNC0j6N1QlYSx1txjt/1P2S1tF37srHwyzNIJ8/k1vv+Md0utsn7GSud+3bM34bTs85NuDkj5dZahSdkIQFF16EtUszYHLWoLRpoCWn/15HREREdPpN9lMWERFpJH8nDHj86BUMMA7KEdlnoulEmvXnCa7WkEt4nDoyQQ6ohEbp6RelBFp8Pr/SK66vTI55DASUwgGmrvqj2L9/vzLs27sHO7fvRmlruF+c/JN4s0kOJA30nlWWbdRJ65SW018mMUjLM/RKy58gtDbmNqvGXY4BhkgBod7egVQuQixiogGvtI0D+zoxAd1oOXEYe3dtx/vvb8euA1Vwm5KQnmhUa0zcPjKz0nPZB+/wuNoQ0nSfCFNUFARjKtITgJZaB7pH294x28ektPuIHpVDntOlbZsnpmVd4XNMqaPSW6T1h3xyXG0Y6dwzy8do2PKG0FJHg3HPn9H2K9xT1efxTDI90ETHdLrbR3JS1/sktmfcNpSmScs5+XNMdZLHqy9ILHZUStuxF0dq3IAtDgl9l7Fi4m2e1L2OiIiI6CPATyNERNNEFI2IS89AnPRFsZ9eJ91oRYSkL5kTTSeaCjmAYc/KRuwEvYQnqtPPbA739BucS0EhQK+Xf/o8cLLq7YmINw39qbhOB/R6nXA6w0NnVwCRVjsshr75wsEqJSjSR5CDMoODTaooOe+mtC3DikcYc5tV4y4niGCvCF1MClIseugN0Uidk4UYw9Bg10RERCNZfhCcRd3PUACezk54e0PS8ge2a+L2kTZXibSNzPE6mByo6/J4oDOZkZiejhh/I2pbhz0prM84x1TeHp38fypRF4d5qy/EOZkDETAt2zwxLeuKQITU7n115J6oSYl26LpHC5CbYZSaqXuU3qADtNTRYNzzRxgZ2zMnIM4SgLOjSy3QZuJjOt3tIzmp630S2zPBtSwv4uTPMdVJHy9L+H7kbofL7UZzdQ3agnHIyrDJO6nW0bLNk7jXEREREX0E9LGxsQ+q74mIaBwREeE8j729owde5C/PerMdsVYDenukOnJ+wbg4mINdaHP65dDvuNND6hfrM92NF2UgI2no45Wqm7pRXh/A+uXxWJwfpwwdXUEYzTap3UIwGAzKEBkZCaPRCLf0RXymSMmKQWNtpzo284QikzF/fjK6q4tR7R49gDJRHVFvQWysFXIO0qj4JKTF6ODp7JETYsJsECE/gT8kncFRCRlIiYmCrlc6ZrZk5GQmIsrUi46qOnT26qRjGUCEPQ0ZCdFSHel6sNiRNqcQBakGtNe1wBeS6kTEIjM3Ft31J9DqC5/zIVMCsjPNcNfUoKNn4DoIRcYgI80OfW83evUmyD+HF3q8CEjL0bLNStRmguXIVTz+EGKT05GRlY2sVBsCHV0wxBrgqqkdsj3jCYlRyCwqQJpFB1+P1D4mK+Kzc5Fp8aD2eAM8orb2kQNridJ2RPvqUNM+fg/pXkMMspJjYLGY4XWUoHbQsdV2TIPS9qQiPdEOgxiEYI5BWv4cpOrbcLy8Hj6N26xFKNSrYV2AVToOSbF2mCOMiMnKQ6IhIN03o2AQAvA5uxBQuxaHQgbEp6fAbgjCH4yQdmuU466hjhbjnT/yfunl/UqwStNFRFgSkDs3B1ZfDUqrOtE7tCv0hMY7ptPVPmJE9DRd75PYnnHbcHrOsT4ne7xCOjvS5yQh2HQczV0hhKR/o/2GJGSnWuBtaIZX4zZP5l5HRERE9FFgUJiISKOJgsJyjKHb5weMVsTExMAebYIQcKG11aV8MZ5o+tlitKCwoy2A/Sd8MBmN6BEjlKHTK7WpwQS9Xg+TyaQMclBY7nXGoLA2Sg/g3AXIM7ehtKQR/lHOIy119MnzsGpBLpKTk5EcY4agM8KWJL2XxhMi3Khu7oJOANxdAUTFJSI5JQG2CA/q2kQkxwXReLwJHuUcD8Hb6YbOJtVJTUNKXDQEXzOOl5xAeyC83lB0EnJTI9BRWQ9nr1pmT8XcJKD5RCO6BgWA5ByfveY4pKSlIz01BUlJFnQ3hOfTss19gb/xlqPocaG+th5NLQ2oraxBY0QS8pNCI7ZnPDqdH12+CNgTU5CWkYG0pFhYQm44SstQ75WfLCXX0dA+IStS81Kga6tCo2uMns8qMWhGUlYyosVmlBc3wDfo2Go7pjp4nE5IBxVJydL2xFuk7WmStqccbWrASss2ayEfionX1Qu3V1D+WBZrMyPkrsaxYy3QxaVI69WhtboV/r5jGvLBGzAjLlk6pmnS9JSUkcddQx0txjt/wvvVBcGWgKSUVCTEGBHsrJW2uwYe9eF5kzHeMZ2u9tGnzJ+m630S2zNuG07POdbnZI9XOHAbBVdNtRK4lf9N8ruDsGdnIi7UggZnr6Ztnsy9joiIiOijoMvNzQ1/UyEionHJQUuZ3z889yIN9vQDq7B6Qbw6NrbbHtyJZp99xj9kbumaHBzYVqWOzSyiIQVLV8+FruJDHHSM3qtUSx0aypS1DKtSndi/oxwu5v0kIiIiIqKzEL/pEBERnYGUHsCZWUqe4GrH6HlDtdQhQG+OQVxcnDIkJGdjblo0PM3NcKnTiYiIiIiIzjYMChMREZ2B5A6s7ooP8d7OMnSO8c+5ljqznSiKiM1ZjMWLF2PRooWYn5cEobUER6qc4QYkIiIiIiI6C/HbDhEREc1agiCgteR9vPvuu3jvvfexdcduHDzeAv8U8sESERERERGdKfiNh4iIiIiIiIiIiGgWYVCYiIiIiIiIiIiIaBaZ9UFhMWMVNm5chQz5aTxEREREREREREREZzn2FCYiIiIiIiIiIiKaRXS5ubkh9f2sJPcUvmEFsOf5HajjU8aJaBwmk0l57ejoUF5pdM/95zqcvyhRHRvbDd99D04xCcXFxWrJzHTe+vnYsblEHSMiIiIiIiI68+k//elPP5gpOHDcn4/LrlqDJfPnY7402LuKUdtpw4LLrsJSkwMVLT3qLIC1aAOuWpMIt8OO1VcthanLhKWXTDyvEoC99FxlusOlU8oyVm3EJRldOOZwKeODiaJVWcYFS8LLnWcfqCdai6TtHbnusfalb32imIHV11+Cc+XlzcuEvqsb8fFAfUkdXLpwHSKi0URERCivfr9feaXR3XppNjKTLerY2J7ZUo3ukAUtLS1qycyUmZeIuopWdYyIiIiIiIjozCdsLu1CdOF63LAa2Pn883jhhRcgl6WuOA9ZcKLW4YElPRNWNeeuHKjNTLfAU1aMWqXEgoL52ubNSk9FV1cXbDa7Mi4vy2YDGhw1yvhg8rSFl1+KAtceZbnPPbcbDakrsCpjcO7fkesea1/knMFyQPi8G1bAVrZFmfb88yWwFqSqyyIiIiIiIiIiIiI6+wnOWge6QiE0lByBW02fIJd5YIMcu1XeW9KRGY7jAvZMpFs8cNQ61QJMMK8V8qzhALA0n8M1EChWltWAUWLC/espKw5PFIQ67Nq0CbvqhqZ4GL7u8fYFWelIRQNKjoS3XV5mcZlHeU9EREREREREREQ0G6gRVg/cAzHeoZy1cHgsSFejwvbMdFg8DgzEhCeaNxXpWdJ7OcgLab4jDjSogeLwstwYdXa7FRa44Bpr2YrR1j329tjlbsnD1hcOGhMRERERERERERHNDkO73Y5CENw4UtKg9u5VU0c4avt74o5HntflAlLlqLAc5JVGnNJ/biVQbJ/UsoiIiIiIiIiIiIjo5GmLxtbIvXvTkZkVTvfQl35BixpHA+TEwQvTU5XcwXKgWM41nJpeBOuwNBRDON3oT/swTZxyhFrtpdxP6ZFMRERERERERERENDtoCgrLuXcdDRYUriyEpcGBusn07FUCygUoSB1I6yAHZ3VpaUgdkoZiGDVtRUGRnHsinJO4aMNGbFyVoYxPibwtSMWK8/qWmYHzVvBBc0RERERERERERDR7aI7uKj1+JXJv38kIB5SlN4MDwDUO1IdCQ1JH9AV9NxRZlXElbcUbW1BmW4Hrr78eN964HgWuPdi0q06ZPhXytux4fg8aUsPLvOGG+XCXhfeLiIjobCA/xzVh2bW47frVSBGkkVFMWEenC1eiqTtb25DnBp1NeD4TERHRLKbLzc0Nqe+JiGgcJpNJee3o6FBeaXTP/ec6nL8oUR0b2w3ffQ9OMQnFxcVqycx03vr52LG5RB2b+URjHi69biUMh/+FN0tGf5TqeHWE1FW4bl0OAsfewL8OdqqlQ4liFDKXrcTS3GREm/QQApV4+9ntaJrEL4lEMRo5i/MRUX8IFe1TC8okLt+I9amVeOWl/XDNoOcTaGnDmSBpxfVYX2BWx4Bg7TY8816l/Fd0tWSoyeyXKOoxb8MtOMf3AZ7ZXquW0nSYjmtnJprO/dJyjxrrfJ7MdXG2HgsiIiKaHWbONygiIiI6KXKHt6QFC5ESqMahUrdaOtREdUzRFkSgBx3ObrVkJFvR+bhgrgkNR3Zi2/vv4/33i9GiTtPMkIa5iwqRHNWrFkyOKOpgjTYh5HZh9D396Ghpw5nAffxDvPfee9KwD3X+ELxdrjEDwrLJ7ZcdVivQJR0fmmYnee3MWNO4X1ruUWOdz5O6Ls7WY0FERESzAoPCREREZwtzHhbNNaPt2GE0imP8Ez9BHW/52/jHMy9gW5VPLRlK7oGXnZOI7op92FdegzqHA45mF8Rxgomjio2GDV1wTbkjrR02qw4+txuhya77FJuoDWcKX6d07KTjV+vwIWQA3BMEcCe1X3obLKbQhMukKTjpa2eGmqb90nqPGut8ntR1cbYeCyIiIpoVmD6CiEijidJHyD+Xzlm9AQvidWpJWMhXjZ1vH0HnoC+koiggefE6nGOvw/ZtZdJXypkV1DoZTB/x0VB6AK+4FhuyW/DOi9tGDfiOVUcUY7Fi4xWYFx0+d0OhRux5djPKg6MtIwNrb1sLw75n8W55UC3VRhQNmLfhJqxIHnqNyEKhEOp3PYP3KsI/wRaNiShatgT5KXGwRATQ1Xwce3ceRGO3us3Iwrpb1yBy3z/xdnlAKUN0IdZftRTGsi14bV+zEgQSIxMwf9lSzE2NhSVShKelEod27keNN/zxRxTysf7W5ejeuw2+zGWYk2BCr7seR3dsR1lHeFu00NqGhoRCrFhaiLR4MyIRgr+rEaUfbkNxi/a2jF5wJa6Z1453/rEDjep9RUQCzr1uAzKb3sWm7Q4lUC7E5OHcVUuQFaNHV81ulASXY7WtGM+/WYzuwfej6IW4+pq5aN7yHPY0D91erfsl2LKxbMUiZCVYoPPW4+CBDhSunYP611/A/o6hdU+GKGTh3DWxaDp4GLUu7cdnuCHHPeMc5CWaEXQ7cGTbDpQ7B5arpQ21HNOTPe7Tee1oofW6mPD6shThqqsXoffAy9hc6lXKIrPW4GNrktC49RVsqwlp3i+txrtHTepeN8Z1MaljMVH7iJEouuJGLHLtwc5ANs7Ji4ep1436ozuw/Vibcg8jIiIiOlX0sbGxD6rviYhoHBEREcqr3+9XXoeTvwx2tdXDUVON6mppaPDAnBCLUHMFTjR7EJIfaKMS4uZh+Xwz6vcfRL1/5BfLM9mtl2YjM9mijo3tmS3V6A5Z0NIy6cQDp1VmXiLqKlrVsZkrZMrH6jVZ6D66FQdbRv8p81h1QiER3e5W1EvnbksoAWnmdhw7UgfPoHNWJ+ihFwTobZmYXxgL9/FjaPQKEKQyHYIISf8/EekSQY+3HY211WjXJyPFUI+92w+iXL5eqitQ2+iEP6iDqIvB4vUbsCi6A+XFxahoDiA2dz7yrS6UVncq11LIkoGF8+LgKj0ER1d4nkWXXIBs/xG8va0Sfp0gldml5VyGxdZOHC8pxokGH6KzCjEvuReVx5sRkJcTk40l+VZERhjRVVuO441+2DLykBvXg4rjLegd1Abj0dKGoj4La65cifjOEuzbXyztdzN0yfNQlCmgprQB3RrX1WNKwoJcGzrKj6NNai9ZRPYynJ+rQ+n2PWjukfZdSMHqKy5Aek8VDh86jk5rDgqTY6HvKMchR5cyT59QYh6WZQM1B070L6+Ppv0SkrDysnXIFRpw7FAJqjvNyJmfBbvJjep9FWgPadsvLUIRJiTPWYxzFs9HuiUIV2s7vJP724QifNxtMEZEwllXJp0bXkSl5SM/1o9y6XoPSvunpQ21HNPpOO7Tee1ooeW60HR9dbchEDsP89J1qDtWD29ULi64aAEMJ7bi3ZJOiNJ9Q8t+aaHlHqXlfO4z1nWh/VhoaJ9QHPKW5CHapIO+sxblJxrgj85AXp4dvvJKtIva9p2IiIhoKvjnZyKiaSJ36BG7vfB6vejqNiFrwVxEtRzCh0eaEJQnqkTYUFCUBV1dCUrbpxDNIBpG7gGcvKAIKT014+YSHquOIPSgoyH8k+muUKScCBaDfzAtijYsvvIW3Hrrrbj16sWI0xkx50LpvTR+yy03YXWGto8TgiCiq9mB2tpa+OT1dDbhuPReXq/D0YjOnvBy9GnzMD+mE4fefh9Hjlejumwv9lV5ERmfALtSQ2KzIhpdkH/ZrfS8P+cCLLC2YN/Ww3CqH2/0mQtRFNOGA2+/h8Pl0nLKD2B7cSuExCQkKDWkOnYrzNJV2XjoA+wrq1LWdaDKDyE6GhP/aWPARG2oSE1HuqEFx3YcRU1jM5obq7Dvg3fwwYEajP6nptGJHXIeZQtsMeq4GIW5c9Oha5DuKerP2E1z5iM7sh5739mF0qoqFO+qgUfaoa4uZ7jCIBarDfreLrhGyQqhZb8iMguQZ27HwXe24WhFNSpKdqC0w4AIv7RMtRO3VkpgTz94EKCTT16VEGjCvjdfxL8+KIUnYTEuve5qrFuSDZt+cr1Jw8c9AMe+D3CgLHxu7KtwQ7DbpDt0mKY21HJMp+G4T+u1o4GW60LL9SVvd1XxcbituShItaJw9Uqkeo9i274GpRes1v2aiNZ7lKbrVDXWdaH5WGhoH0TYEW0CemqlaftLUV1djj0Hq+AXLDBHqXWIiIiIThFtn7SIiEgzEdEoWLUMGaE6FJe1oGdwQFgErPkLkB3ZhGPHmmdcLlQ6Q5nzsXCuGS0lh8bJJTxxHfln0bZoA4JuN3xDzk0PTnz4NrZs2YIPyp0I9TqwT3ovj7/99hYcrJ9cQA7SNWK1CvB3jZ6LOD45GRHuetQO7dAKhET0/RnFbItGhOiBxx8BU9oKnF8QifoPd6DcO7C85NRk6J0NcHQbwgFGQxRS4qKl3enqDwTZrFbo/PWoaRr4A43c6x893ZMK1PYZuw0lwZB0f4hH/rnnoDAvS9oWC3Rdjah1dAy5T0zI5YRTNMFqN4TH4+ehILEHFSWVCKjLSUpIhNDWKO27MirRSf+JcLmGN6rcBnKkc+zgmGy8/UpIlNblcsDhCY/LPTNF+dfxbhdGhqDHJopGzFuvBvbU4ZZbLsIcdTf7yEE5j+Motv7rRby+2wEhexWuvGo5YgcFjyeiHHdfParbBv1hTu6U2RtEXxxbUxtqOabTddwVJ3/taKHlutByfSnailHaEIns1euxJKED+7ceRkdo+LaPv18Tm9w9atzrVDXxdTH+NmtqH7sVVmnbHdXt8okdLpNeQqIfPZP8gwoRERHRZE3lUxcREY1HZ4I+4IQbqVh28QVYmGJUJ0gs2ViYF4W28mI0BQUYss7FFevmwTaJYAbRYEoP4IVyD+BqHCkbp5fwBHXCYmC1ynGQoWEQQQiiq6UJTU1N6EYk4G5FbUODMt7U1ArPKPk4x2dDdLT8AKeRIUNR1MFmNUN0udAX15LLoi0miNJ29W29XQ5a6TOx5uMfx02X5MPccgS7KtWopEQOMMZYjdDFLcG1fUHGmzfi/CwRlQdK+nN8K4EflxN9z4mS12WNltfl7l//5IzehoqGw/iwvBW65AIsXbUGl1xxHW66bi2yoiZ7/bfDKTWEzRorba+Pv2tdAAAsy0lEQVSA7Pm5MLeXorgxHMATRTNsNj26XZ39QWLY7bDCi65heXjl+W3q/g603mhG3y95frs8v8vdf2z6Am69Xe4huYsnFkDNnnBgr294e8seVI8VHIswwGjQIRQMIuTzTiqIHz7u7v6gtXyN2KWykLR/8h5qbkMtx3Tajrvs5K8dLSa6LrReX2E9aOnsgsFigb98L8pGvbDG3i8tJn+PGuc6lWi7LsY7FtraR2+Lhlk645yDNkNo2otNz2xG6aA/cBERERGdCvy0QUQ0zYRQK0p378aOD97F9vIepC2YiwSI0pfESGQV5cPuPI7imqn0QSQahTkfi/LlHsCHx+0lPGEdWYQV0aYQ3O7Rw0f9gZJBAcApMdlgiwjC0zVKvgLYYI3WwdvlkiM9/WV2qwCf26n0ru/fjubD2PzWW9gq50xISEeWWa2usCHaCrhObOsPMG5+6zW8/PzL2FkTXq+cdsFq1aNHWld/4A922Kw6eORg0ZDAlkbjtKEAD6r3vINXN/0DzzyzCa+8XYxOUxYKModsuAZuuJwizFYbIixzUJgpoK6kFN5B7WVVOiQObENEjBVRIRdcI2JgUl2pnZS64+3vmPtlV9q5S2pDuYdwmBpwGyVVxXiUHsDt4cBe/9A8+NioDLHIXng+rtp4DdYVRKOrbCte3lIyZo/P4fqOe7e0fQOpfaJhs0nnmLQf4V9waGtDLcd0+o675CSvHS20XRcTX199IpKXYU1hJJqbPbBm5kpnxyjB8HH3SzvN96gJ7nWarosJjoWW9rFKKxH8XXCPngaeiIiI6JTS9umQiIgmTf4e2dXUAo9B+nIpdxYW4pGUCNSfqNYcvCAaT18P4GQNvYTHq9PPJv+U2Ycu11g/NLerwb7BAcApsMl5ST0YPR6jg16vvu1jy0CarQdN9e1qQXg7fB0NaG5pQfWho6gXUzB/QUJ4hxU65UOO39nSH2BsbO1GZEISYiL76oQDf+4hUT5p2Ra5bGo9FsdqQxGxyF++HLmx6rpFHzoam+AUQ+gNTi4iJLd9e6cLOqsNmYUFSPSdQHHN4O60RkRGAHoh/HBMuddiXnYKdN1Sm49YlRVms3RMPSOixUONeW5EQH4GZyjY16bSepOykGYaPVXFyZAf3JW78hJcd8NlWJYeQt2e1/H8S+9gb3kzfCPSEYwnfNwx+OFi0RlItQbR3NymFkzchlqO6XQed8VJXztaaLkutFxf0u4a0rFqTQEiqnbinZ3H0WmZg0XZw/KByMbdr8nQeI+a8F6n4bqY4FhoaR+70tADPdaJiIiITqfJfIImIqJxiGIcCtesRVGiWiCLiEQEguiLl+hgQObKK3HlleFh/YL48ASiqejvATx+LuHx6ojGWKSmpyNdGjKzExCFXkTYMpXx9ETLkId8QW9DtDkE9+DfOk+FkmPVjMTs3PB60lMQY+hbjwutbQFE5y3HsrnZyM5fiAsvWghrWwlKGtU6grQdUYDT1REe767EkeNuRM9ZiOz+bC1taGrtRcL8c7EkPwtZOYVYcfHl2LA6D5a+OJDRBmukCLd7UPAyOho2wQ+3S3vATlMbikYk5hXgnKWLkZWShKSUTMxfvQzZukbU1E4+eWiXywkxKgOLcqPRfOwYOoZ8pHOhywvY56/BeecsxbkXb8BcowvByBQULMkZ1lMzgF5pV2PT5iM7I7wPfdus7dyQf/ouwj53udTO0vEqOAdrl2UgcpRUFSfNmorMqE4Uv/MyNr22DUdqBvf0nQTluEv7HVeEcwuzkZW3AGsuXoy4ruMod/SdHBraUMsxnebjftLXjhaarouJry+5x3HB+auRFSjDtt0OBFxlKG8UkL5g/siUSePu1ySMc4+a1L1unOui37jbrKV9zLDa9OhxO0f2hiciIiI6DfSxsbEPqu+JiGgcEXJ3OInfP3rqh1CoB8akPMxNsaDb54cYGYu8wjzE99TjWGU7ekJ+dLQ0ob62VnlquTw0BGxIj/ajtqoF3YN7rZ3Bbr00G5nJFnVsbM9sqUZ3yIKWlha1ZGbKzEtEXUWrOjZzyLGJ5HMuwOLoeuzafgKe0MjzR0udiLzzcPX5C5GTk4OcpGgIOhPis6T30nimsR1Hqjr6e1SGbJlYVGhFe3ExGnxTP19DXhd6rGnIm5uP/NxcZGfHwV9ZhuZunbSqEDpa2xARm4XcOXnITLQg0FyMHTuK0aHmBQ1FS9sxzy5txxE0eOV5dPB09CJp/jykiXUob+5WluNsaoM+Lgd5+XOQkxaLCHc19m/bgzppPcpy4rKxdI4R9YfK0NKjliXlY3m2iJr9FWgTte2jljbUCR60u41IzJqDgrlzkZuTghi04tiuD1HmHByM0kYU7ciZlwmbWI290rF1Dzq2Op0f7S4DEtNTkZoQDV3rYWzbUQshfQ5y00KoP1KLrr5jKqdD8FuRnjcX+XNypO0a2OaIOedr2C8RHR0B2NKk45WTiYTIThyr60VWSgAV+yrROco5N1W67lZUVzeg3RPoPyenIhQvHfc8I058WAlr0TLMz4lHhKsSe7btR4N6bmhpQ4+GY6rTdU3rcT/Za0cLLdfFRNeXnIM4btHFWJvXi6PvfIAq6X6h00nnij8aBfPyYOosQ51bfhph2Hj7NRnj3aMmda8b57rorzPBsZjw/hOKx5xzciE4DuFEyxT+QEBERER0knS5ubkDn8iIiGhMJpNJee3oUHsnjkI0xGJOUSEy420w6Xrg6ahH2VHpi3X/0+uHkh80d2mOC9vfLYbrLOkp9Nx/rsP5iwZ3lx7dDd99D04xCcXSl/eZ7Lz187Fjc4k6NnOIxrlYv3EZhIMvY/Mxr1o6lJY6k6HLvgC3rNZj1z/eQdVYPZOJZjgh70LcujKE7c++i+pJpZ2gmY73KCIiIiLt+GmJiGgaCYEOVB7ciffffhNvbnkX2/aNHRCWBWo+xOvvHztrAsJ0+iQvnK/kCT48+qP8w72EJ6ijhfLgpuR0ZGQXYtWidPQ6quCYQipUopnCbpMTUnfBOVY6WTqj8B5FRERENDWMQhAREZ2BWva+hL+9sBNNY/SGk//OMFEdbZJQtHYd1pxbhJiOQ3h/VyXzX9IZSxRF2KLlJ6a5cZKZsWnG4D2KiIiIaCqYPoKISCMt6SOI6SOIiIiIiIiIZjr+GZ2IiIiIiIiIiIhoFmFQmIiIiIiIiIiIiGgWYVCYiIiIiIiIiIiIaBZhUJiIiIiIiIiIiIhoFmFQmIiIiIiIiIiIiGgW0eXm5obU90RENA6TyaS8+v1+5ZVG9/QDq7B6Qbw6NrbbHtyJZp8dlZWVasnMtHRNDg5sq1LHiIiIiIiIiM587ClMRERERERERERENIswKExEREREREREREQ0i5zxQWEx5xZc98zPcE6OqJYQERERERERERER0VjYU5iIiIiIiIiIiIhoFmFQmIiIiIiIiIiIiGgWET75q1sQIw6kXhDFLJzzq//Dp579qzJ88lvnq1MGpWpYJ78O1Lnu37LUaQNlF68bPZ1DzL/9DJ8clO5BFM/HxdJ8A8s4ueUTERERERERERER0diEw7ga137nAmVEDggv/82PsajhMTxxyx34803fw+HUu4cEhoEULLoeeO/m25U6L25qQMzGn+DOrw0ty/zSfcgdFGzu0/n0t7B1r7SMW8LrnPOdu5G59zG8+HSNMn6yyyciIiIiIiIiIiKisQl7f/MvOJdvDPfcvegGLErbh63/9UF4olCDvS/sA5afOyQAW/vC39EphDNPtG/fg85QaESZE2mIyVNGRzjxrLrOdbdg8fKB9fU52eUTERERERERERER0egEVNTBhRTEZKkl9fXoUN8qauqHBWAb0dnXqbffaGVjE6qexXsvAou/fA1cv/0lKtVgb9jJL5+IiIjoVBBFEQZBJ79RSz5a8mbo9AZlu840osGI1Rfn4JqsM2/bPypiVjLuvjgGqQa2GRERERGdnMHR2NMqNiNFec1cHU4jQURERB89UczB6tVfwiUpRrXkzHbFZZfj6MZs2KcpaJq1eDV23H0Z/rw4Si05hRJuwtovb8cnflKBux6uwJ0PPYLMYfthXfOUNH0/rlyTrZaEJV27XZmnb/jUHderU0aSj3n2pd9GYU60WnLq2Qpz8X+/vhhP3ZmJIotaeJpN97lxWljsuPnO8/DOr1fi7kK9WkhERERENHkC8jJgwz5UvauWpK1A7uC0DFlpsKMenRXq+DQQ130da5fvw/s3PYra5XfzoXFEREQzhWklLlt9C+ZF+dQCGiwYDKJbDMIXDKklp4YoGpBzxUOYE3UEB/5xDzY/8UVsefoPaFan9+v1ozfQjd7eXrUgrHPXd5V5Nj/xVRytUwvHlIP0C76AOVmnKSicmo3//U4hCmpLcNM97+Hhko+sj8IZRygpw8X3bMMva224/zsrcFcqP0MTERER0dQIy792Nex7PwyncHj3eRyuH3gInPLgueuXAX3Tp4Eono9Lv7QMtUraiO3Y8tt9fGgcEZ0VRFGH6JQc5ObmDhlyMuMQqd7jjPFZI6enx8DAeyDNFPHZSEQ9GtvVcRqioWQv1jy2GfeUdKslp0oybLEm+E/8DUcPvI7a4jdQe+wwuod9HvPs/gz+/oPl2LK7QS0J62l6T5mn+shbcHrVwhlAFAXceEcBlnVW4Z5fVGK/hwHhyRI8Ljz2i734qzMO996ejmj++0FEREREUyAsangM//ez7eER+cFyX/s+DqfejU89+1fc9c+fYPD0qZADy+f86v9w3b+FkxbP+c7dyKz/F/b39UxWAtHLsPY7TCNBRGe6IDzNtaipqQkPjlZ4ekUEvF4E1BqyoLt5oI401Da6hkwnmgxRjMHHbt6Jx6+4Easu/gN+/cX38cfPP42vnTN/6B8bTEtx1WW/xy8+twVPfPlN/PyG+7HaFv75uSjacOVNO/H0vbvw94/fjHhdHm66a7cy/tTXd+JbC0zheqbb8ODXt+Bu+eG0KjHmc3j466/izvRwmZbtEQ034Htf/wBfW3ox7rjpeTz+pbfx29v/C1cmTC5lhfyHmKycAvzuloux8wuXY9vt5+MX58QgbkSQTI/Vq1bh9c9ejt13rsVvV8QNqSOKkbhw5VL8444N2Hv3Zdh6+2r85yLbkGBb8tLVKP7Sx/qHt9fGqFMGhNMR5OHylSvHXNdERERCiIyGwWSBnLoYghF6aTw8RMobq9Qzr/vnkPQQN1+7SimfDHHhI/jkf1XgM//9JxRGSfv4sYGUE3d+7d7+/Zfbx7r4+9hw73b824+O4tb7/orli7KhG9yGi3+LT/3XX1E07xu44lsHcMcPd2Hjnd9AsmXYvhuScdViPXa/eQIHAiMDwvIxzZkzD49//GLsuvtybL1tJb6VZ4a+f1tM+Oz1l+PgLfkolForXGbBl2++AvtuzEVOf73Td25oOe5yz+9Vy5fhxU9dhn2fvQh/XpWML2+8Ch+uT1RrhLd5vH0fTAi48Ohb7bAsScUGg1o4iLy+lC+8jk+/dhg3feG8IceKiIiIiEimrynuelB9r9DpnGh84wUc/Ic6bKtVp0jTOo+i9J9vobFT/pYSNlFZ3/JKDzuVaZ3bpGW+cRR+Xbh+//qk9Uxp+aNMJyI6FSIiIpTX4T/T7qOT72uhkPS/EIKIRFxSAoz+FtS3eBFSe/dFRNlhQRc6PQGlXt8gzaxMPxvceFEGMpImzrf63Lt18PSa0NnZqZbMTClZMWisnbnbGAoV4cILPoZEUyRMLVuwpXgXnPa1uLBoDtoPv4LKXh1EXT5uuPkx3BBzAu/s/hverW5C0tyP46pMPz44fAAeCPC6j+HI8c2o1C/DosgdeOL132NL6WbsKH0Vu2tOwCktJ5R8FW5dEIWD25/Hse7wORtKvQ7/Ng/YvfUlHJfraNieUMJluHlRFiwRdjQe34T3qzuRMucqrE3uwjtHDvZ/RphIZHIhnrwmF7GNVfjt3lrs80XhYyvnYnVPPTY1h6/T/Dn5uDwuCna04NkD9TiGWFy7JAuZbTV4szOcAiJtyQo8eW4U9h0ow5+ONuCAx4KrVs9BfksNtjjDdQLeLhTXNeK18jaIyUlIc9biiRq/Mq3PiHXppHUtHrquiYRS78cN3/0jVl1yO1JtgCHtY1hyyReVYfGaXLS9/SpcUvuI7iq0ntiCioO7EMq8BNGtz6G41KEuZUAoFIHE5V9GRvBNHDx0TC0NC/ma4KzbjsrDlTAVrETwwH9g+zsvSuOvo+rYDrS1tiIkrUuf8+/42F03Qzj2JxzY9io69Kuw4LKbEHn8aTSo7RNK/hjOWVSAqEgPanb9BSfqgkhcdifybUdRfORE/z0ulJ2Gey83Y9ezx7G1Y+RxNqbMw1NXZ0ofUCvw2P4GHI+Iw+2rshBTW4NtHnkxvdjfHML6Ffk4tzt8nNMWLcXP5gXx51cP4U1/eJmn89zQctyteYvw5EVJcJ4owyOHWtGVloXrE6NgdNXj8YpwV+6J9n04dygat2yIQ+uHVdg27HNwKGRE0se+hsI8K4Tm93Do/VLlWBIRERER9eFv9oiIppkIA2JTUmCFC63tvv6AcB+9NQXZ2dnIycpEenIczHr24KKTYMhGchTgOf7/8MgH/8C20ufwxPbN6NQnIV59gJdh7qdxTUIZ/vH8/fjH4Vex7fBv8bu9h6BPXYy50nRB8KOh7l3sPv4u2kNWhFr34J3jb2NvxbvSsB3V/vA5bI7NgD1Yj0aXMqpIiE2DyV+H+r4UBVq2Jz4DcejG0W3/jicP/AtbD/03/l7aAr09DcnhKposm5eOHFcVvvFaGf55vBFP7tiHn50IYeWc5KE9QvUd+OPrUp0yBx596yCecxmwKnugp2/r0X249M8f4Nv76/FebQtePViCF1uNWJ1jU2sAPa5ObK5qwZsVLajuUQtHM3hdbx7E88PWNaHWv+P9x+/Aa3/4OkqbAX/Jz6T38vgdeP3Pj6BJrSa2f6imh9gG5xQzWQjufag+9BIqD+yGS2qu7qbNyrgylJVBVO9dqSuvh83xB7z97G9x4sA/cOjZu3GkPhcF516oTB/M8fa9OLz3RVS8/21s312LqDkXSMd6EHMEotADV5c6Psx5CzKR2XICX9l8As8fd+CxzXvxpxYLNi5MUGsAwdYK/PCAF8vPnY+rbEn49rkJaD50BL9vGTjmp/PcUExw3JfnJiGmrQLf3FKBTcfr8Mgbpdg27O8EWvZ9CHcP3NDDYlbHBxEEH0785EI8edc6PP3Tl/qPJRERERFRH35CJCKadnroRD/8iEZKVjoSzANPiO/ucMDhcKC+vh6OxlZ4dBYkJcUypzBNXXwmknQNOFBeIkeCwmXSixjoQJcaLFyYvQzG1l3Y77fCZLDAZExHUXIq4KrH0Ey0GUixG9DpqkFglCBSRmy6NE8N6gedrmmxGYCzDv19VDVsT1pMBgTPTuxyDIpmygEyvxvh3xVNTL5kMqwmad1dkNakEIQQXn/zLSzYVI32wdvf6cKxoPoeXah2AXbTwG/uuyPt+OyVF2H33Vdi9+evxIefvwRfSdZJdSaXzkIxbF1Vw9Y1ESFQjdYT21Bfvl+O+SHkPoZGaVwZKsvQc5qDe3JqBmtsDLpbquE32ZQ0FgaTE84WJ4yxmcNSG9TA3TQw7mqrRq8hGuHkI32GRUIHkfMNZ0Qb4O70wG2MQLRBgM0YQHVnAPboKFjUdclNcGDXITzbnYL7Ny7EpYEaPLSzo/+c/UjOjXGOu7w9iVHS+y7fwDM6RA8qB53sWvd9pLF7/wqiC121deiRlk1ERERENBw/JRIRTTMBfnQ2NaHBUYe6jl5YEmNh7PtCLwYRCATCQ48P7W1u9Bqj5M5zRFMSEZeJ+FAtGtvUAolQ+9/4ym+/gFe7BIhiHDJjY6BL+Sx+8eW38Sd5uOd5fDk/iA+2PTnsQbJZSLEBLR1V6vgAOWiVHpsMsXMgACznd02zxyLgqkGrWjbR9shSY1OBjmrUKGPycgxIiYlH0FnT3xNWC13fpg/Zh9H1x+sQUjLRKuleJKKox40XL8Mn47rwxJYP8dlNO/CZTR/iby1jBy8nMta6zkwG6PSAadn/4JM/OtQ/XLLMDugjMPAnL5m0v4Nilz07Poknf/xNODQcnzA9IqSqtsIV+FAJwIaHXxRGSsdYh8G3SSHkxD+Pe5BiNaO2vAY7hwU+P4pzY9zjPsopMHQp2vd9qKmfp0REREQ0u038SZmIiKZEjkUEPH70CgYYDXKAAdDpBeiUcIEq0Ite6eu+wKAwTVFaTDoETx3qR091LclGog2oP/JD/OSfXw4Pz34a9/3vLXi0rEWto4rKRrLJh6bOZrVgsHQkWiOUXsTB/kDbHKTEAI1tx/uDbxNtjygmI9VuQpezGp7+5eQhxS6gub1yRLqV8YT6LqXBkUidDkZ5EWP2rBwuDmsyIlB2uBj/U9aK7Y52bKvthINPf1QFEAoOTWPRn87ixVcwXiaNUfWI0hIjEDVKygM5rNorHTZX1VF8RgnADgyf3doAt1pLJloy8M1FFhTXdyB10TzcMuyBdjPp3JBP6a5uqRENEYjpX7cRCUNSr2vf935RBkRJ/574p5g+hIiIiIhmN+3fvIiIaFyiaERcegbiBv9WWq+TbrSiGqAwwJ6ahWTroAiwIQIR6EVwzIAe0fjS5F63ztqB9A0jCNBL/9p72vfiaO1uZTjc0A57ygpkmYYFx2LTEY8mtHSo40MY5dMVCA10eRSSLsIiWytKak+oJVq2JxepdqCpo0Idl+hzlIeqNXcOKpuAHGirc/sBuxVFapko6nDVZRuw79psaM/iK6JHjtfJjdQnIgYLhiTCnX6mtT/EtY89i/POHyNf7LTpRW9QOs7yX57GDIZKDRCSqugj1fEBguCBu6NTah83Wsq3Kmks6st3wt1tkOaRblyTCOIrGr2oC0UhP3toH2OZIIio6wrALARxuLYVO5QgbDuqegTpLA7158WVe5bfdNF8rPRU4qEXj+BvngTce1Em4tX9m4nnxsHGTgRSc/Cd+TFINZuw+px8bFBzbMu07vtgtpxopIhe1E6mez0RERERkWqSn+SJiGhsPeju0cEaHw+L0QBDpBlxcTYI3T54g/L0ALzSl35jTAJspkgYjGbEStMjuj3wMihMUyCKSUixm+FxVqNrzODcMZQ0eDDnnO/h1oVXYPX823DX9X/A9y+7ConKeTlIMAARCSicfyWW510kDecPChxXo7ypE3HzvoDbii7GivmfxX3XfBwxNf+H19QIsKbtMWchydSNxvZ6tUBiz0KyvgVN7T61QJv9xxyotmfj51fOxU35KfjEectxfx6w63gTOsdsj+E6sLW2B7mLFuOHS1JxzbwcPHjtHBQN6n0pxxozkhOxPicRl+UlIjsSMNrilHF5WGQeK9g6OlGMRM5VdyAtfwUWX7MBguaeq2FyKg9L1uXILLoc2QvXwG4E9LHLlXF5iLcOLE8QgmirLwdybsbylVerdS5BzJCeteXobO5F7OIvo3DJtcheLA252eEdlzTsfgFdc76OyzZ+HnmLrsX8Kx7F5V/8HZbmTiHnsrsZ70mbs+aSLKSOst87jtaiIaMQj16Yi+vyUvBvq5fhzzcux+fSBo5nXP4C3JcdxPNbS3FIdOGRrbXwZc/H9/IHtud0nRtaOY4U4/859Ljq0guw+a6L8ZtcH3b15VxRadn3PvIfIT9+USKE8hZsGbUbsVSn8Lu47a0KXHtDolpCRERERDRA66diIiKagPwgI3drEzp6IhGbnIa0lHiYRSeaml3Kz+3lOIS/sxGtHh2siSlIS45HVEia3hSeTjR5OUr6huaOvuy8I8k9Pbdt/j5ebknE2rXfwxcuvA0Fgc343bMPYW9g2HnX+ByeO9aArOUP4hvXPYz7rv0qVqo93wUhgN3v/gCb6m1Yc+EPcfcFl8FS+z/46St/R3P/x4mJtwdxWUhEPRrb1XFZXCaSpLKGwWUa+BvL8MXXq1ATk437L12CrxREYv/OD3H/Ia9aY2JyD81X3t+D39ULuOjcJXhgdTriK8rxnEutoJCmrVqJ//nYudKwGB+z6xCbM18dPxefz1SraSQIPWjcsxNefxscu/eO2gt0fFHIvOJRrP+UPPwIc+IBc9H96vijWDxHraZqf+c72H3CivzrfqNMv/STv0BRujpRIgiNOPavh+EQLsW5H/81LvnEr3Hxhov78wX3Vj6Mt/7+EnrzP4PVt/wUy5Ymom3z5/DOtlq1hnaC0I0nnq1BW0EBfnd7HOIwNDDsbyjF3W/WwZ8xB9+7bAm+WmDE0Q93476D4T8YiIYEfHdtGnQnjuIX1eG/aniqS/DLE8Dla+fjQkN4eafv3NBGEN34w6Z3cNFTW/GJZ97G+ucr+nNq95lo3/uIMGDN7efgawXdeObZajSMcf7oc+fAiga0lLIrMRERERGNpMvNzeUTKoiINDCZwtExv9+vvNLonn5gFVYviFfHxnbbgzvR7LOjsrJSLZmZlq7JwYFtIx+8RkRTI3cQnn/ZUjx+ZwosDQ345SP78VTN7PrDmChG4zt3rMOGqm3YsM2plk5MzMrAo18uxGVpvXjrz3vwlbfcY/5RMeHzW3Dj9Sfw1tWfRUVwdrUvEREREU2MnxCJiIiI6LSRY5ilmw/g8m/uxePHAOug3Lpns7j4BDXlSDLuuHAhbrD7sbNmkt2OLREIlp7Al775Pu7Z4hkzICznXY7PygSqDqOZD00kIiIiolEwKExEREREp52voQWP/fEgHiuZHR9HFyxeqqQb+c1Vy/CVXAFbP9iLh9UUGFoJJVX46h+r8GbDRD/0K0BMRgS85QfHyTdORERERLMZ00cQEWnE9BHaMH0EERERERER0czGrgNEREREREREREREswiDwkRERERERERERESzCIPCRERERERERERERLMIg8JEREREREREREREswiDwkREROPgQ+aIiIiIiIjobMOgMBEREREREREREdEswqAwERERERERERER0SzCoDARERERERERERHRLMKgMBEREREREREREdEswqAwERERERERERER0SzCoDARERERERERERHRLMKgMBEREREREREREdEsorvvvvtC6nt0lW7GW8Vu5b0oWrHw8ktRGK1TxocLheqx5/kdqBMG4srWog1YXxg9ZDmy8ZYVqt+NTbvq1DGprrUIl19aAAsaRixfFDNw3g0rkOopw5Y3jsAJ+6S3cTqJGasgbc4pXQcRzRwmk0l59fv9yiuN7ukHVmH1gnh1bHS+bhE3PHgYPWIkOjo60NnZqU6Z+XQGPYRgAEGR930iIiIiIiI6M+lyc3OVoHBfMNa153nsqhP6A7npji1DArxj6atvdTUgNXVooHSsZfWVFyAc5HVL9QeCwh6UbXkDxe5BQeG+acOCwlq3cboxKEw0uzAorM1EQeEDJ7x46MlatLm64fF4YbPZ0NbWBrf79N/Hp2LRv38G918VgfYjZfjHT9/F9ur+v60SERERERERnRH6I5mCuxglDUBqepZaMklZRSiwNMBR7IYHqdCyGEFw48gbe9BgKUDRsPoNDS6kZ9rVsTB7ZjpcDdJGEhHRGUfuHfzL5xvwjT9Uoa7JCYejHu3t7UpAOD4+HlarVa05s1U8+Qp++eBOHI+bh898dzFiRFGdQkRERERERHRmmLburVnpqYDHDaezFg6P9uCyINShuMwzsr7DAVd6Jqzql225V3FmOjAdHcnkHscbNm5AUYb8uhHXX3+9MmwosqrTBspWZQx82ZfTV6xSp22U5l9oUycQEdG45N7Bd/78BF7d2YbGxia0trZK99Tw/VXuIXwmBYY9NY04uPkgXn67ExEpdoyfKIOIiIiIiIho5ukPCsupEFam6dDgqFFLtJODpUpM2FELt+BGbTgqjAyNvaecLhdgs/UHgMOccMOK/r7C9kykw4Faqer0sKBgPrDz+efxwgsvYHNpF6IL1+OG1UPLUlecp+xHXz5jW9kWZdrzz5fAWiDtNBGRShR1iE7JQW5u7pAhJzMOkcPuh6JgRUp2BuKMasFZzNHWg/sfr4aj2YWqmjr4fD51yoC+wHBCQgKioqLU0pktJsECtLjQoo4TERERERERnSmEvh6xN65MQ/3u55R8woPJgdK+OoMHuVdtv6x0pKIBJUecyqiz1qE5hUQ/y6AAsMKJWodtYBl2aX2OWql0JE3bOIqGknAeY5m8zV2h0IgyD2ywyRs2bB/7ejgTEQ0IwtNci5qamvDgaIWnV0TA60VArSETRQHWhBjoOpvR7tP2x7MzWXp8JG6+wA4xpOvvHTwaOTAs9yCWcwzPdKIYidQ0I/z1TriYU56IiIiIiIjOMMJzm0uVYGhX6eYRAWGZXC73jB0+DH6wm5I6osEx8LC1SaaQUMipJ9S3feQexH3LkNfhco0WEta2jSN54B6xuNHKwuxykGLYNoaDxkREYYJ0DwyJQQSDQQTECNjjY2HwNqO+xYvQoMChYI5FjOBEs9Mvz6SWnt1sUdr2s7e3V30309kQkwB0Np0ZD8cjIiIiIiIiGkyQHzD3xp4Gpbft4Py5WvWljtClrezvoXvjjetRGK3TnEJCCSq7XP09dPvVONCgpJWQ19GAKWS2ICI67UQYEJuSAitcaG33DQkIy9PsCRYIEXakZ+ciMzUBVqN0v6QzjAsNNQHELsxGQaoJJosBJpN0nDX8m0dERERERET0UVMiFULdLuyuD/Xnz50M+8L5SlqF3c89N6SXrtwDWUsKib6g8mi5jOUUDQ5XOjIXpiN1cE/kj4CS93h4igu7FRb1LRHRAD10oh9+RCMlKx0JZr1aLk2xxMKu86G9qQ61NfVo7TEiPjkRZmF2BROH512WhzOJIPTg3f98C7sTVuL7z38Wf9j8Bfz+7xegQJ1ORERERERENJP1R1lrisuUIO6K87SnfBBFKzLTLUNTR/TRkEJCnn/h5SuQ6ilD8Ri9gJ1uoLAwDZ6x8jqcLnKv5UHtozx4bgUfNEdEIwnwo7OpSbo11qGuoxeWxFgYRfmBlXrYYszwtbXAEwghFArA09YGN6JgjRoIHM8GlZWVI4YzifxQwaX3XIjVoQo89YOX8PBXXsDD/3EA/EELERERERERnQn6I7lyGomdZR4lDcTgB7SN9RC3jRs3YEFaJsIx4dF6+bpRq0SF52OB+syg4cuS00ykO7Zg01vFI1NHqMIPgOuCo3bsoPB421hklQMxVhRt2Djhg+fGI/da3vH8HjSkrlCWfcMN8+Eua1CnEhGNJN/WAh4/egUDjAa5wASTIYhA76BewWIAgR5Arx/9HkgzVRyKFlvQ8t5evLG5Bkf3OFB8yAX/R/iLFiIiIiIiIiKtdLm5uSH1PRERjcNkMimvfr9feR1OFI1IyEwE2urQrlYRI2OQnWZEZ3UDnCErUrITpOk1aO4K33pFmJGclSSVVaPlLHly5dMPrMLqBfHqWNjf3m7EI5vq0djYqJaMzmw2w263T1jvoyaKZlz7p0/jyqqX8aUfs38wERERERERnVnYpYmIaNr0oLtHB2t8PCxGAwyRZsTF2SB0++ANSpNFL1xeEVGxyYgxRyrTY5LjERXqgstzducUtkYZkBIfhduvyO8fMlPsSExMVALBfUNkZCSEM6C3rSD40Fjfi+i0GJj5cDkiIiIiIiI6wzAoTEQ0TQQhBHdrEzp6IhGbnIa0lHiYRSeaml0ICoIy3dvSiFZvCJbEVKSlJsIKL5rr29B9lt+OLeYIGAx6dAWM/YPZYkN0dLTSM7hviIqKUueY+Zob3UCSFcnqOBEREREREdGZgukjiIg0mih9BIWNlj5iNLc9uBPNPvsZ95A5nUEPS1IiLvvBdbjOsg/f+sQuNDGXMBEREREREZ1B+C2WiIhoEhZ+80787p834ZqcdrzyyCEGhImIiIiIiOiMw2+yREREk1Dx5Cv4yeeexFeveQbPftitlhIRERERERGdORgUJiIimgRPTSNKj3TCHeA/oURERERERHRm4jdaIiIiIiIiIiIiolmEQWEiIiIiIiIiIiKiWYRBYSIiIiIiIiIiIqJZhEFhIiIiIiIiIiIiolmEQWEiIiIiIiIiIiKiWYRBYSIiIiIiIiIiIqJZhEFhIiIiIiIiIiIiolmEQWEiIiIiIiIiIiKiWYRBYSIiIiIiIiIiIqJZhEFhIiIiIiIiIiIiolmEQWEiIiIiIiIiIiKiWYRBYSIiIiIiIiIiIqJZhEFhIiIiIiIiIiIiolmEQWEiIiIiIiIiIiKiWYRBYSIiIiIiIiIiIqJZhEFhIiIiIiIiIiIiolmEQWEiomkiijpEp+QgNzd3yJCTGYdIUZSmGxCXMXK6UifBrC6FiIiIiIiIiOjUmlFBYdFahA0bN6DIKqolRERnkiA8zbWoqakJD45WeHpFBLxeBNQaMn+HY6BOTSPcvSEEenvVqUREREREREREp9aMCgoL7mK8tektFLvZgZmIzjyCICAkBhEMBhEQI2CPj4XB24z6Fi9C0jRARMDvR3d3QKmjDBEWRAl+uFzd4YUQEREREREREZ1ijL4SEU0zEQbEpqTAChda231qQFgOGgfhbm1Euy+kjMvpJix2C3S+LnSxozARERERERERnSa6++67LxSq341Nu+rUoqHklA6XX1qAaJ1OLQHqdz+HXXXhIIcoWrHw8ktRGB2eLi0Me57fgTpBUOe1wlFmQ2FhtFS3CQ2eJNjrt+CtYrdSX2Yt2oBLC1zYvcWNokvT4djyhtJbeMSyh23neOsmIppuJpNJefX7/crrWESYEJdsh1EwwBQZgqe5Ea2+oDp1gChYkZYZi0BTFdr8Z8996+kHVmH1gnh1bGy3PbgTzT47Kisr1RIiIiIiIiIiOh302RH1D24pGQjQDhYO6spB2n9h68FSHDt2DMUOAQsuuACJXcWo7bQpQdkC1x5s2vyhMt0hFOGCc8xwHG9CtykJ+Xk5SO05pEwvLa2Fy5SJwnSdMr1Hp1MCu3PPKYSp6kPsc9ml+ja4K0+gyT902cXFXYg5dwUypPU6XOH5xlu3vGwioukUERGhvPZOkP9Xh174PR64XS54EIWEeCP8HV0IDrsvRdgTEW/woq3VO2LamezGizKQkRSljo3tuXfr4Ok1obOzUy0hIiIiIiIiotNB6OvxOzYXXE71rSSc93dTuKdwVhEKLA3Ys6NGnQo4j5SgwVKAoiy1QNLgGDS91gGPJR2ZdrXAnol0iweO2kErkanlZcXheQWhDrv61ivTuG4ioo+K/KOFgMePXsEAo0EtVIkwIsZqgF+6wfbw1w1EREREREREdNoA/x8JsILoyDDfdgAAAABJRU5ErkJggg==;" vertex="1" parent="1">
          <mxGeometry x="20" y="160" width="773.63" height="363" as="geometry" />
        </mxCell>
        <mxCell id="_W-WZNdu4DOHJXc050we-2" value="" style="ellipse;html=1;shape=startState;fillColor=#000000;strokeColor=#ff0000;" vertex="1" parent="1">
          <mxGeometry x="220" y="290" width="20" height="20" as="geometry" />
        </mxCell>
        <mxCell id="_W-WZNdu4DOHJXc050we-3" value="" style="edgeStyle=orthogonalEdgeStyle;html=1;verticalAlign=bottom;endArrow=open;endSize=8;strokeColor=#ff0000;rounded=0;entryX=1.004;entryY=0.533;entryDx=0;entryDy=0;entryPerimeter=0;" edge="1" source="_W-WZNdu4DOHJXc050we-2" parent="1" target="_W-WZNdu4DOHJXc050we-4">
          <mxGeometry relative="1" as="geometry">
            <mxPoint x="240" y="570" as="targetPoint" />
            <Array as="points" />
          </mxGeometry>
        </mxCell>
        <mxCell id="_W-WZNdu4DOHJXc050we-4" value="Filter trong Spring Cloud Gateway" style="text;html=1;align=center;verticalAlign=middle;resizable=0;points=[];autosize=1;strokeColor=none;fillColor=none;" vertex="1" parent="1">
          <mxGeometry y="550" width="200" height="30" as="geometry" />
        </mxCell>
        <mxCell id="_W-WZNdu4DOHJXc050we-5" value="" style="ellipse;html=1;shape=startState;fillColor=#000000;strokeColor=#ff0000;" vertex="1" parent="1">
          <mxGeometry x="270" y="331.5" width="20" height="20" as="geometry" />
        </mxCell>
        <mxCell id="_W-WZNdu4DOHJXc050we-7" value="" style="edgeStyle=orthogonalEdgeStyle;html=1;verticalAlign=bottom;endArrow=open;endSize=8;strokeColor=#ff0000;rounded=0;exitX=0.336;exitY=0.523;exitDx=0;exitDy=0;exitPerimeter=0;entryX=0.757;entryY=-0.007;entryDx=0;entryDy=0;entryPerimeter=0;" edge="1" parent="1">
          <mxGeometry relative="1" as="geometry">
            <mxPoint x="248.47000000000008" y="580" as="targetPoint" />
            <mxPoint x="269.99967999999996" y="340.059" as="sourcePoint" />
            <Array as="points" />
          </mxGeometry>
        </mxCell>
        <mxCell id="_W-WZNdu4DOHJXc050we-8" value="Lấy token từ header" style="text;html=1;align=center;verticalAlign=middle;resizable=0;points=[];autosize=1;strokeColor=none;fillColor=none;" vertex="1" parent="1">
          <mxGeometry x="160" y="590" width="130" height="30" as="geometry" />
        </mxCell>
        <mxCell id="_W-WZNdu4DOHJXc050we-11" value="&lt;font style=&quot;font-size: 9px;&quot; color=&quot;#ff3526&quot;&gt;K có thì trả về 401&lt;/font&gt;" style="text;align=center;fontStyle=1;verticalAlign=middle;spacingLeft=3;spacingRight=3;strokeColor=none;rotatable=0;points=[[0,0.5],[1,0.5]];portConstraint=eastwest;html=1;" vertex="1" parent="1">
          <mxGeometry x="610" y="360" width="20" height="20" as="geometry" />
        </mxCell>
        <mxCell id="_W-WZNdu4DOHJXc050we-13" value="" style="ellipse;html=1;shape=startState;fillColor=#000000;strokeColor=#ff0000;" vertex="1" parent="1">
          <mxGeometry x="671.53" y="400" width="20" height="20" as="geometry" />
        </mxCell>
        <mxCell id="_W-WZNdu4DOHJXc050we-15" value="" style="edgeStyle=orthogonalEdgeStyle;html=1;verticalAlign=bottom;endArrow=open;endSize=8;strokeColor=#ff0000;rounded=0;exitX=0.336;exitY=0.523;exitDx=0;exitDy=0;exitPerimeter=0;entryX=0.677;entryY=-0.071;entryDx=0;entryDy=0;entryPerimeter=0;" edge="1" parent="1" target="_W-WZNdu4DOHJXc050we-16">
          <mxGeometry relative="1" as="geometry">
            <mxPoint x="646.53" y="560" as="targetPoint" />
            <mxPoint x="688.0596799999998" y="409.999" as="sourcePoint" />
            <Array as="points">
              <mxPoint x="688" y="411" />
              <mxPoint x="717" y="411" />
            </Array>
          </mxGeometry>
        </mxCell>
        <mxCell id="_W-WZNdu4DOHJXc050we-16" value="token sẽ có dạng &lt;code data-copier-init=&quot;true&quot;&gt;&quot;Bearer &amp;lt;token&amp;gt;&quot;&lt;/code&gt;,&lt;div&gt;&amp;nbsp;nên phần &quot;Bearer&quot; cần được bỏ đi để lấy ra token thực.&lt;/div&gt;" style="text;html=1;align=center;verticalAlign=middle;resizable=0;points=[];autosize=1;strokeColor=none;fillColor=none;" vertex="1" parent="1">
          <mxGeometry x="500" y="570" width="320" height="40" as="geometry" />
        </mxCell>
      </root>
    </mxGraphModel>
  </diagram>
</mxfile>
